<svg xmlns="http://www.w3.org/2000/svg" width="450" height="300" viewBox="0 0 119.0625 79.375002"><path d="M33.082 40.058l-9.44 16.349H79.898L70.49 40.11l.03-.053H51.642z" fill="#444546" paint-order="fill markers stroke"/><path fill="#525252" paint-order="fill markers stroke" d="M23.643 56.154h71.776v16.458H23.643z"/><path d="M43.344 69.084a7.198 7.198 0 0 1-3.44 9.539 7.198 7.198 0 0 1-9.565-3.363 7.198 7.198 0 0 1 3.287-9.592 7.198 7.198 0 0 1 9.618 3.21M89.919 68.7a7.198 7.198 0 0 1-3.44 9.539 7.198 7.198 0 0 1-9.565-3.363 7.198 7.198 0 0 1 3.287-9.592 7.198 7.198 0 0 1 9.618 3.21" fill="#5e6061" fill-rule="evenodd"/><path d="M43 40.11l6.93 12.005h27.445L70.467 40.15l.023-.04H56.628z" fill="#343435" paint-order="fill markers stroke"/></svg>