<svg xmlns="http://www.w3.org/2000/svg" width="106mm" height="102mm" viewBox="0 0 106 102"><path fill="#e02820" paint-order="fill markers stroke" d="M1.592 25.658h29.76V102H1.592z"/><path fill="#f1352f" paint-order="fill markers stroke" d="M30.906 3.781h26.152V102H30.906z"/><path fill="#ff413c" paint-order="fill markers stroke" d="M57.058 34.245h47.35V102h-47.35z"/><g fill="#ff6c66"><path d="M35.594 8.554h2.71v12.438h-2.71zm6.697 0h2.711v12.438h-2.71zm6.698 0h2.71v12.438h-2.71zM35.594 24.516h2.71v12.438h-2.71zm6.697 0h2.711v12.438h-2.71zm6.698 0h2.71v12.438h-2.71zM35.594 40.479h2.71v12.438h-2.71zm6.697 0h2.711v12.438h-2.71zm6.698 0h2.71v12.438h-2.71zM35.594 56.44h2.71v12.44h-2.71zm6.697 0h2.711v12.44h-2.71zm6.698 0h2.71v12.44h-2.71zM35.594 72.403h2.71v12.438h-2.71zm6.697 0h2.711v12.438h-2.71zm6.698 0h2.71v12.438h-2.71zM62.08 39.49h2.712v12.438H62.08zm6.794 0h2.71v12.438h-2.71zm6.793 0h2.711v12.438h-2.71zm6.793 0h2.711v12.438h-2.71zm6.794 0h2.71v12.438h-2.71zm6.793 0h2.71v12.438h-2.71zM62.08 55.915h2.712v12.438H62.08zm6.794 0h2.71v12.438h-2.71zm6.793 0h2.711v12.438h-2.71zm6.793 0h2.711v12.438h-2.71zm6.794 0h2.71v12.438h-2.71zm6.793 0h2.71v12.438h-2.71zM62.08 72.34h2.712v12.438H62.08zm6.794 0h2.71v12.438h-2.71zm6.793 0h2.711v12.438h-2.71zm6.793 0h2.711v12.438h-2.71zm6.794 0h2.71v12.438h-2.71zm6.793 0h2.71v12.438h-2.71zM5.933 29.779h2.711v12.438h-2.71zm6.587 0h2.71v12.438h-2.71zm6.585 0h2.711v12.438h-2.71zm6.586 0h2.711v12.438h-2.71zM5.933 50.987h2.711v12.439h-2.71zm6.587 0h2.71v12.439h-2.71zm6.585 0h2.711v12.439h-2.71zm6.586 0h2.711v12.439h-2.71zM5.933 72.196h2.711v12.438h-2.71zm6.587 0h2.71v12.438h-2.71zm6.585 0h2.711v12.438h-2.71zm6.586 0h2.711v12.438h-2.71z" paint-order="fill markers stroke"/></g></svg>