<svg xmlns="http://www.w3.org/2000/svg" width="106mm" height="123mm" viewBox="0 0 106 123"><path d="M53.597 45.846a35.399 35.399 0 0 0-17.133 3.64 35.399 35.399 0 0 0-18.199 21.616H3.755v22.395h15.244a35.399 35.399 0 0 0 1.304 3.158 35.399 35.399 0 0 0 6.718 9.434h-.157L28.274 123h3.576l.789-12.3a35.399 35.399 0 0 0 7.213 3.663l.72 8.637h3.577l.462-7.207a35.399 35.399 0 0 0 13.919.242l.58 6.965h3.578l.525-8.2a35.399 35.399 0 0 0 4.129-1.608 35.399 35.399 0 0 0 2.866-1.542l.946 11.35h3.578l.986-15.395a35.399 35.399 0 0 0 11.808-26.15c1.583-.794 3.583-1.71 5.507-2.334.096-.03.174-.033.269-.062a9.529 9.529 0 0 0 .954 2.896c.91 1.715 2.16 3.097 4.056 3.306.948.104 2.06-.306 2.731-1.074.672-.769.987-1.738 1.125-2.872.186-1.524.048-2.866-.556-3.986-.603-1.12-1.685-1.867-2.784-2.184a7.195 7.195 0 0 0-1.698-.268c.47-1.27 1.221-2.588 2.741-3.913l-2.283-2.619c-2.547 2.22-3.83 4.74-4.259 7.135-.457.125-.911.188-1.368.337-1.61.522-3.21 1.197-4.619 1.856a35.399 35.399 0 0 0-3.088-11.386l-.494-1.018a35.399 35.399 0 0 0-30.163-19.423zm-.888 3.05c4.442.028 9.43.943 14.438 3.604v1.444c-15.197-7.662-30.341 0-30.341 0V52.5s6.807-3.661 15.903-3.604zM35.471 66.047a2.71 2.71 0 0 1 2.308 1.487l.038.078a2.71 2.71 0 0 1-1.294 3.589 2.71 2.71 0 0 1-3.6-1.265 2.71 2.71 0 0 1 1.237-3.61 2.71 2.71 0 0 1 1.31-.279zm61.864 12.398c.212-.005.402 0 .53.038.42.121.545.226.69.495.144.268.294.851.164 1.916-.064.53-.16.649-.223.767-.223-.15-.731-.504-1.172-1.334a6.625 6.625 0 0 1-.65-1.856c.214-.005.448-.021.66-.026z" fill="#444" fill-rule="evenodd"/><g fill="#444" fill-rule="evenodd"><path d="M65.99 18.117a13.537 13.537 0 0 1-6.468 17.937 13.537 13.537 0 0 1-17.988-6.324 13.537 13.537 0 0 1 6.18-18.038A13.537 13.537 0 0 1 65.8 17.728" fill="#ea3031"/><path d="M64.559 17.402a13.537 13.537 0 0 1-6.467 17.937 13.537 13.537 0 0 1-17.989-6.324 13.537 13.537 0 0 1 6.18-18.038 13.537 13.537 0 0 1 18.087 6.036" fill="#ff413c"/></g><g stroke="#bf1f1f"><text y="57.389" x="109.676" style="line-height:1.25;-inkscape-font-specification:'Josefin Sans'" font-weight="400" font-size="22.471" font-family="Josefin Sans" letter-spacing="0" word-spacing="0" stroke-width="2.287" transform="translate(-26.153 -9.921) scale(.67574)"><tspan style="-inkscape-font-specification:Raleway" y="57.389" x="109.676" font-family="Raleway">P</tspan></text><path d="M44.444 21.434h17.112" fill="none" stroke-width="1.43054158"/></g></svg>