<svg xmlns="http://www.w3.org/2000/svg" width="550" height="241" viewBox="0 0 145.52063 63.764588"><path d="M42.778 31.973h90.095v27.806H42.778z" fill="#ff413c" paint-order="fill markers stroke"/><path d="M39.904 59.039h95.842v2.595H39.904zm0-28.309h95.842v2.595H39.904z" fill="#ff6f65" paint-order="fill markers stroke"/><path d="M69.241 28.811h36.987v29.56H69.241z" fill="#e12b28" paint-order="fill markers stroke"/><path d="M67.062 30.253h4.45v28.118h-4.45zm12.36 0h4.448v28.118h-4.449zm12.358 0h4.45v28.118h-4.45zm12.36 0h4.447v28.118h-4.448z" fill="#ff4f49" paint-order="fill markers stroke"/><path d="M66.043 56.792h6.488v1.854h-6.488zm12.36 0h6.487v1.854h-6.488zm12.357 0h6.488v1.854H90.76zm12.36 0h6.487v1.854h-6.488z" fill="#ff413c" paint-order="fill markers stroke"/><path d="M63.508 58.174h48.57v1.476h-48.57z" fill="#ff413c" paint-order="fill markers stroke"/><path d="M62.243 59.544h51.163v1.476H62.243z" fill="#ff4f49" paint-order="fill markers stroke"/><path d="M60.574 60.94h54.502v1.476H60.574z" fill="#ff6f65" paint-order="fill markers stroke"/><path d="M66.043 29.008h6.488v1.854h-6.488zm12.36 0h6.487v1.854h-6.488zm12.357 0h6.488v1.854H90.76zm12.36 0h6.487v1.854h-6.488z" fill="#ff413c" paint-order="fill markers stroke"/><path d="M107.69 26.5H68.734L88.212 8.231z" fill="#ff4f49" paint-order="fill markers stroke"/><path d="M102.316 24.797H74.107L88.212 11.57z" fill="#e12b28" paint-order="fill markers stroke"/><path d="M64.19 26.304h47.642v2.78H64.19z" fill="#ff6f65" paint-order="fill markers stroke"/><g fill="#ff4f49"><path d="M88.205 3.06h-2.72v.47h-2.197l.802 1.389-.85 1.471h3.762l-.554-.554h1.73z"/><path d="M87.935 2.52h.613v6.813h-.613z" paint-order="fill markers stroke"/></g><path d="M50.064 35.105h1.967v9.7h-1.967zm-5.007 0h1.966v9.7h-1.966zm10.224 0h1.967v9.7h-1.967zm5.113 0h1.966v9.7h-1.966zM45.057 47.558h1.966v9.7h-1.966zm5.113 0h1.966v9.7H50.17zm5.111 0h1.967v9.7h-1.967zm5.113 0h1.966v9.7h-1.966zM113.221 35.105h1.966v9.7h-1.966zm5.112 0h1.967v9.7h-1.967zm5.112 0h1.966v9.7h-1.965zm5.113 0h1.966v9.7h-1.966zm-15.337 12.453h1.966v9.7h-1.966zm5.112 0h1.967v9.7h-1.967zm5.112 0h1.966v9.7h-1.965zm5.113 0h1.966v9.7h-1.966z" fill="#e12b28" paint-order="fill markers stroke"/><path d="M13.226 46.587L8.89 52.192l4.547 2.327-1.48 4.442" fill="none" stroke="#ff413c" stroke-width="1.37725728" stroke-linecap="round" stroke-linejoin="round"/><path d="M16.403 43.747a2.22 2.22 0 0 1-1.061 2.942 2.22 2.22 0 0 1-2.951-1.037 2.22 2.22 0 0 1 1.013-2.96 2.22 2.22 0 0 1 2.968.99" fill="#ff413c" fill-rule="evenodd"/><path d="M12.38 47.433l2.115 3.067 4.019-.106" fill="none" stroke="#ff413c" stroke-width="1.0251931200000002" stroke-linecap="round" stroke-linejoin="round"/><path d="M9.452 55.714a4.177 4.177 0 0 1-1.996 5.535 4.177 4.177 0 0 1-5.551-1.951 4.177 4.177 0 0 1 1.907-5.567 4.177 4.177 0 0 1 5.582 1.863M23.412 55.714a4.177 4.177 0 0 1-1.996 5.535 4.177 4.177 0 0 1-5.551-1.951 4.177 4.177 0 0 1 1.907-5.567 4.177 4.177 0 0 1 5.582 1.863" fill="none" stroke="#ff413c" stroke-width="1.1126556" stroke-linecap="square"/></svg>