<?xml version="1.0" encoding="utf-8"?>
<!-- Generator: Adobe Illustrator 19.2.0, SVG Export Plug-In . SVG Version: 6.00 Build 0)  -->
<svg version="1.1" id="Calque_1" xmlns="http://www.w3.org/2000/svg" xmlns:xlink="http://www.w3.org/1999/xlink" x="0px" y="0px"
	 viewBox="0 0 1200 262.6" style="enable-background:new 0 0 1200 262.6;" xml:space="preserve">
<style type="text/css">
	.st0{fill:#218CE0;}
	.st1{fill:#A5C330;}
	.st2{fill:#5C4130;}
	.st3{fill:#AFCD3A;}
	.st4{fill:#E74424;}
	.st5{fill:#414042;}
	.st6{fill:#373739;}
	.st7{fill:#DBB28D;}
	.st8{fill:#F3DBBD;}
	.st9{fill:#663703;}
	.st10{fill:#8F5104;}
	.st11{fill:#0F3041;}
	.st12{fill:#081928;}
	.st13{fill:#FFF5E1;}
	.st14{fill:#910000;}
	.st15{fill:#560A0A;}
	.st16{fill:#664B3A;}
	.st17{fill:#CE9034;}
	.st18{fill:#FDBE31;}
	.st19{fill:#042636;}
	.st20{clip-path:url(#SVGID_2_);}
	.st21{fill:none;stroke:#C67F00;stroke-width:2;stroke-miterlimit:10;}
	.st22{fill:#906E15;}
	.st23{fill:none;stroke:#C67F00;stroke-width:3;stroke-miterlimit:10;}
	.st24{fill:#CE6225;}
	.st25{fill:#9B3807;}
	.st26{fill:#770606;}
	.st27{fill:#843923;}
	.st28{fill:#49170B;}
	.st29{fill:#FFFFFF;}
	.st30{fill:#F68E21;}
	.st31{fill:none;stroke:#D36400;stroke-width:2;stroke-miterlimit:10;}
	.st32{fill:none;stroke:#D36400;stroke-width:3;stroke-miterlimit:10;}
	.st33{fill:#F26C2F;}
	.st34{fill:#8D3B11;}
	.st35{fill:none;stroke:#D84207;stroke-width:2;stroke-miterlimit:10;}
	.st36{fill:#DBC7AC;}
	.st37{clip-path:url(#SVGID_4_);}
	.st38{fill:none;}
	.st39{fill:#804F2A;}
	.st40{fill:#FF7845;}
</style>
<rect x="1006.9" y="146.1" class="st0" width="5.5" height="56.8"/>
<g>
	<path class="st1" d="M883.9,212.4c-13,0.8-25.9-10.1-33.1-19.4c-4.4-5.7-6.9-12-7.9-18.8c-0.3-1.9-2.2-7.4,0.6-8.2
		c1.6-0.5,5.2,3.9,7,4.3c2.4-7.4-2.9-15.4-2.5-23c0.3-5.7,3.6-18.2,8.3-21.8c0.6,2.1,0.8,4.5,1.6,6.7c4.4-4.1,3.6-15.5,5.7-21.2
		c2.5-6.6,8.1-20.3,14.3-24.4c13.5-9,22.3,25.7,27.5,32.6c3.9-2.2,2.3-7.9,2.5-11.8c5.5-0.2,10.5,13.8,11.8,18.5
		c1.3,5.2-0.3,21.1,2.5,24c0.8-1.4,2.4-2.5,2.7-4.4c14.7,9.5,9.2,34.7,1.3,46.4c-9.3,13.7-22.8,20.7-39.8,20.6h-2.6V212.4z"/>
	<path class="st2" d="M885.9,216.1c2.8,7.1-1,18.2-1.7,25.5c-0.8,7.6-2.4,15-1.9,22.6c5.8,0.9,12.4-1,18.4-1.1
		c-4.4-11.5-3.9-23.6-5-35.6c-0.2-2.6-1.7-6.3-1-8.9c1-3.1,4.1-3.8,6.4-6.3c2.9-3.1,7.2-10.3,6.6-14.6c-2.9,0.6-4.4,5.4-6.8,5.8
		c-4.5,0.8-1.5-5.5-0.8-8c1.1-4.3,5.6-15,1.2-18.4c-3.2,2.7-3.4,9.6-4.4,13.6c-1.2-1.5-1.2-3.9-3.1-5.3c-1.7,1.6,4.5,23.9-5.4,19.6
		c-6.4-2.7-6.3-20.9-15.1-19.5c0,2.5,2.4,2.8,2.1,5.5c-1.6-0.5-3.7,0-5.3-0.3c0.1,3.1,2.5,1.9,4.4,3.5c1.8,1.5,3,3.2,4.2,5.4
		c2.1,3.4,5.2,8.1,4.9,12c-5,0.8-9.3-6.1-14.5-6.2C866.8,213.4,881.4,214.5,885.9,216.1L885.9,216.1z"/>
</g>
<g>
	<path class="st1" d="M607.1,146c-13.6,0.8-27.3-9.3-34.8-18c-4.7-5.3-7.2-11.1-8.3-17.4c-0.3-1.7-2.3-6.8,0.6-7.6
		c1.7-0.4,5.4,3.6,7.5,4c2.5-6.8-3.1-14.3-2.7-21.4c0.3-5.3,3.8-16.9,8.8-20.2c0.8,1.9,0.8,4.2,1.7,6.2c4.8-3.8,3.7-14.4,6.1-19.6
		c2.7-6.1,8.7-18.8,15.1-22.7c14.3-8.3,23.6,23.8,29,30.2c4.1-2.1,2.5-7.2,2.7-10.9c5.7-0.2,11.1,12.9,12.4,17.2
		c1.4,4.8-0.3,19.6,2.6,22.2c0.8-1.3,2.6-2.3,2.9-4.1c15.5,8.9,9.7,32.1,1.4,42.9c-9.7,12.8-24.1,19.1-42.1,19h-2.9V146z"/>
	<path class="st2" d="M609.2,149.4c2.9,6.6-1,16.8-1.8,23.7c-0.9,6.9-2.5,14-2.1,20.9c6.2,0.9,13.1-0.9,19.4-1
		c-4.7-10.7-4.1-21.8-5.2-32.9c-0.2-2.4-1.8-5.8-1-8.2c1-2.9,4.3-3.6,6.8-5.8c3.1-2.9,7.7-9.5,6.9-13.5c-3,0.6-4.8,5-7.2,5.4
		c-4.8,0.8-1.5-5.1-0.9-7.4c1.2-4,5.9-14,1.3-17c-3.4,2.5-3.6,8.9-4.8,12.7c-1.2-1.4-1.2-3.6-3.4-4.9c-1.8,1.5,4.9,22.1-5.7,18.2
		c-6.7-2.5-6.6-19.4-16-18c0,2.4,2.6,2.6,2.2,5.1c-1.7-0.5-3.8,0-5.6-0.2c0.1,2.9,2.7,1.7,4.7,3.2c1.9,1.4,3.1,3,4.4,5
		c2.2,3.1,5.4,7.5,5.1,11c-5.2,0.8-9.8-5.5-15.4-5.6C589,146.9,604.4,147.9,609.2,149.4L609.2,149.4z"/>
</g>
<g>
	<path class="st3" d="M394.6,246.4c0-5.7-4.7-10.4-10.4-10.4c0,0,0,0-0.1,0c0-0.3,0.1-0.6,0.1-1.1c0-4.7-3.8-8.5-8.5-8.5
		c-3.1,0-5.8,1.7-7.4,4.2c-1.2-1.7-3.2-2.9-5.5-2.9c-3,0-5.6,2.1-6.5,4.9c-1.4-0.6-2.9-1.1-4.7-1.1c-5.7,0-10.4,4.7-10.4,10.4
		c0,3.5,1.7,6.6,4.3,8.4c-2.6,1-4.3,3.5-4.3,6.3c0,3.7,3,6.7,6.7,6.7h39.2c3.7,0,6.7-3,6.7-6.7c0-1.6-0.5-3-1.5-4.2
		C393.9,250.8,394.6,248.7,394.6,246.4z"/>
	<g>
		<circle class="st4" cx="379.6" cy="248.5" r="1.4"/>
		<circle class="st4" cx="359.4" cy="238.3" r="1.4"/>
		<circle class="st4" cx="348.7" cy="242.6" r="1.4"/>
		<circle class="st4" cx="351.8" cy="253.9" r="1.4"/>
		<circle class="st4" cx="361.6" cy="259.7" r="1.4"/>
		<circle class="st4" cx="364.4" cy="249.4" r="1.4"/>
		<circle class="st4" cx="369.4" cy="239.3" r="1.4"/>
		<circle class="st4" cx="376.3" cy="233.2" r="1.4"/>
		<circle class="st4" cx="387.1" cy="242.1" r="1.4"/>
		<circle class="st4" cx="386.4" cy="258.6" r="1.4"/>
		<circle class="st4" cx="373.7" cy="254.8" r="1.4"/>
	</g>
</g>
<g>
	<rect x="923.8" y="240.5" class="st5" width="2.6" height="23.9"/>
	<rect x="923" y="240.2" class="st6" width="4.1" height="3.4"/>
</g>
<g>
	<polygon class="st7" points="326.8,263.4 185.5,263.4 185.5,129.7 255.4,32.3 326.8,129.7 	"/>
	<g>
		<g>
			<rect x="185.5" y="129.7" class="st8" width="6.3" height="11.8"/>
			<rect x="185.5" y="143.2" class="st8" width="10.7" height="11.8"/>
		</g>
		<g>
			<rect x="185.5" y="156.8" class="st8" width="6.3" height="11.8"/>
			<rect x="185.5" y="170.3" class="st8" width="10.7" height="11.8"/>
		</g>
		<g>
			<rect x="185.5" y="197.4" class="st8" width="10.7" height="11.8"/>
		</g>
		<g>
			<rect x="185.5" y="211" class="st8" width="6.3" height="11.8"/>
			<rect x="185.5" y="224.6" class="st8" width="10.7" height="11.8"/>
		</g>
		<g>
			<rect x="185.5" y="238.1" class="st8" width="6.3" height="11.8"/>
		</g>
	</g>
	<g>
		<g>
			<rect x="320.6" y="129.7" class="st8" width="6.3" height="11.8"/>
			<rect x="316.1" y="143.2" class="st8" width="10.7" height="11.8"/>
		</g>
		<g>
			<rect x="320.6" y="156.8" class="st8" width="6.3" height="11.8"/>
			<rect x="316.1" y="170.3" class="st8" width="10.7" height="11.8"/>
		</g>
		<g>
			<rect x="320.6" y="183.9" class="st8" width="6.3" height="11.8"/>
			<rect x="316.1" y="197.4" class="st8" width="10.7" height="11.8"/>
		</g>
		<g>
			<rect x="320.6" y="211" class="st8" width="6.3" height="11.8"/>
			<rect x="316.1" y="224.6" class="st8" width="10.7" height="11.8"/>
		</g>
		<g>
			<rect x="320.6" y="238.1" class="st8" width="6.3" height="11.8"/>
		</g>
	</g>
	<polyline class="st8" points="185.5,263.4 185.5,251.3 326.8,251.3 326.8,263.4 	"/>
	<rect x="200.8" y="90.2" class="st9" width="4" height="161.1"/>
	<rect x="219.8" y="77.8" class="st9" width="4" height="173.5"/>
	<rect x="240" y="51.7" class="st9" width="4" height="199.6"/>
	<rect x="264.3" y="36.3" class="st9" width="4" height="214.9"/>
	<rect x="286.2" y="68.6" class="st9" width="4" height="182.7"/>
	<rect x="310.1" y="89.8" class="st9" width="4" height="161.1"/>
	<path class="st10" d="M266.3,84.8c-0.1-4.9-4.1-8.8-9-8.8c-4.9,0-8.9,3.9-9,8.8l0,0v15.1h18V84.8L266.3,84.8z"/>
	<g>
		<g>
			<path class="st10" d="M229.2,139.9c-0.1-4.9-4.1-8.8-9-8.8c-4.9,0-8.9,3.9-9,8.8l0,0V167h18.1L229.2,139.9L229.2,139.9z"/>
			<path class="st10" d="M308.1,138.7c-0.1-4.9-4.1-8.8-9-8.8s-8.9,3.9-9,8.8l0,0v27.1h18.1L308.1,138.7L308.1,138.7z"/>
			<g>
				<path class="st10" d="M306.8,212c-0.1-4.9-4.1-8.8-9-8.8s-8.9,3.9-9,8.8l0,0v27.1h18.1L306.8,212L306.8,212z"/>
				<path class="st10" d="M280.2,212c-0.1-4.9-4.1-8.8-9-8.8c-4.9,0-8.9,3.9-9,8.8l0,0v27.1h18.1L280.2,212L280.2,212z"/>
				<path class="st10" d="M253.6,212c-0.1-4.9-4.1-8.8-9-8.8s-8.9,3.9-9,8.8l0,0v27.1h18.1L253.6,212L253.6,212z"/>
				<path class="st10" d="M227.1,212c-0.1-4.9-4.1-8.8-9-8.8c-4.9,0-8.9,3.9-9,8.8l0,0v27.1h18.1L227.1,212L227.1,212z"/>
			</g>
			<path class="st10" d="M272.5,143c-0.2-7.2-8.1-13.1-15.5-13.1c-7.4,0-14.7,5.8-14.9,13.1l0,0v40.6h30.5L272.5,143L272.5,143z"/>
		</g>
	</g>
	<g>
		<g>
			<g>
				<g>
					<rect x="304.5" y="161.3" class="st8" width="2.8" height="22"/>
					<rect x="298.5" y="161.3" class="st8" width="1.8" height="22"/>
					<rect x="292.4" y="161.3" class="st8" width="1.8" height="22"/>
					<rect x="286.4" y="161.3" class="st8" width="1.8" height="22"/>
					<rect x="280.3" y="161.3" class="st8" width="1.8" height="22"/>
					<rect x="274.4" y="161.3" class="st8" width="1.8" height="22"/>
					<rect x="268.3" y="161.3" class="st8" width="1.8" height="22"/>
					<rect x="262.3" y="161.3" class="st8" width="1.8" height="22"/>
					<rect x="256.2" y="161.3" class="st8" width="1.8" height="22"/>
					<rect x="250.1" y="161.3" class="st8" width="1.8" height="22"/>
					<rect x="244.1" y="161.3" class="st8" width="1.8" height="22"/>
					<rect x="238.1" y="161.3" class="st8" width="1.8" height="22"/>
					<rect x="232.1" y="161.3" class="st8" width="1.8" height="22"/>
					<rect x="226" y="161.3" class="st8" width="1.8" height="22"/>
					<rect x="220" y="161.3" class="st8" width="1.8" height="22"/>
					<rect x="213.9" y="161.3" class="st8" width="1.8" height="22"/>
					<rect x="206.9" y="161.3" class="st8" width="2.8" height="22"/>
				</g>
			</g>
			<g>
				<rect x="203.9" y="182" class="st8" width="106.5" height="3.6"/>
			</g>
			<g>
				<rect x="203.9" y="160.8" class="st8" width="106.5" height="1.8"/>
			</g>
		</g>
	</g>
	<rect x="185.5" y="183.9" class="st11" width="141.4" height="11.8"/>
	<polygon class="st11" points="181.1,135.5 159.2,135.5 256.4,9.9 353.2,135.5 331,135.6 255.9,36.7 	"/>
</g>
<g>
	<rect x="314.8" y="239.9" class="st5" width="2.6" height="23.9"/>
	<rect x="314.1" y="239.7" class="st6" width="4.1" height="3.4"/>
</g>
<g>
	<path class="st1" d="M1050.4,213.2c-13,0.8-25.9-10.1-33.1-19.4c-4.4-5.7-6.9-12-7.9-18.8c-0.3-1.9-2.2-7.4,0.6-8.2
		c1.6-0.5,5.2,3.9,7,4.3c2.4-7.4-2.9-15.4-2.5-23c0.3-5.7,3.6-18.2,8.3-21.8c0.6,2.1,0.8,4.5,1.6,6.7c4.4-4.1,3.6-15.5,5.7-21.2
		c2.5-6.6,8.1-20.3,14.3-24.4c13.5-9,22.3,25.7,27.5,32.6c3.9-2.2,2.3-7.9,2.5-11.8c5.5-0.2,10.5,13.8,11.8,18.5
		c1.3,5.2-0.3,21.1,2.5,24c0.8-1.4,2.4-2.5,2.7-4.4c14.7,9.5,9.2,34.7,1.3,46.4c-9.3,13.7-22.8,20.7-39.8,20.6h-2.6V213.2z"/>
	<path class="st2" d="M1052.5,216.8c2.8,7.1-1,18.2-1.7,25.5c-0.8,7.6-2.4,15-1.9,22.6c5.8,0.9,12.4-1,18.4-1.1
		c-4.4-11.5-3.9-23.6-5-35.6c-0.2-2.6-1.7-6.3-1-8.9c1-3.1,4.1-3.8,6.4-6.3c2.9-3.1,7.2-10.3,6.6-14.6c-2.9,0.6-4.4,5.4-6.8,5.8
		c-4.5,0.8-1.5-5.5-0.8-8c1.1-4.3,5.6-15,1.2-18.4c-3.2,2.7-3.4,9.6-4.4,13.6c-1.2-1.5-1.2-3.9-3.1-5.3c-1.7,1.6,4.5,23.9-5.4,19.6
		c-6.4-2.7-6.3-20.9-15.1-19.5c0,2.5,2.4,2.8,2.1,5.5c-1.6-0.5-3.7,0-5.3-0.3c0.1,3.1,2.5,1.9,4.4,3.5c1.8,1.5,3,3.2,4.2,5.4
		c2.1,3.4,5.2,8.1,4.9,12c-5,0.8-9.3-6.1-14.5-6.2C1033.2,214.1,1047.9,215.1,1052.5,216.8L1052.5,216.8z"/>
</g>
<g>
	<rect x="1015.1" y="91.9" class="st12" width="14.3" height="36.7"/>
	<polygon class="st13" points="1042.6,262.6 938.3,262.6 938.3,163.9 989.9,91.9 1042.6,163.9 	"/>
	<rect x="938.3" y="203.2" class="st8" width="104.4" height="1.9"/>
	<rect x="955.8" y="128.7" class="st14" width="4" height="101.7"/>
	<rect x="976.7" y="108.6" class="st14" width="4" height="146"/>
	<rect x="999.1" y="99.5" class="st14" width="4" height="163.1"/>
	<rect x="1019.1" y="125.9" class="st14" width="4" height="136.6"/>
	<rect x="952.3" y="127.8" class="st14" width="76.3" height="4"/>
	<rect x="936.6" y="159.4" class="st14" width="105.9" height="4"/>
	<rect x="938.3" y="187.8" class="st14" width="104.3" height="4"/>
	<rect x="938.3" y="220.6" class="st14" width="104.3" height="4"/>
	<rect x="938.4" y="247.2" class="st14" width="104.3" height="4"/>
	
		<rect x="984.6" y="128.3" transform="matrix(0.9063 -0.4226 0.4226 0.9063 30.8524 430.3278)" class="st14" width="2.7" height="34.6"/>
	
		<rect x="989.6" y="100" transform="matrix(0.9063 -0.4226 0.4226 0.9063 39.5567 430.5994)" class="st14" width="2.7" height="52.2"/>
	
		<rect x="993.2" y="90.8" transform="matrix(0.9063 -0.4226 0.4226 0.9063 47.4935 430.4234)" class="st14" width="2.7" height="34.6"/>
	
		<rect x="1007.2" y="129.8" transform="matrix(0.9063 -0.4226 0.4226 0.9063 32.3118 439.9879)" class="st14" width="2.7" height="34.6"/>
	
		<rect x="1014.7" y="127.5" transform="matrix(0.9063 -0.4226 0.4226 0.9063 35.6934 442.5835)" class="st14" width="2.7" height="26.5"/>
	
		<rect x="946.3" y="160.4" transform="matrix(0.9063 -0.4226 0.4226 0.9063 10.452 417.8391)" class="st14" width="2.7" height="49.9"/>
	<rect x="967.7" y="157" transform="matrix(0.9063 -0.4226 0.4226 0.9063 3.9605 428.76)" class="st14" width="2.7" height="96.8"/>
	
		<rect x="980.2" y="158" transform="matrix(0.9063 -0.4226 0.4226 0.9063 5.9169 433.8889)" class="st14" width="2.7" height="91.3"/>
	
		<rect x="992.1" y="122.7" transform="matrix(0.9063 -0.4226 0.4226 0.9063 13.4691 437.487)" class="st14" width="2.7" height="131.4"/>
	
		<rect x="1022.4" y="157" transform="matrix(0.9063 -0.4226 0.4226 0.9063 9.2921 451.8395)" class="st14" width="2.7" height="95.8"/>
	
		<rect x="1032.6" y="158.5" transform="matrix(0.9063 -0.4226 0.4226 0.9063 19.038 454.2011)" class="st14" width="2.7" height="51.4"/>
	
		<rect x="950.6" y="186.4" transform="matrix(0.9063 -0.4226 0.4226 0.9063 -3.6921 422.8915)" class="st14" width="2.7" height="66.8"/>
	
		<rect x="944" y="221.9" transform="matrix(0.9063 -0.4226 0.4226 0.9063 -11.2986 421.6375)" class="st14" width="2.7" height="28.9"/>
	
		<rect x="962.4" y="138.1" transform="matrix(0.9063 -0.4226 0.4226 0.9063 26.8234 421.3475)" class="st14" width="2.7" height="24.1"/>
	<rect x="938.3" y="251.2" class="st8" width="104.4" height="11.4"/>
	<g>
		<rect x="993.6" y="215.4" class="st15" width="14.9" height="25.9"/>
		<rect x="1014.7" y="215.4" class="st15" width="14.9" height="25.9"/>
	</g>
	<g>
		<g>
			<path class="st16" d="M944.4,207.9c0,1.7-1.4,3.1-3,3.1c-1.7,0-3-1.4-3-3.1c0-0.5,0-3.5,0-3.5h6.2
				C944.4,204.4,944.4,206.2,944.4,207.9z"/>
			<path class="st17" d="M950.6,207.9c0,1.7-1.4,3.1-3,3.1c-1.6,0-3-1.4-3-3.1c0-0.5,0-3.5,0-3.5h6.2
				C950.6,204.4,950.6,206.2,950.6,207.9z"/>
		</g>
		<g>
			<path class="st16" d="M956.7,207.9c0,1.7-1.4,3.1-3,3.1c-1.7,0-3-1.4-3-3.1c0-0.5,0-3.5,0-3.5h6.2
				C956.7,204.4,956.7,206.2,956.7,207.9z"/>
			<path class="st17" d="M962.8,207.9c0,1.7-1.4,3.1-3,3.1c-1.7,0-3-1.4-3-3.1c0-0.5,0-3.5,0-3.5h6.2
				C962.8,204.4,962.8,206.2,962.8,207.9z"/>
		</g>
		<g>
			<path class="st16" d="M969,207.9c0,1.7-1.4,3.1-3,3.1c-1.7,0-3-1.4-3-3.1c0-0.5,0-3.5,0-3.5h6.2C969,204.4,969,206.2,969,207.9z"
				/>
			<path class="st17" d="M975.1,207.9c0,1.7-1.4,3.1-3,3.1c-1.7,0-3-1.4-3-3.1c0-0.5,0-3.5,0-3.5h6.2
				C975.1,204.4,975.1,206.2,975.1,207.9z"/>
		</g>
		<g>
			<path class="st16" d="M981.2,207.9c0,1.7-1.4,3.1-3,3.1c-1.7,0-3-1.4-3-3.1c0-0.5,0-3.5,0-3.5h6.2
				C981.2,204.4,981.2,206.2,981.2,207.9z"/>
			<path class="st17" d="M987.4,207.9c0,1.7-1.4,3.1-3,3.1c-1.7,0-3-1.4-3-3.1c0-0.5,0-3.5,0-3.5h6.2
				C987.4,204.4,987.4,206.2,987.4,207.9z"/>
		</g>
		<g>
			<path class="st16" d="M993.5,207.9c0,1.7-1.4,3.1-3,3.1c-1.7,0-3-1.4-3-3.1c0-0.5,0-3.5,0-3.5h6.2
				C993.5,204.4,993.5,206.2,993.5,207.9z"/>
			<path class="st17" d="M999.7,207.9c0,1.7-1.4,3.1-3,3.1c-1.7,0-3-1.4-3-3.1c0-0.5,0-3.5,0-3.5h6.2
				C999.7,204.4,999.7,206.2,999.7,207.9z"/>
		</g>
		<g>
			<path class="st16" d="M1005.9,207.9c0,1.7-1.4,3.1-3,3.1c-1.7,0-3-1.4-3-3.1c0-0.5,0-3.5,0-3.5h6.2
				C1005.9,204.4,1005.9,206.2,1005.9,207.9z"/>
			<path class="st17" d="M1011.9,207.9c0,1.7-1.4,3.1-3,3.1c-1.7,0-3-1.4-3-3.1c0-0.5,0-3.5,0-3.5h6.2
				C1011.9,204.4,1011.9,206.2,1011.9,207.9z"/>
		</g>
		<g>
			<path class="st16" d="M1018.1,207.9c0,1.7-1.4,3.1-3,3.1c-1.7,0-3-1.4-3-3.1c0-0.5,0-3.5,0-3.5h6.2
				C1018.1,204.4,1018.1,206.2,1018.1,207.9z"/>
			<path class="st17" d="M1024.3,207.9c0,1.7-1.4,3.1-3,3.1c-1.7,0-3-1.4-3-3.1c0-0.5,0-3.5,0-3.5h6.2
				C1024.3,204.4,1024.3,206.2,1024.3,207.9z"/>
		</g>
		<g>
			<path class="st16" d="M1030.4,207.9c0,1.7-1.4,3.1-3,3.1c-1.7,0-3-1.4-3-3.1c0-0.5,0-3.5,0-3.5h6.2
				C1030.4,204.4,1030.4,206.2,1030.4,207.9z"/>
			<path class="st17" d="M1036.6,207.9c0,1.7-1.4,3.1-3,3.1c-1.7,0-3-1.4-3-3.1c0-0.5,0-3.5,0-3.5h6.2
				C1036.6,204.4,1036.6,206.2,1036.6,207.9z"/>
		</g>
		<g>
			<path class="st16" d="M1042.6,207.9c0,1.7-1.4,3.1-3,3.1c-1.7,0-3-1.4-3-3.1c0-0.5,0-3.5,0-3.5h6.2
				C1042.6,204.4,1042.6,206.2,1042.6,207.9z"/>
		</g>
	</g>
	<g>
		<g>
			<rect x="952" y="170.3" class="st15" width="14.9" height="25.9"/>
			<rect x="973.1" y="170.3" class="st15" width="14.9" height="25.9"/>
			<rect x="994.3" y="170.3" class="st15" width="14.9" height="25.9"/>
			<rect x="1015.4" y="170.3" class="st15" width="14.9" height="25.9"/>
		</g>
	</g>
	<path class="st11" d="M982,229.9c0-8-6.5-14.5-14.5-14.5s-14.5,6.5-14.5,14.5v32.7h29L982,229.9L982,229.9z"/>
	<circle class="st15" cx="989.5" cy="136.1" r="8.3"/>
	<polygon class="st11" points="931.2,176.4 912.3,176.4 990.6,75.3 1068.7,176.4 1049.6,176.5 990.3,98.4 	"/>
</g>
<g>
	<rect x="1111.4" y="26" class="st12" width="20.9" height="39.4"/>
	<rect x="1072.6" y="110.5" class="st18" width="119" height="152.5"/>
	<rect x="1072.6" y="244.3" class="st8" width="119" height="18.7"/>
	<g>
		<rect x="1072.6" y="50.1" class="st19" width="119" height="64.2"/>
		<g>
			<g>
				<defs>
					<rect id="SVGID_1_" x="1072.6" y="50.1" width="119" height="64.2"/>
				</defs>
				<clipPath id="SVGID_2_">
					<use xlink:href="#SVGID_1_"  style="overflow:visible;"/>
				</clipPath>
				<g class="st20">
					<g>
						<ellipse class="st12" cx="1085.4" cy="53.3" rx="4.2" ry="4.2"/>
						<ellipse class="st12" cx="1085.4" cy="65.3" rx="4.2" ry="4.2"/>
						<ellipse class="st12" cx="1085.4" cy="78.4" rx="4.2" ry="4.2"/>
						<ellipse class="st12" cx="1085.4" cy="90.4" rx="4.2" ry="4.2"/>
						<ellipse class="st12" cx="1085.4" cy="103.5" rx="4.2" ry="4.2"/>
						<ellipse class="st12" cx="1085.4" cy="115.5" rx="4.2" ry="4.2"/>
					</g>
					<g>
						<ellipse class="st12" cx="1093.9" cy="59.3" rx="4.2" ry="4.2"/>
						<ellipse class="st12" cx="1093.9" cy="71.3" rx="4.2" ry="4.2"/>
						<ellipse class="st12" cx="1093.9" cy="84.4" rx="4.2" ry="4.2"/>
						<ellipse class="st12" cx="1093.9" cy="96.4" rx="4.2" ry="4.2"/>
						<ellipse class="st12" cx="1093.9" cy="109.6" rx="4.2" ry="4.2"/>
						<ellipse class="st12" cx="1093.9" cy="121.5" rx="4.2" ry="4.2"/>
					</g>
					<g>
						<ellipse class="st12" cx="1102.3" cy="53.3" rx="4.2" ry="4.2"/>
						<ellipse class="st12" cx="1102.3" cy="65.3" rx="4.2" ry="4.2"/>
						<ellipse class="st12" cx="1102.3" cy="78.4" rx="4.2" ry="4.2"/>
						<ellipse class="st12" cx="1102.3" cy="90.4" rx="4.2" ry="4.2"/>
						<ellipse class="st12" cx="1102.3" cy="103.5" rx="4.2" ry="4.2"/>
						<ellipse class="st12" cx="1102.3" cy="115.5" rx="4.2" ry="4.2"/>
					</g>
					<g>
						<ellipse class="st12" cx="1110.9" cy="59.3" rx="4.2" ry="4.2"/>
						<ellipse class="st12" cx="1110.9" cy="71.3" rx="4.2" ry="4.2"/>
						<ellipse class="st12" cx="1110.9" cy="84.4" rx="4.2" ry="4.2"/>
						<ellipse class="st12" cx="1110.9" cy="96.4" rx="4.2" ry="4.2"/>
						<ellipse class="st12" cx="1110.9" cy="109.6" rx="4.2" ry="4.2"/>
						<ellipse class="st12" cx="1110.9" cy="121.5" rx="4.2" ry="4.2"/>
					</g>
					<g>
						<ellipse class="st12" cx="1119.4" cy="53.3" rx="4.2" ry="4.2"/>
						<ellipse class="st12" cx="1119.4" cy="65.3" rx="4.2" ry="4.2"/>
						<ellipse class="st12" cx="1119.4" cy="78.4" rx="4.2" ry="4.2"/>
						<ellipse class="st12" cx="1119.4" cy="90.4" rx="4.2" ry="4.2"/>
						<ellipse class="st12" cx="1119.4" cy="103.5" rx="4.2" ry="4.2"/>
						<ellipse class="st12" cx="1119.4" cy="115.5" rx="4.2" ry="4.2"/>
					</g>
					<g>
						<ellipse class="st12" cx="1128" cy="59.3" rx="4.2" ry="4.2"/>
						<ellipse class="st12" cx="1128" cy="71.3" rx="4.2" ry="4.2"/>
						<ellipse class="st12" cx="1128" cy="84.4" rx="4.2" ry="4.2"/>
						<ellipse class="st12" cx="1128" cy="96.4" rx="4.2" ry="4.2"/>
						<ellipse class="st12" cx="1128" cy="109.6" rx="4.2" ry="4.2"/>
						<ellipse class="st12" cx="1128" cy="121.5" rx="4.2" ry="4.2"/>
					</g>
					<g>
						<ellipse class="st12" cx="1136.4" cy="53.3" rx="4.2" ry="4.2"/>
						<ellipse class="st12" cx="1136.4" cy="65.3" rx="4.2" ry="4.2"/>
						<ellipse class="st12" cx="1136.4" cy="78.4" rx="4.2" ry="4.2"/>
						<ellipse class="st12" cx="1136.4" cy="90.4" rx="4.2" ry="4.2"/>
						<ellipse class="st12" cx="1136.4" cy="103.5" rx="4.2" ry="4.2"/>
						<ellipse class="st12" cx="1136.4" cy="115.5" rx="4.2" ry="4.2"/>
					</g>
					<g>
						<ellipse class="st12" cx="1145" cy="59.3" rx="4.2" ry="4.2"/>
						<ellipse class="st12" cx="1145" cy="71.3" rx="4.2" ry="4.2"/>
						<ellipse class="st12" cx="1145" cy="84.4" rx="4.2" ry="4.2"/>
						<ellipse class="st12" cx="1145" cy="96.4" rx="4.2" ry="4.2"/>
						<ellipse class="st12" cx="1145" cy="109.6" rx="4.2" ry="4.2"/>
						<ellipse class="st12" cx="1145" cy="121.5" rx="4.2" ry="4.2"/>
					</g>
					<g>
						<ellipse class="st12" cx="1153.5" cy="53.3" rx="4.2" ry="4.2"/>
						<ellipse class="st12" cx="1153.5" cy="65.3" rx="4.2" ry="4.2"/>
						<ellipse class="st12" cx="1153.5" cy="78.4" rx="4.2" ry="4.2"/>
						<ellipse class="st12" cx="1153.5" cy="90.4" rx="4.2" ry="4.2"/>
						<ellipse class="st12" cx="1153.5" cy="103.5" rx="4.2" ry="4.2"/>
						<ellipse class="st12" cx="1153.5" cy="115.5" rx="4.2" ry="4.2"/>
					</g>
					<g>
						<ellipse class="st12" cx="1162.1" cy="59.3" rx="4.2" ry="4.2"/>
						<ellipse class="st12" cx="1162.1" cy="71.3" rx="4.2" ry="4.2"/>
						<ellipse class="st12" cx="1162.1" cy="84.4" rx="4.2" ry="4.2"/>
						<ellipse class="st12" cx="1162.1" cy="96.4" rx="4.2" ry="4.2"/>
						<ellipse class="st12" cx="1162.1" cy="109.6" rx="4.2" ry="4.2"/>
						<ellipse class="st12" cx="1162.1" cy="121.5" rx="4.2" ry="4.2"/>
					</g>
					<g>
						<ellipse class="st12" cx="1170.5" cy="53.3" rx="4.2" ry="4.2"/>
						<ellipse class="st12" cx="1170.5" cy="65.3" rx="4.2" ry="4.2"/>
						<ellipse class="st12" cx="1170.5" cy="78.4" rx="4.2" ry="4.2"/>
						<ellipse class="st12" cx="1170.5" cy="90.4" rx="4.2" ry="4.2"/>
						<ellipse class="st12" cx="1170.5" cy="103.5" rx="4.2" ry="4.2"/>
						<ellipse class="st12" cx="1170.5" cy="115.5" rx="4.2" ry="4.2"/>
					</g>
					<g>
						<ellipse class="st12" cx="1179" cy="59.3" rx="4.2" ry="4.2"/>
						<ellipse class="st12" cx="1179" cy="71.3" rx="4.2" ry="4.2"/>
						<ellipse class="st12" cx="1179" cy="84.4" rx="4.2" ry="4.2"/>
						<ellipse class="st12" cx="1179" cy="96.4" rx="4.2" ry="4.2"/>
						<ellipse class="st12" cx="1179" cy="109.6" rx="4.2" ry="4.2"/>
						<ellipse class="st12" cx="1179" cy="121.5" rx="4.2" ry="4.2"/>
					</g>
				</g>
			</g>
		</g>
	</g>
	<rect x="1072.6" y="44.6" class="st11" width="9.6" height="69.9"/>
	<rect x="1182" y="44.6" class="st11" width="9.6" height="69.9"/>
	<line class="st21" x1="1073.1" y1="163.9" x2="1092.9" y2="183.6"/>
	<line class="st21" x1="1092.6" y1="163.1" x2="1072.9" y2="182.9"/>
	<line class="st21" x1="1092.6" y1="163.1" x2="1092.6" y2="183.6"/>
	<line class="st21" x1="1073.3" y1="163.4" x2="1073.3" y2="183.9"/>
	<line class="st21" x1="1092.5" y1="164.6" x2="1112.3" y2="184.4"/>
	<line class="st21" x1="1112" y1="164" x2="1092.3" y2="183.7"/>
	<line class="st21" x1="1112" y1="164" x2="1112" y2="184.3"/>
	<line class="st21" x1="1112.3" y1="163.8" x2="1132" y2="183.6"/>
	<line class="st21" x1="1131.8" y1="163.1" x2="1112" y2="182.8"/>
	<line class="st21" x1="1131.8" y1="163.1" x2="1131.8" y2="183.6"/>
	<line class="st21" x1="1131.8" y1="164.3" x2="1151.5" y2="184"/>
	<line class="st21" x1="1151.2" y1="163.5" x2="1131.6" y2="183.3"/>
	<line class="st21" x1="1151.2" y1="163.5" x2="1151.2" y2="184"/>
	<line class="st21" x1="1151.7" y1="164.2" x2="1171.5" y2="183.9"/>
	<line class="st21" x1="1171.1" y1="163.4" x2="1151.5" y2="183.2"/>
	<line class="st21" x1="1171.1" y1="163.4" x2="1171.1" y2="183.9"/>
	<line class="st21" x1="1172.1" y1="164.5" x2="1191.8" y2="184.2"/>
	<line class="st21" x1="1191.6" y1="163.8" x2="1171.8" y2="183.6"/>
	<line class="st21" x1="1191.6" y1="163.8" x2="1191.6" y2="184.2"/>
	<line class="st21" x1="1081.7" y1="121.3" x2="1081.7" y2="164"/>
	<line class="st21" x1="1095.4" y1="121.3" x2="1095.4" y2="134.6"/>
	<line class="st21" x1="1109.1" y1="121.3" x2="1109.1" y2="164"/>
	<line class="st21" x1="1122.8" y1="121.3" x2="1122.8" y2="134.6"/>
	<line class="st21" x1="1136.4" y1="121.3" x2="1136.4" y2="164"/>
	<line class="st21" x1="1150.2" y1="121.3" x2="1150.2" y2="164"/>
	<line class="st21" x1="1163.8" y1="121.3" x2="1163.8" y2="134.6"/>
	<line class="st21" x1="1177.4" y1="121.3" x2="1177.4" y2="134.6"/>
	<line class="st21" x1="1191.1" y1="121.3" x2="1191.1" y2="134.6"/>
	<line class="st21" x1="1095.5" y1="120.7" x2="1082.2" y2="133.9"/>
	<line class="st21" x1="1176.5" y1="120.7" x2="1163.2" y2="133.9"/>
	<line class="st21" x1="1109.4" y1="120.1" x2="1122.6" y2="133.3"/>
	<line class="st21" x1="1137" y1="120.1" x2="1150.2" y2="133.3"/>
	<line class="st21" x1="1184.3" y1="120.2" x2="1184.3" y2="162.9"/>
	<line class="st21" x1="1073" y1="190" x2="1092.8" y2="243.9"/>
	<line class="st21" x1="1092.5" y1="188.1" x2="1072.8" y2="242"/>
	<line class="st21" x1="1092.5" y1="188.1" x2="1092.5" y2="243.8"/>
	<line class="st21" x1="1073.1" y1="189.2" x2="1073.1" y2="244.8"/>
	<line class="st21" x1="1093.7" y1="191" x2="1113.5" y2="244.9"/>
	<line class="st21" x1="1113.2" y1="189.1" x2="1093.5" y2="242.9"/>
	<line class="st21" x1="1113.2" y1="189.1" x2="1113.2" y2="244.8"/>
	<line class="st21" x1="1113.9" y1="190" x2="1133.7" y2="243.8"/>
	<line class="st21" x1="1133.4" y1="188.1" x2="1113.7" y2="242"/>
	<line class="st21" x1="1133.4" y1="188.1" x2="1133.4" y2="243.8"/>
	<line class="st21" x1="1133.8" y1="190" x2="1153.6" y2="243.9"/>
	<line class="st21" x1="1153.3" y1="188.1" x2="1133.6" y2="242"/>
	<line class="st21" x1="1153.3" y1="188.1" x2="1153.3" y2="243.8"/>
	<line class="st21" x1="1154.2" y1="189.1" x2="1173.9" y2="242.9"/>
	<line class="st21" x1="1173.6" y1="187.1" x2="1153.9" y2="241"/>
	<line class="st21" x1="1173.6" y1="187.1" x2="1173.6" y2="242.8"/>
	<line class="st21" x1="1172.4" y1="188.1" x2="1192.2" y2="242"/>
	<line class="st21" x1="1191.9" y1="186.2" x2="1172.2" y2="240"/>
	<line class="st21" x1="1191.9" y1="186.2" x2="1191.9" y2="241.9"/>
	<g>
		<rect x="1085.7" y="133.7" class="st22" width="22.8" height="30.3"/>
		<rect x="1120.8" y="133.7" class="st22" width="22.8" height="30.3"/>
		<rect x="1156" y="133.7" class="st22" width="22.8" height="30.3"/>
	</g>
	<g>
		<rect x="1084.7" y="200.4" class="st22" width="22.8" height="30.3"/>
		<rect x="1119.9" y="200.4" class="st22" width="22.8" height="30.3"/>
		<rect x="1155" y="200.4" class="st22" width="22.8" height="30.3"/>
	</g>
	<rect x="1068.7" y="114.4" class="st11" width="125.8" height="6.9"/>
	<g>
		<g>
			<g>
				<path class="st16" d="M1078.4,188.9c0,1.7-1.6,3.1-3.6,3.1s-3.6-1.4-3.6-3.1c0-0.5,0-3.5,0-3.5h7.1
					C1078.4,185.4,1078.4,187.1,1078.4,188.9z"/>
				<path class="st17" d="M1085.6,188.9c0,1.7-1.6,3.1-3.6,3.1s-3.6-1.4-3.6-3.1c0-0.5,0-3.5,0-3.5h7.1
					C1085.6,185.4,1085.6,187.1,1085.6,188.9z"/>
			</g>
			<g>
				<path class="st16" d="M1092.7,188.9c0,1.7-1.6,3.1-3.6,3.1s-3.6-1.4-3.6-3.1c0-0.5,0-3.5,0-3.5h7.1
					C1092.7,185.4,1092.7,187.1,1092.7,188.9z"/>
				<path class="st17" d="M1099.9,188.9c0,1.7-1.6,3.1-3.6,3.1s-3.6-1.4-3.6-3.1c0-0.5,0-3.5,0-3.5h7.1
					C1099.9,185.4,1099.9,187.1,1099.9,188.9z"/>
			</g>
			<g>
				<path class="st16" d="M1107,188.9c0,1.7-1.6,3.1-3.6,3.1s-3.6-1.4-3.6-3.1c0-0.5,0-3.5,0-3.5h7.1
					C1107,185.4,1107,187.1,1107,188.9z"/>
				<path class="st17" d="M1114.2,188.9c0,1.7-1.6,3.1-3.6,3.1s-3.6-1.4-3.6-3.1c0-0.5,0-3.5,0-3.5h7.1
					C1114.2,185.4,1114.2,187.1,1114.2,188.9z"/>
			</g>
			<g>
				<path class="st16" d="M1121.4,188.9c0,1.7-1.6,3.1-3.6,3.1s-3.6-1.4-3.6-3.1c0-0.5,0-3.5,0-3.5h7.1
					C1121.4,185.4,1121.4,187.1,1121.4,188.9z"/>
				<path class="st17" d="M1128.5,188.9c0,1.7-1.6,3.1-3.6,3.1c-1.9,0-3.6-1.4-3.6-3.1c0-0.5,0-3.5,0-3.5h7.1
					C1128.5,185.4,1128.5,187.1,1128.5,188.9z"/>
			</g>
			<g>
				<path class="st16" d="M1135.7,188.9c0,1.7-1.6,3.1-3.6,3.1c-1.9,0-3.6-1.4-3.6-3.1c0-0.5,0-3.5,0-3.5h7.1
					C1135.7,185.4,1135.7,187.1,1135.7,188.9z"/>
				<path class="st17" d="M1142.8,188.9c0,1.7-1.6,3.1-3.6,3.1c-1.9,0-3.6-1.4-3.6-3.1c0-0.5,0-3.5,0-3.5h7.1
					C1142.8,185.4,1142.8,187.1,1142.8,188.9z"/>
			</g>
			<g>
				<path class="st16" d="M1149.9,188.9c0,1.7-1.6,3.1-3.6,3.1c-1.9,0-3.6-1.4-3.6-3.1c0-0.5,0-3.5,0-3.5h7.1
					C1149.9,185.4,1149.9,187.1,1149.9,188.9z"/>
				<path class="st17" d="M1157.2,188.9c0,1.7-1.6,3.1-3.6,3.1c-1.9,0-3.6-1.4-3.6-3.1c0-0.5,0-3.5,0-3.5h7.1
					C1157.2,185.4,1157.2,187.1,1157.2,188.9z"/>
			</g>
			<g>
				<path class="st16" d="M1164.3,188.9c0,1.7-1.6,3.1-3.6,3.1c-1.9,0-3.6-1.4-3.6-3.1c0-0.5,0-3.5,0-3.5h7.1
					C1164.3,185.4,1164.3,187.1,1164.3,188.9z"/>
				<path class="st17" d="M1171.5,188.9c0,1.7-1.6,3.1-3.6,3.1c-1.9,0-3.6-1.4-3.6-3.1c0-0.5,0-3.5,0-3.5h7.1
					C1171.5,185.4,1171.5,187.1,1171.5,188.9z"/>
			</g>
			<g>
				<path class="st16" d="M1178.6,188.9c0,1.7-1.6,3.1-3.6,3.1c-1.9,0-3.6-1.4-3.6-3.1c0-0.5,0-3.5,0-3.5h7.1
					C1178.6,185.4,1178.6,187.1,1178.6,188.9z"/>
				<path class="st17" d="M1185.7,188.9c0,1.7-1.6,3.1-3.6,3.1c-1.9,0-3.6-1.4-3.6-3.1c0-0.5,0-3.5,0-3.5h7.1
					C1185.7,185.4,1185.7,187.1,1185.7,188.9z"/>
			</g>
			<g>
				<path class="st16" d="M1192.9,188.9c0,1.7-1.6,3.1-3.6,3.1c-1.9,0-3.6-1.4-3.6-3.1c0-0.5,0-3.5,0-3.5h7.1
					C1192.9,185.4,1192.9,187.1,1192.9,188.9z"/>
			</g>
		</g>
		<g>
			<rect x="1071.3" y="181.6" class="st8" width="121.7" height="3.8"/>
		</g>
	</g>
	<line class="st23" x1="1072.6" y1="164" x2="1191.6" y2="164"/>
	<line class="st23" x1="1072.2" y1="133.7" x2="1191.1" y2="133.7"/>
</g>
<g>
	<path class="st6" d="M1074.7,158c-0.5-5.1-4.8-9-10.1-9c-5.5,0-10.1,4.5-10.1,10.1c4.7,0,11.8,0,16.5,0v103.7h3.6V158L1074.7,158z"
		/>
</g>
<g>
	<path class="st1" d="M148.6,213.4c-14.2,0.8-28.3-9.6-36.2-18.7c-4.9-5.5-7.6-11.6-8.8-18.1c-0.3-1.8-2.4-7,0.6-7.9
		c1.7-0.4,5.6,3.7,7.8,4.2c2.6-7-3.2-14.8-2.8-22.3c0.3-5.5,3.9-17.5,9.1-21c0.8,2.1,0.8,4.3,1.7,6.5c4.9-3.9,3.9-14.9,6.3-20.3
		c2.8-6.4,9-19.6,15.7-23.6c14.8-8.7,24.4,24.8,30.2,31.4c4.3-2.1,2.5-7.6,2.8-11.4c6.1-0.2,11.6,13.4,12.9,17.8
		c1.5,5-0.3,20.3,2.7,23.1c0.8-1.3,2.7-2.4,3-4.2c16.1,9.2,10.1,33.4,1.4,44.7c-10.2,13.2-25.1,19.9-43.7,19.8h-2.7V213.4z"/>
	<path class="st2" d="M151,216.9c3,6.9-1.1,17.5-1.9,24.6c-0.9,7.2-2.6,14.5-2.2,21.7c6.4,0.9,13.6-0.9,20.1-1
		c-4.9-11-4.2-22.7-5.4-34.2c-0.2-2.5-1.9-6.1-1.1-8.5c1-3,4.5-3.7,7-6.1c3.2-3,8-9.8,7.2-14.1c-3.1,0.6-4.9,5.2-7.5,5.6
		c-5,0.8-1.6-5.3-0.9-7.7c1.2-4.1,6.2-14.5,1.3-17.7c-3.6,2.6-3.7,9.3-4.9,13.1c-1.3-1.5-1.3-3.7-3.5-5.1c-1.9,1.6,5,23-5.9,18.8
		c-6.9-2.6-6.9-20.1-16.7-18.7c0,2.5,2.7,2.7,2.2,5.3c-1.7-0.5-4,0-5.8-0.2c0.1,3,2.8,1.8,4.9,3.4c1.9,1.4,3.2,3.1,4.7,5.2
		c2.2,3.2,5.6,7.8,5.3,11.6c-5.4,0.8-10.2-5.7-15.9-5.9C129.8,214.4,145.9,215.4,151,216.9L151,216.9z"/>
</g>
<g>
	<path class="st3" d="M174.9,252.3c0-3.9-3.1-7.1-7.1-7.1l0,0c0-0.2,0-0.4,0-0.8c0-3.2-2.6-5.8-5.8-5.8c-2.2,0-4,1.2-5.1,2.9
		c-0.9-1.2-2.2-1.9-3.8-1.9c-2.2,0-3.9,1.4-4.4,3.4c-1-0.4-2.1-0.8-3.1-0.8c-3.9,0-7.1,3.1-7.1,7.1c0,2.4,1.2,4.5,3,5.7
		c-1.7,0.6-3,2.4-3,4.3c0,2.5,2.1,4.7,4.7,4.7h26.8c2.5,0,4.7-2.1,4.7-4.7c0-1.1-0.4-2.1-1-2.9C174.4,255.4,174.9,253.9,174.9,252.3
		z"/>
	<g>
		<circle class="st4" cx="164.7" cy="253.8" r="1"/>
		<circle class="st4" cx="150.7" cy="246.8" r="1"/>
		<circle class="st4" cx="143.4" cy="249.8" r="1"/>
		<circle class="st4" cx="145.6" cy="257.4" r="1"/>
		<circle class="st4" cx="152.3" cy="261.5" r="1"/>
		<circle class="st4" cx="154.2" cy="254.4" r="1"/>
		<circle class="st4" cx="157.7" cy="247.5" r="1"/>
		<circle class="st4" cx="162.3" cy="243.4" r="1"/>
		<circle class="st4" cx="169.7" cy="249.4" r="1"/>
		<circle class="st4" cx="169.2" cy="260.7" r="1"/>
		<circle class="st4" cx="160.6" cy="258.1" r="1"/>
	</g>
</g>
<g>
	<rect x="224.7" y="239.7" class="st5" width="2.6" height="23.9"/>
	<rect x="224" y="239.5" class="st6" width="4.1" height="3.4"/>
</g>
<g>
	<rect x="137.2" y="238.9" class="st5" width="2.6" height="23.9"/>
	<rect x="136.5" y="238.7" class="st6" width="4.1" height="3.4"/>
</g>
<g>
	<rect x="113.8" y="92.5" class="st12" width="14.3" height="36.7"/>
	<polygon class="st24" points="141.3,263.1 37,263.1 37,164.3 88.6,92.5 141.3,164.3 	"/>
	<rect x="37" y="203.7" class="st8" width="104.4" height="1.9"/>
	<rect x="54.5" y="129.2" class="st25" width="4" height="101.7"/>
	<rect x="75.4" y="109.1" class="st25" width="4" height="146"/>
	<rect x="97.7" y="99.9" class="st25" width="4" height="163.1"/>
	<rect x="117.8" y="126.3" class="st25" width="4" height="136.6"/>
	<rect x="51" y="128.2" class="st25" width="76.3" height="4"/>
	<rect x="35.3" y="159.8" class="st25" width="105.9" height="4"/>
	<rect x="37" y="188.2" class="st25" width="104.3" height="4"/>
	<rect x="36.9" y="221" class="st25" width="104.3" height="4"/>
	<rect x="37.1" y="247.6" class="st25" width="104.3" height="4"/>
	
		<rect x="83.2" y="128.7" transform="matrix(0.9063 -0.4226 0.4226 0.9063 -53.7868 49.4306)" class="st25" width="2.7" height="34.6"/>
	
		<rect x="88.3" y="100.4" transform="matrix(0.9063 -0.4226 0.4226 0.9063 -45.054 49.7393)" class="st25" width="2.7" height="52.2"/>
	
		<rect x="91.9" y="91.2" transform="matrix(0.9063 -0.4226 0.4226 0.9063 -37.1172 49.5633)" class="st25" width="2.7" height="34.6"/>
	
		<rect x="105.9" y="130.2" transform="matrix(0.9063 -0.4226 0.4226 0.9063 -52.2989 59.1278)" class="st25" width="2.7" height="34.6"/>
	
		<rect x="113.4" y="127.9" transform="matrix(0.9063 -0.4226 0.4226 0.9063 -48.9173 61.7234)" class="st25" width="2.7" height="26.5"/>
	
		<rect x="45" y="160.8" transform="matrix(0.9063 -0.4226 0.4226 0.9063 -74.1588 36.979)" class="st25" width="2.7" height="49.9"/>
	
		<rect x="66.3" y="157.5" transform="matrix(0.9063 -0.4226 0.4226 0.9063 -80.6787 47.8628)" class="st25" width="2.7" height="96.8"/>
	
		<rect x="78.9" y="158.4" transform="matrix(0.9063 -0.4226 0.4226 0.9063 -78.6938 53.0289)" class="st25" width="2.7" height="91.3"/>
	
		<rect x="90.7" y="123.1" transform="matrix(0.9063 -0.4226 0.4226 0.9063 -71.1701 56.5899)" class="st25" width="2.7" height="131.4"/>
	
		<rect x="121" y="157.6" transform="matrix(0.9063 -0.4226 0.4226 0.9063 -75.3842 70.9708)" class="st25" width="2.7" height="95.8"/>
	
		<rect x="131.3" y="158.9" transform="matrix(0.9063 -0.4226 0.4226 0.9063 -65.5728 73.3411)" class="st25" width="2.7" height="51.4"/>
	
		<rect x="49.2" y="186.8" transform="matrix(0.9063 -0.4226 0.4226 0.9063 -88.3313 41.9942)" class="st25" width="2.7" height="66.8"/>
	
		<rect x="42.7" y="222.3" transform="matrix(0.9063 -0.4226 0.4226 0.9063 -95.9093 40.7775)" class="st25" width="2.7" height="28.9"/>
	
		<rect x="61" y="138.6" transform="matrix(0.9063 -0.4226 0.4226 0.9063 -57.8158 40.4503)" class="st25" width="2.7" height="24.1"/>
	<rect x="37" y="251.6" class="st8" width="104.4" height="11.4"/>
	<g>
		<g>
			<g>
				<rect x="92.2" y="215.8" class="st26" width="14.9" height="25.9"/>
			</g>
			<g>
				<rect x="113.4" y="215.8" class="st26" width="14.9" height="25.9"/>
			</g>
		</g>
	</g>
	<g>
		<g>
			<path class="st16" d="M43,208.3c0,1.7-1.4,3.1-3,3.1c-1.7,0-3-1.4-3-3.1c0-0.5,0-3.5,0-3.5h6.2C43,204.9,43,206.6,43,208.3z"/>
			<path class="st17" d="M49.2,208.3c0,1.7-1.4,3.1-3,3.1c-1.7,0-3-1.4-3-3.1c0-0.5,0-3.5,0-3.5h6.2
				C49.2,204.9,49.2,206.6,49.2,208.3z"/>
		</g>
		<g>
			<path class="st16" d="M55.3,208.3c0,1.7-1.4,3.1-3,3.1c-1.7,0-3-1.4-3-3.1c0-0.5,0-3.5,0-3.5h6.2
				C55.3,204.9,55.3,206.6,55.3,208.3z"/>
			<path class="st17" d="M61.5,208.3c0,1.7-1.4,3.1-3,3.1c-1.7,0-3-1.4-3-3.1c0-0.5,0-3.5,0-3.5h6.2
				C61.5,204.9,61.5,206.6,61.5,208.3z"/>
		</g>
		<g>
			<path class="st16" d="M67.7,208.3c0,1.7-1.4,3.1-3,3.1c-1.6,0-3-1.4-3-3.1c0-0.5,0-3.5,0-3.5h6.2
				C67.7,204.9,67.7,206.6,67.7,208.3z"/>
			<path class="st17" d="M73.7,208.3c0,1.7-1.4,3.1-3,3.1c-1.7,0-3-1.4-3-3.1c0-0.5,0-3.5,0-3.5h6.2
				C73.7,204.9,73.7,206.6,73.7,208.3z"/>
		</g>
		<g>
			<path class="st16" d="M79.9,208.3c0,1.7-1.4,3.1-3,3.1c-1.7,0-3-1.4-3-3.1c0-0.5,0-3.5,0-3.5H80
				C79.9,204.9,79.9,206.6,79.9,208.3z"/>
			<path class="st17" d="M86.1,208.3c0,1.7-1.4,3.1-3,3.1c-1.7,0-3-1.4-3-3.1c0-0.5,0-3.5,0-3.5h6.2
				C86.1,204.9,86.1,206.6,86.1,208.3z"/>
		</g>
		<g>
			<path class="st16" d="M92.2,208.3c0,1.7-1.4,3.1-3,3.1c-1.7,0-3-1.4-3-3.1c0-0.5,0-3.5,0-3.5h6.2
				C92.2,204.9,92.2,206.6,92.2,208.3z"/>
			<path class="st17" d="M98.4,208.3c0,1.7-1.4,3.1-3,3.1c-1.7,0-3-1.4-3-3.1c0-0.5,0-3.5,0-3.5h6.2
				C98.4,204.9,98.4,206.6,98.4,208.3z"/>
		</g>
		<g>
			<path class="st16" d="M104.5,208.3c0,1.7-1.4,3.1-3,3.1c-1.7,0-3-1.4-3-3.1c0-0.5,0-3.5,0-3.5h6.2
				C104.5,204.9,104.5,206.6,104.5,208.3z"/>
			<path class="st17" d="M110.6,208.3c0,1.7-1.4,3.1-3,3.1c-1.7,0-3-1.4-3-3.1c0-0.5,0-3.5,0-3.5h6.2
				C110.6,204.9,110.6,206.6,110.6,208.3z"/>
		</g>
		<g>
			<path class="st16" d="M116.8,208.3c0,1.7-1.4,3.1-3,3.1c-1.7,0-3-1.4-3-3.1c0-0.5,0-3.5,0-3.5h6.2
				C116.8,204.9,116.8,206.6,116.8,208.3z"/>
			<path class="st17" d="M122.9,208.3c0,1.7-1.4,3.1-3,3.1c-1.7,0-3-1.4-3-3.1c0-0.5,0-3.5,0-3.5h6.2
				C122.9,204.9,122.9,206.6,122.9,208.3z"/>
		</g>
		<g>
			<path class="st16" d="M129,208.3c0,1.7-1.4,3.1-3,3.1c-1.7,0-3-1.4-3-3.1c0-0.5,0-3.5,0-3.5h6.2C129,204.9,129,206.6,129,208.3z"
				/>
			<path class="st17" d="M135.2,208.3c0,1.7-1.4,3.1-3,3.1c-1.7,0-3-1.4-3-3.1c0-0.5,0-3.5,0-3.5h6.2
				C135.2,204.9,135.2,206.6,135.2,208.3z"/>
		</g>
		<g>
			<path class="st16" d="M141.3,208.3c0,1.7-1.4,3.1-3,3.1c-1.7,0-3-1.4-3-3.1c0-0.5,0-3.5,0-3.5h6.2
				C141.3,204.9,141.3,206.6,141.3,208.3z"/>
		</g>
	</g>
	<g>
		<g>
			<g>
				<rect x="50.6" y="170.7" class="st26" width="14.9" height="25.9"/>
			</g>
			<g>
				<rect x="71.8" y="170.7" class="st26" width="14.9" height="25.9"/>
			</g>
			<g>
				<rect x="93" y="170.7" class="st26" width="14.9" height="25.9"/>
			</g>
			<g>
				<rect x="114.1" y="170.7" class="st26" width="14.9" height="25.9"/>
			</g>
		</g>
	</g>
	<path class="st26" d="M80.7,230.3c0-8-6.5-14.5-14.5-14.5s-14.5,6.5-14.5,14.5v32.7h29C80.7,262.9,80.7,230.3,80.7,230.3z"/>
	<circle class="st26" cx="88.2" cy="136.5" r="8.3"/>
	<polygon class="st11" points="29.9,176.9 11,176.9 89.3,75.7 167.4,176.9 148.3,177 88.9,98.9 	"/>
</g>
<g>
	<path class="st6" d="M107.8,158c-0.5-5.1-4.8-9-10.1-9c-5.5,0-10.1,4.5-10.1,10.1c4.7,0,11.8,0,16.5,0v103.7h3.6V158L107.8,158z"/>
</g>
<g>
	<rect x="851.8" y="92.3" class="st12" width="14.3" height="36.7"/>
	<polygon class="st27" points="879.4,262.8 774.9,262.8 774.9,164.1 826.6,92.3 879.4,164.1 	"/>
	<circle class="st28" cx="826.3" cy="136.4" r="8.3"/>
	<rect x="774.9" y="251.5" class="st8" width="104.4" height="11.4"/>
	<rect x="789.3" y="142.6" class="st29" width="4.7" height="109.2"/>
	<rect x="811.9" y="104" class="st29" width="4.7" height="124.6"/>
	<rect x="837.1" y="99.6" class="st29" width="4.7" height="151.8"/>
	<rect x="861.7" y="136.4" class="st29" width="4.7" height="115.1"/>
	<polygon class="st11" points="768,176.6 749,176.6 827.4,75.5 905.5,176.7 886.3,176.7 827,98.7 	"/>
	<g>
		<g>
			<g>
				<rect x="788.7" y="170.5" class="st28" width="14.9" height="25.9"/>
			</g>
			<g>
				<rect x="809.9" y="170.5" class="st28" width="14.9" height="25.9"/>
			</g>
			<g>
				<rect x="831" y="170.5" class="st28" width="14.9" height="25.9"/>
			</g>
			<g>
				<rect x="852.2" y="170.5" class="st28" width="14.9" height="25.9"/>
			</g>
		</g>
	</g>
	<g>
		<g>
			<g>
				<rect x="830.3" y="215.6" class="st28" width="14.9" height="25.9"/>
			</g>
			<g>
				<rect x="851.5" y="215.6" class="st28" width="14.9" height="25.9"/>
			</g>
		</g>
	</g>
	<path class="st28" d="M818.6,230.1c0-8-6.5-14.5-14.5-14.5s-14.5,6.5-14.5,14.5v32.7h29L818.6,230.1L818.6,230.1z"/>
	<g>
		<g>
			<path class="st16" d="M781.1,208.1c0,1.7-1.4,3.1-3,3.1c-1.7,0-3-1.4-3-3.1c0-0.5,0-3.5,0-3.5h6.2
				C781.1,204.6,781.1,206.4,781.1,208.1z"/>
			<path class="st17" d="M787.3,208.1c0,1.7-1.4,3.1-3,3.1c-1.7,0-3-1.4-3-3.1c0-0.5,0-3.5,0-3.5h6.2
				C787.3,204.6,787.3,206.4,787.3,208.1z"/>
		</g>
		<g>
			<path class="st16" d="M793.4,208.1c0,1.7-1.4,3.1-3,3.1c-1.7,0-3-1.4-3-3.1c0-0.5,0-3.5,0-3.5h6.2
				C793.4,204.6,793.4,206.4,793.4,208.1z"/>
			<path class="st17" d="M799.6,208.1c0,1.7-1.4,3.1-3,3.1c-1.7,0-3-1.4-3-3.1c0-0.5,0-3.5,0-3.5h6.2
				C799.6,204.6,799.6,206.4,799.6,208.1z"/>
		</g>
		<g>
			<path class="st16" d="M805.7,208.1c0,1.7-1.4,3.1-3,3.1c-1.7,0-3-1.4-3-3.1c0-0.5,0-3.5,0-3.5h6.2
				C805.7,204.6,805.7,206.4,805.7,208.1z"/>
			<path class="st17" d="M811.8,208.1c0,1.7-1.4,3.1-3,3.1c-1.7,0-3-1.4-3-3.1c0-0.5,0-3.5,0-3.5h6.2
				C811.8,204.6,811.8,206.4,811.8,208.1z"/>
		</g>
		<g>
			<path class="st16" d="M818,208.1c0,1.7-1.4,3.1-3,3.1c-1.7,0-3-1.4-3-3.1c0-0.5,0-3.5,0-3.5h6.2C818,204.6,818,206.4,818,208.1z"
				/>
			<path class="st17" d="M824.2,208.1c0,1.7-1.4,3.1-3,3.1s-3-1.4-3-3.1c0-0.5,0-3.5,0-3.5h6.2C824.2,204.6,824.2,206.4,824.2,208.1
				z"/>
		</g>
		<g>
			<path class="st16" d="M830.3,208.1c0,1.7-1.4,3.1-3,3.1c-1.7,0-3-1.4-3-3.1c0-0.5,0-3.5,0-3.5h6.2
				C830.3,204.6,830.3,206.4,830.3,208.1z"/>
			<path class="st17" d="M836.4,208.1c0,1.7-1.4,3.1-3,3.1c-1.7,0-3-1.4-3-3.1c0-0.5,0-3.5,0-3.5h6.2
				C836.4,204.6,836.4,206.4,836.4,208.1z"/>
		</g>
		<g>
			<path class="st16" d="M842.5,208.1c0,1.7-1.4,3.1-3,3.1c-1.7,0-3-1.4-3-3.1c0-0.5,0-3.5,0-3.5h6.2
				C842.5,204.6,842.5,206.4,842.5,208.1z"/>
			<path class="st17" d="M848.7,208.1c0,1.7-1.4,3.1-3,3.1c-1.7,0-3-1.4-3-3.1c0-0.5,0-3.5,0-3.5h6.2
				C848.7,204.6,848.7,206.4,848.7,208.1z"/>
		</g>
		<g>
			<path class="st16" d="M854.9,208.1c0,1.7-1.4,3.1-3,3.1c-1.7,0-3-1.4-3-3.1c0-0.5,0-3.5,0-3.5h6.2
				C854.9,204.6,854.9,206.4,854.9,208.1z"/>
			<path class="st17" d="M860.9,208.1c0,1.7-1.4,3.1-3,3.1c-1.7,0-3-1.4-3-3.1c0-0.5,0-3.5,0-3.5h6.2
				C860.9,204.6,860.9,206.4,860.9,208.1z"/>
		</g>
		<g>
			<path class="st16" d="M867.1,208.1c0,1.7-1.4,3.1-3,3.1c-1.7,0-3-1.4-3-3.1c0-0.5,0-3.5,0-3.5h6.2
				C867.1,204.6,867.1,206.4,867.1,208.1z"/>
			<path class="st17" d="M873.3,208.1c0,1.7-1.4,3.1-3,3.1c-1.7,0-3-1.4-3-3.1c0-0.5,0-3.5,0-3.5h6.2
				C873.3,204.6,873.3,206.4,873.3,208.1z"/>
		</g>
		<g>
			<path class="st16" d="M879.4,208.1c0,1.7-1.4,3.1-3,3.1c-1.7,0-3-1.4-3-3.1c0-0.5,0-3.5,0-3.5h6.2
				C879.4,204.6,879.4,206.4,879.4,208.1z"/>
		</g>
	</g>
	<rect x="774.9" y="203.5" class="st8" width="104.4" height="1.9"/>
</g>
<g>
	<rect x="669.2" y="240" class="st5" width="2.6" height="23.9"/>
	<rect x="668.4" y="239.8" class="st6" width="4.1" height="3.4"/>
</g>
<g>
	<rect x="732.8" y="240.1" class="st5" width="2.6" height="23.9"/>
	<rect x="732" y="239.9" class="st6" width="4.1" height="3.4"/>
</g>
<g>
	<rect x="796.5" y="240.2" class="st5" width="2.6" height="23.9"/>
	<rect x="795.7" y="240" class="st6" width="4.1" height="3.4"/>
</g>
<g>
	<rect x="860.1" y="240.3" class="st5" width="2.6" height="23.9"/>
	<rect x="859.3" y="240.1" class="st6" width="4.1" height="3.4"/>
</g>
<g>
	<polygon class="st30" points="774.9,263.5 633.6,263.5 633.6,129.8 703.6,32.5 774.9,129.8 	"/>
	<g>
		<g>
			<rect x="633.6" y="129.8" class="st8" width="6.3" height="11.8"/>
			<rect x="633.6" y="143.3" class="st8" width="10.7" height="11.8"/>
		</g>
		<g>
			<rect x="633.6" y="156.9" class="st8" width="6.3" height="11.8"/>
			<rect x="633.6" y="170.4" class="st8" width="10.7" height="11.8"/>
		</g>
		<g>
			<rect x="633.6" y="197.5" class="st8" width="10.7" height="11.8"/>
		</g>
		<g>
			<rect x="633.6" y="211.1" class="st8" width="6.3" height="11.8"/>
			<rect x="633.6" y="224.7" class="st8" width="10.7" height="11.8"/>
		</g>
		<g>
			<rect x="633.6" y="238.2" class="st8" width="6.3" height="11.8"/>
		</g>
	</g>
	<path class="st31" d="M669.4,192.1"/>
	<path class="st31" d="M649.7,172.3"/>
	<path class="st31" d="M649.4,191.5"/>
	<path class="st31" d="M669.2,171.7"/>
	<path class="st31" d="M669.2,192.1"/>
	<path class="st31" d="M669.2,171.7"/>
	<path class="st31" d="M649.8,192.4"/>
	<path class="st31" d="M649.8,172"/>
	<path class="st31" d="M688.7,193"/>
	<path class="st31" d="M669.1,173.2"/>
	<path class="st31" d="M668.7,192.2"/>
	<path class="st31" d="M688.5,172.4"/>
	<path class="st31" d="M688.5,192.9"/>
	<path class="st31" d="M688.5,172.4"/>
	<path class="st31" d="M708.5,192.1"/>
	<path class="st31" d="M688.7,172.3"/>
	<path class="st31" d="M688.5,191.3"/>
	<path class="st31" d="M708.2,171.7"/>
	<path class="st31" d="M708.2,192.1"/>
	<path class="st31" d="M708.2,171.7"/>
	<path class="st31" d="M728,192.5"/>
	<path class="st31" d="M708.2,172.8"/>
	<path class="st31" d="M708,191.9"/>
	<path class="st31" d="M727.8,172.1"/>
	<path class="st31" d="M727.8,192.5"/>
	<path class="st31" d="M727.8,172.1"/>
	<path class="st31" d="M747.9,192.4"/>
	<path class="st31" d="M728.2,172.7"/>
	<path class="st31" d="M727.9,191.8"/>
	<path class="st31" d="M747.7,172"/>
	<path class="st31" d="M747.7,192.4"/>
	<path class="st31" d="M747.7,172"/>
	<path class="st31" d="M768.3,192.8"/>
	<path class="st31" d="M748.6,173.1"/>
	<path class="st31" d="M748.3,192.1"/>
	<path class="st31" d="M768,172.3"/>
	<path class="st31" d="M768,192.8"/>
	<path class="st31" d="M768,172.3"/>
	<line class="st31" x1="650.6" y1="83.2" x2="650.6" y2="184.6"/>
	<line class="st31" x1="666" y1="63.6" x2="666" y2="142.7"/>
	<line class="st31" x1="681.6" y1="42.6" x2="681.6" y2="184.6"/>
	<line class="st31" x1="697.1" y1="39.3" x2="697.1" y2="142.7"/>
	<line class="st31" x1="712.5" y1="38.1" x2="712.5" y2="184.6"/>
	<line class="st31" x1="728" y1="42.6" x2="728" y2="184.7"/>
	<line class="st31" x1="743.6" y1="63.6" x2="743.6" y2="142.7"/>
	<line class="st31" x1="759" y1="95.6" x2="759" y2="142.7"/>
	<line class="st31" x1="767.6" y1="129.8" x2="767.6" y2="143.1"/>
	<line class="st31" x1="719.9" y1="54.7" x2="651.2" y2="141.7"/>
	<line class="st31" x1="770.7" y1="106.7" x2="743" y2="141.7"/>
	<line class="st31" x1="651.7" y1="83.6" x2="696.9" y2="140.7"/>
	<line class="st31" x1="670.8" y1="68.1" x2="728.2" y2="140.7"/>
	<line class="st31" x1="766.8" y1="95.6" x2="766.8" y2="185.7"/>
	<line class="st31" x1="650.4" y1="194.7" x2="670.2" y2="252.9"/>
	<line class="st31" x1="669.9" y1="192.6" x2="650.2" y2="250.8"/>
	<line class="st31" x1="669.9" y1="192.6" x2="669.9" y2="252.8"/>
	<line class="st31" x1="650.6" y1="193.7" x2="650.6" y2="253.9"/>
	<line class="st31" x1="671.1" y1="195.7" x2="690.9" y2="253.9"/>
	<line class="st31" x1="690.6" y1="193.6" x2="670.9" y2="251.8"/>
	<line class="st31" x1="690.6" y1="193.6" x2="690.6" y2="253.9"/>
	<line class="st31" x1="691.3" y1="194.6" x2="711.1" y2="252.9"/>
	<line class="st31" x1="710.8" y1="192.5" x2="691.1" y2="250.7"/>
	<line class="st31" x1="710.8" y1="192.5" x2="710.8" y2="252.8"/>
	<line class="st31" x1="711.2" y1="194.7" x2="731" y2="252.9"/>
	<line class="st31" x1="730.7" y1="192.6" x2="711" y2="250.8"/>
	<line class="st31" x1="730.7" y1="192.6" x2="730.7" y2="252.8"/>
	<line class="st31" x1="731.6" y1="193.6" x2="751.4" y2="251.8"/>
	<line class="st31" x1="751" y1="191.6" x2="731.4" y2="249.8"/>
	<line class="st31" x1="751" y1="191.6" x2="751" y2="251.7"/>
	<line class="st31" x1="749.8" y1="192.5" x2="769.6" y2="250.7"/>
	<line class="st31" x1="769.3" y1="190.5" x2="749.6" y2="248.7"/>
	<line class="st31" x1="769.3" y1="190.5" x2="769.3" y2="250.7"/>
	<path class="st32" d="M768.1,172.5"/>
	<path class="st32" d="M649,172.5"/>
	<line class="st32" x1="639.7" y1="141.4" x2="774.6" y2="141.4"/>
	<line class="st31" x1="756.9" y1="85" x2="712.4" y2="141.3"/>
	<path class="st10" d="M714.4,84.9c-0.1-4.9-4.1-8.8-9-8.8s-8.9,3.9-9,8.8l0,0v15.1h18.1L714.4,84.9L714.4,84.9z"/>
	<g>
		<g>
			<path class="st10" d="M677.3,140c-0.1-4.9-4.1-8.8-9-8.8s-8.9,3.9-9,8.8l0,0v27.1h18V140L677.3,140z"/>
			<path class="st10" d="M756.2,138.8c-0.1-4.9-4.1-8.8-9-8.8s-8.9,3.9-9,8.8l0,0v27.1h18V138.8L756.2,138.8z"/>
			<g>
				<path class="st10" d="M754.9,212.1c-0.1-4.9-4.1-8.8-9-8.8s-8.9,3.9-9,8.8l0,0v27.1H755L754.9,212.1L754.9,212.1z"/>
				<path class="st10" d="M728.3,212.1c-0.1-4.9-4.1-8.8-9-8.8s-8.9,3.9-9,8.8l0,0v27.1h18.1L728.3,212.1L728.3,212.1z"/>
				<path class="st10" d="M701.8,212.1c-0.1-4.9-4.1-8.8-9-8.8s-8.9,3.9-9,8.8l0,0v27.1h18.1L701.8,212.1L701.8,212.1z"/>
				<path class="st10" d="M675.2,212.1c-0.1-4.9-4.1-8.8-9-8.8c-4.9,0-8.9,3.9-9,8.8l0,0v27.1h18.1L675.2,212.1L675.2,212.1z"/>
			</g>
			<path class="st10" d="M720.6,143.1c-0.2-7.2-8.1-13.1-15.5-13.1c-7.4,0-14.7,5.8-14.9,13.1l0,0v40.6h30.5L720.6,143.1
				L720.6,143.1z"/>
		</g>
	</g>
	<line class="st31" x1="687.8" y1="47.4" x2="762" y2="141.4"/>
	<polyline class="st11" points="774.9,184 774.9,195.8 633.6,195.8 633.6,184 	"/>
	<g>
		<g>
			<g>
				<g>
					<rect x="752.7" y="161.4" class="st8" width="2.8" height="22"/>
					<rect x="746.6" y="161.4" class="st8" width="1.8" height="22"/>
					<rect x="740.5" y="161.4" class="st8" width="1.8" height="22"/>
					<rect x="734.5" y="161.4" class="st8" width="1.8" height="22"/>
					<rect x="728.5" y="161.4" class="st8" width="1.8" height="22"/>
					<rect x="722.5" y="161.4" class="st8" width="1.8" height="22"/>
					<rect x="716.4" y="161.4" class="st8" width="1.8" height="22"/>
					<rect x="710.4" y="161.4" class="st8" width="1.8" height="22"/>
					<rect x="704.3" y="161.4" class="st8" width="1.8" height="22"/>
					<rect x="698.3" y="161.4" class="st8" width="1.8" height="22"/>
					<rect x="692.3" y="161.4" class="st8" width="1.8" height="22"/>
					<rect x="686.3" y="161.4" class="st8" width="1.8" height="22"/>
					<rect x="680.2" y="161.4" class="st8" width="1.8" height="22"/>
					<rect x="674.1" y="161.4" class="st8" width="1.8" height="22"/>
					<polyline class="st8" points="668.1,161.4 669.9,161.4 669.9,183.4 668.1,183.4 					"/>
					<rect x="662" y="161.4" class="st8" width="1.8" height="22"/>
					<rect x="655" y="161.4" class="st8" width="2.8" height="22"/>
				</g>
			</g>
			<g>
				<rect x="652" y="182.2" class="st8" width="106.5" height="3.6"/>
			</g>
			<g>
				<rect x="652" y="161" class="st8" width="106.5" height="1.8"/>
			</g>
		</g>
	</g>
	<g>
		<g>
			<rect x="768.7" y="129.8" class="st8" width="6.3" height="11.8"/>
			<rect x="764.2" y="143.3" class="st8" width="10.7" height="11.8"/>
		</g>
		<g>
			<rect x="768.7" y="156.9" class="st8" width="6.3" height="11.8"/>
			<rect x="764.2" y="170.4" class="st8" width="10.7" height="11.8"/>
		</g>
		<g>
			<rect x="768.7" y="184" class="st8" width="6.3" height="11.8"/>
			<rect x="764.2" y="197.5" class="st8" width="10.7" height="11.8"/>
		</g>
		<g>
			<rect x="768.7" y="211.1" class="st8" width="6.3" height="11.8"/>
			<rect x="764.2" y="224.7" class="st8" width="10.7" height="11.8"/>
		</g>
		<g>
			<rect x="768.7" y="238.2" class="st8" width="6.3" height="11.8"/>
		</g>
	</g>
	<polyline class="st8" points="633.6,263.5 633.6,251.4 774.9,251.4 774.9,263.5 	"/>
	<polygon class="st11" points="629.4,135.6 607.3,135.6 704.5,10 801.3,135.6 779.2,135.8 704.1,36.8 	"/>
</g>
<g>
	<path class="st3" d="M781.4,239.5c0-8-6.5-14.5-14.5-14.5h-0.1c0.1-0.4,0.1-1,0.1-1.4c0-6.6-5.3-11.9-11.9-11.9
		c-4.4,0-8.2,2.4-10.3,5.9c-1.7-2.5-4.5-4.1-7.8-4.1c-4.3,0-8,2.9-9.1,6.9c-1.9-1-4.1-1.5-6.5-1.5c-8,0-14.5,6.5-14.5,14.5
		c0,4.9,2.4,9.2,6.2,11.8c-3.6,1.3-6.2,4.8-6.2,8.9c0,5.2,4.2,9.4,9.4,9.4h54.9c5.2,0,9.4-4.2,9.4-9.4c0-2.3-0.8-4.3-2.1-5.8
		C780.4,245.7,781.4,242.7,781.4,239.5z"/>
	<g>
		<circle class="st4" cx="760.4" cy="242.4" r="2.1"/>
		<circle class="st4" cx="732" cy="228.2" r="2.1"/>
		<circle class="st4" cx="717" cy="234.3" r="2.1"/>
		<circle class="st4" cx="721.4" cy="250" r="2.1"/>
		<circle class="st4" cx="735" cy="258.3" r="2.1"/>
		<circle class="st4" cx="739" cy="243.8" r="2.1"/>
		<circle class="st4" cx="746.2" cy="229.5" r="2.1"/>
		<circle class="st4" cx="755.7" cy="221.1" r="2.1"/>
		<circle class="st4" cx="770.7" cy="233.5" r="2.1"/>
		<circle class="st4" cx="769.9" cy="256.6" r="2.1"/>
		<circle class="st4" cx="752" cy="251.3" r="2.1"/>
	</g>
</g>
<g>
	<polygon class="st33" points="632.1,262.4 507.9,262.4 507.9,157.3 569.2,78.7 632.1,157.3 	"/>
	<circle class="st34" cx="570.3" cy="125.3" r="8.3"/>
	<polygon class="st8" points="510.9,251.8 507.9,251.8 507.9,157.3 510.9,153.2 	"/>
	<polygon class="st8" points="632.1,251.8 628.9,251.8 628.9,153.2 632.1,157.8 	"/>
	<line class="st35" x1="510.8" y1="202.2" x2="530.3" y2="253.4"/>
	<line class="st35" x1="530.1" y1="200.4" x2="510.6" y2="251.6"/>
	<line class="st35" x1="530.1" y1="113.1" x2="530.1" y2="251.8"/>
	<line class="st35" x1="510.9" y1="201.3" x2="510.9" y2="254.3"/>
	<line class="st35" x1="531.3" y1="203.1" x2="550.7" y2="254.3"/>
	<line class="st35" x1="550.5" y1="201.3" x2="531" y2="252.5"/>
	<line class="st35" x1="550.5" y1="95" x2="550.5" y2="254.2"/>
	<line class="st35" x1="551.3" y1="202.2" x2="570.7" y2="253.3"/>
	<line class="st35" x1="570.5" y1="200.3" x2="550.9" y2="251.5"/>
	<line class="st35" x1="570.5" y1="74.9" x2="570.5" y2="251.4"/>
	<line class="st35" x1="570.8" y1="202.2" x2="590.4" y2="253.4"/>
	<line class="st35" x1="590.2" y1="200.4" x2="570.6" y2="251.6"/>
	<line class="st35" x1="590.2" y1="92.3" x2="590.2" y2="251.5"/>
	<line class="st35" x1="591" y1="201.3" x2="610.5" y2="252.5"/>
	<line class="st35" x1="610.2" y1="199.5" x2="590.7" y2="250.6"/>
	<line class="st35" x1="610.2" y1="110.7" x2="610.2" y2="251.8"/>
	<line class="st35" x1="609" y1="200.3" x2="628.5" y2="251.5"/>
	<line class="st35" x1="628.3" y1="198.6" x2="608.8" y2="249.8"/>
	<line class="st35" x1="628.3" y1="198.6" x2="628.3" y2="251.5"/>
	<line class="st35" x1="500.6" y1="150.2" x2="639.3" y2="150.2"/>
	<line class="st35" x1="570.5" y1="108.5" x2="610" y2="149.3"/>
	<line class="st35" x1="570.3" y1="108.5" x2="530.7" y2="149.3"/>
	<g>
		<g>
			<rect x="520" y="164.5" class="st34" width="21.6" height="22.5"/>
			<rect x="574" y="164.5" class="st34" width="21.6" height="22.5"/>
			<rect x="600.9" y="164.5" class="st34" width="21.6" height="22.5"/>
			<rect x="546.8" y="164.5" class="st34" width="21.6" height="22.5"/>
		</g>
	</g>
	<rect x="509.7" y="198.4" class="st11" width="119.5" height="4"/>
	<polygon class="st12" points="504.1,162.4 484.7,162.4 570.1,59 655.2,162.4 635.6,162.5 569.8,82.5 	"/>
	<rect x="507.9" y="251.8" class="st36" width="124.2" height="10.6"/>
	<g>
		<g>
			<g>
				<rect x="526.1" y="218.2" class="st34" width="19.8" height="20.6"/>
			</g>
			<g>
				<rect x="595.6" y="218.2" class="st34" width="19.8" height="20.6"/>
			</g>
		</g>
	</g>
	<path class="st11" d="M583.1,230c0-8-6.5-14.5-14.5-14.5c-8,0-14.5,6.5-14.5,14.5v32.7h29V230z"/>
</g>
<g>
	<rect x="541.7" y="239.8" class="st5" width="2.6" height="23.9"/>
	<rect x="541.1" y="239.6" class="st6" width="4.1" height="3.4"/>
</g>
<g>
	<rect x="605.5" y="239.9" class="st5" width="2.6" height="23.9"/>
	<rect x="604.7" y="239.7" class="st6" width="4.1" height="3.4"/>
</g>
<g>
	<rect x="435.3" y="26.1" class="st12" width="20.9" height="39.4"/>
	<rect x="396.5" y="110.7" class="st18" width="119" height="152.5"/>
	<rect x="396.5" y="244.5" class="st8" width="119" height="18.7"/>
	<g>
		<rect x="396.5" y="50.2" class="st19" width="119" height="64.2"/>
		<g>
			<g>
				<defs>
					<rect id="SVGID_3_" x="396.5" y="50.2" width="119" height="64.2"/>
				</defs>
				<clipPath id="SVGID_4_">
					<use xlink:href="#SVGID_3_"  style="overflow:visible;"/>
				</clipPath>
				<g class="st37">
					<g>
						<ellipse class="st12" cx="409.2" cy="53.4" rx="4.2" ry="4.2"/>
						<ellipse class="st12" cx="409.2" cy="65.4" rx="4.2" ry="4.2"/>
						<ellipse class="st12" cx="409.2" cy="78.5" rx="4.2" ry="4.2"/>
						<ellipse class="st12" cx="409.2" cy="90.5" rx="4.2" ry="4.2"/>
						<ellipse class="st12" cx="409.2" cy="103.6" rx="4.2" ry="4.2"/>
						<ellipse class="st12" cx="409.2" cy="115.6" rx="4.2" ry="4.2"/>
					</g>
					<g>
						<ellipse class="st12" cx="417.8" cy="59.4" rx="4.2" ry="4.2"/>
						<ellipse class="st12" cx="417.8" cy="71.4" rx="4.2" ry="4.2"/>
						<ellipse class="st12" cx="417.8" cy="84.5" rx="4.2" ry="4.2"/>
						<ellipse class="st12" cx="417.8" cy="96.5" rx="4.2" ry="4.2"/>
						<ellipse class="st12" cx="417.8" cy="109.7" rx="4.2" ry="4.2"/>
						<ellipse class="st12" cx="417.8" cy="121.6" rx="4.2" ry="4.2"/>
					</g>
					<g>
						<ellipse class="st12" cx="426.2" cy="53.4" rx="4.2" ry="4.2"/>
						<ellipse class="st12" cx="426.2" cy="65.4" rx="4.2" ry="4.2"/>
						<ellipse class="st12" cx="426.2" cy="78.5" rx="4.2" ry="4.2"/>
						<ellipse class="st12" cx="426.2" cy="90.5" rx="4.2" ry="4.2"/>
						<ellipse class="st12" cx="426.2" cy="103.6" rx="4.2" ry="4.2"/>
						<ellipse class="st12" cx="426.2" cy="115.6" rx="4.2" ry="4.2"/>
					</g>
					<g>
						<ellipse class="st12" cx="434.8" cy="59.4" rx="4.2" ry="4.2"/>
						<ellipse class="st12" cx="434.8" cy="71.4" rx="4.2" ry="4.2"/>
						<ellipse class="st12" cx="434.8" cy="84.5" rx="4.2" ry="4.2"/>
						<ellipse class="st12" cx="434.8" cy="96.5" rx="4.2" ry="4.2"/>
						<ellipse class="st12" cx="434.8" cy="109.7" rx="4.2" ry="4.2"/>
						<ellipse class="st12" cx="434.8" cy="121.6" rx="4.2" ry="4.2"/>
					</g>
					<g>
						<ellipse class="st12" cx="443.3" cy="53.4" rx="4.2" ry="4.2"/>
						<ellipse class="st12" cx="443.3" cy="65.4" rx="4.2" ry="4.2"/>
						<ellipse class="st12" cx="443.3" cy="78.5" rx="4.2" ry="4.2"/>
						<ellipse class="st12" cx="443.3" cy="90.5" rx="4.2" ry="4.2"/>
						<ellipse class="st12" cx="443.3" cy="103.6" rx="4.2" ry="4.2"/>
						<ellipse class="st12" cx="443.3" cy="115.6" rx="4.2" ry="4.2"/>
					</g>
					<g>
						<ellipse class="st12" cx="451.9" cy="59.4" rx="4.2" ry="4.2"/>
						<ellipse class="st12" cx="451.9" cy="71.4" rx="4.2" ry="4.2"/>
						<ellipse class="st12" cx="451.9" cy="84.5" rx="4.2" ry="4.2"/>
						<ellipse class="st12" cx="451.9" cy="96.5" rx="4.2" ry="4.2"/>
						<ellipse class="st12" cx="451.9" cy="109.7" rx="4.2" ry="4.2"/>
						<ellipse class="st12" cx="451.9" cy="121.6" rx="4.2" ry="4.2"/>
					</g>
					<g>
						<ellipse class="st12" cx="460.3" cy="53.4" rx="4.2" ry="4.2"/>
						<ellipse class="st12" cx="460.3" cy="65.4" rx="4.2" ry="4.2"/>
						<ellipse class="st12" cx="460.3" cy="78.5" rx="4.2" ry="4.2"/>
						<ellipse class="st12" cx="460.3" cy="90.5" rx="4.2" ry="4.2"/>
						<ellipse class="st12" cx="460.3" cy="103.6" rx="4.2" ry="4.2"/>
						<ellipse class="st12" cx="460.3" cy="115.6" rx="4.2" ry="4.2"/>
					</g>
					<g>
						<ellipse class="st12" cx="468.8" cy="59.4" rx="4.2" ry="4.2"/>
						<ellipse class="st12" cx="468.8" cy="71.4" rx="4.2" ry="4.2"/>
						<ellipse class="st12" cx="468.8" cy="84.5" rx="4.2" ry="4.2"/>
						<ellipse class="st12" cx="468.8" cy="96.5" rx="4.2" ry="4.2"/>
						<ellipse class="st12" cx="468.8" cy="109.7" rx="4.2" ry="4.2"/>
						<ellipse class="st12" cx="468.8" cy="121.6" rx="4.2" ry="4.2"/>
					</g>
					<g>
						<ellipse class="st12" cx="477.4" cy="53.4" rx="4.2" ry="4.2"/>
						<ellipse class="st12" cx="477.4" cy="65.4" rx="4.2" ry="4.2"/>
						<ellipse class="st12" cx="477.4" cy="78.5" rx="4.2" ry="4.2"/>
						<ellipse class="st12" cx="477.4" cy="90.5" rx="4.2" ry="4.2"/>
						<ellipse class="st12" cx="477.4" cy="103.6" rx="4.2" ry="4.2"/>
						<ellipse class="st12" cx="477.4" cy="115.6" rx="4.2" ry="4.2"/>
					</g>
					<g>
						<ellipse class="st12" cx="485.9" cy="59.4" rx="4.2" ry="4.2"/>
						<ellipse class="st12" cx="485.9" cy="71.4" rx="4.2" ry="4.2"/>
						<ellipse class="st12" cx="485.9" cy="84.5" rx="4.2" ry="4.2"/>
						<ellipse class="st12" cx="485.9" cy="96.5" rx="4.2" ry="4.2"/>
						<ellipse class="st12" cx="485.9" cy="109.7" rx="4.2" ry="4.2"/>
						<ellipse class="st12" cx="485.9" cy="121.6" rx="4.2" ry="4.2"/>
					</g>
					<g>
						<ellipse class="st12" cx="494.5" cy="53.4" rx="4.2" ry="4.2"/>
						<ellipse class="st12" cx="494.5" cy="65.4" rx="4.2" ry="4.2"/>
						<ellipse class="st12" cx="494.5" cy="78.5" rx="4.2" ry="4.2"/>
						<ellipse class="st12" cx="494.5" cy="90.5" rx="4.2" ry="4.2"/>
						<ellipse class="st12" cx="494.5" cy="103.6" rx="4.2" ry="4.2"/>
						<ellipse class="st12" cx="494.5" cy="115.6" rx="4.2" ry="4.2"/>
					</g>
					<g>
						<ellipse class="st12" cx="502.9" cy="59.4" rx="4.2" ry="4.2"/>
						<ellipse class="st12" cx="502.9" cy="71.4" rx="4.2" ry="4.2"/>
						<ellipse class="st12" cx="502.9" cy="84.5" rx="4.2" ry="4.2"/>
						<ellipse class="st12" cx="502.9" cy="96.5" rx="4.2" ry="4.2"/>
						<ellipse class="st12" cx="502.9" cy="109.7" rx="4.2" ry="4.2"/>
						<ellipse class="st12" cx="502.9" cy="121.6" rx="4.2" ry="4.2"/>
					</g>
				</g>
			</g>
		</g>
	</g>
	<rect x="396.5" y="44.7" class="st11" width="9.6" height="69.9"/>
	<rect x="505.9" y="44.7" class="st11" width="9.6" height="69.9"/>
	<line class="st21" x1="397" y1="163.9" x2="416.8" y2="183.7"/>
	<line class="st21" x1="416.6" y1="163.2" x2="396.8" y2="183"/>
	<line class="st21" x1="416.6" y1="163.2" x2="416.6" y2="183.7"/>
	<line class="st21" x1="397.2" y1="163.5" x2="397.2" y2="184"/>
	<line class="st21" x1="416.4" y1="164.7" x2="436.2" y2="184.5"/>
	<line class="st21" x1="435.9" y1="164" x2="416.2" y2="183.8"/>
	<line class="st21" x1="435.9" y1="164" x2="435.9" y2="184.4"/>
	<line class="st21" x1="436.2" y1="163.9" x2="455.9" y2="183.7"/>
	<line class="st21" x1="455.7" y1="163.2" x2="435.9" y2="182.9"/>
	<line class="st21" x1="455.7" y1="163.2" x2="455.7" y2="183.7"/>
	<line class="st21" x1="455.7" y1="164.4" x2="475.4" y2="184.1"/>
	<line class="st21" x1="475.1" y1="163.7" x2="455.4" y2="183.4"/>
	<line class="st21" x1="475.1" y1="163.7" x2="475.1" y2="184.1"/>
	<line class="st21" x1="475.6" y1="164.3" x2="495.3" y2="184"/>
	<line class="st21" x1="495" y1="163.5" x2="475.3" y2="183.3"/>
	<line class="st21" x1="495" y1="163.5" x2="495" y2="184"/>
	<line class="st21" x1="496" y1="164.6" x2="515.7" y2="184.3"/>
	<line class="st21" x1="515.5" y1="163.9" x2="495.7" y2="183.7"/>
	<line class="st21" x1="515.5" y1="163.9" x2="515.5" y2="184.3"/>
	<line class="st21" x1="405.7" y1="121.4" x2="405.7" y2="164"/>
	<line class="st21" x1="419.3" y1="121.4" x2="419.3" y2="134.7"/>
	<line class="st21" x1="432.9" y1="121.4" x2="432.9" y2="164"/>
	<line class="st21" x1="446.7" y1="121.4" x2="446.7" y2="134.7"/>
	<line class="st21" x1="460.3" y1="121.4" x2="460.3" y2="164"/>
	<line class="st21" x1="474" y1="121.4" x2="474" y2="164.1"/>
	<line class="st21" x1="487.7" y1="121.4" x2="487.7" y2="134.7"/>
	<line class="st21" x1="501.3" y1="121.4" x2="501.3" y2="134.7"/>
	<line class="st21" x1="515" y1="121.4" x2="515" y2="134.7"/>
	<line class="st21" x1="419.4" y1="120.8" x2="406.2" y2="134"/>
	<line class="st21" x1="500.4" y1="120.8" x2="487.2" y2="134"/>
	<line class="st21" x1="433.3" y1="120.2" x2="446.5" y2="133.4"/>
	<line class="st21" x1="460.8" y1="120.2" x2="474.1" y2="133.4"/>
	<line class="st21" x1="508.2" y1="120.3" x2="508.2" y2="163"/>
	<line class="st21" x1="396.9" y1="190.2" x2="416.7" y2="244"/>
	<line class="st21" x1="416.4" y1="188.2" x2="396.7" y2="242.1"/>
	<line class="st21" x1="416.4" y1="188.2" x2="416.4" y2="243.9"/>
	<line class="st21" x1="397" y1="189.3" x2="397" y2="244.9"/>
	<line class="st21" x1="417.6" y1="191.1" x2="437.4" y2="245"/>
	<line class="st21" x1="437.2" y1="189.2" x2="417.4" y2="243"/>
	<line class="st21" x1="437.2" y1="189.2" x2="437.2" y2="244.9"/>
	<line class="st21" x1="437.8" y1="190.2" x2="457.6" y2="243.9"/>
	<line class="st21" x1="457.3" y1="188.2" x2="437.6" y2="242.1"/>
	<line class="st21" x1="457.3" y1="188.2" x2="457.3" y2="243.9"/>
	<line class="st21" x1="457.7" y1="190.2" x2="477.5" y2="244"/>
	<line class="st21" x1="477.3" y1="188.2" x2="457.5" y2="242.1"/>
	<line class="st21" x1="477.3" y1="188.2" x2="477.3" y2="243.9"/>
	<line class="st21" x1="478" y1="189.2" x2="497.8" y2="243"/>
	<line class="st21" x1="497.5" y1="187.2" x2="477.8" y2="241.1"/>
	<line class="st21" x1="497.5" y1="187.2" x2="497.5" y2="242.9"/>
	<line class="st21" x1="496.3" y1="188.2" x2="516.1" y2="242.1"/>
	<line class="st21" x1="515.8" y1="186.3" x2="496.1" y2="240.1"/>
	<line class="st21" x1="515.8" y1="186.3" x2="515.8" y2="242"/>
	<g>
		<rect x="409.6" y="133.8" class="st22" width="22.8" height="30.3"/>
		<rect x="444.7" y="133.8" class="st22" width="22.8" height="30.3"/>
		<rect x="479.9" y="133.8" class="st22" width="22.8" height="30.3"/>
	</g>
	<g>
		<rect x="408.6" y="200.5" class="st22" width="22.8" height="30.3"/>
		<rect x="443.8" y="200.5" class="st22" width="22.8" height="30.3"/>
		<rect x="478.9" y="200.5" class="st22" width="22.8" height="30.3"/>
	</g>
	<rect x="392.6" y="114.6" class="st11" width="125.8" height="6.9"/>
	<g>
		<g>
			<g>
				<path class="st16" d="M402.3,189c0,1.7-1.6,3.1-3.6,3.1c-1.9,0-3.6-1.4-3.6-3.1c0-0.5,0-3.5,0-3.5h7.1
					C402.3,185.5,402.3,187.2,402.3,189z"/>
				<path class="st17" d="M409.5,189c0,1.7-1.6,3.1-3.6,3.1c-1.9,0-3.6-1.4-3.6-3.1c0-0.5,0-3.5,0-3.5h7.1
					C409.5,185.5,409.5,187.2,409.5,189z"/>
			</g>
			<g>
				<path class="st16" d="M416.6,189c0,1.7-1.6,3.1-3.6,3.1s-3.6-1.4-3.6-3.1c0-0.5,0-3.5,0-3.5h7.1
					C416.6,185.5,416.6,187.2,416.6,189z"/>
				<path class="st17" d="M423.7,189c0,1.7-1.6,3.1-3.6,3.1c-1.9,0-3.6-1.4-3.6-3.1c0-0.5,0-3.5,0-3.5h7.1
					C423.7,185.5,423.7,187.2,423.7,189z"/>
			</g>
			<g>
				<path class="st16" d="M431,189c0,1.7-1.6,3.1-3.6,3.1c-1.9,0-3.6-1.4-3.6-3.1c0-0.5,0-3.5,0-3.5h7.1
					C431,185.5,431,187.2,431,189z"/>
				<path class="st17" d="M438.1,189c0,1.7-1.6,3.1-3.6,3.1c-1.9,0-3.6-1.4-3.6-3.1c0-0.5,0-3.5,0-3.5h7.1
					C438.1,185.5,438.1,187.2,438.1,189z"/>
			</g>
			<g>
				<path class="st16" d="M445.3,189c0,1.7-1.6,3.1-3.6,3.1s-3.6-1.4-3.6-3.1c0-0.5,0-3.5,0-3.5h7.1
					C445.3,185.5,445.3,187.2,445.3,189z"/>
				<path class="st17" d="M452.4,189c0,1.7-1.6,3.1-3.6,3.1c-1.9,0-3.6-1.4-3.6-3.1c0-0.5,0-3.5,0-3.5h7.1
					C452.4,185.5,452.4,187.2,452.4,189z"/>
			</g>
			<g>
				<path class="st16" d="M459.5,189c0,1.7-1.6,3.1-3.6,3.1c-1.9,0-3.6-1.4-3.6-3.1c0-0.5,0-3.5,0-3.5h7.1
					C459.5,185.5,459.5,187.2,459.5,189z"/>
				<path class="st17" d="M466.7,189c0,1.7-1.6,3.1-3.6,3.1c-1.9,0-3.6-1.4-3.6-3.1c0-0.5,0-3.5,0-3.5h7.1
					C466.7,185.5,466.7,187.2,466.7,189z"/>
			</g>
			<g>
				<path class="st16" d="M473.9,189c0,1.7-1.6,3.1-3.6,3.1s-3.6-1.4-3.6-3.1c0-0.5,0-3.5,0-3.5h7.1
					C473.9,185.5,473.9,187.2,473.9,189z"/>
				<path class="st17" d="M481.1,189c0,1.7-1.6,3.1-3.6,3.1c-1.9,0-3.6-1.4-3.6-3.1c0-0.5,0-3.5,0-3.5h7.1
					C481.1,185.5,481.1,187.2,481.1,189z"/>
			</g>
			<g>
				<path class="st16" d="M488.2,189c0,1.7-1.6,3.1-3.6,3.1c-1.9,0-3.6-1.4-3.6-3.1c0-0.5,0-3.5,0-3.5h7.1
					C488.2,185.5,488.2,187.2,488.2,189z"/>
				<path class="st17" d="M495.3,189c0,1.7-1.6,3.1-3.6,3.1c-1.9,0-3.6-1.4-3.6-3.1c0-0.5,0-3.5,0-3.5h7.1
					C495.3,185.5,495.3,187.2,495.3,189z"/>
			</g>
			<g>
				<path class="st16" d="M502.5,189c0,1.7-1.6,3.1-3.6,3.1c-1.9,0-3.6-1.4-3.6-3.1c0-0.5,0-3.5,0-3.5h7.1
					C502.5,185.5,502.5,187.2,502.5,189z"/>
				<path class="st17" d="M509.6,189c0,1.7-1.6,3.1-3.6,3.1c-1.9,0-3.6-1.4-3.6-3.1c0-0.5,0-3.5,0-3.5h7.1
					C509.6,185.5,509.6,187.2,509.6,189z"/>
			</g>
			<g>
				<path class="st16" d="M516.9,189c0,1.7-1.6,3.1-3.6,3.1c-1.9,0-3.6-1.4-3.6-3.1c0-0.5,0-3.5,0-3.5h7.1
					C516.9,185.5,516.9,187.2,516.9,189z"/>
			</g>
		</g>
		<g>
			<rect x="395.2" y="181.7" class="st8" width="121.7" height="3.8"/>
		</g>
	</g>
	<line class="st23" x1="396.5" y1="164.1" x2="515.5" y2="164.1"/>
	<line class="st23" x1="396.1" y1="133.8" x2="515" y2="133.8"/>
</g>
<g>
	<path class="st1" d="M384.2,221.1c-14.2,0.8-28.3-9.6-36.2-18.7c-4.9-5.5-7.6-11.6-8.8-18.1c-0.3-1.8-2.4-7,0.6-7.9
		c1.7-0.4,5.6,3.7,7.8,4.2c2.6-7-3.2-14.8-2.8-22.3c0.3-5.5,3.9-17.5,9.1-21c0.8,2.1,0.8,4.3,1.7,6.5c4.9-3.9,3.9-14.9,6.3-20.3
		c2.8-6.4,9-19.6,15.7-23.6c14.8-8.7,24.4,24.8,30.2,31.4c4.3-2.1,2.5-7.6,2.8-11.4c6.1-0.2,11.6,13.4,12.9,17.8
		c1.5,5-0.3,20.3,2.7,23.1c0.8-1.3,2.7-2.4,3-4.2c16.1,9.2,10.1,33.4,1.4,44.7c-10.2,13.2-25.1,19.9-43.7,19.8h-2.7V221.1z"/>
	<path class="st2" d="M386.5,224.6c3,6.9-1.1,17.5-1.9,24.6c-0.9,7.2-2.6,14.5-2.2,21.7c6.4,0.9,13.6-0.9,20.1-1
		c-4.9-11-4.2-22.7-5.4-34.2c-0.2-2.5-1.9-6.1-1.1-8.5c1-3,4.5-3.7,7-6.1c3.2-3,8-9.8,7.2-14.1c-3.1,0.6-4.9,5.2-7.5,5.6
		c-5,0.8-1.6-5.3-0.9-7.7c1.2-4.1,6.2-14.5,1.3-17.7c-3.6,2.6-3.7,9.3-4.9,13.1c-1.3-1.5-1.3-3.7-3.5-5.1c-1.9,1.6,5,23-5.9,18.8
		c-6.9-2.6-6.9-20.1-16.7-18.7c0,2.5,2.7,2.7,2.2,5.3c-1.7-0.5-4,0-5.8-0.2c0.1,3,2.8,1.8,4.9,3.4c1.9,1.4,3.2,3.1,4.7,5.2
		c2.2,3.2,5.6,7.8,5.3,11.6c-5.4,0.8-10.2-5.7-15.9-5.9C365.4,222.1,381.5,223,386.5,224.6L386.5,224.6z"/>
</g>
<g>
	<rect x="414.4" y="239.6" class="st5" width="2.6" height="23.9"/>
	<rect x="413.8" y="239.4" class="st6" width="4.1" height="3.4"/>
</g>
<g>
	<rect x="478.1" y="239.7" class="st5" width="2.6" height="23.9"/>
	<rect x="477.4" y="239.5" class="st6" width="4.1" height="3.4"/>
</g>
<g>
	<g>
		<path class="st38" d="M438.7,248.2c-1.9,3.6-3.8,6.3-3.9,6.5l-1.4-1c0-0.1,1.9-2.8,3.9-6.5c-1-0.4-2.1-0.6-3.1-0.6
			c-4.2,0-7.7,3.5-7.7,7.7c0,4.2,3.5,7.7,7.7,7.7c4.2,0,7.7-3.5,7.7-7.7C441.7,251.8,440.5,249.5,438.7,248.2z"/>
		<path class="st6" d="M440.5,244.1c0.2-0.4,1.9-5,3.5-8.7c0.3-0.6,0.6-0.8,1.1-0.8v0.5v-1.9c-1.8,0-2.5,1.7-2.5,1.7
			c-1.2,2.7-2.1,5.4-3.5,8.4c-3.7-1.4-7-0.8-7.7-0.8c-1.6,0.2-2.4,1.6-0.9,1.5c5.5-0.8,7.8,0.8,7.8,0.8s-0.2,0.4-0.3,0.8
			c-1.2-0.5-2.5-0.9-3.9-0.9c-5.2,0-9.3,4.2-9.3,9.3s4.2,9.3,9.3,9.3c5.2,0,9.3-4.2,9.3-9.3c0-3.1-1.5-5.8-3.9-7.6
			c0.1-0.3,0.3-0.5,0.4-0.9c0.8,0.3,1.7,1.2,1.7,1.2s3.2,2.8,2.8,7.2c-0.2,1.1,1,1.5,1.3,0c0.2-1.3,0-3.7-0.9-5c0,0,2.6,1.8,4,4.3
			c0,0.6,0.1,1.1,0.4,1.5v-3.1C448.6,250.9,446.1,247.8,440.5,244.1z M441.7,254.3c0,4.2-3.5,7.7-7.7,7.7c-4.2,0-7.7-3.5-7.7-7.7
			c0-4.2,3.5-7.7,7.7-7.7c1.1,0,2.2,0.2,3.1,0.6c-1.9,3.7-3.8,6.4-3.9,6.5l1.4,1c0.1-0.2,1.9-2.9,3.9-6.5
			C440.5,249.5,441.7,251.8,441.7,254.3z"/>
		<path class="st30" d="M448.8,248c-0.4,0.1-0.2,0.9,0,0.9c0.1,0,0.4,0,0.5,0V248C449.2,248,448.9,248,448.8,248z"/>
		<path class="st6" d="M473.1,254.3c0-5.2-4.2-9.3-9.3-9.3c-0.3,0-0.6,0-1,0.1h-2.6c0.3-0.2,0.8-0.4,1.2-0.5
			c1.7-0.5,6.1-0.9,10.3,3.1c1.1,1.1,2.3-0.2,0.8-1.7c-3.8-3.4-8.5-4-11.6-3c-1.7,0.5-2.7,1.5-3.1,2.2h-0.4l3.5-6.1c0,0,2.4,0,3,0
			c1.3-0.6,0.5-1.6,0-1.7c-0.3,0-5.2,0-5.6,0c-1.4,0.3-0.6,1.7,0,1.7c0.2,0,0.6,0,0.6,0l-7.4,12.8h-0.1h-0.1l-0.5-2.9
			c0,0,0.5,0,0.6,0c0.4-0.3,0.1-0.9,0-0.9c0,0-1.1,0-1.7,0v0.9c0.1,0,0.3,0,0.3,0l0.5,3.1c-0.3,0.2-0.4,0.3-0.5,0.5
			c0,0-0.1-0.1-0.3-0.4v3.1c0.4,0.6,1.1,1,1.7,1c0.8,0,1.5-0.4,1.8-1.1h1.3c0.4,4.8,4.4,8.4,9.3,8.4
			C468.8,263.6,473.1,259.4,473.1,254.3z M454.4,253.4h-1.1c-0.1-0.3-0.2-0.6-0.4-0.9l3.6-5.8h1.8
			C456.1,248.2,454.7,250.6,454.4,253.4z M462.8,246.7L462.8,246.7v6.7h-6.7C456.5,249.9,459.2,247,462.8,246.7z M463.7,261.9
			c-3.9,0-7.1-3-7.6-6.8h8.4v-8.4c3.8,0.4,6.8,3.7,6.8,7.6C471.3,258.5,467.9,261.9,463.7,261.9z"/>
	</g>
	<g>
		<g>
			<path class="st38" d="M462.8,246.7L462.8,246.7c-3.6,0.4-6.4,3.2-6.7,6.7h6.7V246.7z"/>
			<path class="st38" d="M458.2,246.7h-1.8l-3.6,5.8c0.2,0.2,0.3,0.5,0.4,0.9h1.1C454.7,250.6,456.1,248.2,458.2,246.7z"/>
			<path class="st38" d="M438.7,248.2c-1.9,3.6-3.8,6.3-3.9,6.5l-1.4-1c0-0.1,1.9-2.8,3.9-6.5c-1-0.4-2.1-0.6-3.1-0.6
				c-4.2,0-7.7,3.5-7.7,7.7c0,4.2,3.5,7.7,7.7,7.7c4.2,0,7.7-3.5,7.7-7.7C441.7,251.8,440.5,249.5,438.7,248.2z"/>
			<path class="st38" d="M464.5,246.6v8.4h-8.4c0.4,3.8,3.7,6.8,7.6,6.8c4.2,0,7.7-3.5,7.7-7.7C471.3,250.3,468.3,247,464.5,246.6z"
				/>
			<path class="st39" d="M448.7,235.3L448.7,235.3h-3.7C445.8,235.4,447,235.3,448.7,235.3z"/>
			<path class="st40" d="M445.1,232.9c1.2,0,2.1,0,3.7,0H445.1v0.4l0,0V232.9z"/>
			<path class="st30" d="M448.7,235.3c0.1-0.1,1.4-1.3,0-2.4c-1.6,0-2.5,0-3.7,0v0.4l0,0v1.9H448.7z"/>
		</g>
		<circle class="st11" cx="434.1" cy="254.3" r="2.9"/>
		<circle class="st29" cx="434.1" cy="254.3" r="1.1"/>
		<circle class="st11" cx="464.2" cy="254.3" r="2.9"/>
		<circle class="st29" cx="464.2" cy="254.3" r="1.1"/>
		<path class="st30" d="M464.2,251.4c1.6,0,2.9,1.3,2.9,2.9c0,1.6-1.3,2.9-2.9,2.9c-0.1,0-0.3,0-0.4,0l-12.4-1c-1.2,0-2.2-1-2.2-2.2
			c0-1.2,1-2.2,2.2-2.2L464.2,251.4 M464.2,250.6L464.2,250.6L464.2,250.6l-12.9,0.5c-1.6,0-2.9,1.3-2.9,2.9c0,1.6,1.3,2.9,2.8,2.9
			l12.4,1c0.2,0,0.3,0,0.5,0c2.1,0,3.7-1.6,3.7-3.7S466.1,250.6,464.2,250.6L464.2,250.6z"/>
	</g>
</g>
<g>
	<path class="st3" d="M554.8,248.3c0-5.5-4.4-10-10-10c0,0,0,0-0.1,0c0-0.3,0.1-0.6,0.1-1c0-4.5-3.7-8.2-8.2-8.2c-3,0-5.6,1.6-7,4.1
		c-1.2-1.7-3.1-2.8-5.3-2.8c-2.9,0-5.4,1.9-6.3,4.8c-1.3-0.6-2.8-1.1-4.4-1.1c-5.5,0-10,4.4-10,10c0,3.4,1.6,6.3,4.2,8.1
		c-2.5,1-4.2,3.2-4.2,6.1c0,3.6,2.9,6.5,6.5,6.5h37.6c3.6,0,6.5-2.9,6.5-6.5c0-1.5-0.5-2.9-1.4-4
		C554.2,252.7,554.8,250.6,554.8,248.3z"/>
	<g>
		<circle class="st4" cx="540.4" cy="250.4" r="1.4"/>
		<circle class="st4" cx="521" cy="240.7" r="1.4"/>
		<circle class="st4" cx="510.7" cy="244.8" r="1.4"/>
		<circle class="st4" cx="513.7" cy="255.5" r="1.4"/>
		<circle class="st4" cx="523" cy="261.2" r="1.4"/>
		<circle class="st4" cx="525.7" cy="251.3" r="1.4"/>
		<circle class="st4" cx="530.7" cy="241.5" r="1.4"/>
		<circle class="st4" cx="537.2" cy="235.7" r="1.4"/>
		<circle class="st4" cx="547.6" cy="244.2" r="1.4"/>
		<circle class="st4" cx="546.9" cy="260.1" r="1.4"/>
		<circle class="st4" cx="534.7" cy="256.5" r="1.4"/>
	</g>
</g>
<g>
	<path class="st6" d="M584.3,158.5c-0.5-5.1-4.8-9-10.1-9c-5.5,0-10.1,4.5-10.1,10.1c4.7,0,11.8,0,16.5,0v103.7h3.6V158.5
		L584.3,158.5z"/>
	<path class="st6" d="M931.6,158.5c-0.5-5.1-4.8-9-10.1-9c-5.5,0-10.1,4.5-10.1,10.1c4.7,0,11.8,0,16.5,0v103.7h3.6V158.5
		L931.6,158.5z"/>
	<path class="st6" d="M756.7,158.6c-0.5-5.1-4.8-9-10.1-9c-5.5,0-10.1,4.5-10.1,10.1c4.7,0,11.8,0,16.5,0v103.7h3.6V158.6
		L756.7,158.6z"/>
	<path class="st6" d="M412,158.7c-0.5-5.1-4.8-9-10.1-9c-5.5,0-10.1,4.5-10.1,10.1c4.7,0,11.8,0,16.5,0v103.7h3.6V158.7L412,158.7z"
		/>
</g>
</svg>
