<?xml version="1.0" encoding="utf-8"?>
<!-- Generator: Adobe Illustrator 19.2.0, SVG Export Plug-In . SVG Version: 6.00 Build 0)  -->
<svg version="1.1" id="Calque_1" xmlns="http://www.w3.org/2000/svg" xmlns:xlink="http://www.w3.org/1999/xlink" x="0px" y="0px"
	 viewBox="0 0 691 161.6" style="enable-background:new 0 0 691 161.6;" xml:space="preserve">
<style type="text/css">
	.st0{fill:#FFFFFF;}
	.st1{clip-path:url(#SVGID_2_);}
	.st2{clip-path:url(#SVGID_4_);}
</style>
<rect x="595.4" y="96.6" class="st0" width="3.1" height="32.2"/>
<g>
	<polygon class="st0" points="173.7,163.2 93.4,163.2 93.4,87.3 133.1,32 173.7,87.3 	"/>
	<g>
		<g>
			<rect x="93.4" y="87.3" class="st0" width="3.6" height="6.6"/>
			<rect x="93.4" y="95" class="st0" width="6.1" height="6.6"/>
		</g>
		<g>
			<rect x="93.4" y="102.7" class="st0" width="3.6" height="6.6"/>
			<rect x="93.4" y="110.4" class="st0" width="6.1" height="6.6"/>
		</g>
		<g>
			<rect x="93.4" y="125.8" class="st0" width="6.1" height="6.6"/>
		</g>
		<g>
			<rect x="93.4" y="133.5" class="st0" width="3.6" height="6.6"/>
			<rect x="93.4" y="141.1" class="st0" width="6.1" height="6.6"/>
		</g>
		<g>
			<rect x="93.4" y="148.8" class="st0" width="3.6" height="6.6"/>
		</g>
	</g>
	<g>
		<g>
			<rect x="170.1" y="87.3" class="st0" width="3.6" height="6.6"/>
			<rect x="167.7" y="95" class="st0" width="6.1" height="6.6"/>
		</g>
		<g>
			<rect x="170.1" y="102.7" class="st0" width="3.6" height="6.6"/>
			<rect x="167.7" y="110.4" class="st0" width="6.1" height="6.6"/>
		</g>
		<g>
			<rect x="170.1" y="118.1" class="st0" width="3.6" height="6.6"/>
			<rect x="167.7" y="125.8" class="st0" width="6.1" height="6.6"/>
		</g>
		<g>
			<rect x="170.1" y="133.5" class="st0" width="3.6" height="6.6"/>
			<rect x="167.7" y="141.1" class="st0" width="6.1" height="6.6"/>
		</g>
		<g>
			<rect x="170.1" y="148.8" class="st0" width="3.6" height="6.6"/>
		</g>
	</g>
	<polyline class="st0" points="93.4,163.2 93.4,156.3 173.7,156.3 173.7,163.2 	"/>
	<rect x="102.1" y="64.9" class="st0" width="2.3" height="91.4"/>
	<rect x="112.9" y="57.8" class="st0" width="2.3" height="98.5"/>
	<rect x="124.4" y="43" class="st0" width="2.3" height="113.3"/>
	<rect x="138.2" y="34.3" class="st0" width="2.3" height="122"/>
	<rect x="150.6" y="52.6" class="st0" width="2.3" height="103.8"/>
	<rect x="164.2" y="64.6" class="st0" width="2.3" height="91.4"/>
	<path class="st0" d="M139.3,61.8c-0.1-2.7-2.4-4.9-5.1-4.9s-5,2.2-5.1,4.9l0,0v8.6h10.2L139.3,61.8L139.3,61.8z"/>
	<g>
		<g>
			<path class="st0" d="M118.2,93.1c-0.1-2.7-2.4-4.9-5.1-4.9s-5,2.2-5.1,4.9l0,0v15.3h10.2L118.2,93.1L118.2,93.1z"/>
			<path class="st0" d="M163,92.4c-0.1-2.7-2.4-4.9-5.1-4.9s-5,2.2-5.1,4.9l0,0v15.3H163L163,92.4L163,92.4z"/>
			<g>
				<path class="st0" d="M162.3,134c-0.1-2.7-2.4-4.9-5.1-4.9c-2.7,0-5,2.2-5.1,4.9l0,0v15.3h10.2L162.3,134L162.3,134z"/>
				<path class="st0" d="M147.2,134c-0.1-2.7-2.4-4.9-5.1-4.9c-2.7,0-5,2.2-5.1,4.9l0,0v15.3h10.2L147.2,134L147.2,134z"/>
				<path class="st0" d="M132.1,134c-0.1-2.7-2.4-4.9-5.1-4.9s-5,2.2-5.1,4.9l0,0v15.3h10.2L132.1,134L132.1,134z"/>
				<path class="st0" d="M117.1,134c-0.1-2.7-2.4-4.9-5.1-4.9s-5,2.2-5.1,4.9l0,0v15.3h10.2V134L117.1,134z"/>
			</g>
			<path class="st0" d="M142.9,94.8c-0.1-4.1-4.6-7.4-8.8-7.4c-4.2,0-8.3,3.3-8.5,7.4l0,0v23.1h17.3V94.8L142.9,94.8z"/>
		</g>
	</g>
	<g>
		<g>
			<g>
				<g>
					<rect x="161" y="105.2" class="st0" width="1.6" height="12.5"/>
					<rect x="157.6" y="105.2" class="st0" width="1" height="12.5"/>
					<rect x="154.2" y="105.2" class="st0" width="1" height="12.5"/>
					<rect x="150.7" y="105.2" class="st0" width="1" height="12.5"/>
					<rect x="147.3" y="105.2" class="st0" width="1" height="12.5"/>
					<rect x="143.9" y="105.2" class="st0" width="1" height="12.5"/>
					<rect x="140.5" y="105.2" class="st0" width="1" height="12.5"/>
					<rect x="137.1" y="105.2" class="st0" width="1" height="12.5"/>
					<rect x="133.6" y="105.2" class="st0" width="1" height="12.5"/>
					<rect x="130.2" y="105.2" class="st0" width="1" height="12.5"/>
					<rect x="126.7" y="105.2" class="st0" width="1" height="12.5"/>
					<rect x="123.3" y="105.2" class="st0" width="1" height="12.5"/>
					<rect x="119.9" y="105.2" class="st0" width="1" height="12.5"/>
					<rect x="116.4" y="105.2" class="st0" width="1" height="12.5"/>
					<rect x="113" y="105.2" class="st0" width="1" height="12.5"/>
					<rect x="109.6" y="105.2" class="st0" width="1" height="12.5"/>
					<rect x="105.6" y="105.2" class="st0" width="1.6" height="12.5"/>
				</g>
			</g>
			<g>
				<rect x="103.9" y="117.1" class="st0" width="60.5" height="2"/>
				<rect x="103.9" y="117.1" class="st0" width="60.5" height="2"/>
			</g>
			<g>
				<rect x="103.9" y="104.9" class="st0" width="60.5" height="1"/>
				<rect x="103.9" y="104.9" class="st0" width="60.5" height="1"/>
			</g>
		</g>
	</g>
	<rect x="93.4" y="118.1" class="st0" width="80.3" height="6.6"/>
	<polygon class="st0" points="91,90.6 78.5,90.6 133.7,19.2 188.7,90.5 176.1,90.6 133.5,34.5 	"/>
</g>
<g>
	<rect x="582.9" y="65.3" class="st0" width="8.1" height="20.8"/>
	<polygon class="st0" points="598.5,162.2 539.2,162.2 539.2,106.1 568.6,65.3 598.5,106.1 	"/>
	<rect x="539.2" y="128.4" class="st0" width="59.3" height="1"/>
	<rect x="549.2" y="86.2" class="st0" width="2.3" height="57.7"/>
	<rect x="561.1" y="74.7" class="st0" width="2.3" height="82.9"/>
	<rect x="573.8" y="69.6" class="st0" width="2.3" height="92.6"/>
	<rect x="585.1" y="84.6" class="st0" width="2.3" height="77.6"/>
	<rect x="547.2" y="85.6" class="st0" width="43.3" height="2.3"/>
	<rect x="538.3" y="103.6" class="st0" width="60.2" height="2.3"/>
	<rect x="539.2" y="119.7" class="st0" width="59.2" height="2.3"/>
	<rect x="539.2" y="138.4" class="st0" width="59.2" height="2.3"/>
	<rect x="539.3" y="153.5" class="st0" width="59.2" height="2.3"/>
	
		<rect x="565.5" y="85.9" transform="matrix(0.9063 -0.4226 0.4226 0.9063 12.5828 248.291)" class="st0" width="1.5" height="19.7"/>
	
		<rect x="568.3" y="69.8" transform="matrix(0.9063 -0.4226 0.4226 0.9063 17.5463 248.4387)" class="st0" width="1.5" height="29.7"/>
	
		<rect x="570.4" y="64.6" transform="matrix(0.9063 -0.4226 0.4226 0.9063 22.0544 248.3692)" class="st0" width="1.5" height="19.7"/>
	
		<rect x="578.3" y="86.8" transform="matrix(0.9063 -0.4226 0.4226 0.9063 13.4183 253.7801)" class="st0" width="1.5" height="19.7"/>
	
		<rect x="582.7" y="85.5" transform="matrix(0.9063 -0.4226 0.4226 0.9063 15.3405 255.2848)" class="st0" width="1.5" height="15.1"/>
	
		<rect x="543.7" y="104.1" transform="matrix(0.9063 -0.4226 0.4226 0.9063 1.0249 241.1853)" class="st0" width="1.5" height="28.3"/>
	
		<rect x="555.8" y="102.2" transform="matrix(0.9063 -0.4226 0.4226 0.9063 -2.6677 247.3737)" class="st0" width="1.5" height="55"/>
	
		<rect x="563.1" y="102.8" transform="matrix(0.9063 -0.4226 0.4226 0.9063 -1.564 250.3335)" class="st0" width="1.5" height="51.8"/>
	
		<rect x="569.8" y="82.8" transform="matrix(0.9063 -0.4226 0.4226 0.9063 2.6982 252.381)" class="st0" width="1.5" height="74.7"/>
	
		<rect x="542.5" y="139.1" transform="matrix(0.9063 -0.4226 0.4226 0.9063 -11.3332 243.3795)" class="st0" width="1.5" height="16.4"/>
	
		<rect x="552.9" y="91.5" transform="matrix(0.9063 -0.4226 0.4226 0.9063 10.3099 243.2077)" class="st0" width="1.5" height="13.7"/>
	<rect x="539.2" y="155.7" class="st0" width="59.3" height="6.4"/>
	<g>
		<rect x="570.7" y="135.4" class="st0" width="8.5" height="14.7"/>
		<rect x="582.7" y="135.4" class="st0" width="8.5" height="14.7"/>
	</g>
	<g>
		<g>
			<path class="st0" d="M542.7,131.1c0,0.9-0.8,1.8-1.7,1.8s-1.7-0.8-1.7-1.8c0-0.3,0-2,0-2h3.5
				C542.7,129.1,542.7,130.2,542.7,131.1z"/>
			<path class="st0" d="M546.2,131.1c0,0.9-0.8,1.8-1.7,1.8s-1.7-0.8-1.7-1.8c0-0.3,0-2,0-2h3.5
				C546.2,129.1,546.2,130.2,546.2,131.1z"/>
		</g>
		<g>
			<path class="st0" d="M549.7,131.1c0,0.9-0.8,1.8-1.7,1.8c-0.9,0-1.7-0.8-1.7-1.8c0-0.3,0-2,0-2h3.5
				C549.7,129.1,549.7,130.2,549.7,131.1z"/>
			<path class="st0" d="M553.1,131.1c0,0.9-0.8,1.8-1.7,1.8s-1.7-0.8-1.7-1.8c0-0.3,0-2,0-2h3.5
				C553.1,129.1,553.1,130.2,553.1,131.1z"/>
		</g>
		<g>
			<path class="st0" d="M556.6,131.1c0,0.9-0.8,1.8-1.7,1.8s-1.7-0.8-1.7-1.8c0-0.3,0-2,0-2h3.5
				C556.6,129.1,556.6,130.2,556.6,131.1z"/>
			<path class="st0" d="M560.1,131.1c0,0.9-0.8,1.8-1.7,1.8s-1.7-0.8-1.7-1.8c0-0.3,0-2,0-2h3.5
				C560.1,129.1,560.1,130.2,560.1,131.1z"/>
		</g>
		<g>
			<path class="st0" d="M563.6,131.1c0,0.9-0.8,1.8-1.7,1.8s-1.7-0.8-1.7-1.8c0-0.3,0-2,0-2h3.5
				C563.6,129.1,563.6,130.2,563.6,131.1z"/>
			<path class="st0" d="M567.1,131.1c0,0.9-0.8,1.8-1.7,1.8s-1.7-0.8-1.7-1.8c0-0.3,0-2,0-2h3.5
				C567.1,129.1,567.1,130.2,567.1,131.1z"/>
		</g>
		<g>
			<path class="st0" d="M570.6,131.1c0,0.9-0.8,1.8-1.7,1.8s-1.7-0.8-1.7-1.8c0-0.3,0-2,0-2h3.5
				C570.6,129.1,570.6,130.2,570.6,131.1z"/>
			<path class="st0" d="M574.1,131.1c0,0.9-0.8,1.8-1.7,1.8s-1.7-0.8-1.7-1.8c0-0.3,0-2,0-2h3.5
				C574.1,129.1,574.1,130.2,574.1,131.1z"/>
		</g>
		<g>
			<path class="st0" d="M577.6,131.1c0,0.9-0.8,1.8-1.7,1.8s-1.7-0.8-1.7-1.8c0-0.3,0-2,0-2h3.5
				C577.6,129.1,577.6,130.2,577.6,131.1z"/>
			<path class="st0" d="M581.1,131.1c0,0.9-0.8,1.8-1.7,1.8s-1.7-0.8-1.7-1.8c0-0.3,0-2,0-2h3.5
				C581.1,129.1,581.1,130.2,581.1,131.1z"/>
		</g>
		<g>
			<path class="st0" d="M584.6,131.1c0,0.9-0.8,1.8-1.7,1.8s-1.7-0.8-1.7-1.8c0-0.3,0-2,0-2h3.5
				C584.6,129.1,584.6,130.2,584.6,131.1z"/>
			<path class="st0" d="M588.1,131.1c0,0.9-0.8,1.8-1.7,1.8c-0.9,0-1.7-0.8-1.7-1.8c0-0.3,0-2,0-2h3.5
				C588.1,129.1,588.1,130.2,588.1,131.1z"/>
		</g>
		<g>
			<path class="st0" d="M591.5,131.1c0,0.9-0.8,1.8-1.7,1.8s-1.7-0.8-1.7-1.8c0-0.3,0-2,0-2h3.5
				C591.5,129.1,591.5,130.2,591.5,131.1z"/>
			<path class="st0" d="M595,131.1c0,0.9-0.8,1.8-1.7,1.8s-1.7-0.8-1.7-1.8c0-0.3,0-2,0-2h3.5C595,129.1,595,130.2,595,131.1z"/>
		</g>
		<g>
			<path class="st0" d="M598.5,131.1c0,0.9-0.8,1.8-1.7,1.8s-1.7-0.8-1.7-1.8c0-0.3,0-2,0-2h3.5
				C598.5,129.1,598.5,130.2,598.5,131.1z"/>
		</g>
	</g>
	<g>
		<g>
			<rect x="547" y="109.8" class="st0" width="8.5" height="14.7"/>
			<rect x="559" y="109.8" class="st0" width="8.5" height="14.7"/>
			<rect x="571" y="109.8" class="st0" width="8.5" height="14.7"/>
			<rect x="583.1" y="109.8" class="st0" width="8.5" height="14.7"/>
		</g>
	</g>
	<path class="st0" d="M564,143.6c0-4.5-3.7-8.2-8.2-8.2s-8.2,3.7-8.2,8.2v18.6H564V143.6z"/>
	<circle class="st0" cx="568.4" cy="90.4" r="4.7"/>
	<polygon class="st0" points="535.2,113.2 524.5,113.2 568.9,55.9 613.3,113.3 602.4,113.3 568.8,68.9 	"/>
</g>
<g>
	<rect x="638.8" y="28.4" class="st0" width="11.8" height="22.4"/>
	<polyline class="st0" points="684.3,163 616.7,163 616.7,76.4 684.3,76.4 	"/>
	<rect x="616.7" y="152.4" class="st0" width="67.6" height="10.6"/>
	<g>
		<rect x="616.7" y="42.1" class="st0" width="67.6" height="36.5"/>
		<g>
			<g>
				<rect id="SVGID_8_" x="616.7" y="42.1" class="st0" width="67.6" height="36.5"/>
			</g>
			<g>
				<defs>
					<rect id="SVGID_1_" x="616.7" y="42.1" width="67.6" height="36.5"/>
				</defs>
				<use xlink:href="#SVGID_1_"  style="overflow:visible;fill:#FFFFFF;"/>
				<clipPath id="SVGID_2_">
					<use xlink:href="#SVGID_1_"  style="overflow:visible;"/>
				</clipPath>
				<g class="st1">
					<g>
						<ellipse class="st0" cx="623.9" cy="43.9" rx="2.4" ry="2.4"/>
						<ellipse class="st0" cx="623.9" cy="50.8" rx="2.4" ry="2.4"/>
						<ellipse class="st0" cx="623.9" cy="58.2" rx="2.4" ry="2.4"/>
						<ellipse class="st0" cx="623.9" cy="65.1" rx="2.4" ry="2.4"/>
						<ellipse class="st0" cx="623.9" cy="72.4" rx="2.4" ry="2.4"/>
						<ellipse class="st0" cx="623.9" cy="79.3" rx="2.4" ry="2.4"/>
					</g>
					<g>
						<ellipse class="st0" cx="628.8" cy="47.3" rx="2.4" ry="2.4"/>
						<ellipse class="st0" cx="628.8" cy="54.2" rx="2.4" ry="2.4"/>
						<ellipse class="st0" cx="628.8" cy="61.6" rx="2.4" ry="2.4"/>
						<ellipse class="st0" cx="628.8" cy="68.5" rx="2.4" ry="2.4"/>
						<ellipse class="st0" cx="628.8" cy="75.9" rx="2.4" ry="2.4"/>
						<ellipse class="st0" cx="628.8" cy="82.7" rx="2.4" ry="2.4"/>
					</g>
					<g>
						<ellipse class="st0" cx="633.7" cy="43.9" rx="2.4" ry="2.4"/>
						<ellipse class="st0" cx="633.7" cy="50.8" rx="2.4" ry="2.4"/>
						<ellipse class="st0" cx="633.7" cy="58.2" rx="2.4" ry="2.4"/>
						<ellipse class="st0" cx="633.7" cy="65.1" rx="2.4" ry="2.4"/>
						<ellipse class="st0" cx="633.7" cy="72.4" rx="2.4" ry="2.4"/>
						<ellipse class="st0" cx="633.7" cy="79.3" rx="2.4" ry="2.4"/>
					</g>
					<g>
						<ellipse class="st0" cx="638.5" cy="47.3" rx="2.4" ry="2.4"/>
						<ellipse class="st0" cx="638.5" cy="54.2" rx="2.4" ry="2.4"/>
						<ellipse class="st0" cx="638.5" cy="61.6" rx="2.4" ry="2.4"/>
						<ellipse class="st0" cx="638.5" cy="68.5" rx="2.4" ry="2.4"/>
						<ellipse class="st0" cx="638.5" cy="75.9" rx="2.4" ry="2.4"/>
						<ellipse class="st0" cx="638.5" cy="82.7" rx="2.4" ry="2.4"/>
					</g>
					<g>
						<ellipse class="st0" cx="643.3" cy="43.9" rx="2.4" ry="2.4"/>
						<ellipse class="st0" cx="643.3" cy="50.8" rx="2.4" ry="2.4"/>
						<ellipse class="st0" cx="643.3" cy="58.2" rx="2.4" ry="2.4"/>
						<ellipse class="st0" cx="643.3" cy="65.1" rx="2.4" ry="2.4"/>
						<ellipse class="st0" cx="643.3" cy="72.4" rx="2.4" ry="2.4"/>
						<ellipse class="st0" cx="643.3" cy="79.3" rx="2.4" ry="2.4"/>
					</g>
					<g>
						<ellipse class="st0" cx="648.2" cy="47.3" rx="2.4" ry="2.4"/>
						<ellipse class="st0" cx="648.2" cy="54.2" rx="2.4" ry="2.4"/>
						<ellipse class="st0" cx="648.2" cy="61.6" rx="2.4" ry="2.4"/>
						<ellipse class="st0" cx="648.2" cy="68.5" rx="2.4" ry="2.4"/>
						<ellipse class="st0" cx="648.2" cy="75.9" rx="2.4" ry="2.4"/>
						<ellipse class="st0" cx="648.2" cy="82.7" rx="2.4" ry="2.4"/>
					</g>
					<g>
						<ellipse class="st0" cx="653" cy="43.9" rx="2.4" ry="2.4"/>
						<ellipse class="st0" cx="653" cy="50.8" rx="2.4" ry="2.4"/>
						<ellipse class="st0" cx="653" cy="58.2" rx="2.4" ry="2.4"/>
						<ellipse class="st0" cx="653" cy="65.1" rx="2.4" ry="2.4"/>
						<ellipse class="st0" cx="653" cy="72.4" rx="2.4" ry="2.4"/>
						<ellipse class="st0" cx="653" cy="79.3" rx="2.4" ry="2.4"/>
					</g>
					<g>
						<ellipse class="st0" cx="657.8" cy="47.3" rx="2.4" ry="2.4"/>
						<ellipse class="st0" cx="657.8" cy="54.2" rx="2.4" ry="2.4"/>
						<ellipse class="st0" cx="657.8" cy="61.6" rx="2.4" ry="2.4"/>
						<ellipse class="st0" cx="657.8" cy="68.5" rx="2.4" ry="2.4"/>
						<ellipse class="st0" cx="657.8" cy="75.9" rx="2.4" ry="2.4"/>
						<ellipse class="st0" cx="657.8" cy="82.7" rx="2.4" ry="2.4"/>
					</g>
					<g>
						<ellipse class="st0" cx="662.7" cy="43.9" rx="2.4" ry="2.4"/>
						<ellipse class="st0" cx="662.7" cy="50.8" rx="2.4" ry="2.4"/>
						<ellipse class="st0" cx="662.7" cy="58.2" rx="2.4" ry="2.4"/>
						<ellipse class="st0" cx="662.7" cy="65.1" rx="2.4" ry="2.4"/>
						<ellipse class="st0" cx="662.7" cy="72.4" rx="2.4" ry="2.4"/>
						<ellipse class="st0" cx="662.7" cy="79.3" rx="2.4" ry="2.4"/>
					</g>
					<g>
						<ellipse class="st0" cx="667.5" cy="47.3" rx="2.4" ry="2.4"/>
						<ellipse class="st0" cx="667.5" cy="54.2" rx="2.4" ry="2.4"/>
						<ellipse class="st0" cx="667.5" cy="61.6" rx="2.4" ry="2.4"/>
						<ellipse class="st0" cx="667.5" cy="68.5" rx="2.4" ry="2.4"/>
						<ellipse class="st0" cx="667.5" cy="75.9" rx="2.4" ry="2.4"/>
						<ellipse class="st0" cx="667.5" cy="82.7" rx="2.4" ry="2.4"/>
					</g>
					<g>
						<ellipse class="st0" cx="672.3" cy="43.9" rx="2.4" ry="2.4"/>
						<ellipse class="st0" cx="672.3" cy="50.8" rx="2.4" ry="2.4"/>
						<ellipse class="st0" cx="672.3" cy="58.2" rx="2.4" ry="2.4"/>
						<ellipse class="st0" cx="672.3" cy="65.1" rx="2.4" ry="2.4"/>
						<ellipse class="st0" cx="672.3" cy="72.4" rx="2.4" ry="2.4"/>
						<ellipse class="st0" cx="672.3" cy="79.3" rx="2.4" ry="2.4"/>
					</g>
					<g>
						<ellipse class="st0" cx="677.2" cy="47.3" rx="2.4" ry="2.4"/>
						<ellipse class="st0" cx="677.2" cy="54.2" rx="2.4" ry="2.4"/>
						<ellipse class="st0" cx="677.2" cy="61.6" rx="2.4" ry="2.4"/>
						<ellipse class="st0" cx="677.2" cy="68.5" rx="2.4" ry="2.4"/>
						<ellipse class="st0" cx="677.2" cy="75.9" rx="2.4" ry="2.4"/>
						<ellipse class="st0" cx="677.2" cy="82.7" rx="2.4" ry="2.4"/>
					</g>
				</g>
			</g>
			<g>
				<rect id="SVGID_7_" x="616.7" y="42.1" class="st0" width="67.6" height="36.5"/>
			</g>
		</g>
	</g>
	<rect x="616.7" y="39" class="st0" width="5.4" height="39.7"/>
	<rect x="678.9" y="39" class="st0" width="5.4" height="39.7"/>
	<line class="st0" x1="617.1" y1="106.7" x2="628.3" y2="117.9"/>
	<line class="st0" x1="628.1" y1="106.3" x2="616.9" y2="117.6"/>
	<line class="st0" x1="628.1" y1="106.3" x2="628.1" y2="117.9"/>
	<line class="st0" x1="617.1" y1="106.6" x2="617.1" y2="118.1"/>
	<line class="st0" x1="628" y1="107.1" x2="639.3" y2="118.4"/>
	<line class="st0" x1="639.1" y1="106.7" x2="627.9" y2="117.9"/>
	<line class="st0" x1="639.1" y1="106.7" x2="639.1" y2="118.4"/>
	<line class="st0" x1="639.3" y1="106.7" x2="650.4" y2="117.9"/>
	<line class="st0" x1="650.3" y1="106.3" x2="639.1" y2="117.6"/>
	<line class="st0" x1="650.3" y1="106.3" x2="650.3" y2="117.9"/>
	<line class="st0" x1="650.3" y1="106.9" x2="661.5" y2="118.2"/>
	<line class="st0" x1="661.3" y1="106.6" x2="650.1" y2="117.7"/>
	<line class="st0" x1="661.3" y1="106.6" x2="661.3" y2="118.1"/>
	<line class="st0" x1="661.6" y1="106.9" x2="672.8" y2="118.1"/>
	<line class="st0" x1="672.7" y1="106.5" x2="661.4" y2="117.7"/>
	<line class="st0" x1="672.7" y1="106.5" x2="672.7" y2="118.1"/>
	<line class="st0" x1="673.2" y1="107.1" x2="684.4" y2="118.3"/>
	<line class="st0" x1="684.3" y1="106.7" x2="673.1" y2="117.9"/>
	<path class="st0" d="M684.3,118.3"/>
	<path class="st0" d="M684.3,106.7"/>
	<line class="st0" x1="621.9" y1="82.5" x2="621.9" y2="106.7"/>
	<line class="st0" x1="629.7" y1="82.5" x2="629.7" y2="90.1"/>
	<line class="st0" x1="637.5" y1="82.5" x2="637.5" y2="106.7"/>
	<line class="st0" x1="645.2" y1="82.5" x2="645.2" y2="90.1"/>
	<line class="st0" x1="653" y1="82.5" x2="653" y2="106.7"/>
	<line class="st0" x1="660.8" y1="82.5" x2="660.8" y2="106.7"/>
	<line class="st0" x1="668.4" y1="82.5" x2="668.4" y2="90.1"/>
	<line class="st0" x1="676.2" y1="82.5" x2="676.2" y2="90.1"/>
	<line class="st0" x1="684" y1="82.5" x2="684" y2="90.1"/>
	<line class="st0" x1="629.7" y1="82.2" x2="622.2" y2="89.8"/>
	<line class="st0" x1="675.7" y1="82.2" x2="668.2" y2="89.8"/>
	<line class="st0" x1="637.5" y1="81.8" x2="645.1" y2="89.4"/>
	<line class="st0" x1="653.3" y1="81.8" x2="660.8" y2="89.4"/>
	<line class="st0" x1="680.1" y1="81.9" x2="680.1" y2="106.2"/>
	<line class="st0" x1="617" y1="121.6" x2="628.2" y2="152.1"/>
	<line class="st0" x1="628.1" y1="120.5" x2="616.8" y2="151.1"/>
	<line class="st0" x1="628.1" y1="120.5" x2="628.1" y2="152.1"/>
	<line class="st0" x1="617.1" y1="121.1" x2="617.1" y2="152.7"/>
	<line class="st0" x1="628.7" y1="122.1" x2="639.9" y2="152.7"/>
	<line class="st0" x1="639.7" y1="121.1" x2="628.5" y2="151.7"/>
	<line class="st0" x1="639.7" y1="121.1" x2="639.7" y2="152.7"/>
	<line class="st0" x1="640.2" y1="121.5" x2="651.4" y2="152.1"/>
	<line class="st0" x1="651.3" y1="120.5" x2="640" y2="151.1"/>
	<line class="st0" x1="651.3" y1="120.5" x2="651.3" y2="152.1"/>
	<line class="st0" x1="651.5" y1="121.6" x2="662.7" y2="152.1"/>
	<line class="st0" x1="662.6" y1="120.5" x2="651.4" y2="151.1"/>
	<line class="st0" x1="662.6" y1="120.5" x2="662.6" y2="152.1"/>
	<line class="st0" x1="663" y1="121.1" x2="674.2" y2="151.6"/>
	<line class="st0" x1="674.1" y1="119.9" x2="662.8" y2="150.5"/>
	<line class="st0" x1="674.1" y1="119.9" x2="674.1" y2="151.6"/>
	<line class="st0" x1="673.4" y1="120.5" x2="684.6" y2="151.1"/>
	<line class="st0" x1="684.4" y1="119.4" x2="673.3" y2="150"/>
	<path class="st0" d="M684.4,151"/>
	<path class="st0" d="M684.4,119.4"/>
	<g>
		<rect x="624.1" y="89.6" class="st0" width="13" height="17.1"/>
		<rect x="644.1" y="89.6" class="st0" width="13" height="17.1"/>
		<rect x="664.1" y="89.6" class="st0" width="13" height="17.1"/>
	</g>
	<g>
		<rect x="623.5" y="127.5" class="st0" width="13" height="17.1"/>
		<rect x="643.5" y="127.5" class="st0" width="13" height="17.1"/>
		<rect x="663.5" y="127.5" class="st0" width="13" height="17.1"/>
	</g>
	<g>
		<g>
			<g>
				<path class="st0" d="M616,119h4.1c-0.1,0-0.1,0.9-0.1,2c0,0.9-0.9,1.8-2,1.8"/>
				<path class="st0" d="M624.1,121c0,0.9-0.9,1.8-2,1.8c-1.1,0-2-0.8-2-1.8c0-0.3,0-2,0-2h4.1C624.1,119,624.1,119.9,624.1,121z"/>
			</g>
			<g>
				<path class="st0" d="M628.2,121c0,0.9-0.9,1.8-2,1.8c-1.1,0-2-0.8-2-1.8c0-0.3,0-2,0-2h4.1C628.2,119,628.2,119.9,628.2,121z"/>
				<path class="st0" d="M632.2,121c0,0.9-0.9,1.8-2,1.8c-1.1,0-2-0.8-2-1.8c0-0.3,0-2,0-2h4.1C632.2,119,632.2,119.9,632.2,121z"/>
			</g>
			<g>
				<path class="st0" d="M636.2,121c0,0.9-0.9,1.8-2,1.8c-1.1,0-2-0.8-2-1.8c0-0.3,0-2,0-2h4.1C636.2,119,636.2,119.9,636.2,121z"/>
				<path class="st0" d="M640.3,121c0,0.9-0.9,1.8-2,1.8c-1.1,0-2-0.8-2-1.8c0-0.3,0-2,0-2h4.1C640.3,119,640.3,119.9,640.3,121z"/>
			</g>
			<g>
				<path class="st0" d="M644.4,121c0,0.9-0.9,1.8-2,1.8c-1.1,0-2-0.8-2-1.8c0-0.3,0-2,0-2h4.1C644.4,119,644.4,119.9,644.4,121z"/>
				<path class="st0" d="M648.4,121c0,0.9-0.9,1.8-2,1.8c-1.1,0-2-0.8-2-1.8c0-0.3,0-2,0-2h4.1C648.4,119,648.4,119.9,648.4,121z"/>
			</g>
			<g>
				<path class="st0" d="M652.5,121c0,0.9-0.9,1.8-2,1.8c-1.1,0-2-0.8-2-1.8c0-0.3,0-2,0-2h4.1C652.5,119,652.5,119.9,652.5,121z"/>
				<path class="st0" d="M656.6,121c0,0.9-0.9,1.8-2,1.8c-1.1,0-2-0.8-2-1.8c0-0.3,0-2,0-2h4.1C656.6,119,656.6,119.9,656.6,121z"/>
			</g>
			<g>
				<path class="st0" d="M660.7,121c0,0.9-0.9,1.8-2,1.8c-1.1,0-2-0.8-2-1.8c0-0.3,0-2,0-2h4.1C660.7,119,660.7,119.9,660.7,121z"/>
				<path class="st0" d="M664.7,121c0,0.9-0.9,1.8-2,1.8c-1.1,0-2-0.8-2-1.8c0-0.3,0-2,0-2h4.1C664.7,119,664.7,119.9,664.7,121z"/>
			</g>
			<g>
				<path class="st0" d="M668.8,121c0,0.9-0.9,1.8-2,1.8c-1.1,0-2-0.8-2-1.8c0-0.3,0-2,0-2h4.1C668.8,119,668.8,119.9,668.8,121z"/>
				<path class="st0" d="M672.8,121c0,0.9-0.9,1.8-2,1.8c-1.1,0-2-0.8-2-1.8c0-0.3,0-2,0-2h4.1C672.8,119,672.8,119.9,672.8,121z"/>
			</g>
			<g>
				<path class="st0" d="M676.9,121c0,0.9-0.9,1.8-2,1.8c-1.1,0-2-0.8-2-1.8c0-0.3,0-2,0-2h4.1C676.9,119,676.9,119.9,676.9,121z"/>
				<path class="st0" d="M680.9,121c0,0.9-0.9,1.8-2,1.8c-1.1,0-2-0.8-2-1.8c0-0.3,0-2,0-2h4.1C680.9,119,680.9,119.9,680.9,121z"/>
			</g>
			<g>
				<path class="st0" d="M685,121c0,0.9-0.9,1.8-2,1.8c-1.1,0-2-0.8-2-1.8c0-0.3,0-2,0-2h4.1C685,119,685,119.9,685,121z"/>
			</g>
		</g>
		<g>
			<polyline class="st0" points="685,116.8 685,118.9 615.9,118.9 			"/>
		</g>
	</g>
	<path class="st0" d="M684.3,106.7"/>
	<path class="st0" d="M616.7,106.7"/>
	<line class="st0" x1="616.5" y1="89.6" x2="684.1" y2="89.6"/>
</g>
<g>
	<rect x="37.3" y="149.3" class="st0" width="1.5" height="13.5"/>
	<rect x="36.8" y="149.2" class="st0" width="2.4" height="1.9"/>
</g>
<g>
	<rect x="61.4" y="66" class="st0" width="8.1" height="20.8"/>
	<polygon class="st0" points="77,162.9 17.8,162.9 17.8,106.8 47.1,66 77,106.8 	"/>
	<rect x="17.8" y="129.2" class="st0" width="59.3" height="1"/>
	<rect x="27.7" y="86.9" class="st0" width="2.3" height="57.7"/>
	<rect x="39.6" y="75.5" class="st0" width="2.3" height="82.9"/>
	<rect x="52.3" y="70.4" class="st0" width="2.3" height="92.6"/>
	<rect x="63.6" y="85.3" class="st0" width="2.3" height="77.6"/>
	<rect x="25.7" y="86.4" class="st0" width="43.3" height="2.3"/>
	<rect x="16.8" y="104.3" class="st0" width="60.2" height="2.3"/>
	<rect x="17.7" y="120.4" class="st0" width="59.2" height="2.3"/>
	<rect x="17.8" y="139.1" class="st0" width="59.2" height="2.3"/>
	<rect x="17.8" y="154.1" class="st0" width="59.2" height="2.3"/>
	<rect x="44" y="86.7" transform="matrix(0.9063 -0.4226 0.4226 0.9063 -36.5982 27.9752)" class="st0" width="1.5" height="19.7"/>
	
		<rect x="46.9" y="70.5" transform="matrix(0.9063 -0.4226 0.4226 0.9063 -31.6098 28.1554)" class="st0" width="1.5" height="29.7"/>
	<rect x="49" y="65.4" transform="matrix(0.9063 -0.4226 0.4226 0.9063 -27.1266 28.0534)" class="st0" width="1.5" height="19.7"/>
	
		<rect x="56.9" y="87.5" transform="matrix(0.9063 -0.4226 0.4226 0.9063 -35.7378 33.4968)" class="st0" width="1.5" height="19.7"/>
	
		<rect x="61.2" y="86.3" transform="matrix(0.9063 -0.4226 0.4226 0.9063 -33.8406 34.969)" class="st0" width="1.5" height="15.1"/>
	
		<rect x="22.3" y="104.8" transform="matrix(0.9063 -0.4226 0.4226 0.9063 -48.1312 20.902)" class="st0" width="1.5" height="28.3"/>
	<rect x="34.4" y="103" transform="matrix(0.9063 -0.4226 0.4226 0.9063 -51.8238 27.0905)" class="st0" width="1.5" height="55"/>
	
		<rect x="41.7" y="103.5" transform="matrix(0.9063 -0.4226 0.4226 0.9063 -50.7201 30.0502)" class="st0" width="1.5" height="51.8"/>
	
		<rect x="48.3" y="83.5" transform="matrix(0.9063 -0.4226 0.4226 0.9063 -46.4503 32.0403)" class="st0" width="1.5" height="74.7"/>
	
		<rect x="21" y="139.8" transform="matrix(0.9063 -0.4226 0.4226 0.9063 -60.5143 23.0637)" class="st0" width="1.5" height="16.4"/>
	
		<rect x="31.4" y="92.2" transform="matrix(0.9063 -0.4226 0.4226 0.9063 -38.8712 22.8919)" class="st0" width="1.5" height="13.7"/>
	<rect x="17.8" y="156.5" class="st0" width="59.3" height="6.4"/>
	<g>
		<g>
			<g>
				<rect x="49.1" y="136.1" class="st0" width="8.5" height="14.7"/>
				<rect x="49.1" y="136.1" class="st0" width="8.5" height="14.7"/>
			</g>
			<g>
				<rect x="61.2" y="136.1" class="st0" width="8.5" height="14.7"/>
				<rect x="61.2" y="136.1" class="st0" width="8.5" height="14.7"/>
			</g>
		</g>
	</g>
	<g>
		<g>
			<path class="st0" d="M21.2,131.9c0,0.9-0.8,1.8-1.7,1.8c-0.9,0-1.7-0.8-1.7-1.8c0-0.3,0-2,0-2h3.5
				C21.2,129.9,21.2,130.8,21.2,131.9z"/>
			<path class="st0" d="M24.7,131.9c0,0.9-0.8,1.8-1.7,1.8c-0.9,0-1.7-0.8-1.7-1.8c0-0.3,0-2,0-2h3.5
				C24.7,129.9,24.7,130.8,24.7,131.9z"/>
		</g>
		<g>
			<path class="st0" d="M28.2,131.9c0,0.9-0.8,1.8-1.7,1.8c-0.9,0-1.7-0.8-1.7-1.8c0-0.3,0-2,0-2h3.5
				C28.2,129.9,28.2,130.8,28.2,131.9z"/>
			<path class="st0" d="M31.7,131.9c0,0.9-0.8,1.8-1.7,1.8c-0.9,0-1.7-0.8-1.7-1.8c0-0.3,0-2,0-2h3.5
				C31.7,129.9,31.7,130.8,31.7,131.9z"/>
		</g>
		<g>
			<path class="st0" d="M35.2,131.9c0,0.9-0.8,1.8-1.7,1.8s-1.7-0.8-1.7-1.8c0-0.3,0-2,0-2h3.5C35.2,129.9,35.2,130.8,35.2,131.9z"
				/>
			<path class="st0" d="M38.7,131.9c0,0.9-0.8,1.8-1.7,1.8s-1.7-0.8-1.7-1.8c0-0.3,0-2,0-2h3.5C38.7,129.9,38.7,130.8,38.7,131.9z"
				/>
		</g>
		<g>
			<path class="st0" d="M42.1,131.9c0,0.9-0.8,1.8-1.7,1.8s-1.7-0.8-1.7-1.8c0-0.3,0-2,0-2h3.5C42.1,129.9,42.1,130.8,42.1,131.9z"
				/>
			<path class="st0" d="M45.6,131.9c0,0.9-0.8,1.8-1.7,1.8s-1.7-0.8-1.7-1.8c0-0.3,0-2,0-2h3.5C45.6,129.9,45.6,130.8,45.6,131.9z"
				/>
		</g>
		<g>
			<path class="st0" d="M49.1,131.9c0,0.9-0.8,1.8-1.7,1.8s-1.7-0.8-1.7-1.8c0-0.3,0-2,0-2h3.5C49.1,129.9,49.1,130.8,49.1,131.9z"
				/>
			<path class="st0" d="M52.6,131.9c0,0.9-0.8,1.8-1.7,1.8s-1.7-0.8-1.7-1.8c0-0.3,0-2,0-2h3.5C52.6,129.9,52.6,130.8,52.6,131.9z"
				/>
		</g>
		<g>
			<path class="st0" d="M56.2,131.9c0,0.9-0.8,1.8-1.7,1.8s-1.7-0.8-1.7-1.8c0-0.3,0-2,0-2h3.5C56.2,129.9,56.2,130.8,56.2,131.9z"
				/>
			<path class="st0" d="M59.6,131.9c0,0.9-0.8,1.8-1.7,1.8s-1.7-0.8-1.7-1.8c0-0.3,0-2,0-2h3.5C59.6,129.9,59.6,130.8,59.6,131.9z"
				/>
		</g>
		<g>
			<path class="st0" d="M63.1,131.9c0,0.9-0.8,1.8-1.7,1.8s-1.7-0.8-1.7-1.8c0-0.3,0-2,0-2h3.5C63.1,129.9,63.1,130.8,63.1,131.9z"
				/>
			<path class="st0" d="M66.6,131.9c0,0.9-0.8,1.8-1.7,1.8c-0.9,0-1.7-0.8-1.7-1.8c0-0.3,0-2,0-2h3.5
				C66.6,129.9,66.6,130.8,66.6,131.9z"/>
		</g>
		<g>
			<path class="st0" d="M70.1,131.9c0,0.9-0.8,1.8-1.7,1.8c-0.9,0-1.7-0.8-1.7-1.8c0-0.3,0-2,0-2h3.5
				C70.1,129.9,70.1,130.8,70.1,131.9z"/>
			<path class="st0" d="M73.6,131.9c0,0.9-0.8,1.8-1.7,1.8s-1.7-0.8-1.7-1.8c0-0.3,0-2,0-2h3.5C73.6,129.9,73.6,130.8,73.6,131.9z"
				/>
		</g>
		<g>
			<path class="st0" d="M77,131.9c0,0.9-0.8,1.8-1.7,1.8c-0.9,0-1.7-0.8-1.7-1.8c0-0.3,0-2,0-2h3.5C77,129.9,77,130.8,77,131.9z"/>
		</g>
	</g>
	<g>
		<g>
			<g>
				<rect x="25.6" y="110.5" class="st0" width="8.5" height="14.7"/>
				<rect x="25.6" y="110.5" class="st0" width="8.5" height="14.7"/>
			</g>
			<g>
				<rect x="37.6" y="110.5" class="st0" width="8.5" height="14.7"/>
				<rect x="37.6" y="110.5" class="st0" width="8.5" height="14.7"/>
			</g>
			<g>
				<rect x="49.5" y="110.5" class="st0" width="8.5" height="14.7"/>
				<rect x="49.5" y="110.5" class="st0" width="8.5" height="14.7"/>
			</g>
			<g>
				<rect x="61.6" y="110.5" class="st0" width="8.5" height="14.7"/>
				<rect x="61.6" y="110.5" class="st0" width="8.5" height="14.7"/>
			</g>
		</g>
	</g>
	<path class="st0" d="M42.5,144.4c0-4.5-3.7-8.2-8.2-8.2s-8.2,3.7-8.2,8.2v18.6h16.5V144.4z"/>
	<circle class="st0" cx="46.9" cy="91.1" r="4.7"/>
	<polygon class="st0" points="13.8,114 3,114 47.5,56.5 91.9,114 81,114 47.2,69.7 	"/>
</g>
<g>
	<rect x="506.4" y="66" class="st0" width="8.1" height="20.8"/>
	<polygon class="st0" points="522.1,162.9 462.8,162.9 462.8,106.8 492.1,66 522.1,106.8 	"/>
	<circle class="st0" cx="491.9" cy="91.1" r="4.7"/>
	<rect x="462.8" y="156.5" class="st0" width="59.3" height="6.4"/>
	<rect x="471" y="94.6" class="st0" width="2.7" height="62.1"/>
	<rect x="483.8" y="72.6" class="st0" width="2.7" height="70.8"/>
	<rect x="498.2" y="70.3" class="st0" width="2.7" height="86.2"/>
	<rect x="512.1" y="91.1" class="st0" width="2.7" height="65.4"/>
	<polygon class="st0" points="458.8,114 448,114 492.6,56.5 536.9,114 526,114 492.4,69.7 	"/>
	<g>
		<g>
			<g>
				<rect x="470.6" y="110.5" class="st0" width="8.5" height="14.7"/>
				<rect x="470.6" y="110.5" class="st0" width="8.5" height="14.7"/>
			</g>
			<g>
				<rect x="482.6" y="110.5" class="st0" width="8.5" height="14.7"/>
				<rect x="482.6" y="110.5" class="st0" width="8.5" height="14.7"/>
			</g>
			<g>
				<rect x="494.7" y="110.5" class="st0" width="8.5" height="14.7"/>
				<rect x="494.7" y="110.5" class="st0" width="8.5" height="14.7"/>
			</g>
			<g>
				<rect x="506.7" y="110.5" class="st0" width="8.5" height="14.7"/>
				<rect x="506.7" y="110.5" class="st0" width="8.5" height="14.7"/>
			</g>
		</g>
	</g>
	<g>
		<g>
			<g>
				<rect x="494.3" y="136.1" class="st0" width="8.5" height="14.7"/>
				<rect x="494.3" y="136.1" class="st0" width="8.5" height="14.7"/>
			</g>
			<g>
				<rect x="506.3" y="136.1" class="st0" width="8.5" height="14.7"/>
				<rect x="506.3" y="136.1" class="st0" width="8.5" height="14.7"/>
			</g>
		</g>
	</g>
	<path class="st0" d="M487.6,144.4c0-4.5-3.7-8.2-8.2-8.2s-8.2,3.7-8.2,8.2v18.6h16.5L487.6,144.4L487.6,144.4z"/>
	<g>
		<g>
			<path class="st0" d="M466.3,131.9c0,0.9-0.8,1.8-1.7,1.8s-1.7-0.8-1.7-1.8c0-0.3,0-2,0-2h3.5
				C466.3,129.9,466.3,130.8,466.3,131.9z"/>
			<path class="st0" d="M469.8,131.9c0,0.9-0.8,1.8-1.7,1.8s-1.7-0.8-1.7-1.8c0-0.3,0-2,0-2h3.5
				C469.8,129.9,469.8,130.8,469.8,131.9z"/>
		</g>
		<g>
			<path class="st0" d="M473.2,131.9c0,0.9-0.8,1.8-1.7,1.8s-1.7-0.8-1.7-1.8c0-0.3,0-2,0-2h3.5
				C473.2,129.9,473.2,130.8,473.2,131.9z"/>
			<path class="st0" d="M476.8,131.9c0,0.9-0.8,1.8-1.7,1.8s-1.7-0.8-1.7-1.8c0-0.3,0-2,0-2h3.5
				C476.8,129.9,476.8,130.8,476.8,131.9z"/>
		</g>
		<g>
			<path class="st0" d="M480.3,131.9c0,0.9-0.8,1.8-1.7,1.8c-0.9,0-1.7-0.8-1.7-1.8c0-0.3,0-2,0-2h3.5
				C480.3,129.9,480.3,130.8,480.3,131.9z"/>
			<path class="st0" d="M483.8,131.9c0,0.9-0.8,1.8-1.7,1.8s-1.7-0.8-1.7-1.8c0-0.3,0-2,0-2h3.5
				C483.8,129.9,483.8,130.8,483.8,131.9z"/>
		</g>
		<g>
			<path class="st0" d="M487.3,131.9c0,0.9-0.8,1.8-1.7,1.8s-1.7-0.8-1.7-1.8c0-0.3,0-2,0-2h3.5
				C487.3,129.9,487.3,130.8,487.3,131.9z"/>
			<path class="st0" d="M490.7,131.9c0,0.9-0.8,1.8-1.7,1.8c-0.9,0-1.7-0.8-1.7-1.8c0-0.3,0-2,0-2h3.5
				C490.7,129.9,490.7,130.8,490.7,131.9z"/>
		</g>
		<g>
			<path class="st0" d="M494.2,131.9c0,0.9-0.8,1.8-1.7,1.8s-1.7-0.8-1.7-1.8c0-0.3,0-2,0-2h3.5
				C494.2,129.9,494.2,130.8,494.2,131.9z"/>
			<path class="st0" d="M497.7,131.9c0,0.9-0.8,1.8-1.7,1.8s-1.7-0.8-1.7-1.8c0-0.3,0-2,0-2h3.5
				C497.7,129.9,497.7,130.8,497.7,131.9z"/>
		</g>
		<g>
			<path class="st0" d="M501.2,131.9c0,0.9-0.8,1.8-1.7,1.8s-1.7-0.8-1.7-1.8c0-0.3,0-2,0-2h3.5
				C501.2,129.9,501.2,130.8,501.2,131.9z"/>
			<path class="st0" d="M504.7,131.9c0,0.9-0.8,1.8-1.7,1.8s-1.7-0.8-1.7-1.8c0-0.3,0-2,0-2h3.5
				C504.7,129.9,504.7,130.8,504.7,131.9z"/>
		</g>
		<g>
			<path class="st0" d="M508.2,131.9c0,0.9-0.8,1.8-1.7,1.8c-0.9,0-1.7-0.8-1.7-1.8c0-0.3,0-2,0-2h3.5
				C508.2,129.9,508.2,130.8,508.2,131.9z"/>
			<path class="st0" d="M511.6,131.9c0,0.9-0.8,1.8-1.7,1.8s-1.7-0.8-1.7-1.8c0-0.3,0-2,0-2h3.5
				C511.6,129.9,511.6,130.8,511.6,131.9z"/>
		</g>
		<g>
			<path class="st0" d="M515.1,131.9c0,0.9-0.8,1.8-1.7,1.8s-1.7-0.8-1.7-1.8c0-0.3,0-2,0-2h3.5
				C515.1,129.9,515.1,130.8,515.1,131.9z"/>
			<path class="st0" d="M518.6,131.9c0,0.9-0.8,1.8-1.7,1.8s-1.7-0.8-1.7-1.8c0-0.3,0-2,0-2h3.5
				C518.6,129.9,518.6,130.8,518.6,131.9z"/>
		</g>
		<g>
			<path class="st0" d="M522.1,131.9c0,0.9-0.8,1.8-1.7,1.8s-1.7-0.8-1.7-1.8c0-0.3,0-2,0-2h3.5
				C522.1,129.9,522.1,130.8,522.1,131.9z"/>
		</g>
	</g>
	<rect x="462.8" y="129.2" class="st0" width="59.3" height="1"/>
</g>
<g>
	<rect x="365.9" y="150" class="st0" width="1.5" height="13.5"/>
	<rect x="365.4" y="149.9" class="st0" width="2.4" height="1.9"/>
</g>
<g>
	<rect x="419.8" y="150.1" class="st0" width="1.5" height="13.5"/>
	<rect x="419.4" y="149.9" class="st0" width="2.4" height="1.9"/>
</g>
<g>
	<polygon class="st0" points="443.8,163.3 363.5,163.3 363.5,87.4 403.2,32.1 443.8,87.4 	"/>
	<g>
		<g>
			<rect x="363.5" y="87.4" class="st0" width="3.6" height="6.6"/>
			<rect x="363.5" y="95.1" class="st0" width="6.1" height="6.6"/>
		</g>
		<g>
			<rect x="363.5" y="102.8" class="st0" width="3.6" height="6.6"/>
			<rect x="363.5" y="110.4" class="st0" width="6.1" height="6.6"/>
		</g>
		<g>
			<rect x="363.5" y="125.8" class="st0" width="6.1" height="6.6"/>
		</g>
		<g>
			<rect x="363.5" y="133.6" class="st0" width="3.6" height="6.6"/>
			<rect x="363.5" y="141.2" class="st0" width="6.1" height="6.6"/>
		</g>
		<g>
			<rect x="363.5" y="148.9" class="st0" width="3.6" height="6.6"/>
		</g>
	</g>
	<path class="st0" d="M383.9,122.8"/>
	<path class="st0" d="M372.6,111.6"/>
	<path class="st0" d="M372.5,122.4"/>
	<path class="st0" d="M383.7,111.1"/>
	<path class="st0" d="M383.7,122.8"/>
	<path class="st0" d="M383.7,111.1"/>
	<path class="st0" d="M372.7,123"/>
	<path class="st0" d="M372.7,111.4"/>
	<path class="st0" d="M394.9,123.2"/>
	<path class="st0" d="M383.6,112.1"/>
	<path class="st0" d="M383.5,122.9"/>
	<path class="st0" d="M394.7,111.6"/>
	<path class="st0" d="M394.7,123.2"/>
	<path class="st0" d="M394.7,111.6"/>
	<path class="st0" d="M406.1,122.8"/>
	<path class="st0" d="M394.9,111.6"/>
	<path class="st0" d="M394.7,122.4"/>
	<path class="st0" d="M405.9,111.1"/>
	<path class="st0" d="M405.9,122.8"/>
	<path class="st0" d="M405.9,111.1"/>
	<path class="st0" d="M417.2,123"/>
	<path class="st0" d="M405.9,111.8"/>
	<path class="st0" d="M405.8,122.7"/>
	<path class="st0" d="M417,111.4"/>
	<path class="st0" d="M417,123"/>
	<path class="st0" d="M417,111.4"/>
	<path class="st0" d="M428.4,123"/>
	<path class="st0" d="M417.2,111.8"/>
	<path class="st0" d="M417.1,122.6"/>
	<path class="st0" d="M428.3,111.3"/>
	<path class="st0" d="M428.3,123"/>
	<path class="st0" d="M428.3,111.3"/>
	<path class="st0" d="M440,123.1"/>
	<path class="st0" d="M428.8,112"/>
	<path class="st0" d="M428.6,122.8"/>
	<path class="st0" d="M439.9,111.6"/>
	<path class="st0" d="M439.9,123.1"/>
	<path class="st0" d="M439.9,111.6"/>
	<line class="st0" x1="373.2" y1="60.9" x2="373.2" y2="118.5"/>
	<line class="st0" x1="382" y1="49.8" x2="382" y2="94.7"/>
	<line class="st0" x1="390.7" y1="37.9" x2="390.7" y2="118.5"/>
	<line class="st0" x1="399.5" y1="36" x2="399.5" y2="94.7"/>
	<line class="st0" x1="408.3" y1="35.3" x2="408.3" y2="118.5"/>
	<line class="st0" x1="417.2" y1="37.9" x2="417.2" y2="118.6"/>
	<line class="st0" x1="426" y1="49.8" x2="426" y2="94.7"/>
	<line class="st0" x1="434.8" y1="68" x2="434.8" y2="94.7"/>
	<line class="st0" x1="439.6" y1="87.4" x2="439.6" y2="95"/>
	<line class="st0" x1="412.5" y1="44.8" x2="373.5" y2="94.1"/>
	<line class="st0" x1="441.4" y1="74.3" x2="425.7" y2="94.1"/>
	<line class="st0" x1="373.9" y1="61.2" x2="399.4" y2="93.6"/>
	<line class="st0" x1="384.7" y1="52.4" x2="417.2" y2="93.6"/>
	<line class="st0" x1="439.1" y1="68" x2="439.1" y2="119.2"/>
	<line class="st0" x1="373.1" y1="124.2" x2="384.3" y2="157.3"/>
	<line class="st0" x1="384.2" y1="123" x2="372.9" y2="156.1"/>
	<line class="st0" x1="384.2" y1="123" x2="384.2" y2="157.3"/>
	<line class="st0" x1="373.2" y1="123.7" x2="373.2" y2="157.8"/>
	<line class="st0" x1="384.8" y1="124.8" x2="396" y2="157.8"/>
	<line class="st0" x1="395.9" y1="123.6" x2="384.7" y2="156.7"/>
	<line class="st0" x1="395.9" y1="123.6" x2="395.9" y2="157.8"/>
	<line class="st0" x1="396.3" y1="124.2" x2="407.5" y2="157.3"/>
	<line class="st0" x1="407.4" y1="123" x2="396.1" y2="156.1"/>
	<line class="st0" x1="407.4" y1="123" x2="407.4" y2="157.2"/>
	<line class="st0" x1="407.6" y1="124.2" x2="418.9" y2="157.3"/>
	<line class="st0" x1="418.7" y1="123" x2="407.5" y2="156.1"/>
	<line class="st0" x1="418.7" y1="123" x2="418.7" y2="157.3"/>
	<line class="st0" x1="419.1" y1="123.6" x2="430.4" y2="156.7"/>
	<line class="st0" x1="430.2" y1="122.5" x2="419.1" y2="155.5"/>
	<line class="st0" x1="430.2" y1="122.5" x2="430.2" y2="156.6"/>
	<line class="st0" x1="429.6" y1="123" x2="440.7" y2="156.1"/>
	<line class="st0" x1="440.6" y1="121.8" x2="429.4" y2="154.9"/>
	<line class="st0" x1="440.6" y1="121.8" x2="440.6" y2="156"/>
	<path class="st0" d="M439.9,111.7"/>
	<path class="st0" d="M372.3,111.7"/>
	<line class="st0" x1="367" y1="94" x2="443.6" y2="94"/>
	<line class="st0" x1="433.5" y1="61.9" x2="408.2" y2="93.9"/>
	<path class="st0" d="M409.4,61.9c-0.1-2.7-2.4-4.9-5.1-4.9c-2.7,0-5,2.2-5.1,4.9l0,0v8.6h10.2V61.9L409.4,61.9z"/>
	<g>
		<g>
			<path class="st0" d="M388.4,93.2c-0.1-2.7-2.4-4.9-5.1-4.9c-2.7,0-5,2.2-5.1,4.9l0,0v15.3h10.2V93.2L388.4,93.2z"/>
			<path class="st0" d="M433.2,92.4c-0.1-2.7-2.4-4.9-5.1-4.9s-5,2.2-5.1,4.9l0,0v15.3h10.2V92.4L433.2,92.4z"/>
			<g>
				<path class="st0" d="M432.4,134.1c-0.1-2.7-2.4-4.9-5.1-4.9s-5,2.2-5.1,4.9l0,0v15.3h10.2V134.1L432.4,134.1z"/>
				<path class="st0" d="M417.3,134.1c-0.1-2.7-2.4-4.9-5.1-4.9c-2.7,0-5,2.2-5.1,4.9l0,0v15.3h10.2V134.1L417.3,134.1z"/>
				<path class="st0" d="M402.2,134.1c-0.1-2.7-2.4-4.9-5.1-4.9c-2.7,0-5,2.2-5.1,4.9l0,0v15.3h10.2V134.1L402.2,134.1z"/>
				<path class="st0" d="M387.1,134.1c-0.1-2.7-2.4-4.9-5.1-4.9s-5,2.2-5.1,4.9l0,0v15.3h10.2V134.1L387.1,134.1z"/>
			</g>
			<path class="st0" d="M412.9,94.9c-0.1-4.1-4.6-7.4-8.8-7.4c-4.2,0-8.3,3.3-8.5,7.4l0,0v23H413L412.9,94.9L412.9,94.9z"/>
		</g>
	</g>
	<line class="st0" x1="394.2" y1="40.6" x2="436.4" y2="94"/>
	<polyline class="st0" points="443.8,118.2 443.8,124.8 363.5,124.8 363.5,118.2 	"/>
	<g>
		<g>
			<g>
				<g>
					<rect x="431.1" y="105.3" class="st0" width="1.6" height="12.5"/>
					<rect x="427.7" y="105.3" class="st0" width="1" height="12.5"/>
					<rect x="424.3" y="105.3" class="st0" width="1" height="12.5"/>
					<rect x="420.9" y="105.3" class="st0" width="1" height="12.5"/>
					<rect x="417.4" y="105.3" class="st0" width="1" height="12.5"/>
					<rect x="413.9" y="105.3" class="st0" width="1" height="12.5"/>
					<rect x="410.5" y="105.3" class="st0" width="1" height="12.5"/>
					<rect x="407.1" y="105.3" class="st0" width="1" height="12.5"/>
					<rect x="403.7" y="105.3" class="st0" width="1" height="12.5"/>
					<rect x="400.3" y="105.3" class="st0" width="1" height="12.5"/>
					<rect x="396.8" y="105.3" class="st0" width="1" height="12.5"/>
					<rect x="393.4" y="105.3" class="st0" width="1" height="12.5"/>
					<rect x="390" y="105.3" class="st0" width="1" height="12.5"/>
					<rect x="386.6" y="105.3" class="st0" width="1" height="12.5"/>
					<polyline class="st0" points="383.1,105.3 384.2,105.3 384.2,117.8 383.1,117.8 					"/>
					<rect x="379.7" y="105.3" class="st0" width="1" height="12.5"/>
					<rect x="375.7" y="105.3" class="st0" width="1.6" height="12.5"/>
				</g>
			</g>
			<g>
				<rect x="373.9" y="117.1" class="st0" width="60.5" height="2"/>
				<rect x="373.9" y="117.1" class="st0" width="60.5" height="2"/>
			</g>
			<g>
				<rect x="373.9" y="105" class="st0" width="60.5" height="1"/>
				<rect x="373.9" y="105" class="st0" width="60.5" height="1"/>
			</g>
		</g>
	</g>
	<g>
		<g>
			<rect x="440.3" y="87.4" class="st0" width="3.6" height="6.6"/>
			<rect x="437.7" y="95.1" class="st0" width="6.1" height="6.6"/>
		</g>
		<g>
			<rect x="440.3" y="102.8" class="st0" width="3.6" height="6.6"/>
			<rect x="437.7" y="110.4" class="st0" width="6.1" height="6.6"/>
		</g>
		<g>
			<rect x="440.3" y="118.2" class="st0" width="3.6" height="6.6"/>
			<rect x="437.7" y="125.8" class="st0" width="6.1" height="6.6"/>
		</g>
		<g>
			<rect x="440.3" y="133.6" class="st0" width="3.6" height="6.6"/>
			<rect x="437.7" y="141.2" class="st0" width="6.1" height="6.6"/>
		</g>
		<g>
			<rect x="440.3" y="148.9" class="st0" width="3.6" height="6.6"/>
		</g>
	</g>
	<polyline class="st0" points="363.5,163.3 363.5,156.4 443.8,156.4 443.8,163.3 	"/>
	<polygon class="st0" points="361.1,90.7 348.7,90.7 403.8,19.3 458.8,90.6 446.1,90.7 403.5,34.5 	"/>
</g>
<g>
	<polygon class="st0" points="351.6,162.7 281.1,162.7 281.1,103 316,58.4 351.6,103 	"/>
	<circle class="st0" cx="316.5" cy="84.8" r="4.7"/>
	<polygon class="st0" points="282.8,156.7 281.1,156.7 281.1,103 282.8,100.7 	"/>
	<polygon class="st0" points="351.6,156.7 349.8,156.7 349.8,100.7 351.6,103.3 	"/>
	<line class="st0" x1="282.7" y1="128.5" x2="293.8" y2="157.5"/>
	<line class="st0" x1="293.7" y1="127.5" x2="282.6" y2="156.5"/>
	<line class="st0" x1="293.7" y1="77.9" x2="293.7" y2="156.7"/>
	<line class="st0" x1="282.8" y1="128" x2="282.8" y2="158"/>
	<line class="st0" x1="294.4" y1="129" x2="305.4" y2="158.1"/>
	<line class="st0" x1="305.3" y1="128" x2="294.2" y2="157.1"/>
	<line class="st0" x1="305.3" y1="67.6" x2="305.3" y2="158"/>
	<line class="st0" x1="305.7" y1="128.4" x2="316.7" y2="157.5"/>
	<line class="st0" x1="316.6" y1="127.4" x2="305.5" y2="156.5"/>
	<line class="st0" x1="316.6" y1="56.2" x2="316.6" y2="156.4"/>
	<line class="st0" x1="316.8" y1="128.5" x2="327.9" y2="157.5"/>
	<line class="st0" x1="327.8" y1="127.5" x2="316.7" y2="156.5"/>
	<line class="st0" x1="327.8" y1="66" x2="327.8" y2="156.5"/>
	<line class="st0" x1="328.3" y1="128" x2="339.4" y2="157.1"/>
	<line class="st0" x1="339.2" y1="126.9" x2="328.1" y2="156"/>
	<line class="st0" x1="339.2" y1="76.5" x2="339.2" y2="156.7"/>
	<line class="st0" x1="338.5" y1="127.4" x2="349.6" y2="156.5"/>
	<line class="st0" x1="349.4" y1="126.5" x2="338.3" y2="155.5"/>
	<line class="st0" x1="349.4" y1="126.5" x2="349.4" y2="156.5"/>
	<line class="st0" x1="276.9" y1="99" x2="355.7" y2="99"/>
	<line class="st0" x1="316.6" y1="75.3" x2="339.1" y2="98.4"/>
	<line class="st0" x1="316.5" y1="75.3" x2="294.1" y2="98.4"/>
	<g>
		<g>
			<rect x="287.9" y="107" class="st0" width="12.3" height="12.8"/>
			<rect x="318.6" y="107" class="st0" width="12.3" height="12.8"/>
			<rect x="333.9" y="107" class="st0" width="12.3" height="12.8"/>
			<rect x="303.2" y="107" class="st0" width="12.3" height="12.8"/>
		</g>
	</g>
	<rect x="282.1" y="126.4" class="st0" width="67.8" height="2.3"/>
	<polygon class="st0" points="278.9,105.9 267.9,105.9 316.4,47.2 364.7,105.9 353.7,105.9 316.2,60.5 	"/>
	<rect x="281.1" y="156.7" class="st0" width="70.5" height="6.1"/>
	<g>
		<g>
			<g>
				<rect x="291.4" y="137.5" class="st0" width="11.3" height="11.7"/>
				<rect x="291.4" y="137.5" class="st0" width="11.3" height="11.7"/>
			</g>
			<g>
				<rect x="330.9" y="137.5" class="st0" width="11.3" height="11.7"/>
				<rect x="330.9" y="137.5" class="st0" width="11.3" height="11.7"/>
			</g>
		</g>
	</g>
	<path class="st0" d="M323.7,144.3c0-4.5-3.7-8.2-8.2-8.2c-4.5,0-8.2,3.7-8.2,8.2v18.6h16.5L323.7,144.3L323.7,144.3z"/>
</g>
<g>
	<rect x="218.9" y="28.5" class="st0" width="11.8" height="22.4"/>
	<rect x="196.9" y="76.5" class="st0" width="67.6" height="86.6"/>
	<rect x="196.9" y="152.5" class="st0" width="67.6" height="10.6"/>
	<g>
		<rect x="196.9" y="42.2" class="st0" width="67.6" height="36.5"/>
		<g>
			<g>
				<rect id="SVGID_6_" x="196.9" y="42.2" class="st0" width="67.6" height="36.5"/>
			</g>
			<g>
				<defs>
					<rect id="SVGID_3_" x="196.9" y="42.2" width="67.6" height="36.5"/>
				</defs>
				<use xlink:href="#SVGID_3_"  style="overflow:visible;fill:#FFFFFF;"/>
				<clipPath id="SVGID_4_">
					<use xlink:href="#SVGID_3_"  style="overflow:visible;"/>
				</clipPath>
				<g class="st2">
					<g>
						<ellipse class="st0" cx="204.1" cy="44" rx="2.4" ry="2.4"/>
						<ellipse class="st0" cx="204.1" cy="50.8" rx="2.4" ry="2.4"/>
						<ellipse class="st0" cx="204.1" cy="58.2" rx="2.4" ry="2.4"/>
						<ellipse class="st0" cx="204.1" cy="65.1" rx="2.4" ry="2.4"/>
						<ellipse class="st0" cx="204.1" cy="72.5" rx="2.4" ry="2.4"/>
						<ellipse class="st0" cx="204.1" cy="79.4" rx="2.4" ry="2.4"/>
					</g>
					<g>
						<ellipse class="st0" cx="208.9" cy="47.4" rx="2.4" ry="2.4"/>
						<ellipse class="st0" cx="208.9" cy="54.3" rx="2.4" ry="2.4"/>
						<ellipse class="st0" cx="208.9" cy="61.6" rx="2.4" ry="2.4"/>
						<ellipse class="st0" cx="208.9" cy="68.5" rx="2.4" ry="2.4"/>
						<ellipse class="st0" cx="208.9" cy="76" rx="2.4" ry="2.4"/>
						<ellipse class="st0" cx="208.9" cy="82.8" rx="2.4" ry="2.4"/>
					</g>
					<g>
						<ellipse class="st0" cx="213.7" cy="44" rx="2.4" ry="2.4"/>
						<ellipse class="st0" cx="213.7" cy="50.8" rx="2.4" ry="2.4"/>
						<ellipse class="st0" cx="213.7" cy="58.2" rx="2.4" ry="2.4"/>
						<ellipse class="st0" cx="213.7" cy="65.1" rx="2.4" ry="2.4"/>
						<ellipse class="st0" cx="213.7" cy="72.5" rx="2.4" ry="2.4"/>
						<ellipse class="st0" cx="213.7" cy="79.4" rx="2.4" ry="2.4"/>
					</g>
					<g>
						<ellipse class="st0" cx="218.7" cy="47.4" rx="2.4" ry="2.4"/>
						<ellipse class="st0" cx="218.7" cy="54.3" rx="2.4" ry="2.4"/>
						<ellipse class="st0" cx="218.7" cy="61.6" rx="2.4" ry="2.4"/>
						<ellipse class="st0" cx="218.7" cy="68.5" rx="2.4" ry="2.4"/>
						<ellipse class="st0" cx="218.7" cy="76" rx="2.4" ry="2.4"/>
						<ellipse class="st0" cx="218.7" cy="82.8" rx="2.4" ry="2.4"/>
					</g>
					<g>
						<ellipse class="st0" cx="223.5" cy="44" rx="2.4" ry="2.4"/>
						<ellipse class="st0" cx="223.5" cy="50.8" rx="2.4" ry="2.4"/>
						<ellipse class="st0" cx="223.5" cy="58.2" rx="2.4" ry="2.4"/>
						<ellipse class="st0" cx="223.5" cy="65.1" rx="2.4" ry="2.4"/>
						<ellipse class="st0" cx="223.5" cy="72.5" rx="2.4" ry="2.4"/>
						<ellipse class="st0" cx="223.5" cy="79.4" rx="2.4" ry="2.4"/>
					</g>
					<g>
						<ellipse class="st0" cx="228.3" cy="47.4" rx="2.4" ry="2.4"/>
						<ellipse class="st0" cx="228.3" cy="54.3" rx="2.4" ry="2.4"/>
						<ellipse class="st0" cx="228.3" cy="61.6" rx="2.4" ry="2.4"/>
						<ellipse class="st0" cx="228.3" cy="68.5" rx="2.4" ry="2.4"/>
						<ellipse class="st0" cx="228.3" cy="76" rx="2.4" ry="2.4"/>
						<ellipse class="st0" cx="228.3" cy="82.8" rx="2.4" ry="2.4"/>
					</g>
					<g>
						<ellipse class="st0" cx="233.1" cy="44" rx="2.4" ry="2.4"/>
						<ellipse class="st0" cx="233.1" cy="50.8" rx="2.4" ry="2.4"/>
						<ellipse class="st0" cx="233.1" cy="58.2" rx="2.4" ry="2.4"/>
						<ellipse class="st0" cx="233.1" cy="65.1" rx="2.4" ry="2.4"/>
						<ellipse class="st0" cx="233.1" cy="72.5" rx="2.4" ry="2.4"/>
						<ellipse class="st0" cx="233.1" cy="79.4" rx="2.4" ry="2.4"/>
					</g>
					<g>
						<ellipse class="st0" cx="238" cy="47.4" rx="2.4" ry="2.4"/>
						<ellipse class="st0" cx="238" cy="54.3" rx="2.4" ry="2.4"/>
						<ellipse class="st0" cx="238" cy="61.6" rx="2.4" ry="2.4"/>
						<ellipse class="st0" cx="238" cy="68.5" rx="2.4" ry="2.4"/>
						<ellipse class="st0" cx="238" cy="76" rx="2.4" ry="2.4"/>
						<ellipse class="st0" cx="238" cy="82.8" rx="2.4" ry="2.4"/>
					</g>
					<g>
						<ellipse class="st0" cx="242.8" cy="44" rx="2.4" ry="2.4"/>
						<ellipse class="st0" cx="242.8" cy="50.8" rx="2.4" ry="2.4"/>
						<ellipse class="st0" cx="242.8" cy="58.2" rx="2.4" ry="2.4"/>
						<ellipse class="st0" cx="242.8" cy="65.1" rx="2.4" ry="2.4"/>
						<ellipse class="st0" cx="242.8" cy="72.5" rx="2.4" ry="2.4"/>
						<ellipse class="st0" cx="242.8" cy="79.4" rx="2.4" ry="2.4"/>
					</g>
					<g>
						<ellipse class="st0" cx="247.6" cy="47.4" rx="2.4" ry="2.4"/>
						<ellipse class="st0" cx="247.6" cy="54.3" rx="2.4" ry="2.4"/>
						<ellipse class="st0" cx="247.6" cy="61.6" rx="2.4" ry="2.4"/>
						<ellipse class="st0" cx="247.6" cy="68.5" rx="2.4" ry="2.4"/>
						<ellipse class="st0" cx="247.6" cy="76" rx="2.4" ry="2.4"/>
						<ellipse class="st0" cx="247.6" cy="82.8" rx="2.4" ry="2.4"/>
					</g>
					<g>
						<ellipse class="st0" cx="252.5" cy="44" rx="2.4" ry="2.4"/>
						<ellipse class="st0" cx="252.5" cy="50.8" rx="2.4" ry="2.4"/>
						<ellipse class="st0" cx="252.5" cy="58.2" rx="2.4" ry="2.4"/>
						<ellipse class="st0" cx="252.5" cy="65.1" rx="2.4" ry="2.4"/>
						<ellipse class="st0" cx="252.5" cy="72.5" rx="2.4" ry="2.4"/>
						<ellipse class="st0" cx="252.5" cy="79.4" rx="2.4" ry="2.4"/>
					</g>
					<g>
						<ellipse class="st0" cx="257.3" cy="47.4" rx="2.4" ry="2.4"/>
						<ellipse class="st0" cx="257.3" cy="54.3" rx="2.4" ry="2.4"/>
						<ellipse class="st0" cx="257.3" cy="61.6" rx="2.4" ry="2.4"/>
						<ellipse class="st0" cx="257.3" cy="68.5" rx="2.4" ry="2.4"/>
						<ellipse class="st0" cx="257.3" cy="76" rx="2.4" ry="2.4"/>
						<ellipse class="st0" cx="257.3" cy="82.8" rx="2.4" ry="2.4"/>
					</g>
				</g>
			</g>
			<g>
				<rect id="SVGID_5_" x="196.9" y="42.2" class="st0" width="67.6" height="36.5"/>
			</g>
		</g>
	</g>
	<rect x="196.9" y="39" class="st0" width="5.4" height="39.7"/>
	<rect x="259" y="39" class="st0" width="5.4" height="39.7"/>
	<line class="st0" x1="197.1" y1="106.7" x2="208.4" y2="117.9"/>
	<line class="st0" x1="208.2" y1="106.4" x2="197" y2="117.6"/>
	<line class="st0" x1="208.2" y1="106.4" x2="208.2" y2="117.9"/>
	<line class="st0" x1="197.2" y1="106.6" x2="197.2" y2="118.1"/>
	<line class="st0" x1="208.1" y1="107.2" x2="219.4" y2="118.4"/>
	<line class="st0" x1="219.2" y1="106.8" x2="208" y2="118"/>
	<line class="st0" x1="219.2" y1="106.8" x2="219.2" y2="118.4"/>
	<line class="st0" x1="219.4" y1="106.7" x2="230.6" y2="117.9"/>
	<line class="st0" x1="230.4" y1="106.4" x2="219.2" y2="117.6"/>
	<line class="st0" x1="230.4" y1="106.4" x2="230.4" y2="117.9"/>
	<line class="st0" x1="230.5" y1="107" x2="241.7" y2="118.2"/>
	<line class="st0" x1="241.5" y1="106.7" x2="230.3" y2="117.8"/>
	<line class="st0" x1="241.5" y1="106.7" x2="241.5" y2="118.2"/>
	<line class="st0" x1="241.8" y1="106.9" x2="253" y2="118.1"/>
	<line class="st0" x1="252.9" y1="106.6" x2="241.6" y2="117.7"/>
	<line class="st0" x1="252.9" y1="106.6" x2="252.9" y2="118.1"/>
	<path class="st0" d="M264.6,118.4"/>
	<path class="st0" d="M253.3,107.1"/>
	<line class="st0" x1="264.4" y1="106.7" x2="253.2" y2="117.9"/>
	<line class="st0" x1="202.1" y1="82.6" x2="202.1" y2="106.8"/>
	<line class="st0" x1="209.8" y1="82.6" x2="209.8" y2="90.2"/>
	<line class="st0" x1="217.6" y1="82.6" x2="217.6" y2="106.8"/>
	<line class="st0" x1="225.4" y1="82.6" x2="225.4" y2="90.2"/>
	<line class="st0" x1="233.1" y1="82.6" x2="233.1" y2="106.8"/>
	<line class="st0" x1="240.8" y1="82.6" x2="240.8" y2="106.8"/>
	<line class="st0" x1="248.6" y1="82.6" x2="248.6" y2="90.2"/>
	<line class="st0" x1="256.4" y1="82.6" x2="256.4" y2="90.2"/>
	<line class="st0" x1="264.1" y1="82.6" x2="264.1" y2="90.2"/>
	<line class="st0" x1="209.8" y1="82.3" x2="202.4" y2="89.8"/>
	<line class="st0" x1="255.9" y1="82.3" x2="248.4" y2="89.8"/>
	<line class="st0" x1="217.7" y1="81.9" x2="225.2" y2="89.4"/>
	<line class="st0" x1="233.4" y1="81.9" x2="240.9" y2="89.4"/>
	<line class="st0" x1="260.2" y1="81.9" x2="260.2" y2="106.2"/>
	<line class="st0" x1="197.1" y1="121.6" x2="208.3" y2="152.2"/>
	<line class="st0" x1="208.1" y1="120.6" x2="197" y2="151.2"/>
	<line class="st0" x1="208.1" y1="120.6" x2="208.1" y2="152.1"/>
	<line class="st0" x1="197.1" y1="121.2" x2="197.1" y2="152.7"/>
	<line class="st0" x1="208.9" y1="122.2" x2="220.1" y2="152.8"/>
	<line class="st0" x1="219.9" y1="121.2" x2="208.7" y2="151.7"/>
	<line class="st0" x1="219.9" y1="121.2" x2="219.9" y2="152.7"/>
	<line class="st0" x1="220.4" y1="121.6" x2="231.5" y2="152.2"/>
	<line class="st0" x1="231.4" y1="120.6" x2="220.2" y2="151.1"/>
	<line class="st0" x1="231.4" y1="120.6" x2="231.4" y2="152.1"/>
	<line class="st0" x1="231.6" y1="121.6" x2="242.8" y2="152.2"/>
	<line class="st0" x1="242.7" y1="120.6" x2="231.5" y2="151.2"/>
	<line class="st0" x1="242.7" y1="120.6" x2="242.7" y2="152.1"/>
	<line class="st0" x1="243.2" y1="121.1" x2="254.4" y2="151.7"/>
	<line class="st0" x1="254.3" y1="120" x2="243" y2="150.6"/>
	<line class="st0" x1="254.3" y1="120" x2="254.3" y2="151.7"/>
	<path class="st0" d="M264.8,151.1"/>
	<path class="st0" d="M253.5,120.6"/>
	<path class="st0" d="M253.4,150.1"/>
	<path class="st0" d="M264.6,119.4"/>
	<g>
		<rect x="204.3" y="89.7" class="st0" width="13" height="17.1"/>
		<rect x="224.2" y="89.7" class="st0" width="13" height="17.1"/>
		<rect x="244.2" y="89.7" class="st0" width="13" height="17.1"/>
	</g>
	<g>
		<rect x="203.7" y="127.5" class="st0" width="13" height="17.1"/>
		<rect x="223.7" y="127.5" class="st0" width="13" height="17.1"/>
		<rect x="243.7" y="127.5" class="st0" width="13" height="17.1"/>
	</g>
	<g>
		<g>
			<g>
				<path class="st0" d="M204.3,121c0,0.9-0.9,1.8-2,1.8c-1.1,0-2-0.8-2-1.8c0-0.3,0-2,0-2h4.1C204.3,119.1,204.3,120,204.3,121z"/>
			</g>
			<g>
				<path class="st0" d="M208.3,121c0,0.9-0.9,1.8-2,1.8c-1.1,0-2-0.8-2-1.8c0-0.3,0-2,0-2h4.1C208.3,119.1,208.3,120,208.3,121z"/>
				<path class="st0" d="M212.3,121c0,0.9-0.9,1.8-2,1.8c-1.1,0-2-0.8-2-1.8c0-0.3,0-2,0-2h4.1C212.3,119.1,212.3,120,212.3,121z"/>
			</g>
			<g>
				<path class="st0" d="M216.4,121c0,0.9-0.9,1.8-2,1.8c-1.1,0-2-0.8-2-1.8c0-0.3,0-2,0-2h4.1C216.4,119.1,216.4,120,216.4,121z"/>
				<path class="st0" d="M220.5,121c0,0.9-0.9,1.8-2,1.8c-1.1,0-2-0.8-2-1.8c0-0.3,0-2,0-2h4.1C220.5,119.1,220.5,120,220.5,121z"/>
			</g>
			<g>
				<path class="st0" d="M224.5,121c0,0.9-0.9,1.8-2,1.8c-1.1,0-2-0.8-2-1.8c0-0.3,0-2,0-2h4.1C224.5,119.1,224.5,120,224.5,121z"/>
				<path class="st0" d="M228.6,121c0,0.9-0.9,1.8-2,1.8c-1.1,0-2-0.8-2-1.8c0-0.3,0-2,0-2h4.1C228.6,119.1,228.6,120,228.6,121z"/>
			</g>
			<g>
				<path class="st0" d="M232.7,121c0,0.9-0.9,1.8-2,1.8c-1.1,0-2-0.8-2-1.8c0-0.3,0-2,0-2h4.1C232.7,119.1,232.7,120,232.7,121z"/>
				<path class="st0" d="M236.7,121c0,0.9-0.9,1.8-2,1.8c-1.1,0-2-0.8-2-1.8c0-0.3,0-2,0-2h4.1C236.7,119.1,236.7,120,236.7,121z"/>
			</g>
			<g>
				<path class="st0" d="M240.8,121c0,0.9-0.9,1.8-2,1.8c-1.1,0-2-0.8-2-1.8c0-0.3,0-2,0-2h4.1C240.8,119.1,240.8,120,240.8,121z"/>
				<path class="st0" d="M244.9,121c0,0.9-0.9,1.8-2,1.8c-1.1,0-2-0.8-2-1.8c0-0.3,0-2,0-2h4.1C244.9,119.1,244.9,120,244.9,121z"/>
			</g>
			<g>
				<path class="st0" d="M249,121c0,0.9-0.9,1.8-2,1.8c-1.1,0-2-0.8-2-1.8c0-0.3,0-2,0-2h4.1C249,119.1,249,120,249,121z"/>
				<path class="st0" d="M253,121c0,0.9-0.9,1.8-2,1.8c-1.1,0-2-0.8-2-1.8c0-0.3,0-2,0-2h4.1C253,119.1,253,120,253,121z"/>
			</g>
			<g>
				<path class="st0" d="M257,121c0,0.9-0.9,1.8-2,1.8c-1.1,0-2-0.8-2-1.8c0-0.3,0-2,0-2h4.1C257,119.1,257,120,257,121z"/>
				<path class="st0" d="M261.1,121c0,0.9-0.9,1.8-2,1.8c-1.1,0-2-0.8-2-1.8c0-0.3,0-2,0-2h4.1C261.1,119.1,261.1,120,261.1,121z"/>
			</g>
		</g>
	</g>
	<line class="st0" x1="196.9" y1="106.8" x2="264.4" y2="106.8"/>
	<line class="st0" x1="196.6" y1="89.7" x2="264.2" y2="89.7"/>
</g>
</svg>
