<?xml version="1.0" encoding="utf-8"?>
<!-- Generator: Adobe Illustrator 19.2.0, SVG Export Plug-In . SVG Version: 6.00 Build 0)  -->
<svg version="1.1" id="Calque_1" xmlns="http://www.w3.org/2000/svg" xmlns:xlink="http://www.w3.org/1999/xlink" x="0px" y="0px"
	 viewBox="0 0 691 161.6" style="enable-background:new 0 0 691 161.6;" xml:space="preserve">
<style type="text/css">
	.st0{fill:#FFFFFF;stroke:#FFFFFF;stroke-miterlimit:10;}
	.st1{fill:#FFFFFF;}
	.st2{fill:none;stroke:#FFFFFF;stroke-miterlimit:10;}
	.st3{clip-path:url(#SVGID_2_);}
	.st4{fill:#FFFFFF;stroke:#FFFFFF;stroke-width:2;stroke-miterlimit:10;}
	.st5{fill:#FFFFFF;stroke:#FFFFFF;stroke-width:3;stroke-miterlimit:10;}
	.st6{clip-path:url(#SVGID_4_);}
</style>
<rect x="593.5" y="93.5" class="st0" width="3.3" height="34"/>
<g>
	<polygon class="st0" points="197.5,163.8 112.7,163.8 112.7,83.7 154.6,25.3 197.5,83.7 	"/>
	<g>
		<g>
			<rect x="112.7" y="83.7" class="st0" width="3.8" height="7"/>
			<rect x="112.7" y="91.8" class="st0" width="6.4" height="7"/>
		</g>
		<g>
			<rect x="112.7" y="99.9" class="st0" width="3.8" height="7"/>
			<rect x="112.7" y="108" class="st0" width="6.4" height="7"/>
		</g>
		<g>
			<rect x="112.7" y="124.3" class="st0" width="6.4" height="7"/>
		</g>
		<g>
			<rect x="112.7" y="132.4" class="st0" width="3.8" height="7"/>
			<rect x="112.7" y="140.5" class="st0" width="6.4" height="7"/>
		</g>
		<g>
			<rect x="112.7" y="148.6" class="st0" width="3.8" height="7"/>
		</g>
	</g>
	<g>
		<g>
			<rect x="193.7" y="83.7" class="st0" width="3.8" height="7"/>
			<rect x="191.1" y="91.8" class="st0" width="6.4" height="7"/>
		</g>
		<g>
			<rect x="193.7" y="99.9" class="st0" width="3.8" height="7"/>
			<rect x="191.1" y="108" class="st0" width="6.4" height="7"/>
		</g>
		<g>
			<rect x="193.7" y="116.2" class="st0" width="3.8" height="7"/>
			<rect x="191.1" y="124.3" class="st0" width="6.4" height="7"/>
		</g>
		<g>
			<rect x="193.7" y="132.4" class="st0" width="3.8" height="7"/>
			<rect x="191.1" y="140.5" class="st0" width="6.4" height="7"/>
		</g>
		<g>
			<rect x="193.7" y="148.6" class="st0" width="3.8" height="7"/>
		</g>
	</g>
	<polyline class="st0" points="112.7,163.8 112.7,156.5 197.5,156.5 197.5,163.8 	"/>
	<rect x="121.9" y="60" class="st0" width="2.4" height="96.5"/>
	<rect x="133.3" y="52.5" class="st0" width="2.4" height="104"/>
	<rect x="145.4" y="36.9" class="st0" width="2.4" height="119.6"/>
	<rect x="160" y="27.7" class="st0" width="2.4" height="128.8"/>
	<rect x="173.1" y="47" class="st0" width="2.4" height="109.5"/>
	<rect x="187.4" y="59.7" class="st0" width="2.4" height="96.5"/>
	<path class="st0" d="M161.2,56.8c-0.1-2.9-2.5-5.2-5.4-5.2c-2.9,0-5.3,2.3-5.4,5.2h0v9.1h10.8L161.2,56.8L161.2,56.8z"/>
	<g>
		<g>
			<path class="st0" d="M138.9,89.8c-0.1-2.9-2.5-5.2-5.4-5.2c-2.9,0-5.3,2.3-5.4,5.2h0V106h10.8L138.9,89.8L138.9,89.8z"/>
			<path class="st0" d="M186.2,89.1c-0.1-2.9-2.5-5.2-5.4-5.2c-2.9,0-5.3,2.3-5.4,5.2h0v16.2h10.8L186.2,89.1L186.2,89.1z"/>
			<g>
				<path class="st0" d="M185.4,133c-0.1-2.9-2.5-5.2-5.4-5.2c-2.9,0-5.3,2.3-5.4,5.2h0v16.2h10.8L185.4,133L185.4,133z"/>
				<path class="st0" d="M169.5,133c-0.1-2.9-2.5-5.2-5.4-5.2c-2.9,0-5.3,2.3-5.4,5.2h0v16.2h10.8L169.5,133L169.5,133z"/>
				<path class="st0" d="M153.6,133c-0.1-2.9-2.5-5.2-5.4-5.2c-2.9,0-5.3,2.3-5.4,5.2h0v16.2h10.8L153.6,133L153.6,133z"/>
				<path class="st0" d="M137.7,133c-0.1-2.9-2.5-5.2-5.4-5.2c-2.9,0-5.3,2.3-5.4,5.2h0v16.2h10.8L137.7,133L137.7,133z"/>
			</g>
			<path class="st0" d="M164.9,91.6c-0.1-4.3-4.9-7.8-9.3-7.8c-4.4,0-8.8,3.5-9,7.8h0V116h18.3L164.9,91.6L164.9,91.6z"/>
		</g>
	</g>
	<g>
		<g>
			<g>
				<g>
					<rect x="184.1" y="102.6" class="st0" width="1.7" height="13.2"/>
					<rect x="180.5" y="102.6" class="st0" width="1.1" height="13.2"/>
					<rect x="176.9" y="102.6" class="st0" width="1.1" height="13.2"/>
					<rect x="173.2" y="102.6" class="st0" width="1.1" height="13.2"/>
					<rect x="169.6" y="102.6" class="st0" width="1.1" height="13.2"/>
					<rect x="166" y="102.6" class="st0" width="1.1" height="13.2"/>
					<rect x="162.4" y="102.6" class="st0" width="1.1" height="13.2"/>
					<rect x="158.8" y="102.6" class="st0" width="1.1" height="13.2"/>
					<rect x="155.1" y="102.6" class="st0" width="1.1" height="13.2"/>
					<rect x="151.5" y="102.6" class="st0" width="1.1" height="13.2"/>
					<rect x="147.9" y="102.6" class="st0" width="1.1" height="13.2"/>
					<rect x="144.3" y="102.6" class="st0" width="1.1" height="13.2"/>
					<rect x="140.7" y="102.6" class="st0" width="1.1" height="13.2"/>
					<rect x="137" y="102.6" class="st0" width="1.1" height="13.2"/>
					<rect x="133.4" y="102.6" class="st0" width="1.1" height="13.2"/>
					<rect x="129.8" y="102.6" class="st0" width="1.1" height="13.2"/>
					<rect x="125.6" y="102.6" class="st0" width="1.7" height="13.2"/>
				</g>
			</g>
			<g>
				<rect x="123.8" y="115.1" class="st1" width="63.9" height="2.1"/>
				<rect x="123.8" y="115.1" class="st2" width="63.9" height="2.1"/>
			</g>
			<g>
				<rect x="123.8" y="102.3" class="st1" width="63.9" height="1.1"/>
				<rect x="123.8" y="102.3" class="st2" width="63.9" height="1.1"/>
			</g>
		</g>
	</g>
	<rect x="112.7" y="116.2" class="st0" width="84.7" height="7"/>
	<polygon class="st0" points="110.2,87.2 97,87.2 155.2,11.8 213.3,87.1 200,87.2 155,27.9 	"/>
</g>
<g>
	<rect x="580.3" y="60.5" class="st0" width="8.6" height="22"/>
	<polygon class="st0" points="596.8,162.7 534.2,162.7 534.2,103.5 565.2,60.5 596.8,103.5 	"/>
	<rect x="534.2" y="127.1" class="st0" width="62.6" height="1.1"/>
	<rect x="544.8" y="82.5" class="st0" width="2.4" height="60.9"/>
	<rect x="557.3" y="70.4" class="st0" width="2.4" height="87.5"/>
	<rect x="570.7" y="65" class="st0" width="2.4" height="97.7"/>
	<rect x="582.7" y="80.8" class="st0" width="2.4" height="81.9"/>
	
		<rect x="564.3" y="60.2" transform="matrix(3.377749e-011 -1 1 3.377749e-011 482.4242 648.5944)" class="st0" width="2.4" height="45.7"/>
	
		<rect x="563.7" y="70.3" transform="matrix(4.728846e-011 -1 1 4.728846e-011 462.9507 666.9705)" class="st0" width="2.4" height="63.5"/>
	
		<rect x="564.2" y="87.8" transform="matrix(4.653795e-011 -1 1 4.653795e-011 446.3986 684.5167)" class="st0" width="2.4" height="62.5"/>
	
		<rect x="564.2" y="107.5" transform="matrix(4.578744e-011 -1 1 4.578744e-011 426.7321 704.1832)" class="st0" width="2.4" height="62.5"/>
	
		<rect x="564.3" y="123.4" transform="matrix(4.503693e-011 -1 1 4.503693e-011 410.8861 720.1901)" class="st0" width="2.4" height="62.5"/>
	
		<rect x="562" y="82.2" transform="matrix(0.9063 -0.4226 0.4226 0.9063 13.6021 246.5236)" class="st0" width="1.6" height="20.8"/>
	
		<rect x="565" y="65.2" transform="matrix(0.9063 -0.4226 0.4226 0.9063 18.8195 246.7035)" class="st0" width="1.6" height="31.3"/>
	
		<rect x="567.2" y="59.7" transform="matrix(0.9063 -0.4226 0.4226 0.9063 23.5821 246.6082)" class="st0" width="1.6" height="20.8"/>
	
		<rect x="575.5" y="83.1" transform="matrix(0.9063 -0.4226 0.4226 0.9063 14.4937 252.3209)" class="st0" width="1.6" height="20.8"/>
	
		<rect x="580.1" y="81.8" transform="matrix(0.9063 -0.4226 0.4226 0.9063 16.5056 253.882)" class="st0" width="1.6" height="15.9"/>
	
		<rect x="539" y="101.4" transform="matrix(0.9063 -0.4226 0.4226 0.9063 1.3968 239.0419)" class="st0" width="1.6" height="29.9"/>
	
		<rect x="551.8" y="99.4" transform="matrix(0.9063 -0.4226 0.4226 0.9063 -2.5139 245.5855)" class="st0" width="1.6" height="58"/>
	
		<rect x="559.4" y="100" transform="matrix(0.9063 -0.4226 0.4226 0.9063 -1.3304 248.6836)" class="st0" width="1.6" height="54.7"/>
	
		<rect x="566.5" y="78.9" transform="matrix(0.9063 -0.4226 0.4226 0.9063 3.1826 250.8209)" class="st0" width="1.6" height="78.8"/>
	
		<rect x="584.6" y="99.5" transform="matrix(0.9063 -0.4226 0.4226 0.9063 0.6768 259.4199)" class="st0" width="1.6" height="57.4"/>
	
		<rect x="590.8" y="100.3" transform="matrix(0.9063 -0.4226 0.4226 0.9063 6.5402 260.8381)" class="st0" width="1.6" height="30.8"/>
	<rect x="541.6" y="117" transform="matrix(0.9063 -0.4226 0.4226 0.9063 -7.0869 242.0588)" class="st0" width="1.6" height="40"/>
	
		<rect x="537.7" y="138.3" transform="matrix(0.9063 -0.4226 0.4226 0.9063 -11.6549 241.3345)" class="st0" width="1.6" height="17.3"/>
	
		<rect x="548.7" y="88.1" transform="matrix(0.9063 -0.4226 0.4226 0.9063 11.1941 241.1388)" class="st0" width="1.6" height="14.5"/>
	<rect x="534.2" y="155.9" class="st0" width="62.6" height="6.8"/>
	<g>
		<rect x="567.4" y="134.4" class="st0" width="9" height="15.5"/>
		<rect x="580.1" y="134.4" class="st0" width="9" height="15.5"/>
	</g>
	<g>
		<g>
			<path class="st0" d="M537.9,129.9c0,1-0.8,1.9-1.8,1.9c-1,0-1.8-0.8-1.8-1.9c0-0.3,0-2.1,0-2.1l3.7,0
				C537.9,127.8,537.9,128.9,537.9,129.9z"/>
			<path class="st0" d="M541.6,129.9c0,1-0.8,1.9-1.8,1.9s-1.8-0.8-1.8-1.9c0-0.3,0-2.1,0-2.1l3.7,0
				C541.6,127.8,541.6,128.9,541.6,129.9z"/>
		</g>
		<g>
			<path class="st0" d="M545.3,129.9c0,1-0.8,1.9-1.8,1.9c-1,0-1.8-0.8-1.8-1.9c0-0.3,0-2.1,0-2.1l3.7,0
				C545.3,127.8,545.3,128.9,545.3,129.9z"/>
			<path class="st0" d="M548.9,129.9c0,1-0.8,1.9-1.8,1.9c-1,0-1.8-0.8-1.8-1.9c0-0.3,0-2.1,0-2.1l3.7,0
				C548.9,127.8,548.9,128.9,548.9,129.9z"/>
		</g>
		<g>
			<path class="st0" d="M552.6,129.9c0,1-0.8,1.9-1.8,1.9c-1,0-1.8-0.8-1.8-1.9c0-0.3,0-2.1,0-2.1l3.7,0
				C552.6,127.8,552.6,128.9,552.6,129.9z"/>
			<path class="st0" d="M556.3,129.9c0,1-0.8,1.9-1.8,1.9c-1,0-1.8-0.8-1.8-1.9c0-0.3,0-2.1,0-2.1l3.7,0
				C556.3,127.8,556.3,128.9,556.3,129.9z"/>
		</g>
		<g>
			<path class="st0" d="M560,129.9c0,1-0.8,1.9-1.8,1.9c-1,0-1.8-0.8-1.8-1.9c0-0.3,0-2.1,0-2.1l3.7,0
				C560,127.8,560,128.9,560,129.9z"/>
			<path class="st0" d="M563.7,129.9c0,1-0.8,1.9-1.8,1.9c-1,0-1.8-0.8-1.8-1.9c0-0.3,0-2.1,0-2.1l3.7,0
				C563.7,127.8,563.7,128.9,563.7,129.9z"/>
		</g>
		<g>
			<path class="st0" d="M567.3,129.9c0,1-0.8,1.9-1.8,1.9c-1,0-1.8-0.8-1.8-1.9c0-0.3,0-2.1,0-2.1l3.7,0
				C567.3,127.8,567.3,128.9,567.3,129.9z"/>
			<path class="st0" d="M571,129.9c0,1-0.8,1.9-1.8,1.9c-1,0-1.8-0.8-1.8-1.9c0-0.3,0-2.1,0-2.1l3.7,0
				C571,127.8,571,128.9,571,129.9z"/>
		</g>
		<g>
			<path class="st0" d="M574.7,129.9c0,1-0.8,1.9-1.8,1.9c-1,0-1.8-0.8-1.8-1.9c0-0.3,0-2.1,0-2.1l3.7,0
				C574.7,127.8,574.7,128.9,574.7,129.9z"/>
			<path class="st0" d="M578.4,129.9c0,1-0.8,1.9-1.8,1.9c-1,0-1.8-0.8-1.8-1.9c0-0.3,0-2.1,0-2.1l3.7,0
				C578.4,127.8,578.4,128.9,578.4,129.9z"/>
		</g>
		<g>
			<path class="st0" d="M582.1,129.9c0,1-0.8,1.9-1.8,1.9c-1,0-1.8-0.8-1.8-1.9c0-0.3,0-2.1,0-2.1l3.7,0
				C582.1,127.8,582.1,128.9,582.1,129.9z"/>
			<path class="st0" d="M585.8,129.9c0,1-0.8,1.9-1.8,1.9c-1,0-1.8-0.8-1.8-1.9c0-0.3,0-2.1,0-2.1l3.7,0
				C585.8,127.8,585.8,128.9,585.8,129.9z"/>
		</g>
		<g>
			<path class="st0" d="M589.4,129.9c0,1-0.8,1.9-1.8,1.9c-1,0-1.8-0.8-1.8-1.9c0-0.3,0-2.1,0-2.1l3.7,0
				C589.4,127.8,589.4,128.9,589.4,129.9z"/>
			<path class="st0" d="M593.1,129.9c0,1-0.8,1.9-1.8,1.9s-1.8-0.8-1.8-1.9c0-0.3,0-2.1,0-2.1l3.7,0
				C593.1,127.8,593.1,128.9,593.1,129.9z"/>
		</g>
		<g>
			<path class="st0" d="M596.8,129.9c0,1-0.8,1.9-1.8,1.9c-1,0-1.8-0.8-1.8-1.9c0-0.3,0-2.1,0-2.1l3.7,0
				C596.8,127.8,596.8,128.9,596.8,129.9z"/>
		</g>
	</g>
	<g>
		<g>
			<rect x="542.4" y="107.4" class="st0" width="9" height="15.5"/>
			<rect x="555.1" y="107.4" class="st0" width="9" height="15.5"/>
			<rect x="567.8" y="107.4" class="st0" width="9" height="15.5"/>
			<rect x="580.5" y="107.4" class="st0" width="9" height="15.5"/>
		</g>
	</g>
	<path class="st0" d="M560.4,143.1c0-4.8-3.9-8.7-8.7-8.7c-4.8,0-8.7,3.9-8.7,8.7v19.6h17.4V143.1z"/>
	<circle class="st0" cx="565" cy="86.9" r="5"/>
	<polygon class="st0" points="530,111 518.7,111 565.6,50.5 612.4,111.1 600.9,111.1 565.4,64.3 	"/>
</g>
<g>
	<rect x="628.3" y="21.5" class="st0" width="12.5" height="23.6"/>
	<rect x="605" y="72.2" class="st0" width="71.3" height="91.4"/>
	<rect x="605" y="152.4" class="st0" width="71.3" height="11.2"/>
	<g>
		<rect x="605" y="36" class="st0" width="71.3" height="38.5"/>
		<g>
			<defs>
				<rect id="SVGID_1_" x="605" y="36" width="71.3" height="38.5"/>
			</defs>
			<use xlink:href="#SVGID_1_"  style="overflow:visible;fill:#FFFFFF;"/>
			<clipPath id="SVGID_2_">
				<use xlink:href="#SVGID_1_"  style="overflow:visible;"/>
			</clipPath>
			<g class="st3">
				<g>
					<ellipse class="st0" cx="612.6" cy="37.9" rx="2.5" ry="2.5"/>
					<ellipse class="st0" cx="612.6" cy="45.1" rx="2.5" ry="2.5"/>
					<ellipse class="st0" cx="612.6" cy="53" rx="2.5" ry="2.5"/>
					<ellipse class="st0" cx="612.6" cy="60.2" rx="2.5" ry="2.5"/>
					<ellipse class="st0" cx="612.6" cy="68" rx="2.5" ry="2.5"/>
					<ellipse class="st0" cx="612.6" cy="75.2" rx="2.5" ry="2.5"/>
				</g>
				<g>
					<ellipse class="st0" cx="617.8" cy="41.5" rx="2.5" ry="2.5"/>
					<ellipse class="st0" cx="617.8" cy="48.7" rx="2.5" ry="2.5"/>
					<ellipse class="st0" cx="617.8" cy="56.6" rx="2.5" ry="2.5"/>
					<ellipse class="st0" cx="617.8" cy="63.8" rx="2.5" ry="2.5"/>
					<ellipse class="st0" cx="617.8" cy="71.6" rx="2.5" ry="2.5"/>
					<ellipse class="st0" cx="617.8" cy="78.8" rx="2.5" ry="2.5"/>
				</g>
				<g>
					<ellipse class="st0" cx="622.9" cy="37.9" rx="2.5" ry="2.5"/>
					<ellipse class="st0" cx="622.9" cy="45.1" rx="2.5" ry="2.5"/>
					<ellipse class="st0" cx="622.9" cy="53" rx="2.5" ry="2.5"/>
					<ellipse class="st0" cx="622.9" cy="60.2" rx="2.5" ry="2.5"/>
					<ellipse class="st0" cx="622.9" cy="68" rx="2.5" ry="2.5"/>
					<ellipse class="st0" cx="622.9" cy="75.2" rx="2.5" ry="2.5"/>
				</g>
				<g>
					<ellipse class="st0" cx="628" cy="41.5" rx="2.5" ry="2.5"/>
					<ellipse class="st0" cx="628" cy="48.7" rx="2.5" ry="2.5"/>
					<ellipse class="st0" cx="628" cy="56.6" rx="2.5" ry="2.5"/>
					<ellipse class="st0" cx="628" cy="63.8" rx="2.5" ry="2.5"/>
					<ellipse class="st0" cx="628" cy="71.6" rx="2.5" ry="2.5"/>
					<ellipse class="st0" cx="628" cy="78.8" rx="2.5" ry="2.5"/>
				</g>
				<g>
					<ellipse class="st0" cx="633.1" cy="37.9" rx="2.5" ry="2.5"/>
					<ellipse class="st0" cx="633.1" cy="45.1" rx="2.5" ry="2.5"/>
					<ellipse class="st0" cx="633.1" cy="53" rx="2.5" ry="2.5"/>
					<ellipse class="st0" cx="633.1" cy="60.2" rx="2.5" ry="2.5"/>
					<ellipse class="st0" cx="633.1" cy="68" rx="2.5" ry="2.5"/>
					<ellipse class="st0" cx="633.1" cy="75.2" rx="2.5" ry="2.5"/>
				</g>
				<g>
					<ellipse class="st0" cx="638.2" cy="41.5" rx="2.5" ry="2.5"/>
					<ellipse class="st0" cx="638.2" cy="48.7" rx="2.5" ry="2.5"/>
					<ellipse class="st0" cx="638.2" cy="56.6" rx="2.5" ry="2.5"/>
					<ellipse class="st0" cx="638.2" cy="63.8" rx="2.5" ry="2.5"/>
					<ellipse class="st0" cx="638.2" cy="71.6" rx="2.5" ry="2.5"/>
					<ellipse class="st0" cx="638.2" cy="78.8" rx="2.5" ry="2.5"/>
				</g>
				<g>
					<ellipse class="st0" cx="643.3" cy="37.9" rx="2.5" ry="2.5"/>
					<ellipse class="st0" cx="643.3" cy="45.1" rx="2.5" ry="2.5"/>
					<ellipse class="st0" cx="643.3" cy="53" rx="2.5" ry="2.5"/>
					<ellipse class="st0" cx="643.3" cy="60.2" rx="2.5" ry="2.5"/>
					<ellipse class="st0" cx="643.3" cy="68" rx="2.5" ry="2.5"/>
					<ellipse class="st0" cx="643.3" cy="75.2" rx="2.5" ry="2.5"/>
				</g>
				<g>
					<ellipse class="st0" cx="648.4" cy="41.5" rx="2.5" ry="2.5"/>
					<ellipse class="st0" cx="648.4" cy="48.7" rx="2.5" ry="2.5"/>
					<ellipse class="st0" cx="648.4" cy="56.6" rx="2.5" ry="2.5"/>
					<ellipse class="st0" cx="648.4" cy="63.8" rx="2.5" ry="2.5"/>
					<ellipse class="st0" cx="648.4" cy="71.6" rx="2.5" ry="2.5"/>
					<ellipse class="st0" cx="648.4" cy="78.8" rx="2.5" ry="2.5"/>
				</g>
				<g>
					<ellipse class="st0" cx="653.5" cy="37.9" rx="2.5" ry="2.5"/>
					<ellipse class="st0" cx="653.5" cy="45.1" rx="2.5" ry="2.5"/>
					<ellipse class="st0" cx="653.5" cy="53" rx="2.5" ry="2.5"/>
					<ellipse class="st0" cx="653.5" cy="60.2" rx="2.5" ry="2.5"/>
					<ellipse class="st0" cx="653.5" cy="68" rx="2.5" ry="2.5"/>
					<ellipse class="st0" cx="653.5" cy="75.2" rx="2.5" ry="2.5"/>
				</g>
				<g>
					<ellipse class="st0" cx="658.6" cy="41.5" rx="2.5" ry="2.5"/>
					<ellipse class="st0" cx="658.6" cy="48.7" rx="2.5" ry="2.5"/>
					<ellipse class="st0" cx="658.6" cy="56.6" rx="2.5" ry="2.5"/>
					<ellipse class="st0" cx="658.6" cy="63.8" rx="2.5" ry="2.5"/>
					<ellipse class="st0" cx="658.6" cy="71.6" rx="2.5" ry="2.5"/>
					<ellipse class="st0" cx="658.6" cy="78.8" rx="2.5" ry="2.5"/>
				</g>
				<g>
					<ellipse class="st0" cx="663.7" cy="37.9" rx="2.5" ry="2.5"/>
					<ellipse class="st0" cx="663.7" cy="45.1" rx="2.5" ry="2.5"/>
					<ellipse class="st0" cx="663.7" cy="53" rx="2.5" ry="2.5"/>
					<ellipse class="st0" cx="663.7" cy="60.2" rx="2.5" ry="2.5"/>
					<ellipse class="st0" cx="663.7" cy="68" rx="2.5" ry="2.5"/>
					<ellipse class="st0" cx="663.7" cy="75.2" rx="2.5" ry="2.5"/>
				</g>
				<g>
					<ellipse class="st0" cx="668.8" cy="41.5" rx="2.5" ry="2.5"/>
					<ellipse class="st0" cx="668.8" cy="48.7" rx="2.5" ry="2.5"/>
					<ellipse class="st0" cx="668.8" cy="56.6" rx="2.5" ry="2.5"/>
					<ellipse class="st0" cx="668.8" cy="63.8" rx="2.5" ry="2.5"/>
					<ellipse class="st0" cx="668.8" cy="71.6" rx="2.5" ry="2.5"/>
					<ellipse class="st0" cx="668.8" cy="78.8" rx="2.5" ry="2.5"/>
				</g>
			</g>
			<use xlink:href="#SVGID_1_"  style="overflow:visible;fill:none;stroke:#FFFFFF;stroke-miterlimit:10;"/>
		</g>
	</g>
	<rect x="605" y="32.7" class="st0" width="5.7" height="41.9"/>
	<rect x="670.6" y="32.7" class="st0" width="5.7" height="41.9"/>
	<line class="st4" x1="605.4" y1="104.2" x2="617.2" y2="116"/>
	<line class="st4" x1="617" y1="103.7" x2="605.2" y2="115.6"/>
	<line class="st4" x1="617" y1="103.7" x2="617" y2="116"/>
	<line class="st4" x1="605.4" y1="104" x2="605.4" y2="116.2"/>
	<line class="st4" x1="616.9" y1="104.6" x2="628.8" y2="116.5"/>
	<line class="st4" x1="628.6" y1="104.2" x2="616.8" y2="116"/>
	<line class="st4" x1="628.6" y1="104.2" x2="628.6" y2="116.5"/>
	<line class="st4" x1="628.8" y1="104.1" x2="640.6" y2="116"/>
	<line class="st4" x1="640.5" y1="103.7" x2="628.6" y2="115.6"/>
	<line class="st4" x1="640.5" y1="103.7" x2="640.5" y2="116"/>
	<line class="st4" x1="640.5" y1="104.4" x2="652.3" y2="116.3"/>
	<line class="st4" x1="652.1" y1="104" x2="640.3" y2="115.8"/>
	<line class="st4" x1="652.1" y1="104" x2="652.1" y2="116.2"/>
	<line class="st4" x1="652.4" y1="104.4" x2="664.2" y2="116.2"/>
	<line class="st4" x1="664.1" y1="103.9" x2="652.2" y2="115.8"/>
	<line class="st4" x1="664.1" y1="103.9" x2="664.1" y2="116.2"/>
	<line class="st4" x1="664.6" y1="104.6" x2="676.5" y2="116.4"/>
	<line class="st4" x1="676.3" y1="104.1" x2="664.5" y2="116"/>
	<line class="st4" x1="676.3" y1="104.1" x2="676.3" y2="116.4"/>
	<line class="st4" x1="610.5" y1="78.6" x2="610.5" y2="104.2"/>
	<line class="st4" x1="618.7" y1="78.6" x2="618.7" y2="86.6"/>
	<line class="st4" x1="626.9" y1="78.6" x2="626.9" y2="104.2"/>
	<line class="st4" x1="635.1" y1="78.6" x2="635.1" y2="86.6"/>
	<line class="st4" x1="643.3" y1="78.6" x2="643.3" y2="104.2"/>
	<line class="st4" x1="651.5" y1="78.6" x2="651.5" y2="104.2"/>
	<line class="st4" x1="659.6" y1="78.6" x2="659.6" y2="86.6"/>
	<line class="st4" x1="667.8" y1="78.6" x2="667.8" y2="86.6"/>
	<line class="st4" x1="676" y1="78.6" x2="676" y2="86.6"/>
	<line class="st4" x1="618.7" y1="78.3" x2="610.8" y2="86.3"/>
	<line class="st4" x1="667.3" y1="78.3" x2="659.4" y2="86.3"/>
	<line class="st4" x1="627" y1="77.9" x2="635" y2="85.9"/>
	<line class="st4" x1="643.6" y1="77.9" x2="651.5" y2="85.9"/>
	<line class="st4" x1="671.9" y1="78" x2="671.9" y2="103.6"/>
	<line class="st4" x1="605.3" y1="119.9" x2="617.1" y2="152.1"/>
	<line class="st4" x1="617" y1="118.7" x2="605.1" y2="151"/>
	<line class="st4" x1="617" y1="118.7" x2="617" y2="152.1"/>
	<line class="st4" x1="605.4" y1="119.3" x2="605.4" y2="152.7"/>
	<line class="st4" x1="617.7" y1="120.4" x2="629.5" y2="152.7"/>
	<line class="st4" x1="629.3" y1="119.3" x2="617.5" y2="151.6"/>
	<line class="st4" x1="629.3" y1="119.3" x2="629.3" y2="152.7"/>
	<line class="st4" x1="629.8" y1="119.8" x2="641.6" y2="152.1"/>
	<line class="st4" x1="641.5" y1="118.7" x2="629.6" y2="151"/>
	<line class="st4" x1="641.5" y1="118.7" x2="641.5" y2="152.1"/>
	<line class="st4" x1="641.7" y1="119.9" x2="653.6" y2="152.1"/>
	<line class="st4" x1="653.4" y1="118.7" x2="641.6" y2="151"/>
	<line class="st4" x1="653.4" y1="118.7" x2="653.4" y2="152.1"/>
	<line class="st4" x1="653.9" y1="119.3" x2="665.7" y2="151.5"/>
	<line class="st4" x1="665.6" y1="118.1" x2="653.7" y2="150.4"/>
	<line class="st4" x1="665.6" y1="118.1" x2="665.6" y2="151.5"/>
	<line class="st4" x1="664.8" y1="118.7" x2="676.7" y2="151"/>
	<line class="st4" x1="676.5" y1="117.6" x2="664.7" y2="149.8"/>
	<line class="st4" x1="676.5" y1="117.6" x2="676.5" y2="150.9"/>
	<g>
		<rect x="612.8" y="86.1" class="st0" width="13.7" height="18.1"/>
		<rect x="633.9" y="86.1" class="st0" width="13.7" height="18.1"/>
		<rect x="655" y="86.1" class="st0" width="13.7" height="18.1"/>
	</g>
	<g>
		<rect x="612.2" y="126.1" class="st0" width="13.7" height="18.1"/>
		<rect x="633.3" y="126.1" class="st0" width="13.7" height="18.1"/>
		<rect x="654.4" y="126.1" class="st0" width="13.7" height="18.1"/>
	</g>
	<rect x="602.7" y="74.5" class="st0" width="75.4" height="4.2"/>
	<g>
		<g>
			<g>
				<path class="st0" d="M608.5,119.2c0,1-1,1.9-2.1,1.9c-1.2,0-2.1-0.8-2.1-1.9c0-0.3,0-2.1,0-2.1l4.3,0
					C608.5,117.1,608.5,118.1,608.5,119.2z"/>
				<path class="st0" d="M612.8,119.2c0,1-1,1.9-2.1,1.9c-1.2,0-2.1-0.8-2.1-1.9c0-0.3,0-2.1,0-2.1l4.3,0
					C612.8,117.1,612.8,118.1,612.8,119.2z"/>
			</g>
			<g>
				<path class="st0" d="M617.1,119.2c0,1-1,1.9-2.1,1.9c-1.2,0-2.1-0.8-2.1-1.9c0-0.3,0-2.1,0-2.1l4.3,0
					C617.1,117.1,617.1,118.1,617.1,119.2z"/>
				<path class="st0" d="M621.4,119.2c0,1-1,1.9-2.1,1.9c-1.2,0-2.1-0.8-2.1-1.9c0-0.3,0-2.1,0-2.1l4.3,0
					C621.4,117.1,621.4,118.1,621.4,119.2z"/>
			</g>
			<g>
				<path class="st0" d="M625.6,119.2c0,1-1,1.9-2.1,1.9c-1.2,0-2.1-0.8-2.1-1.9c0-0.3,0-2.1,0-2.1l4.3,0
					C625.6,117.1,625.6,118.1,625.6,119.2z"/>
				<path class="st0" d="M629.9,119.2c0,1-1,1.9-2.1,1.9c-1.2,0-2.1-0.8-2.1-1.9c0-0.3,0-2.1,0-2.1l4.3,0
					C629.9,117.1,629.9,118.1,629.9,119.2z"/>
			</g>
			<g>
				<path class="st0" d="M634.2,119.2c0,1-1,1.9-2.1,1.9c-1.2,0-2.1-0.8-2.1-1.9c0-0.3,0-2.1,0-2.1l4.3,0
					C634.2,117.1,634.2,118.1,634.2,119.2z"/>
				<path class="st0" d="M638.5,119.2c0,1-1,1.9-2.1,1.9c-1.2,0-2.1-0.8-2.1-1.9c0-0.3,0-2.1,0-2.1l4.3,0
					C638.5,117.1,638.5,118.1,638.5,119.2z"/>
			</g>
			<g>
				<path class="st0" d="M642.8,119.2c0,1-1,1.9-2.1,1.9c-1.2,0-2.1-0.8-2.1-1.9c0-0.3,0-2.1,0-2.1l4.3,0
					C642.8,117.1,642.8,118.1,642.8,119.2z"/>
				<path class="st0" d="M647.1,119.2c0,1-1,1.9-2.1,1.9c-1.2,0-2.1-0.8-2.1-1.9c0-0.3,0-2.1,0-2.1l4.3,0
					C647.1,117.1,647.1,118.1,647.1,119.2z"/>
			</g>
			<g>
				<path class="st0" d="M651.4,119.2c0,1-1,1.9-2.1,1.9c-1.2,0-2.1-0.8-2.1-1.9c0-0.3,0-2.1,0-2.1l4.3,0
					C651.4,117.1,651.4,118.1,651.4,119.2z"/>
				<path class="st0" d="M655.7,119.2c0,1-1,1.9-2.1,1.9c-1.2,0-2.1-0.8-2.1-1.9c0-0.3,0-2.1,0-2.1l4.3,0
					C655.7,117.1,655.7,118.1,655.7,119.2z"/>
			</g>
			<g>
				<path class="st0" d="M660,119.2c0,1-1,1.9-2.1,1.9c-1.2,0-2.1-0.8-2.1-1.9c0-0.3,0-2.1,0-2.1l4.3,0
					C660,117.1,660,118.1,660,119.2z"/>
				<path class="st0" d="M664.2,119.2c0,1-1,1.9-2.1,1.9c-1.2,0-2.1-0.8-2.1-1.9c0-0.3,0-2.1,0-2.1l4.3,0
					C664.2,117.1,664.2,118.1,664.2,119.2z"/>
			</g>
			<g>
				<path class="st0" d="M668.5,119.2c0,1-1,1.9-2.1,1.9c-1.2,0-2.1-0.8-2.1-1.9c0-0.3,0-2.1,0-2.1l4.3,0
					C668.5,117.1,668.5,118.1,668.5,119.2z"/>
				<path class="st0" d="M672.8,119.2c0,1-1,1.9-2.1,1.9c-1.2,0-2.1-0.8-2.1-1.9c0-0.3,0-2.1,0-2.1l4.3,0
					C672.8,117.1,672.8,118.1,672.8,119.2z"/>
			</g>
			<g>
				<path class="st0" d="M677.1,119.2c0,1-1,1.9-2.1,1.9c-1.2,0-2.1-0.8-2.1-1.9c0-0.3,0-2.1,0-2.1l4.3,0
					C677.1,117.1,677.1,118.1,677.1,119.2z"/>
			</g>
		</g>
		<g>
			<rect x="604.2" y="114.8" class="st0" width="72.9" height="2.2"/>
		</g>
	</g>
	<line class="st5" x1="605" y1="104.2" x2="676.3" y2="104.2"/>
	<line class="st5" x1="604.8" y1="86.1" x2="676.1" y2="86.1"/>
</g>
<g>
	<rect x="53.5" y="149.1" class="st0" width="1.6" height="14.3"/>
	<rect x="53" y="149" class="st0" width="2.5" height="2"/>
</g>
<g>
	<rect x="78.9" y="61.2" class="st0" width="8.6" height="22"/>
	<polygon class="st0" points="95.4,163.5 32.9,163.5 32.9,104.3 63.8,61.2 95.4,104.3 	"/>
	<rect x="32.9" y="127.9" class="st0" width="62.6" height="1.1"/>
	<rect x="43.4" y="83.2" class="st0" width="2.4" height="60.9"/>
	<rect x="55.9" y="71.2" class="st0" width="2.4" height="87.5"/>
	<rect x="69.3" y="65.8" class="st0" width="2.4" height="97.7"/>
	<rect x="81.3" y="81.6" class="st0" width="2.4" height="81.9"/>
	
		<rect x="62.9" y="61" transform="matrix(3.302698e-011 -1 1 3.302698e-011 -19.7222 148.0294)" class="st0" width="2.4" height="45.7"/>
	
		<rect x="62.4" y="71.1" transform="matrix(4.616314e-011 -1 1 4.616314e-011 -39.1957 166.4056)" class="st0" width="2.4" height="63.5"/>
	
		<rect x="62.9" y="88.6" transform="matrix(4.616314e-011 -1 1 4.616314e-011 -55.7478 183.9518)" class="st0" width="2.4" height="62.5"/>
	
		<rect x="62.9" y="108.3" transform="matrix(4.541263e-011 -1 1 4.541263e-011 -75.4143 203.6183)" class="st0" width="2.4" height="62.5"/>
	
		<rect x="63" y="124.2" transform="matrix(4.616314e-011 -1 1 4.616314e-011 -91.2603 219.6251)" class="st0" width="2.4" height="62.5"/>
	<rect x="60.6" y="83" transform="matrix(0.9063 -0.4226 0.4226 0.9063 -33.7052 34.7156)" class="st0" width="1.6" height="20.8"/>
	<rect x="63.7" y="66" transform="matrix(0.9063 -0.4226 0.4226 0.9063 -28.4878 34.8955)" class="st0" width="1.6" height="31.3"/>
	
		<rect x="65.8" y="60.5" transform="matrix(0.9063 -0.4226 0.4226 0.9063 -23.7252 34.8002)" class="st0" width="1.6" height="20.8"/>
	
		<rect x="74.2" y="83.9" transform="matrix(0.9063 -0.4226 0.4226 0.9063 -32.8136 40.5129)" class="st0" width="1.6" height="20.8"/>
	
		<rect x="78.7" y="82.6" transform="matrix(0.9063 -0.4226 0.4226 0.9063 -30.8017 42.0741)" class="st0" width="1.6" height="15.9"/>
	
		<rect x="37.7" y="102.2" transform="matrix(0.9063 -0.4226 0.4226 0.9063 -45.9105 27.2339)" class="st0" width="1.6" height="29.9"/>
	
		<rect x="50.5" y="100.2" transform="matrix(0.9063 -0.4226 0.4226 0.9063 -49.8212 33.7776)" class="st0" width="1.6" height="58"/>
	
		<rect x="58.1" y="100.8" transform="matrix(0.9063 -0.4226 0.4226 0.9063 -48.6377 36.8756)" class="st0" width="1.6" height="54.7"/>
	
		<rect x="65.1" y="79.6" transform="matrix(0.9063 -0.4226 0.4226 0.9063 -44.1247 39.013)" class="st0" width="1.6" height="78.8"/>
	
		<rect x="83.3" y="100.3" transform="matrix(0.9063 -0.4226 0.4226 0.9063 -46.6305 47.612)" class="st0" width="1.6" height="57.4"/>
	
		<rect x="89.4" y="101.1" transform="matrix(0.9063 -0.4226 0.4226 0.9063 -40.7671 49.0302)" class="st0" width="1.6" height="30.8"/>
	
		<rect x="40.2" y="117.8" transform="matrix(0.9063 -0.4226 0.4226 0.9063 -54.3942 30.2508)" class="st0" width="1.6" height="40"/>
	
		<rect x="36.3" y="139.1" transform="matrix(0.9063 -0.4226 0.4226 0.9063 -58.9622 29.5266)" class="st0" width="1.6" height="17.3"/>
	
		<rect x="47.3" y="88.9" transform="matrix(0.9063 -0.4226 0.4226 0.9063 -36.1132 29.3308)" class="st0" width="1.6" height="14.5"/>
	<rect x="32.9" y="156.7" class="st0" width="62.6" height="6.8"/>
	<g>
		<g>
			<g>
				<rect x="66" y="135.2" class="st1" width="9" height="15.5"/>
				<rect x="66" y="135.2" class="st2" width="9" height="15.5"/>
			</g>
			<g>
				<rect x="78.7" y="135.2" class="st1" width="9" height="15.5"/>
				<rect x="78.7" y="135.2" class="st2" width="9" height="15.5"/>
			</g>
		</g>
	</g>
	<g>
		<g>
			<path class="st0" d="M36.5,130.7c0,1-0.8,1.9-1.8,1.9c-1,0-1.8-0.8-1.8-1.9c0-0.3,0-2.1,0-2.1l3.7,0
				C36.5,128.6,36.5,129.6,36.5,130.7z"/>
			<path class="st0" d="M40.2,130.7c0,1-0.8,1.9-1.8,1.9c-1,0-1.8-0.8-1.8-1.9c0-0.3,0-2.1,0-2.1l3.7,0
				C40.2,128.6,40.2,129.6,40.2,130.7z"/>
		</g>
		<g>
			<path class="st0" d="M43.9,130.7c0,1-0.8,1.9-1.8,1.9c-1,0-1.8-0.8-1.8-1.9c0-0.3,0-2.1,0-2.1l3.7,0
				C43.9,128.6,43.9,129.6,43.9,130.7z"/>
			<path class="st0" d="M47.6,130.7c0,1-0.8,1.9-1.8,1.9c-1,0-1.8-0.8-1.8-1.9c0-0.3,0-2.1,0-2.1l3.7,0
				C47.6,128.6,47.6,129.6,47.6,130.7z"/>
		</g>
		<g>
			<path class="st0" d="M51.3,130.7c0,1-0.8,1.9-1.8,1.9c-1,0-1.8-0.8-1.8-1.9c0-0.3,0-2.1,0-2.1l3.7,0
				C51.3,128.6,51.3,129.6,51.3,130.7z"/>
			<path class="st0" d="M55,130.7c0,1-0.8,1.9-1.8,1.9c-1,0-1.8-0.8-1.8-1.9c0-0.3,0-2.1,0-2.1l3.7,0C55,128.6,55,129.6,55,130.7z"
				/>
		</g>
		<g>
			<path class="st0" d="M58.6,130.7c0,1-0.8,1.9-1.8,1.9c-1,0-1.8-0.8-1.8-1.9c0-0.3,0-2.1,0-2.1l3.7,0
				C58.6,128.6,58.6,129.6,58.6,130.7z"/>
			<path class="st0" d="M62.3,130.7c0,1-0.8,1.9-1.8,1.9c-1,0-1.8-0.8-1.8-1.9c0-0.3,0-2.1,0-2.1l3.7,0
				C62.3,128.6,62.3,129.6,62.3,130.7z"/>
		</g>
		<g>
			<path class="st0" d="M66,130.7c0,1-0.8,1.9-1.8,1.9c-1,0-1.8-0.8-1.8-1.9c0-0.3,0-2.1,0-2.1l3.7,0C66,128.6,66,129.6,66,130.7z"
				/>
			<path class="st0" d="M69.7,130.7c0,1-0.8,1.9-1.8,1.9c-1,0-1.8-0.8-1.8-1.9c0-0.3,0-2.1,0-2.1l3.7,0
				C69.7,128.6,69.7,129.6,69.7,130.7z"/>
		</g>
		<g>
			<path class="st0" d="M73.4,130.7c0,1-0.8,1.9-1.8,1.9c-1,0-1.8-0.8-1.8-1.9c0-0.3,0-2.1,0-2.1l3.7,0
				C73.4,128.6,73.4,129.6,73.4,130.7z"/>
			<path class="st0" d="M77,130.7c0,1-0.8,1.9-1.8,1.9c-1,0-1.8-0.8-1.8-1.9c0-0.3,0-2.1,0-2.1l3.7,0C77,128.6,77,129.6,77,130.7z"
				/>
		</g>
		<g>
			<path class="st0" d="M80.7,130.7c0,1-0.8,1.9-1.8,1.9c-1,0-1.8-0.8-1.8-1.9c0-0.3,0-2.1,0-2.1l3.7,0
				C80.7,128.6,80.7,129.6,80.7,130.7z"/>
			<path class="st0" d="M84.4,130.7c0,1-0.8,1.9-1.8,1.9c-1,0-1.8-0.8-1.8-1.9c0-0.3,0-2.1,0-2.1l3.7,0
				C84.4,128.6,84.4,129.6,84.4,130.7z"/>
		</g>
		<g>
			<path class="st0" d="M88.1,130.7c0,1-0.8,1.9-1.8,1.9c-1,0-1.8-0.8-1.8-1.9c0-0.3,0-2.1,0-2.1l3.7,0
				C88.1,128.6,88.1,129.6,88.1,130.7z"/>
			<path class="st0" d="M91.8,130.7c0,1-0.8,1.9-1.8,1.9c-1,0-1.8-0.8-1.8-1.9c0-0.3,0-2.1,0-2.1l3.7,0
				C91.8,128.6,91.8,129.6,91.8,130.7z"/>
		</g>
		<g>
			<path class="st0" d="M95.4,130.7c0,1-0.8,1.9-1.8,1.9c-1,0-1.8-0.8-1.8-1.9c0-0.3,0-2.1,0-2.1l3.7,0
				C95.4,128.6,95.4,129.6,95.4,130.7z"/>
		</g>
	</g>
	<g>
		<g>
			<g>
				<rect x="41.1" y="108.2" class="st1" width="9" height="15.5"/>
				<rect x="41.1" y="108.2" class="st2" width="9" height="15.5"/>
			</g>
			<g>
				<rect x="53.8" y="108.2" class="st1" width="9" height="15.5"/>
				<rect x="53.8" y="108.2" class="st2" width="9" height="15.5"/>
			</g>
			<g>
				<rect x="66.4" y="108.2" class="st1" width="9" height="15.5"/>
				<rect x="66.4" y="108.2" class="st2" width="9" height="15.5"/>
			</g>
			<g>
				<rect x="79.1" y="108.2" class="st1" width="9" height="15.5"/>
				<rect x="79.1" y="108.2" class="st2" width="9" height="15.5"/>
			</g>
		</g>
	</g>
	<path class="st0" d="M59,143.9c0-4.8-3.9-8.7-8.7-8.7c-4.8,0-8.7,3.9-8.7,8.7v19.6H59V143.9z"/>
	<circle class="st0" cx="63.6" cy="87.7" r="5"/>
	<polygon class="st0" points="28.7,111.8 17.3,111.8 64.3,51.2 111.1,111.9 99.6,111.9 64,65.1 	"/>
</g>
<g>
	<rect x="509.6" y="61.2" class="st0" width="8.6" height="22"/>
	<polygon class="st0" points="526.2,163.5 463.6,163.5 463.6,104.3 494.5,61.2 526.2,104.3 	"/>
	<circle class="st0" cx="494.3" cy="87.7" r="5"/>
	<rect x="463.6" y="156.7" class="st0" width="62.6" height="6.8"/>
	<rect x="472.2" y="91.4" class="st0" width="2.8" height="65.5"/>
	<rect x="485.7" y="68.2" class="st0" width="2.8" height="74.7"/>
	<rect x="500.9" y="65.7" class="st0" width="2.8" height="91"/>
	<rect x="515.6" y="87.7" class="st0" width="2.8" height="69"/>
	<polygon class="st0" points="459.4,111.8 448,111.8 495,51.2 541.8,111.9 530.3,111.9 494.8,65.1 	"/>
	<g>
		<g>
			<g>
				<rect x="471.8" y="108.2" class="st1" width="9" height="15.5"/>
				<rect x="471.8" y="108.2" class="st2" width="9" height="15.5"/>
			</g>
			<g>
				<rect x="484.5" y="108.2" class="st1" width="9" height="15.5"/>
				<rect x="484.5" y="108.2" class="st2" width="9" height="15.5"/>
			</g>
			<g>
				<rect x="497.2" y="108.2" class="st1" width="9" height="15.5"/>
				<rect x="497.2" y="108.2" class="st2" width="9" height="15.5"/>
			</g>
			<g>
				<rect x="509.9" y="108.2" class="st1" width="9" height="15.5"/>
				<rect x="509.9" y="108.2" class="st2" width="9" height="15.5"/>
			</g>
		</g>
	</g>
	<g>
		<g>
			<g>
				<rect x="496.8" y="135.2" class="st1" width="9" height="15.5"/>
				<rect x="496.8" y="135.2" class="st2" width="9" height="15.5"/>
			</g>
			<g>
				<rect x="509.5" y="135.2" class="st1" width="9" height="15.5"/>
				<rect x="509.5" y="135.2" class="st2" width="9" height="15.5"/>
			</g>
		</g>
	</g>
	<path class="st0" d="M489.8,143.9c0-4.8-3.9-8.7-8.7-8.7c-4.8,0-8.7,3.9-8.7,8.7v19.6h17.4V143.9z"/>
	<g>
		<g>
			<path class="st0" d="M467.3,130.7c0,1-0.8,1.9-1.8,1.9c-1,0-1.8-0.8-1.8-1.9c0-0.3,0-2.1,0-2.1l3.7,0
				C467.3,128.6,467.3,129.6,467.3,130.7z"/>
			<path class="st0" d="M471,130.7c0,1-0.8,1.9-1.8,1.9c-1,0-1.8-0.8-1.8-1.9c0-0.3,0-2.1,0-2.1l3.7,0
				C471,128.6,471,129.6,471,130.7z"/>
		</g>
		<g>
			<path class="st0" d="M474.6,130.7c0,1-0.8,1.9-1.8,1.9c-1,0-1.8-0.8-1.8-1.9c0-0.3,0-2.1,0-2.1l3.7,0
				C474.6,128.6,474.6,129.6,474.6,130.7z"/>
			<path class="st0" d="M478.3,130.7c0,1-0.8,1.9-1.8,1.9c-1,0-1.8-0.8-1.8-1.9c0-0.3,0-2.1,0-2.1l3.7,0
				C478.3,128.6,478.3,129.6,478.3,130.7z"/>
		</g>
		<g>
			<path class="st0" d="M482,130.7c0,1-0.8,1.9-1.8,1.9c-1,0-1.8-0.8-1.8-1.9c0-0.3,0-2.1,0-2.1l3.7,0
				C482,128.6,482,129.6,482,130.7z"/>
			<path class="st0" d="M485.7,130.7c0,1-0.8,1.9-1.8,1.9c-1,0-1.8-0.8-1.8-1.9c0-0.3,0-2.1,0-2.1l3.7,0
				C485.7,128.6,485.7,129.6,485.7,130.7z"/>
		</g>
		<g>
			<path class="st0" d="M489.4,130.7c0,1-0.8,1.9-1.8,1.9c-1,0-1.8-0.8-1.8-1.9c0-0.3,0-2.1,0-2.1l3.7,0
				C489.4,128.6,489.4,129.6,489.4,130.7z"/>
			<path class="st0" d="M493,130.7c0,1-0.8,1.9-1.8,1.9c-1,0-1.8-0.8-1.8-1.9c0-0.3,0-2.1,0-2.1l3.7,0
				C493,128.6,493,129.6,493,130.7z"/>
		</g>
		<g>
			<path class="st0" d="M496.7,130.7c0,1-0.8,1.9-1.8,1.9c-1,0-1.8-0.8-1.8-1.9c0-0.3,0-2.1,0-2.1l3.7,0
				C496.7,128.6,496.7,129.6,496.7,130.7z"/>
			<path class="st0" d="M500.4,130.7c0,1-0.8,1.9-1.8,1.9c-1,0-1.8-0.8-1.8-1.9c0-0.3,0-2.1,0-2.1l3.7,0
				C500.4,128.6,500.4,129.6,500.4,130.7z"/>
		</g>
		<g>
			<path class="st0" d="M504.1,130.7c0,1-0.8,1.9-1.8,1.9c-1,0-1.8-0.8-1.8-1.9c0-0.3,0-2.1,0-2.1l3.7,0
				C504.1,128.6,504.1,129.6,504.1,130.7z"/>
			<path class="st0" d="M507.8,130.7c0,1-0.8,1.9-1.8,1.9c-1,0-1.8-0.8-1.8-1.9c0-0.3,0-2.1,0-2.1l3.7,0
				C507.8,128.6,507.8,129.6,507.8,130.7z"/>
		</g>
		<g>
			<path class="st0" d="M511.5,130.7c0,1-0.8,1.9-1.8,1.9c-1,0-1.8-0.8-1.8-1.9c0-0.3,0-2.1,0-2.1l3.7,0
				C511.5,128.6,511.5,129.6,511.5,130.7z"/>
			<path class="st0" d="M515.1,130.7c0,1-0.8,1.9-1.8,1.9c-1,0-1.8-0.8-1.8-1.9c0-0.3,0-2.1,0-2.1l3.7,0
				C515.1,128.6,515.1,129.6,515.1,130.7z"/>
		</g>
		<g>
			<path class="st0" d="M518.8,130.7c0,1-0.8,1.9-1.8,1.9c-1,0-1.8-0.8-1.8-1.9c0-0.3,0-2.1,0-2.1l3.7,0
				C518.8,128.6,518.8,129.6,518.8,130.7z"/>
			<path class="st0" d="M522.5,130.7c0,1-0.8,1.9-1.8,1.9c-1,0-1.8-0.8-1.8-1.9c0-0.3,0-2.1,0-2.1l3.7,0
				C522.5,128.6,522.5,129.6,522.5,130.7z"/>
		</g>
		<g>
			<path class="st0" d="M526.2,130.7c0,1-0.8,1.9-1.8,1.9c-1,0-1.8-0.8-1.8-1.9c0-0.3,0-2.1,0-2.1l3.7,0
				C526.2,128.6,526.2,129.6,526.2,130.7z"/>
		</g>
	</g>
	<rect x="463.6" y="127.9" class="st0" width="62.6" height="1.1"/>
</g>
<g>
	<rect x="372.3" y="149.8" class="st0" width="1.6" height="14.3"/>
	<rect x="371.8" y="149.7" class="st0" width="2.5" height="2"/>
</g>
<g>
	<rect x="429.2" y="149.9" class="st0" width="1.6" height="14.3"/>
	<rect x="428.8" y="149.7" class="st0" width="2.5" height="2"/>
</g>
<g>
	<polygon class="st0" points="454.5,163.9 369.8,163.9 369.8,83.8 411.7,25.4 454.5,83.8 	"/>
	<g>
		<g>
			<rect x="369.8" y="83.8" class="st0" width="3.8" height="7"/>
			<rect x="369.8" y="91.9" class="st0" width="6.4" height="7"/>
		</g>
		<g>
			<rect x="369.8" y="100" class="st0" width="3.8" height="7"/>
			<rect x="369.8" y="108.1" class="st0" width="6.4" height="7"/>
		</g>
		<g>
			<rect x="369.8" y="124.3" class="st0" width="6.4" height="7"/>
		</g>
		<g>
			<rect x="369.8" y="132.5" class="st0" width="3.8" height="7"/>
			<rect x="369.8" y="140.6" class="st0" width="6.4" height="7"/>
		</g>
		<g>
			<rect x="369.8" y="148.7" class="st0" width="3.8" height="7"/>
		</g>
	</g>
	<path class="st4" d="M391.3,121.1"/>
	<path class="st4" d="M379.4,109.3"/>
	<path class="st4" d="M379.3,120.7"/>
	<path class="st4" d="M391.1,108.8"/>
	<path class="st4" d="M391.1,121.1"/>
	<path class="st4" d="M391.1,108.8"/>
	<path class="st4" d="M379.5,121.3"/>
	<path class="st4" d="M379.5,109.1"/>
	<path class="st4" d="M402.9,121.6"/>
	<path class="st4" d="M391,109.8"/>
	<path class="st4" d="M390.9,121.2"/>
	<path class="st4" d="M402.7,109.3"/>
	<path class="st4" d="M402.7,121.6"/>
	<path class="st4" d="M402.7,109.3"/>
	<path class="st4" d="M414.7,121.1"/>
	<path class="st4" d="M402.9,109.3"/>
	<path class="st4" d="M402.7,120.7"/>
	<path class="st4" d="M414.5,108.8"/>
	<path class="st4" d="M414.5,121.1"/>
	<path class="st4" d="M414.5,108.8"/>
	<path class="st4" d="M426.4,121.4"/>
	<path class="st4" d="M414.5,109.5"/>
	<path class="st4" d="M414.4,121"/>
	<path class="st4" d="M426.2,109.1"/>
	<path class="st4" d="M426.2,121.4"/>
	<path class="st4" d="M426.2,109.1"/>
	<path class="st4" d="M438.3,121.3"/>
	<path class="st4" d="M426.5,109.5"/>
	<path class="st4" d="M426.3,120.9"/>
	<path class="st4" d="M438.2,109"/>
	<path class="st4" d="M438.2,121.3"/>
	<path class="st4" d="M438.2,109"/>
	<path class="st4" d="M450.5,121.5"/>
	<path class="st4" d="M438.7,109.7"/>
	<path class="st4" d="M438.5,121.1"/>
	<path class="st4" d="M450.4,109.3"/>
	<path class="st4" d="M450.4,121.5"/>
	<path class="st4" d="M450.4,109.3"/>
	<line class="st4" x1="380" y1="55.8" x2="380" y2="116.6"/>
	<line class="st4" x1="389.3" y1="44.1" x2="389.3" y2="91.5"/>
	<line class="st4" x1="398.5" y1="31.5" x2="398.5" y2="116.6"/>
	<line class="st4" x1="407.8" y1="29.5" x2="407.8" y2="91.5"/>
	<line class="st4" x1="417.1" y1="28.8" x2="417.1" y2="116.6"/>
	<line class="st4" x1="426.4" y1="31.5" x2="426.4" y2="116.7"/>
	<line class="st4" x1="435.7" y1="44.1" x2="435.7" y2="91.5"/>
	<line class="st4" x1="445" y1="63.3" x2="445" y2="91.5"/>
	<line class="st4" x1="450.1" y1="83.8" x2="450.1" y2="91.8"/>
	<line class="st4" x1="421.5" y1="38.8" x2="380.3" y2="90.9"/>
	<line class="st4" x1="452" y1="69.9" x2="435.4" y2="90.9"/>
	<line class="st4" x1="380.7" y1="56.1" x2="407.7" y2="90.3"/>
	<line class="st4" x1="392.1" y1="46.8" x2="426.5" y2="90.3"/>
	<line class="st4" x1="449.6" y1="63.3" x2="449.6" y2="117.3"/>
	<line class="st4" x1="379.9" y1="122.6" x2="391.7" y2="157.5"/>
	<line class="st4" x1="391.6" y1="121.4" x2="379.7" y2="156.3"/>
	<line class="st4" x1="391.6" y1="121.4" x2="391.6" y2="157.5"/>
	<line class="st4" x1="380" y1="122.1" x2="380" y2="158.1"/>
	<line class="st4" x1="392.3" y1="123.3" x2="404.1" y2="158.1"/>
	<line class="st4" x1="404" y1="122" x2="392.1" y2="156.9"/>
	<line class="st4" x1="404" y1="122" x2="404" y2="158.1"/>
	<line class="st4" x1="404.4" y1="122.6" x2="416.2" y2="157.5"/>
	<line class="st4" x1="416.1" y1="121.4" x2="404.2" y2="156.3"/>
	<line class="st4" x1="416.1" y1="121.4" x2="416.1" y2="157.4"/>
	<line class="st4" x1="416.3" y1="122.6" x2="428.2" y2="157.5"/>
	<line class="st4" x1="428" y1="121.4" x2="416.2" y2="156.3"/>
	<line class="st4" x1="428" y1="121.4" x2="428" y2="157.5"/>
	<line class="st4" x1="428.5" y1="122" x2="440.4" y2="156.9"/>
	<line class="st4" x1="440.2" y1="120.8" x2="428.4" y2="155.6"/>
	<line class="st4" x1="440.2" y1="120.8" x2="440.2" y2="156.8"/>
	<line class="st4" x1="439.5" y1="121.4" x2="451.3" y2="156.3"/>
	<line class="st4" x1="451.1" y1="120.1" x2="439.3" y2="155"/>
	<line class="st4" x1="451.1" y1="120.1" x2="451.1" y2="156.2"/>
	<path class="st5" d="M450.4,109.4"/>
	<path class="st5" d="M379.1,109.4"/>
	<line class="st5" x1="373.5" y1="90.7" x2="454.3" y2="90.7"/>
	<line class="st4" x1="443.7" y1="56.9" x2="417" y2="90.6"/>
	<path class="st0" d="M418.2,56.9c-0.1-2.9-2.5-5.2-5.4-5.2c-2.9,0-5.3,2.3-5.4,5.2h0V66h10.8L418.2,56.9L418.2,56.9z"/>
	<g>
		<g>
			<path class="st0" d="M396,89.9c-0.1-2.9-2.5-5.2-5.4-5.2c-2.9,0-5.3,2.3-5.4,5.2h0v16.2H396L396,89.9L396,89.9z"/>
			<path class="st0" d="M443.3,89.1c-0.1-2.9-2.5-5.2-5.4-5.2c-2.9,0-5.3,2.3-5.4,5.2h0v16.2h10.8L443.3,89.1L443.3,89.1z"/>
			<g>
				<path class="st0" d="M442.5,133.1c-0.1-2.9-2.5-5.2-5.4-5.2c-2.9,0-5.3,2.3-5.4,5.2h0v16.2h10.8L442.5,133.1L442.5,133.1z"/>
				<path class="st0" d="M426.6,133.1c-0.1-2.9-2.5-5.2-5.4-5.2c-2.9,0-5.3,2.3-5.4,5.2h0v16.2h10.8L426.6,133.1L426.6,133.1z"/>
				<path class="st0" d="M410.6,133.1c-0.1-2.9-2.5-5.2-5.4-5.2c-2.9,0-5.3,2.3-5.4,5.2h0v16.2h10.8L410.6,133.1L410.6,133.1z"/>
				<path class="st0" d="M394.7,133.1c-0.1-2.9-2.5-5.2-5.4-5.2c-2.9,0-5.3,2.3-5.4,5.2h0v16.2h10.8L394.7,133.1L394.7,133.1z"/>
			</g>
			<path class="st0" d="M421.9,91.7c-0.1-4.3-4.9-7.8-9.3-7.8c-4.4,0-8.8,3.5-9,7.8h0v24.3H422L421.9,91.7L421.9,91.7z"/>
		</g>
	</g>
	<line class="st4" x1="402.2" y1="34.4" x2="446.7" y2="90.7"/>
	<polyline class="st0" points="454.5,116.3 454.5,123.3 369.8,123.3 369.8,116.3 	"/>
	<g>
		<g>
			<g>
				<g>
					<rect x="441.1" y="102.7" class="st0" width="1.7" height="13.2"/>
					<rect x="437.5" y="102.7" class="st0" width="1.1" height="13.2"/>
					<rect x="433.9" y="102.7" class="st0" width="1.1" height="13.2"/>
					<rect x="430.3" y="102.7" class="st0" width="1.1" height="13.2"/>
					<rect x="426.7" y="102.7" class="st0" width="1.1" height="13.2"/>
					<rect x="423" y="102.7" class="st0" width="1.1" height="13.2"/>
					<rect x="419.4" y="102.7" class="st0" width="1.1" height="13.2"/>
					<rect x="415.8" y="102.7" class="st0" width="1.1" height="13.2"/>
					<rect x="412.2" y="102.7" class="st0" width="1.1" height="13.2"/>
					<rect x="408.6" y="102.7" class="st0" width="1.1" height="13.2"/>
					<rect x="404.9" y="102.7" class="st0" width="1.1" height="13.2"/>
					<rect x="401.3" y="102.7" class="st0" width="1.1" height="13.2"/>
					<rect x="397.7" y="102.7" class="st0" width="1.1" height="13.2"/>
					<rect x="394.1" y="102.7" class="st0" width="1.1" height="13.2"/>
					<polyline class="st0" points="390.5,102.7 391.6,102.7 391.6,115.9 390.5,115.9 					"/>
					<rect x="386.9" y="102.7" class="st0" width="1.1" height="13.2"/>
					<rect x="382.6" y="102.7" class="st0" width="1.7" height="13.2"/>
				</g>
			</g>
			<g>
				<rect x="380.8" y="115.1" class="st1" width="63.9" height="2.1"/>
				<rect x="380.8" y="115.1" class="st2" width="63.9" height="2.1"/>
			</g>
			<g>
				<rect x="380.8" y="102.4" class="st1" width="63.9" height="1.1"/>
				<rect x="380.8" y="102.4" class="st2" width="63.9" height="1.1"/>
			</g>
		</g>
	</g>
	<g>
		<g>
			<rect x="450.8" y="83.8" class="st0" width="3.8" height="7"/>
			<rect x="448.1" y="91.9" class="st0" width="6.4" height="7"/>
		</g>
		<g>
			<rect x="450.8" y="100" class="st0" width="3.8" height="7"/>
			<rect x="448.1" y="108.1" class="st0" width="6.4" height="7"/>
		</g>
		<g>
			<rect x="450.8" y="116.3" class="st0" width="3.8" height="7"/>
			<rect x="448.1" y="124.3" class="st0" width="6.4" height="7"/>
		</g>
		<g>
			<rect x="450.8" y="132.5" class="st0" width="3.8" height="7"/>
			<rect x="448.1" y="140.6" class="st0" width="6.4" height="7"/>
		</g>
		<g>
			<rect x="450.8" y="148.7" class="st0" width="3.8" height="7"/>
		</g>
	</g>
	<polyline class="st0" points="369.8,163.9 369.8,156.6 454.5,156.6 454.5,163.9 	"/>
	<polygon class="st0" points="367.2,87.3 354.1,87.3 412.3,11.9 470.3,87.2 457,87.3 412,28 	"/>
</g>
<g>
	<polygon class="st0" points="357.2,163.2 282.8,163.2 282.8,100.2 319.6,53.2 357.2,100.2 	"/>
	<circle class="st0" cx="320.2" cy="81" r="5"/>
	<polygon class="st0" points="284.6,156.9 282.8,156.9 282.8,100.2 284.6,97.8 	"/>
	<polygon class="st0" points="357.2,156.9 355.3,156.9 355.3,97.8 357.2,100.6 	"/>
	<line class="st4" x1="284.5" y1="127.2" x2="296.2" y2="157.8"/>
	<line class="st4" x1="296.1" y1="126.1" x2="284.4" y2="156.7"/>
	<line class="st4" x1="296.1" y1="73.8" x2="296.1" y2="156.9"/>
	<line class="st4" x1="284.6" y1="126.6" x2="284.6" y2="158.3"/>
	<line class="st4" x1="296.8" y1="127.7" x2="308.5" y2="158.4"/>
	<line class="st4" x1="308.3" y1="126.6" x2="296.6" y2="157.3"/>
	<line class="st4" x1="308.3" y1="62.9" x2="308.3" y2="158.3"/>
	<line class="st4" x1="308.8" y1="127.1" x2="320.4" y2="157.8"/>
	<line class="st4" x1="320.3" y1="126" x2="308.6" y2="156.7"/>
	<line class="st4" x1="320.3" y1="50.8" x2="320.3" y2="156.6"/>
	<line class="st4" x1="320.5" y1="127.2" x2="332.2" y2="157.8"/>
	<line class="st4" x1="332.1" y1="126.1" x2="320.4" y2="156.7"/>
	<line class="st4" x1="332.1" y1="61.2" x2="332.1" y2="156.7"/>
	<line class="st4" x1="332.6" y1="126.6" x2="344.3" y2="157.3"/>
	<line class="st4" x1="344.1" y1="125.5" x2="332.4" y2="156.2"/>
	<line class="st4" x1="344.1" y1="72.3" x2="344.1" y2="156.9"/>
	<line class="st4" x1="343.4" y1="126" x2="355.1" y2="156.7"/>
	<line class="st4" x1="354.9" y1="125" x2="343.2" y2="155.6"/>
	<line class="st4" x1="354.9" y1="125" x2="354.9" y2="156.7"/>
	<line class="st4" x1="278.4" y1="96" x2="361.5" y2="96"/>
	<line class="st4" x1="320.3" y1="71" x2="344" y2="95.4"/>
	<line class="st4" x1="320.2" y1="71" x2="296.5" y2="95.4"/>
	<g>
		<g>
			<rect x="290" y="104.5" class="st0" width="13" height="13.5"/>
			<rect x="322.4" y="104.5" class="st0" width="13" height="13.5"/>
			<rect x="338.5" y="104.5" class="st0" width="13" height="13.5"/>
			<rect x="306.1" y="104.5" class="st0" width="13" height="13.5"/>
		</g>
	</g>
	<rect x="283.9" y="124.9" class="st0" width="71.6" height="2.4"/>
	<polygon class="st0" points="280.5,103.3 268.9,103.3 320.1,41.3 371,103.3 359.4,103.3 319.8,55.4 	"/>
	<rect x="282.8" y="156.9" class="st0" width="74.4" height="6.4"/>
	<g>
		<g>
			<g>
				<rect x="293.7" y="136.7" class="st1" width="11.9" height="12.3"/>
				<rect x="293.7" y="136.7" class="st2" width="11.9" height="12.3"/>
			</g>
			<g>
				<rect x="335.4" y="136.7" class="st1" width="11.9" height="12.3"/>
				<rect x="335.4" y="136.7" class="st2" width="11.9" height="12.3"/>
			</g>
		</g>
	</g>
	<path class="st0" d="M327.8,143.8c0-4.8-3.9-8.7-8.7-8.7c-4.8,0-8.7,3.9-8.7,8.7v19.6h17.4V143.8z"/>
</g>
<g>
	<rect x="232.2" y="21.6" class="st0" width="12.5" height="23.6"/>
	<rect x="208.9" y="72.3" class="st0" width="71.3" height="91.4"/>
	<rect x="208.9" y="152.5" class="st0" width="71.3" height="11.2"/>
	<g>
		<rect x="208.9" y="36.1" class="st0" width="71.3" height="38.5"/>
		<g>
			<defs>
				<rect id="SVGID_3_" x="208.9" y="36.1" width="71.3" height="38.5"/>
			</defs>
			<use xlink:href="#SVGID_3_"  style="overflow:visible;fill:#FFFFFF;"/>
			<clipPath id="SVGID_4_">
				<use xlink:href="#SVGID_3_"  style="overflow:visible;"/>
			</clipPath>
			<g class="st6">
				<g>
					<ellipse class="st0" cx="216.5" cy="38" rx="2.5" ry="2.5"/>
					<ellipse class="st0" cx="216.5" cy="45.2" rx="2.5" ry="2.5"/>
					<ellipse class="st0" cx="216.5" cy="53" rx="2.5" ry="2.5"/>
					<ellipse class="st0" cx="216.5" cy="60.2" rx="2.5" ry="2.5"/>
					<ellipse class="st0" cx="216.5" cy="68.1" rx="2.5" ry="2.5"/>
					<ellipse class="st0" cx="216.5" cy="75.3" rx="2.5" ry="2.5"/>
				</g>
				<g>
					<ellipse class="st0" cx="221.6" cy="41.6" rx="2.5" ry="2.5"/>
					<ellipse class="st0" cx="221.6" cy="48.8" rx="2.5" ry="2.5"/>
					<ellipse class="st0" cx="221.6" cy="56.6" rx="2.5" ry="2.5"/>
					<ellipse class="st0" cx="221.6" cy="63.8" rx="2.5" ry="2.5"/>
					<ellipse class="st0" cx="221.6" cy="71.7" rx="2.5" ry="2.5"/>
					<ellipse class="st0" cx="221.6" cy="78.9" rx="2.5" ry="2.5"/>
				</g>
				<g>
					<ellipse class="st0" cx="226.7" cy="38" rx="2.5" ry="2.5"/>
					<ellipse class="st0" cx="226.7" cy="45.2" rx="2.5" ry="2.5"/>
					<ellipse class="st0" cx="226.7" cy="53" rx="2.5" ry="2.5"/>
					<ellipse class="st0" cx="226.7" cy="60.2" rx="2.5" ry="2.5"/>
					<ellipse class="st0" cx="226.7" cy="68.1" rx="2.5" ry="2.5"/>
					<ellipse class="st0" cx="226.7" cy="75.3" rx="2.5" ry="2.5"/>
				</g>
				<g>
					<ellipse class="st0" cx="231.9" cy="41.6" rx="2.5" ry="2.5"/>
					<ellipse class="st0" cx="231.9" cy="48.8" rx="2.5" ry="2.5"/>
					<ellipse class="st0" cx="231.9" cy="56.6" rx="2.5" ry="2.5"/>
					<ellipse class="st0" cx="231.9" cy="63.8" rx="2.5" ry="2.5"/>
					<ellipse class="st0" cx="231.9" cy="71.7" rx="2.5" ry="2.5"/>
					<ellipse class="st0" cx="231.9" cy="78.9" rx="2.5" ry="2.5"/>
				</g>
				<g>
					<ellipse class="st0" cx="237" cy="38" rx="2.5" ry="2.5"/>
					<ellipse class="st0" cx="237" cy="45.2" rx="2.5" ry="2.5"/>
					<ellipse class="st0" cx="237" cy="53" rx="2.5" ry="2.5"/>
					<ellipse class="st0" cx="237" cy="60.2" rx="2.5" ry="2.5"/>
					<ellipse class="st0" cx="237" cy="68.1" rx="2.5" ry="2.5"/>
					<ellipse class="st0" cx="237" cy="75.3" rx="2.5" ry="2.5"/>
				</g>
				<g>
					<ellipse class="st0" cx="242.1" cy="41.6" rx="2.5" ry="2.5"/>
					<ellipse class="st0" cx="242.1" cy="48.8" rx="2.5" ry="2.5"/>
					<ellipse class="st0" cx="242.1" cy="56.6" rx="2.5" ry="2.5"/>
					<ellipse class="st0" cx="242.1" cy="63.8" rx="2.5" ry="2.5"/>
					<ellipse class="st0" cx="242.1" cy="71.7" rx="2.5" ry="2.5"/>
					<ellipse class="st0" cx="242.1" cy="78.9" rx="2.5" ry="2.5"/>
				</g>
				<g>
					<ellipse class="st0" cx="247.2" cy="38" rx="2.5" ry="2.5"/>
					<ellipse class="st0" cx="247.2" cy="45.2" rx="2.5" ry="2.5"/>
					<ellipse class="st0" cx="247.2" cy="53" rx="2.5" ry="2.5"/>
					<ellipse class="st0" cx="247.2" cy="60.2" rx="2.5" ry="2.5"/>
					<ellipse class="st0" cx="247.2" cy="68.1" rx="2.5" ry="2.5"/>
					<ellipse class="st0" cx="247.2" cy="75.3" rx="2.5" ry="2.5"/>
				</g>
				<g>
					<ellipse class="st0" cx="252.3" cy="41.6" rx="2.5" ry="2.5"/>
					<ellipse class="st0" cx="252.3" cy="48.8" rx="2.5" ry="2.5"/>
					<ellipse class="st0" cx="252.3" cy="56.6" rx="2.5" ry="2.5"/>
					<ellipse class="st0" cx="252.3" cy="63.8" rx="2.5" ry="2.5"/>
					<ellipse class="st0" cx="252.3" cy="71.7" rx="2.5" ry="2.5"/>
					<ellipse class="st0" cx="252.3" cy="78.9" rx="2.5" ry="2.5"/>
				</g>
				<g>
					<ellipse class="st0" cx="257.4" cy="38" rx="2.5" ry="2.5"/>
					<ellipse class="st0" cx="257.4" cy="45.2" rx="2.5" ry="2.5"/>
					<ellipse class="st0" cx="257.4" cy="53" rx="2.5" ry="2.5"/>
					<ellipse class="st0" cx="257.4" cy="60.2" rx="2.5" ry="2.5"/>
					<ellipse class="st0" cx="257.4" cy="68.1" rx="2.5" ry="2.5"/>
					<ellipse class="st0" cx="257.4" cy="75.3" rx="2.5" ry="2.5"/>
				</g>
				<g>
					<ellipse class="st0" cx="262.5" cy="41.6" rx="2.5" ry="2.5"/>
					<ellipse class="st0" cx="262.5" cy="48.8" rx="2.5" ry="2.5"/>
					<ellipse class="st0" cx="262.5" cy="56.6" rx="2.5" ry="2.5"/>
					<ellipse class="st0" cx="262.5" cy="63.8" rx="2.5" ry="2.5"/>
					<ellipse class="st0" cx="262.5" cy="71.7" rx="2.5" ry="2.5"/>
					<ellipse class="st0" cx="262.5" cy="78.9" rx="2.5" ry="2.5"/>
				</g>
				<g>
					<ellipse class="st0" cx="267.6" cy="38" rx="2.5" ry="2.5"/>
					<ellipse class="st0" cx="267.6" cy="45.2" rx="2.5" ry="2.5"/>
					<ellipse class="st0" cx="267.6" cy="53" rx="2.5" ry="2.5"/>
					<ellipse class="st0" cx="267.6" cy="60.2" rx="2.5" ry="2.5"/>
					<ellipse class="st0" cx="267.6" cy="68.1" rx="2.5" ry="2.5"/>
					<ellipse class="st0" cx="267.6" cy="75.3" rx="2.5" ry="2.5"/>
				</g>
				<g>
					<ellipse class="st0" cx="272.7" cy="41.6" rx="2.5" ry="2.5"/>
					<ellipse class="st0" cx="272.7" cy="48.8" rx="2.5" ry="2.5"/>
					<ellipse class="st0" cx="272.7" cy="56.6" rx="2.5" ry="2.5"/>
					<ellipse class="st0" cx="272.7" cy="63.8" rx="2.5" ry="2.5"/>
					<ellipse class="st0" cx="272.7" cy="71.7" rx="2.5" ry="2.5"/>
					<ellipse class="st0" cx="272.7" cy="78.9" rx="2.5" ry="2.5"/>
				</g>
			</g>
			<use xlink:href="#SVGID_3_"  style="overflow:visible;fill:none;stroke:#FFFFFF;stroke-miterlimit:10;"/>
		</g>
	</g>
	<rect x="208.9" y="32.7" class="st0" width="5.7" height="41.9"/>
	<rect x="274.5" y="32.7" class="st0" width="5.7" height="41.9"/>
	<line class="st4" x1="209.2" y1="104.2" x2="221.1" y2="116"/>
	<line class="st4" x1="220.9" y1="103.8" x2="209.1" y2="115.6"/>
	<line class="st4" x1="220.9" y1="103.8" x2="220.9" y2="116"/>
	<line class="st4" x1="209.3" y1="104" x2="209.3" y2="116.2"/>
	<line class="st4" x1="220.8" y1="104.7" x2="232.7" y2="116.5"/>
	<line class="st4" x1="232.5" y1="104.3" x2="220.7" y2="116.1"/>
	<line class="st4" x1="232.5" y1="104.3" x2="232.5" y2="116.5"/>
	<line class="st4" x1="232.7" y1="104.2" x2="244.5" y2="116"/>
	<line class="st4" x1="244.3" y1="103.8" x2="232.5" y2="115.6"/>
	<line class="st4" x1="244.3" y1="103.8" x2="244.3" y2="116"/>
	<line class="st4" x1="244.4" y1="104.5" x2="256.2" y2="116.3"/>
	<line class="st4" x1="256" y1="104.1" x2="244.2" y2="115.9"/>
	<line class="st4" x1="256" y1="104.1" x2="256" y2="116.3"/>
	<line class="st4" x1="256.3" y1="104.4" x2="268.1" y2="116.2"/>
	<line class="st4" x1="268" y1="104" x2="256.1" y2="115.8"/>
	<line class="st4" x1="268" y1="104" x2="268" y2="116.2"/>
	<line class="st4" x1="268.5" y1="104.6" x2="280.4" y2="116.5"/>
	<line class="st4" x1="280.2" y1="104.2" x2="268.4" y2="116"/>
	<line class="st4" x1="280.2" y1="104.2" x2="280.2" y2="116.4"/>
	<line class="st4" x1="214.4" y1="78.7" x2="214.4" y2="104.3"/>
	<line class="st4" x1="222.6" y1="78.7" x2="222.6" y2="86.7"/>
	<line class="st4" x1="230.8" y1="78.7" x2="230.8" y2="104.3"/>
	<line class="st4" x1="239" y1="78.7" x2="239" y2="86.7"/>
	<line class="st4" x1="247.1" y1="78.7" x2="247.1" y2="104.3"/>
	<line class="st4" x1="255.3" y1="78.7" x2="255.3" y2="104.3"/>
	<line class="st4" x1="263.5" y1="78.7" x2="263.5" y2="86.7"/>
	<line class="st4" x1="271.7" y1="78.7" x2="271.7" y2="86.7"/>
	<line class="st4" x1="279.9" y1="78.7" x2="279.9" y2="86.7"/>
	<line class="st4" x1="222.6" y1="78.4" x2="214.7" y2="86.3"/>
	<line class="st4" x1="271.2" y1="78.4" x2="263.3" y2="86.3"/>
	<line class="st4" x1="230.9" y1="78" x2="238.8" y2="85.9"/>
	<line class="st4" x1="247.5" y1="78" x2="255.4" y2="85.9"/>
	<line class="st4" x1="275.8" y1="78" x2="275.8" y2="103.6"/>
	<line class="st4" x1="209.2" y1="119.9" x2="221" y2="152.2"/>
	<line class="st4" x1="220.8" y1="118.8" x2="209" y2="151.1"/>
	<line class="st4" x1="220.8" y1="118.8" x2="220.8" y2="152.1"/>
	<line class="st4" x1="209.2" y1="119.4" x2="209.2" y2="152.7"/>
	<line class="st4" x1="221.6" y1="120.5" x2="233.4" y2="152.8"/>
	<line class="st4" x1="233.2" y1="119.4" x2="221.4" y2="151.6"/>
	<line class="st4" x1="233.2" y1="119.4" x2="233.2" y2="152.7"/>
	<line class="st4" x1="233.7" y1="119.9" x2="245.5" y2="152.2"/>
	<line class="st4" x1="245.4" y1="118.8" x2="233.5" y2="151"/>
	<line class="st4" x1="245.4" y1="118.8" x2="245.4" y2="152.1"/>
	<line class="st4" x1="245.6" y1="119.9" x2="257.4" y2="152.2"/>
	<line class="st4" x1="257.3" y1="118.8" x2="245.5" y2="151.1"/>
	<line class="st4" x1="257.3" y1="118.8" x2="257.3" y2="152.1"/>
	<line class="st4" x1="257.8" y1="119.3" x2="269.6" y2="151.6"/>
	<line class="st4" x1="269.5" y1="118.2" x2="257.6" y2="150.5"/>
	<line class="st4" x1="269.5" y1="118.2" x2="269.5" y2="151.6"/>
	<line class="st4" x1="268.7" y1="118.8" x2="280.6" y2="151"/>
	<line class="st4" x1="280.4" y1="117.6" x2="268.6" y2="149.9"/>
	<line class="st4" x1="280.4" y1="117.6" x2="280.4" y2="151"/>
	<g>
		<rect x="216.7" y="86.2" class="st0" width="13.7" height="18.1"/>
		<rect x="237.8" y="86.2" class="st0" width="13.7" height="18.1"/>
		<rect x="258.9" y="86.2" class="st0" width="13.7" height="18.1"/>
	</g>
	<g>
		<rect x="216.1" y="126.1" class="st0" width="13.7" height="18.1"/>
		<rect x="237.2" y="126.1" class="st0" width="13.7" height="18.1"/>
		<rect x="258.3" y="126.1" class="st0" width="13.7" height="18.1"/>
	</g>
	<rect x="206.6" y="74.6" class="st0" width="75.4" height="4.2"/>
	<g>
		<g>
			<g>
				<path class="st0" d="M212.4,119.2c0,1-1,1.9-2.1,1.9c-1.2,0-2.1-0.8-2.1-1.9c0-0.3,0-2.1,0-2.1l4.3,0
					C212.4,117.2,212.4,118.2,212.4,119.2z"/>
				<path class="st0" d="M216.7,119.2c0,1-1,1.9-2.1,1.9c-1.2,0-2.1-0.8-2.1-1.9c0-0.3,0-2.1,0-2.1l4.3,0
					C216.7,117.2,216.7,118.2,216.7,119.2z"/>
			</g>
			<g>
				<path class="st0" d="M221,119.2c0,1-1,1.9-2.1,1.9c-1.2,0-2.1-0.8-2.1-1.9c0-0.3,0-2.1,0-2.1l4.3,0
					C221,117.2,221,118.2,221,119.2z"/>
				<path class="st0" d="M225.2,119.2c0,1-1,1.9-2.1,1.9c-1.2,0-2.1-0.8-2.1-1.9c0-0.3,0-2.1,0-2.1l4.3,0
					C225.2,117.2,225.2,118.2,225.2,119.2z"/>
			</g>
			<g>
				<path class="st0" d="M229.5,119.2c0,1-1,1.9-2.1,1.9c-1.2,0-2.1-0.8-2.1-1.9c0-0.3,0-2.1,0-2.1l4.3,0
					C229.5,117.2,229.5,118.2,229.5,119.2z"/>
				<path class="st0" d="M233.8,119.2c0,1-1,1.9-2.1,1.9c-1.2,0-2.1-0.8-2.1-1.9c0-0.3,0-2.1,0-2.1l4.3,0
					C233.8,117.2,233.8,118.2,233.8,119.2z"/>
			</g>
			<g>
				<path class="st0" d="M238.1,119.2c0,1-1,1.9-2.1,1.9c-1.2,0-2.1-0.8-2.1-1.9c0-0.3,0-2.1,0-2.1l4.3,0
					C238.1,117.2,238.1,118.2,238.1,119.2z"/>
				<path class="st0" d="M242.4,119.2c0,1-1,1.9-2.1,1.9c-1.2,0-2.1-0.8-2.1-1.9c0-0.3,0-2.1,0-2.1l4.3,0
					C242.4,117.2,242.4,118.2,242.4,119.2z"/>
			</g>
			<g>
				<path class="st0" d="M246.7,119.2c0,1-1,1.9-2.1,1.9c-1.2,0-2.1-0.8-2.1-1.9c0-0.3,0-2.1,0-2.1l4.3,0
					C246.7,117.2,246.7,118.2,246.7,119.2z"/>
				<path class="st0" d="M251,119.2c0,1-1,1.9-2.1,1.9c-1.2,0-2.1-0.8-2.1-1.9c0-0.3,0-2.1,0-2.1l4.3,0
					C251,117.2,251,118.2,251,119.2z"/>
			</g>
			<g>
				<path class="st0" d="M255.3,119.2c0,1-1,1.9-2.1,1.9c-1.2,0-2.1-0.8-2.1-1.9c0-0.3,0-2.1,0-2.1l4.3,0
					C255.3,117.2,255.3,118.2,255.3,119.2z"/>
				<path class="st0" d="M259.6,119.2c0,1-1,1.9-2.1,1.9c-1.2,0-2.1-0.8-2.1-1.9c0-0.3,0-2.1,0-2.1l4.3,0
					C259.6,117.2,259.6,118.2,259.6,119.2z"/>
			</g>
			<g>
				<path class="st0" d="M263.9,119.2c0,1-1,1.9-2.1,1.9c-1.2,0-2.1-0.8-2.1-1.9c0-0.3,0-2.1,0-2.1l4.3,0
					C263.9,117.2,263.9,118.2,263.9,119.2z"/>
				<path class="st0" d="M268.1,119.2c0,1-1,1.9-2.1,1.9c-1.2,0-2.1-0.8-2.1-1.9c0-0.3,0-2.1,0-2.1l4.3,0
					C268.1,117.2,268.1,118.2,268.1,119.2z"/>
			</g>
			<g>
				<path class="st0" d="M272.4,119.2c0,1-1,1.9-2.1,1.9c-1.2,0-2.1-0.8-2.1-1.9c0-0.3,0-2.1,0-2.1l4.3,0
					C272.4,117.2,272.4,118.2,272.4,119.2z"/>
				<path class="st0" d="M276.7,119.2c0,1-1,1.9-2.1,1.9c-1.2,0-2.1-0.8-2.1-1.9c0-0.3,0-2.1,0-2.1l4.3,0
					C276.7,117.2,276.7,118.2,276.7,119.2z"/>
			</g>
			<g>
				<path class="st0" d="M281,119.2c0,1-1,1.9-2.1,1.9c-1.2,0-2.1-0.8-2.1-1.9c0-0.3,0-2.1,0-2.1l4.3,0
					C281,117.2,281,118.2,281,119.2z"/>
			</g>
		</g>
		<g>
			<rect x="208.1" y="114.9" class="st0" width="72.9" height="2.2"/>
		</g>
	</g>
	<line class="st5" x1="208.9" y1="104.3" x2="280.2" y2="104.3"/>
	<line class="st5" x1="208.6" y1="86.2" x2="280" y2="86.2"/>
</g>
</svg>
