<?xml version="1.0" encoding="utf-8"?>
<!-- Generator: Adobe Illustrator 22.1.0, SVG Export Plug-In . SVG Version: 6.00 Build 0)  -->
<svg version="1.1" id="Calque_1" xmlns="http://www.w3.org/2000/svg" xmlns:xlink="http://www.w3.org/1999/xlink" x="0px" y="0px"
	 viewBox="0 0 478.6 156.5" style="enable-background:new 0 0 478.6 156.5;" xml:space="preserve">
<style type="text/css">
	.st0{fill:#EE444A;}
	.st1{fill:#19181B;}
	.st2{fill:#FFFFFF;}
	.st3{fill:#EE444B;}
</style>
<path class="st0" d="M206.4,58.1h11c4.6,0,9.2-1.7,13.5-5c2.1-1.6,3.9-3.8,5.2-6.5c1.3-2.7,2-5.8,2-9.2c0-3.4-0.7-6.5-2-9.2
	c-1.3-2.7-3.1-5-5.2-6.5c-4.3-3.3-8.9-5-13.4-5h-17.4c-3.1,0-5,0.6-5.6,1.7c-0.4,0.7-0.6,1.4-0.7,1.9c-0.1,0.6-0.1,1.5-0.1,2.7v45.2
	c0,1.8,0.1,3.1,0.4,4c0.5,1.6,2.5,2.4,5.9,2.4c3.1,0,5-0.6,5.6-1.7c0.4-0.7,0.6-1.4,0.7-1.9c0.1-0.6,0.1-1.5,0.1-2.7V58.1z
	 M206.4,29.2h11c1.9,0,3.7,0.7,5.4,2c1.8,1.4,2.7,3.4,2.7,6.1c0,2.7-0.9,4.7-2.7,6.1c-1.7,1.3-3.5,2-5.3,2h-11.1V29.2z"/>
<path class="st0" d="M261.1,71c0.1,0.5,0.3,1.2,0.7,1.9c0.3,0.6,0.9,1.1,1.7,1.3c0.9,0.3,2.3,0.4,3.9,0.4s3-0.2,3.9-0.4
	c0.8-0.3,1.4-0.7,1.7-1.3c0.4-0.7,0.6-1.3,0.7-1.9c0.1-0.6,0.1-1.5,0.1-2.7V52.6l0.1-0.2L291.6,26c1.4-2.1,1.7-3.3,1.7-3.8
	c0-1.4-1.2-3-3.6-4.7c-2.5-1.6-3.7-1.9-4.3-1.9c-0.8,0-1.5,0.2-2.2,0.6c-0.5,0.3-1.3,1.1-2.4,3l-13.4,21.4l-13.4-21.4
	c-1-1.5-1.9-2.5-2.7-3.1c-0.5-0.4-1.1-0.5-2-0.5c-0.5,0-1.7,0.3-4.7,2.3c-2.1,1.4-3.2,2.9-3.2,4.3c0,0.6,0.3,1.7,1.7,3.8L261,52.6
	v15.7C261,69.5,261.1,70.4,261.1,71z"/>
<path class="st0" d="M342,21.9c-0.5-0.3-1.2-0.8-2.2-1.4l-1.9-1.1c-1.3-0.8-3.2-1.6-5.8-2.3c-2.5-0.8-5.1-1.1-7.5-1.1
	c-5.2,0-10.5,1.4-15.6,4.3c-2.7,1.5-5.2,3.3-7.3,5.5c-2.1,2.2-3.9,5-5.2,8.3c-1.4,3.3-2.1,7.1-2.1,11.2c0,4.1,0.7,8,2.1,11.5
	c1.4,3.5,3.2,6.4,5.3,8.6c2.2,2.2,4.6,4.2,7.4,5.7c2.7,1.6,5.4,2.7,7.9,3.3c5.1,1.3,10,1.4,15.4-0.3c2.7-0.8,4.5-1.5,5.3-2
	c0.9-0.5,1.8-1.1,2.8-1.7c0.9-0.6,1.7-1.2,2.4-1.9c0.6-0.6,0.9-1.3,0.9-2.3c0-1-0.6-2.4-1.7-4.1c-1.8-2.7-3.4-4.2-4.7-4.2
	c-0.3,0-1.2,0.2-3.5,1.5l-1.4,1c-0.7,0.5-1.9,0.9-3.5,1.4c-1.6,0.5-3.2,0.7-5,0.7c-3.8,0-7.4-1.3-10.9-3.7c-1.8-1.3-3.3-3.2-4.4-5.4
	c-1.1-2.3-1.7-4.9-1.7-7.8c0-2.9,0.6-5.5,1.7-7.8c1.1-2.3,2.6-4.1,4.3-5.4c3.6-2.5,7.2-3.8,10.9-3.8c4,0,7.2,1,9.7,3
	c2,1.3,3.1,1.6,3.6,1.6c1.4,0,3.1-1.4,5-4c1-1.4,1.6-2.8,1.6-4C343.8,24,343.2,22.9,342,21.9z"/>
<path class="st0" d="M378,15.8c-3.6,0-7.2,0.7-10.6,2.2c-3.4,1.5-6.5,3.5-9.1,6.1c-2.6,2.6-4.7,5.8-6.3,9.6c-1.6,3.8-2.4,8-2.4,12.4
	c0,8,2.8,15,8.4,20.8c5.6,5.8,12.5,8.7,20.5,8.7c8,0,14.8-3,20.2-8.8c5.5-5.9,8.2-13.1,8.2-21.4c0-8.3-2.9-15.4-8.6-21
	C392.6,18.6,385.7,15.8,378,15.8z M389.3,58.2c-3.2,3.1-7,4.6-11,4.6c-4.1,0-7.8-1.6-11.1-4.8c-3.3-3.2-4.9-7.3-4.9-12.4
	s1.7-9.2,4.9-12.4c3.2-3.2,7-4.8,11-4.8c4.1,0,7.8,1.6,11.1,4.7c3.3,3.1,4.9,7.4,4.9,12.5S392.6,55.1,389.3,58.2z"/>
<path class="st0" d="M464.4,23c0-1.8-0.1-3.1-0.4-3.9c-0.2-0.7-0.4-1.1-0.8-1.4c-0.4-0.3-1-0.6-1.8-0.8c-0.9-0.2-2.1-0.4-3.5-0.4
	c-1.5,0-2.7,0.2-3.6,0.4c-0.8,0.3-1.4,0.8-1.8,1.5v0c-0.4,0.8-0.7,2.2-0.7,4.1v30l-1.5-2c-3.8-5-11.6-15.4-23-30.9
	c-1.3-1.6-1.6-1.9-1.7-1.9c-0.3-0.3-0.7-0.6-1.7-0.9c-0.9-0.3-2.1-0.4-3.6-0.4c-1.5,0-2.8,0.2-3.7,0.4c-0.8,0.3-1.4,0.8-1.8,1.5
	c-0.4,0.8-0.7,2.2-0.7,4.1v45.5c0,1.2,0,2.1,0.1,2.7c0.1,0.5,0.3,1.2,0.7,1.9c0.6,1.1,2.5,1.8,5.4,1.8c3.1,0,5-0.6,5.6-1.7
	c0.4-0.7,0.6-1.3,0.7-1.8c0.1-0.6,0.1-1.5,0.1-2.7V38.9l1.5,2c3.9,5,12,15.8,24.1,32c0.4,0.6,1,1,1.7,1.3c0.5,0.2,1.6,0.4,4.1,0.4
	c3.1,0,5-0.6,5.6-1.7c0.4-0.7,0.6-1.3,0.7-1.8c0.1-0.6,0.1-1.5,0.1-2.7V23z"/>
<path class="st0" d="M409.9,105.6c1.3,0,2.2,0,2.8-0.1c0.5-0.1,1.2-0.3,1.9-0.7c0.6-0.3,1-0.8,1.3-1.7c0.3-0.9,0.4-2.3,0.4-3.9
	c0-1.6-0.2-3-0.4-3.9c-0.3-0.8-0.7-1.4-1.3-1.7c-0.7-0.4-1.3-0.6-1.8-0.7c-0.6-0.1-1.5-0.1-2.7-0.1h-32.1c-2.6,0-4.4,0.4-5.3,1.3
	c-0.9,0.8-1.3,2.5-1.3,5.1v45.3c0,1.8,0.1,3.1,0.4,3.9c0.5,1.7,2.5,2.5,5.9,2.5c3.1,0,5-0.6,5.6-1.7c0.4-0.7,0.6-1.4,0.7-1.8
	c0.1-0.4,0.1-1.2,0.1-2.7v-16.3h16.8c1.8,0,3.1-0.1,3.9-0.4c1.7-0.6,2.5-2.6,2.5-6c0-3.1-0.6-5.1-1.7-5.7c-0.7-0.4-1.3-0.6-1.8-0.7
	c-0.6-0.1-1.5-0.1-2.8-0.1h-16.9v-9.9H409.9z"/>
<path class="st0" d="M468.6,145.9c0-0.5-0.2-1.6-1.2-3.9c-2.6-5.8-4.4-10-5.5-12.8l-0.2-0.5l0.4-0.4c3.9-3.8,5.9-8.7,5.9-14.6
	c0-3.4-0.7-6.5-2-9.2c-1.4-2.7-3.1-5-5.1-6.5c-4.3-3.3-8.9-5-13.4-5h-17.6c-3.1,0-5,0.6-5.6,1.7c-0.4,0.7-0.6,1.4-0.7,1.9
	c-0.1,0.6-0.1,1.5-0.1,2.7v45.2c0,1.8,0.1,3.1,0.4,4c0.5,1.6,2.5,2.5,5.9,2.5c3.1,0,5-0.6,5.6-1.7c0.4-0.7,0.6-1.4,0.7-1.9
	c0.1-0.6,0.1-1.5,0.1-2.7v-10.1h11.1l3.1-0.2l0.2,0.6c3.7,8.7,5.8,13.7,6.3,14.7c0.2,0.4,0.7,0.9,1.3,1.3c1.1,0.8,2.8,0.9,6-0.5
	C467,149.1,468.6,147.6,468.6,145.9z M452.6,119.8c-1.7,1.3-3.5,2-5.2,2H436v-16.1h11.1c1.9,0,3.7,0.7,5.4,2
	c1.8,1.4,2.7,3.4,2.7,6.1C455.3,116.4,454.4,118.4,452.6,119.8z"/>
<g>
	<path class="st1" d="M195.5,71.8c-4.2,0-6.7-1.2-7.5-3.6c-0.3-1-0.5-2.5-0.5-4.5V18.4c0-1.3,0-2.3,0.1-2.9c0.1-0.7,0.4-1.5,0.9-2.5
		c0.9-1.8,3.2-2.6,7.1-2.6H213c5,0,9.8,1.8,14.5,5.4c2.3,1.7,4.2,4.2,5.7,7.1c1.5,3,2.2,6.4,2.2,10c0,3.6-0.7,7-2.2,10
		c-1.5,3-3.4,5.4-5.7,7.1c-4.6,3.6-9.5,5.4-14.5,5.4h-9.3v8.4c0,1.3,0,2.3-0.1,2.9c-0.1,0.7-0.4,1.5-0.9,2.5
		C201.7,70.9,199.4,71.8,195.5,71.8z M195.6,13.8c-3,0-4,0.7-4.1,0.8c-0.4,0.7-0.5,1.1-0.5,1.3c0,0.4-0.1,1.1-0.1,2.5v45.2
		c0,2.1,0.2,3,0.3,3.4c0.3,0.8,1.9,1.3,4.3,1.3c3.5,0,4.1-0.8,4.1-0.8c0.4-0.7,0.5-1.1,0.5-1.3c0-0.3,0.1-1,0.1-2.5V52H213
		c4.2,0,8.4-1.6,12.5-4.7c1.9-1.4,3.5-3.4,4.7-5.9c1.2-2.5,1.9-5.3,1.9-8.4c0-3.1-0.6-6-1.9-8.5c-1.2-2.5-2.8-4.5-4.7-5.9
		c-4-3.1-8.2-4.7-12.4-4.7H195.6z M213,42.7h-12.8V23.1H213c2.3,0,4.4,0.8,6.5,2.4c2.2,1.7,3.4,4.3,3.4,7.4c0,3.2-1.2,5.7-3.4,7.4
		C217.4,41.9,215.2,42.7,213,42.7z M203.6,39.3h9.4c1.4,0,2.9-0.5,4.3-1.6c1.4-1,2-2.6,2-4.7c0-2.1-0.7-3.7-2-4.8
		c-1.4-1.1-2.9-1.7-4.4-1.7h-9.3V39.3z"/>
</g>
<g>
	<path class="st1" d="M262.9,72c-1.8,0-3.3-0.2-4.4-0.5c-1.3-0.4-2.2-1.1-2.7-2.2c-0.5-0.9-0.8-1.7-0.9-2.5l0,0
		c-0.1-0.7-0.1-1.6-0.1-3V48.7l-17.5-26.1c-1.4-2-2-3.6-2-4.8c0-2,1.3-4,4-5.7c3.4-2.3,4.8-2.5,5.6-2.5c1.2,0,2.2,0.3,3,0.8
		c1,0.6,2,1.8,3.1,3.5L262.9,33l11.9-19.1c1.1-1.8,2.1-2.9,2.9-3.5c0.9-0.6,1.9-0.9,3.1-0.9c0.7,0,2.1,0.2,5.2,2.2
		c3,2.1,4.4,4.1,4.4,6.1c0,1.2-0.7,2.8-2,4.8L271,48.7V64c0,1.3,0,2.3-0.1,2.9c-0.1,0.7-0.4,1.5-0.9,2.5c-0.5,1-1.4,1.7-2.7,2.1
		C266.2,71.9,264.7,72,262.9,72z M244.9,12.9c0,0-0.9,0.1-3.7,2c-1.6,1-2.5,2.1-2.5,2.9c0,0,0,0.8,1.4,2.9l18,27v16.2
		c0,1.5,0.1,2.2,0.1,2.6l0,0c0,0.2,0.1,0.6,0.5,1.4c0.1,0.1,0.2,0.3,0.7,0.5c0.5,0.2,1.6,0.4,3.4,0.4c1.8,0,2.9-0.2,3.4-0.4
		c0.6-0.2,0.7-0.4,0.7-0.5c0.4-0.7,0.5-1.1,0.5-1.3c0-0.4,0.1-1.1,0.1-2.5V47.7l0.4-0.6l17.6-26.3c1.4-2.1,1.4-2.9,1.4-2.9
		c0-0.3-0.2-1.4-2.9-3.3c-2.5-1.5-3.3-1.6-3.3-1.6c-0.5,0-0.9,0.1-1.2,0.3c-0.1,0.1-0.8,0.6-2,2.5l-14.8,23.7l-14.8-23.7
		c-1.1-1.7-1.8-2.3-2.2-2.6C245.7,13,245.4,12.9,244.9,12.9z"/>
</g>
<g>
	<path class="st1" d="M319.8,72.7c-2.5,0-5.1-0.3-7.8-1c-2.7-0.7-5.5-1.9-8.4-3.5c-2.9-1.6-5.5-3.7-7.7-6c-2.3-2.4-4.2-5.5-5.7-9.2
		c-1.5-3.7-2.2-7.8-2.2-12.1c0-4.3,0.7-8.3,2.2-11.9c1.4-3.5,3.3-6.5,5.6-8.8c2.3-2.3,4.9-4.3,7.8-5.8c5.4-3,11-4.5,16.5-4.5
		c2.6,0,5.3,0.4,8,1.2c2.7,0.8,4.8,1.6,6.2,2.5l1.9,1.1c1,0.6,1.8,1.1,2.3,1.5l0.1,0.1c1.6,1.3,2.4,2.8,2.4,4.5c0,1.6-0.6,3.3-1.9,5
		c-2.3,3.2-4.4,4.8-6.4,4.8c-1.2,0-2.6-0.6-4.6-1.9c-2.2-1.8-5.1-2.7-8.7-2.7c-3.3,0-6.7,1.2-10,3.5c-1.5,1.1-2.8,2.7-3.8,4.7
		c-1,2-1.5,4.4-1.5,7s0.5,5,1.5,7c1,2,2.3,3.7,3.9,4.8c3.1,2.3,6.4,3.4,9.8,3.4c1.6,0,3.1-0.2,4.5-0.6c1.4-0.4,2.4-0.8,3-1.2l1.4-1
		c2.8-1.7,3.9-1.8,4.5-1.8c2,0,4,1.6,6.2,4.9c1.3,2.1,1.9,3.7,1.9,5c0,1.4-0.4,2.5-1.3,3.4c-0.8,0.8-1.7,1.5-2.7,2.2
		c-1,0.6-1.9,1.2-2.8,1.7c-1,0.6-2.8,1.3-5.7,2.2C325.5,72.2,322.7,72.7,319.8,72.7z M320,13.2c-4.9,0-9.9,1.4-14.8,4.1
		c-2.6,1.4-4.9,3.2-6.9,5.2c-2,2-3.6,4.6-4.9,7.7c-1.3,3.1-1.9,6.7-1.9,10.6c0,3.9,0.7,7.5,2,10.8c1.3,3.3,3,6,5,8.1
		c2,2.1,4.4,4,7,5.4c2.6,1.5,5.1,2.5,7.5,3.2c5.1,1.3,9.7,1.2,14.5-0.2c3.4-1.1,4.5-1.6,4.9-1.9c0.9-0.5,1.8-1.1,2.8-1.7
		c0.8-0.5,1.5-1,2.1-1.6c0.2-0.2,0.4-0.5,0.4-1.1c0-0.2-0.1-1.1-1.4-3.2c-2.1-3.3-3.3-3.4-3.3-3.4c0,0-0.6,0.1-2.6,1.3l-1.3,0.9
		c-0.9,0.6-2.2,1.1-4,1.7c-1.7,0.5-3.6,0.8-5.5,0.8c-4.1,0-8.1-1.4-11.8-4.1c-2-1.5-3.7-3.5-4.9-6.1c-1.3-2.5-1.9-5.4-1.9-8.5
		c0-3.1,0.6-6,1.9-8.5c1.3-2.5,2.9-4.5,4.8-6c3.9-2.8,7.9-4.2,11.9-4.2c4.4,0,8,1.1,10.7,3.3c1.8,1.2,2.5,1.2,2.6,1.2
		c0,0,1.3,0,3.6-3.3c0.8-1.1,1.2-2.1,1.2-3c0-0.4-0.1-1-1.1-1.9c-0.5-0.3-1.2-0.8-2.1-1.3l-1.9-1.1c-1.2-0.7-3-1.4-5.4-2.2
		C324.7,13.6,322.3,13.2,320,13.2z"/>
</g>
<g>
	<path class="st1" d="M374,72.8c-8.5,0-15.8-3.1-21.7-9.2c-5.9-6.1-8.9-13.5-8.9-21.9c0-4.6,0.8-9,2.5-13c1.7-4,3.9-7.5,6.7-10.2
		c2.8-2.7,6-4.9,9.6-6.5c3.6-1.6,7.4-2.4,11.3-2.4c8.2,0,15.5,3,21.5,9c6.1,6,9.1,13.4,9.1,22.3c0,8.8-2.9,16.4-8.7,22.6
		C389.6,69.7,382.4,72.8,374,72.8z M373.5,13.1c-3.4,0-6.7,0.7-9.9,2.1c-3.2,1.4-6.1,3.3-8.6,5.8c-2.5,2.4-4.5,5.5-6,9.1
		c-1.5,3.6-2.3,7.6-2.3,11.7c0,7.5,2.7,14.1,8,19.6c5.3,5.4,11.7,8.2,19.2,8.2c7.5,0,13.9-2.8,19-8.3c5.2-5.5,7.8-12.4,7.8-20.3
		c0-7.9-2.7-14.5-8.1-19.8C387.2,15.8,380.8,13.1,373.5,13.1z M373.8,60.1c-4.5,0-8.6-1.8-12.2-5.2c-3.6-3.5-5.5-8.1-5.5-13.6
		c0-5.5,1.8-10.1,5.4-13.6c3.6-3.5,7.7-5.2,12.2-5.2c4.5,0,8.6,1.7,12.2,5.2c3.6,3.5,5.5,8.1,5.5,13.7c0,5.6-1.8,10.2-5.4,13.7v0
		C382.4,58.4,378.3,60.1,373.8,60.1z M373.7,25.8c-3.6,0-6.9,1.4-9.8,4.3c-2.9,2.8-4.4,6.6-4.4,11.2s1.5,8.3,4.4,11.2
		c2.9,2.8,6.3,4.3,9.9,4.3c3.6,0,6.9-1.4,9.9-4.2l0,0c2.9-2.8,4.4-6.5,4.4-11.2c0-4.7-1.5-8.5-4.4-11.3
		C380.6,27.2,377.3,25.8,373.7,25.8z"/>
</g>
<g>
	<path class="st1" d="M453.5,71.9c-2.3,0-3.8-0.2-4.7-0.6c-1-0.4-1.8-1-2.4-1.8c-10.7-14.3-18.3-24.4-22.6-30v24.3
		c0,1.3,0,2.3-0.1,3c-0.1,0.7-0.4,1.5-0.9,2.4c-0.9,1.8-3.2,2.6-7.1,2.6c-3.7,0-6-0.9-7-2.7c-0.5-0.9-0.8-1.7-0.9-2.5
		c-0.1-0.7-0.1-1.7-0.1-3V18.3c0-2.2,0.3-3.8,0.9-4.9c0.6-1.1,1.6-1.9,2.8-2.3c1.1-0.3,2.5-0.5,4.2-0.5c1.7,0,3.1,0.2,4.1,0.5
		c1.1,0.3,1.9,0.7,2.4,1.3l0,0c0,0,0.3,0.2,1.8,2.1c10.1,13.8,17.3,23.5,21.5,29v-25c0-2.2,0.3-3.8,0.9-4.9c0.6-1.1,1.6-1.9,2.8-2.3
		c1.1-0.3,2.5-0.5,4.1-0.5c1.6,0,3,0.1,4,0.4c1.1,0.3,1.9,0.7,2.4,1.1c0.6,0.5,1,1.2,1.3,2.2c0.3,0.9,0.5,2.3,0.5,4.3v45.2
		c0,1.4,0,2.3-0.1,3c-0.1,0.7-0.4,1.5-0.9,2.4C459.7,71,457.4,71.9,453.5,71.9z M420.4,29.5l4.6,5.9c3.9,5,12,15.8,24.2,32
		c0.2,0.3,0.6,0.6,0.9,0.7c0.1,0.1,0.9,0.3,3.5,0.3c3.5,0,4.1-0.8,4.1-0.8c0.4-0.8,0.5-1.2,0.5-1.3c0-0.3,0.1-1,0.1-2.5V18.6
		c0-2.2-0.2-3-0.3-3.3c-0.2-0.5-0.3-0.7-0.3-0.7c0,0-0.3-0.2-1.2-0.5c-0.5-0.1-1.4-0.3-3-0.3c-1.3,0-2.3,0.1-3.1,0.4
		c-0.4,0.1-0.7,0.3-0.9,0.7c-0.1,0.3-0.5,1.1-0.5,3.3v35l-4.6-5.9c-3.8-4.9-11.6-15.4-23-30.9c-1.1-1.3-1.4-1.6-1.5-1.7
		c-0.2-0.1-0.4-0.3-1.1-0.5c-0.5-0.1-1.4-0.3-3.1-0.3c-1.7,0-2.7,0.2-3.2,0.4c-0.4,0.1-0.7,0.3-0.9,0.7c-0.1,0.3-0.5,1.1-0.5,3.3
		v45.5c0,1.4,0.1,2.2,0.1,2.5c0,0.2,0.1,0.6,0.5,1.3c0.1,0.2,1.1,0.9,3.9,0.9c3,0,4-0.7,4.1-0.8c0.4-0.8,0.5-1.2,0.5-1.3
		c0-0.3,0.1-1,0.1-2.5V29.5z"/>
</g>
<g>
	<path class="st1" d="M373.2,148.3c-4.2,0-6.7-1.3-7.5-3.7c-0.3-0.9-0.5-2.4-0.5-4.4V94.9c0-3,0.6-5.1,1.8-6.3
		c1.2-1.2,3.3-1.7,6.5-1.7h32.1c1.3,0,2.3,0,2.9,0.1c0.7,0.1,1.5,0.4,2.4,0.9c1,0.5,1.7,1.5,2.1,2.7c0.4,1.1,0.5,2.6,0.5,4.4
		c0,1.8-0.2,3.3-0.5,4.4c-0.4,1.3-1.1,2.1-2.1,2.7c-0.9,0.5-1.7,0.7-2.4,0.8c-0.7,0.1-1.6,0.1-3,0.1h-24.1v6.5h15.2
		c1.4,0,2.4,0,3,0.1c0.7,0.1,1.5,0.4,2.4,0.9c1.8,1,2.6,3.4,2.6,7.2c0,4.2-1.2,6.7-3.7,7.6c-1,0.3-2.4,0.5-4.5,0.5h-15.1v14.6
		c0,1.3,0,2.3-0.1,3c-0.1,0.7-0.4,1.5-0.9,2.4C379.4,147.4,377.1,148.3,373.2,148.3z M373.4,90.2c-3.2,0-4,0.7-4.1,0.8
		c-0.2,0.2-0.8,1-0.8,3.8v45.3c0,2.2,0.2,3,0.3,3.3c0.4,1.3,3.1,1.4,4.3,1.4c3,0,4-0.7,4.1-0.8c0.4-0.8,0.5-1.2,0.5-1.3
		c0-0.3,0.1-1,0.1-2.5v-18h18.5c2.1,0,3-0.2,3.4-0.3c0.8-0.3,1.3-1.9,1.3-4.3c0-3.1-0.6-4.1-0.8-4.2c-0.7-0.4-1.1-0.4-1.2-0.5
		c-0.4,0-1.1-0.1-2.6-0.1h-18.6V99.6h27.5c1.5,0,2.2-0.1,2.6-0.1c0.2,0,0.6-0.1,1.4-0.5c0.1,0,0.3-0.1,0.4-0.6
		c0.2-0.5,0.4-1.6,0.4-3.4c0-1.8-0.2-2.9-0.4-3.4c-0.2-0.6-0.4-0.7-0.5-0.7c-0.7-0.4-1-0.5-1.2-0.5c-0.4,0-1.1-0.1-2.5-0.1H373.4z"
		/>
</g>
<g>
	<path class="st1" d="M455.5,148.8c-1.1,0-2.1-0.3-3-0.9c-0.8-0.6-1.3-1.2-1.7-1.8c-0.6-1.1-2.6-5.8-6.2-14.3l-1.9,0.1l-9.5,0v8.4
		c0,1.3,0,2.3-0.1,2.9c-0.1,0.7-0.4,1.5-0.9,2.4c-0.9,1.8-3.3,2.6-7.1,2.6c-4.2,0-6.7-1.2-7.5-3.6c-0.3-1-0.5-2.5-0.5-4.5V94.9
		c0-1.3,0-2.3,0.1-2.9c0.1-0.7,0.4-1.5,0.9-2.5c0.9-1.8,3.2-2.6,7.1-2.6h17.6c5,0,9.8,1.8,14.5,5.4c2.3,1.8,4.2,4.2,5.6,7.1
		c1.5,3,2.2,6.3,2.2,10c0,6.1-2,11.3-6,15.4c1.2,2.8,2.9,6.8,5.3,12.2c0.9,2.1,1.3,3.6,1.3,4.6c0,2.4-1.9,4.4-5.6,6
		C458.9,148.2,457.2,148.8,455.5,148.8z M453.8,144.4c0,0,0.2,0.3,0.8,0.7c0.8,0.6,2.8,0,4.3-0.7c2.2-0.9,3.5-2,3.5-2.9
		c0-0.1,0-0.9-1-3.3c-2.6-5.8-4.4-10-5.5-12.8l-0.7-1.6l1.2-1.2c3.5-3.4,5.3-7.9,5.3-13.3c0-3.1-0.6-6-1.9-8.5
		c-1.2-2.5-2.8-4.5-4.7-6c-4-3.1-8.2-4.7-12.4-4.7h-17.6c-3,0-4,0.7-4.1,0.8c-0.4,0.7-0.5,1.1-0.5,1.3c0,0.4-0.1,1.1-0.1,2.5v45.2
		c0,2.1,0.2,3,0.3,3.4c0.3,0.8,1.9,1.3,4.3,1.3c3.5,0,4.1-0.8,4.1-0.8c0.4-0.7,0.5-1.1,0.5-1.3c0.1-0.5,0.1-1.3,0.1-2.5v-11.8h12.8
		l4.2-0.3l0.7,1.7C452.1,140.6,453.4,143.7,453.8,144.4L453.8,144.4z M442.8,119.1h-13V99.6h12.8c2.3,0,4.4,0.8,6.5,2.4
		c2.2,1.7,3.4,4.3,3.4,7.4c0,3.2-1.2,5.7-3.4,7.4h0C447.1,118.3,444.9,119.1,442.8,119.1z M433.2,115.7h9.6c1.4,0,2.8-0.5,4.2-1.6
		l0,0c1.4-1,2-2.6,2-4.7c0-2.1-0.7-3.7-2-4.8c-1.4-1.1-2.9-1.7-4.4-1.7h-9.4V115.7z"/>
</g>
<g>
	<rect x="189.6" y="87" class="st0" width="165.2" height="61.4"/>
</g>
<g>
	<path class="st2" d="M204.3,126.4h9.2c0.6,0,0.9-0.1,1-0.2c0.1,0,0.1-0.1,0.1-0.2c0-0.1,0.1-0.4,0.1-0.9s-0.1-0.7-0.1-0.9
		c0-0.1-0.1-0.2-0.2-0.2c-0.1,0-0.3-0.1-0.9-0.1H206v-13.3c0-0.7-0.1-1-0.1-1.1c-0.1-0.4-0.9-0.5-1.5-0.5c-0.9,0-1.3,0.2-1.4,0.3
		c-0.1,0.2-0.2,0.4-0.2,0.5c0,0.2,0,0.4,0,0.8v14.2c0,0.7,0.1,1,0.1,1.1C203,126.3,203.7,126.4,204.3,126.4z"/>
	<path class="st2" d="M220.6,126.4c1.2,0,1.4-0.3,1.4-0.3c0.1-0.2,0.2-0.4,0.2-0.5c0-0.2,0-0.4,0-0.8v-14.2c0-0.7-0.1-1-0.1-1.1
		c-0.1-0.4-0.9-0.5-1.5-0.5c-0.9,0-1.3,0.2-1.4,0.3c-0.1,0.2-0.2,0.4-0.2,0.5c0,0.2,0,0.4,0,0.8v14.2c0,0.7,0.1,1,0.1,1.1
		C219.2,126.3,220,126.4,220.6,126.4z"/>
	<path class="st2" d="M228.4,126.4h9.2c0.6,0,0.9-0.1,1-0.2c0.1,0,0.1-0.1,0.1-0.2c0-0.1,0.1-0.4,0.1-0.9c0-0.4,0-0.7-0.1-0.9
		c0-0.1-0.1-0.2-0.2-0.2c-0.1,0-0.3-0.1-0.9-0.1H230v-13.3c0-0.7-0.1-1-0.1-1.2c-0.1-0.4-1-0.5-1.5-0.5c-1.2,0-1.4,0.3-1.4,0.3
		c-0.1,0.2-0.2,0.4-0.2,0.5c0,0.2,0,0.4,0,0.8v14.2c0,0.7,0.1,1,0.1,1.1C227,126.3,227.8,126.4,228.4,126.4z"/>
	<path class="st2" d="M244.6,126.4h9.2c0.6,0,0.9-0.1,1-0.2c0.1,0,0.1-0.1,0.1-0.2c0-0.1,0.1-0.4,0.1-0.9c0-0.4,0-0.7-0.1-0.9
		c0-0.1-0.1-0.2-0.2-0.2c-0.1,0-0.3-0.1-0.9-0.1h-7.6v-13.3c0-0.7-0.1-1-0.1-1.2c-0.1-0.4-1-0.5-1.5-0.5c-1.2,0-1.4,0.3-1.4,0.3
		c-0.1,0.2-0.2,0.4-0.2,0.5c0,0.2,0,0.4,0,0.8v14.2c0,0.7,0.1,1,0.1,1.1C243.3,126.3,244,126.4,244.6,126.4z"/>
	<path class="st2" d="M272.6,124.8c0-0.9-0.2-1.3-0.3-1.4c-0.2-0.1-0.4-0.2-0.5-0.2c-0.2,0-0.4,0-0.8,0h-8.5v-3.8h5.6
		c0.6,0,1-0.1,1.1-0.1c0.4-0.1,0.5-0.9,0.5-1.5c0-1.2-0.3-1.4-0.3-1.4c-0.2-0.1-0.4-0.2-0.5-0.2c-0.2,0-0.4,0-0.8,0h-5.7v-3.8h8.5
		c0.7,0,1-0.1,1.1-0.1c0.5-0.1,0.5-1,0.5-1.5c0-0.9-0.2-1.3-0.3-1.4c-0.2-0.1-0.4-0.2-0.5-0.2c-0.2,0-0.4,0-0.8,0h-10
		c-1,0-1.3,0.2-1.4,0.3c-0.1,0.1-0.3,0.4-0.3,1.3v14.2c0,0.7,0.1,1,0.1,1.1c0.1,0.5,0.9,0.6,1.5,0.6h10.1c0.7,0,1-0.1,1.1-0.1
		C272.5,126.2,272.6,125.3,272.6,124.8z"/>
	<path class="st2" d="M297.2,123.8c-0.1-0.2-0.1-0.3-0.3-0.4c-0.1-0.1-0.4-0.2-1.2-0.2h-5.3v-1.1l0.4-0.3l0.6-0.3
		c0.9-0.4,2-1.1,3.2-2.2c0.5-0.5,1-1.1,1.4-1.9c0.4-0.8,0.6-1.6,0.6-2.5c0-1.7-0.6-3.1-1.7-4.4c-1.2-1.3-2.6-1.9-4.5-1.9
		s-3.3,0.6-4.5,1.9c-1.2,1.3-1.7,2.7-1.7,4.3c0,0.7,0.1,1,0.1,1.1c0.1,0.4,0.9,0.5,1.5,0.5c1.2,0,1.4-0.3,1.4-0.3
		c0.1-0.2,0.1-0.3,0.1-0.4c0-0.2,0-0.4,0-0.8l0-0.3l0.1-0.6c0.1-0.5,0.4-1,0.9-1.5c0.5-0.5,1.1-0.8,1.9-0.8c0.7,0,1.2,0.1,1.6,0.3
		c0.4,0.2,0.7,0.4,0.9,0.7c0.2,0.2,0.3,0.5,0.5,0.8c0.2,0.4,0.2,0.7,0.2,0.9c0,0.9-0.4,1.8-1.1,2.6c-0.7,0.7-1.5,1.4-2.4,1.9
		c-0.9,0.5-1.8,1.1-2.7,1.6c-0.8,0.5-1.6,1.1-2.1,1.8c-0.5,0.7-0.8,1.4-0.8,2.1c0,0.4,0.2,0.8,0.5,1.2c0.3,0.3,0.7,0.5,1.1,0.5h10
		c0.7,0,1.1-0.1,1.3-0.2c0.1,0,0.2-0.1,0.2-0.3c0.1-0.3,0.1-0.6,0.1-1.1C297.3,124.4,297.3,124,297.2,123.8z"/>
	<path class="st2" d="M312,124.7c1.2-1.7,1.9-4,1.9-6.9c0-1.6-0.2-3.2-0.7-4.7c-0.3-0.8-0.7-1.6-1.1-2.2c-0.4-0.6-1.1-1.1-1.8-1.5
		c-0.8-0.4-1.7-0.6-2.8-0.6c-1.1,0-2,0.2-2.8,0.6c-0.8,0.4-1.4,0.9-1.9,1.5l0,0c-0.5,0.6-0.9,1.5-1.2,2.7c-0.4,1.1-0.6,2.5-0.6,4.2
		c0,1.8,0.2,3.4,0.7,4.8c0.3,0.8,0.7,1.6,1.1,2.2c0.4,0.6,1.1,1.1,1.9,1.5c1.6,0.8,4,0.8,5.5,0C310.9,125.8,311.5,125.3,312,124.7z
		 M307.3,123.5c-2.1,0-3.2-1.9-3.2-5.8s1.1-5.8,3.2-5.8c2.1,0,3.2,1.9,3.2,5.8C310.6,121.6,309.5,123.5,307.3,123.5z"/>
	<path class="st2" d="M321.9,125.7c0,0.1,0.1,0.3,0.2,0.5c0.1,0.1,0.5,0.3,1.4,0.3c0.9,0,1.3-0.2,1.4-0.3c0.1-0.2,0.2-0.4,0.2-0.5
		c0-0.2,0-0.4,0-0.8v-14.2c0-0.7-0.1-1-0.1-1.2c-0.1-0.2-0.1-0.2-0.1-0.2c0,0-0.2-0.1-0.5-0.2c-0.2-0.1-0.6-0.1-1-0.1
		c-0.3,0-0.7,0.2-1,0.5l-0.2,0.1l-4.1,3.7c-0.6,0.5-0.7,0.9-0.7,1c0,0.3,0.2,0.7,0.6,1.2c0.4,0.4,0.8,0.7,1.1,0.7
		c0.2,0,0.7-0.1,1.4-0.7l1.4-1.2v10.5C321.8,125.2,321.9,125.5,321.9,125.7z"/>
	<path class="st2" d="M341.1,119.3c-0.5-0.8-0.7-1.1-0.8-1.2c-0.2-0.2-0.4-0.4-0.5-0.5l-0.6-0.4l0.9-0.9c0.2-0.2,0.4-0.6,0.6-1
		c0.2-0.4,0.3-0.9,0.3-1.3c0-1.5-0.5-2.8-1.6-3.8c-1.1-1-2.4-1.5-3.9-1.5c-1.5,0-2.8,0.5-4,1.5c-1.1,1-1.7,2.2-1.7,3.6
		c0,0.5,0.1,1,0.4,1.5c0.3,0.7,0.5,0.9,0.6,0.9c0.2,0.2,0.3,0.3,0.4,0.4l0.5,0.5l-1.1,1c-0.3,0.3-0.6,0.7-0.9,1.3
		c-0.3,0.6-0.5,1.2-0.5,1.8c0,1.7,0.6,3.1,1.8,4.1c1.3,1.1,2.7,1.6,4.3,1.6s3-0.5,4.3-1.6c1.2-1,1.8-2.4,1.8-4.1
		C341.6,120.5,341.4,119.9,341.1,119.3z M333.7,112.3c0.4-0.4,1-0.6,1.7-0.6c0.7,0,1.3,0.2,1.7,0.6c0.4,0.4,0.6,0.9,0.6,1.4
		c0,0.5-0.2,1-0.6,1.4c-0.4,0.4-1,0.7-1.7,0.7c-0.7,0-1.3-0.2-1.7-0.7c-0.4-0.4-0.6-0.9-0.6-1.4
		C333.1,113.2,333.3,112.8,333.7,112.3z M337.6,122.9c-0.5,0.5-1.2,0.8-2.2,0.8c-0.9,0-1.7-0.3-2.2-0.8l0,0
		c-0.5-0.5-0.8-1.1-0.8-1.8c0-0.6,0.3-1.2,0.8-1.8c0.5-0.5,1.2-0.8,2.2-0.8c0.9,0,1.6,0.3,2.1,0.8c0.5,0.5,0.7,1.1,0.7,1.7
		C338.3,121.8,338.1,122.4,337.6,122.9z"/>
</g>
<path class="st1" d="M176,106.6L176,106.6c-0.1-0.3-0.2-0.5-0.4-0.7l-0.1-0.2c-0.1-0.2-0.1-0.5-0.2-0.7l-26.5-66.2
	c-0.9-2.1-2.5-3.8-4.6-4.7c-2.1-0.9-4.5-0.9-6.6-0.1c-2.1,0.9-3.8,2.5-4.7,4.6c-0.9,2.1-0.9,4.5-0.1,6.6l26.5,66.2
	c0.1,0.4,0.3,0.7,0.4,0.8l0.1,0.2c0.1,0.2,0.1,0.4,0.2,0.6c2.5,6.3-0.6,13.4-6.8,15.9c-3,1.2-6.4,1.2-9.4-0.1
	c-3-1.3-5.3-3.7-6.6-6.7c-0.1-0.2-0.2-0.5-0.4-0.7l-0.1-0.2c-0.1-0.2-0.1-0.5-0.2-0.7L104,39.2c-0.1-0.6-0.3-1.2-0.5-1.7
	c-0.5-1.2-1.1-2.4-1.9-3.8C94.3,21.1,78.6,15.6,65,21C57.7,24,52,29.6,48.8,36.9c-3.1,7.3-3.2,15.3-0.3,22.6
	c0.2,0.5,0.4,0.9,0.6,1.2l20.7,51.8c0.1,0.2,0.1,0.3,0.3,0.6c2.4,6.2-0.7,13.3-6.9,15.8c-3,1.2-6.4,1.2-9.4-0.1
	c-2.7-1.2-4.8-3.2-6.1-5.9l-20.4-51c-0.9-2.1-2.5-3.8-4.6-4.7c-2.1-0.9-4.5-0.9-6.6-0.1c-4.4,1.8-6.6,6.8-4.8,11.3l19.7,49.2
	l0.1,0.2c0.1,0.3,0.1,0.5,0.2,0.8c0.2,0.5,0.4,1,0.7,1.5l0.3,0.8c0.3,0.7,0.7,1.4,1.1,2c3.2,5.4,7.9,9.5,13.7,12
	c7.2,3.1,15.3,3.2,22.6,0.3c7.3-2.9,13.1-8.6,16.2-15.8c3.1-7.3,3.2-15.3,0.3-22.6c-0.1-0.1-0.1-0.3-0.3-0.5L65,53.5
	c-0.1-0.3-0.2-0.5-0.4-0.8l-0.1-0.1c-2.3-6.3,0.8-13.1,7-15.6c5.6-2.2,12.1,0,15.1,5.1l33.9,84.7c0.1,0.4,0.3,0.7,0.4,0.8l0.1,0.2
	c0.1,0.2,0.1,0.4,0.2,0.6c2.9,7.3,8.6,13.1,15.8,16.2c3.7,1.6,7.6,2.4,11.7,2.4c3.8,0,7.5-0.7,11-2.1c7.3-2.9,13.1-8.6,16.2-15.8
	C178.8,121.9,178.9,113.9,176,106.6z"/>
<path class="st3" d="M138.1,16c-0.7-2.1-2.2-3.8-4.1-4.9c-2-1-4.2-1.2-6.4-0.5c-2.1,0.7-3.8,2.2-4.9,4.1c-1,2-1.2,4.2-0.5,6.4
	c0.7,2.1,2.2,3.8,4.1,4.9c1.2,0.6,2.5,0.9,3.8,0.9c0.9,0,1.7-0.1,2.6-0.4C137.1,25.1,139.5,20.4,138.1,16z"/>
</svg>
