<?xml version="1.0" encoding="utf-8"?>
<!-- Generator: Adobe Illustrator 16.0.0, SVG Export Plug-In . SVG Version: 6.00 Build 0)  -->
<!DOCTYPE svg PUBLIC "-//W3C//DTD SVG 1.1//EN" "http://www.w3.org/Graphics/SVG/1.1/DTD/svg11.dtd">
<svg version="1.1"
	 id="svg5380" xmlns:dc="http://purl.org/dc/elements/1.1/" xmlns:cc="http://creativecommons.org/ns#" xmlns:rdf="http://www.w3.org/1999/02/22-rdf-syntax-ns#" xmlns:svg="http://www.w3.org/2000/svg" xmlns:sodipodi="http://sodipodi.sourceforge.net/DTD/sodipodi-0.dtd" xmlns:inkscape="http://www.inkscape.org/namespaces/inkscape" inkscape:export-xdpi="34.96151" inkscape:export-filename="/home/nicky/Projects/pycon fr logo design/pycon-fr-2016-sans-serif.png" sodipodi:docname="pycon-fr-2016-sans-serif.svg" inkscape:version="0.91 r13725" inkscape:export-ydpi="34.96151"
	 xmlns="http://www.w3.org/2000/svg" xmlns:xlink="http://www.w3.org/1999/xlink" x="0px" y="0px" width="1234.811px"
	 height="1021.465px" viewBox="0 0 1234.811 1021.465" enable-background="new 0 0 1234.811 1021.465" xml:space="preserve">
<sodipodi:namedview  showguides="false" fit-margin-left="0" fit-margin-top="0" showgrid="false" inkscape:cy="417.47229" inkscape:cx="526.53723" inkscape:zoom="0.35" borderopacity="1.0" bordercolor="#666666" pagecolor="#ffffff" id="base" inkscape:guide-bbox="true" inkscape:window-maximized="1" inkscape:window-y="27" inkscape:window-x="0" inkscape:window-height="836" inkscape:window-width="1600" fit-margin-bottom="0" fit-margin-right="0" inkscape:pageshadow="2" inkscape:current-layer="layer1" inkscape:pageopacity="0.0" inkscape:document-units="px">
	<sodipodi:guide  orientation="1,0" position="1949.2647,-525.1052" id="guide4317"></sodipodi:guide>
	<sodipodi:guide  orientation="0,1" position="1117.8361,-547.96234" id="guide4319"></sodipodi:guide>
	<sodipodi:guide  orientation="0,1" position="2678.9246,-366.68543" id="guide4321"></sodipodi:guide>
	<sodipodi:guide  orientation="1,0" position="3163.7978,-441.9418" id="guide4323"></sodipodi:guide>
	<sodipodi:guide  orientation="0,1" position="2723.5504,-296.53376" id="guide4325"></sodipodi:guide>
</sodipodi:namedview>
<g id="layer1" transform="translate(907.45605,87.076424)" inkscape:label="Layer 1" inkscape:groupmode="layer">
	<rect id="rect4557" x="-907.456" y="-87.076" display="none" fill="#FFFFFF" width="1234.811" height="1021.465"/>
	<path id="path4417" inkscape:connector-curvature="0" d="M-749.224,339.049h23.794c6.409,0,11.777-1.122,16.103-3.365
		s7.691-4.967,10.095-8.172c2.564-3.205,4.326-6.649,5.288-10.334c1.122-3.686,1.683-6.97,1.683-9.854
		c0-3.044-0.561-6.329-1.683-9.854c-0.961-3.686-2.724-7.05-5.288-10.095c-2.564-3.205-6.009-5.849-10.335-7.932
		c-4.166-2.083-9.374-3.125-15.623-3.125h-24.035V339.049L-749.224,339.049z M-775.663,426.055V251.802h47.589
		c9.133,0,17.465,1.202,24.996,3.605c7.691,2.404,14.261,6.009,19.708,10.816c5.608,4.646,9.935,10.415,12.979,17.305
		c3.044,6.73,4.566,14.501,4.566,23.314c0,6.89-1.042,13.78-3.125,20.669c-2.083,6.729-5.448,12.818-10.095,18.267
		c-4.646,5.288-10.735,9.614-18.266,12.979c-7.531,3.365-16.664,5.048-27.4,5.048h-24.515v62.25H-775.663L-775.663,426.055z"/>
	<path id="path4419" inkscape:connector-curvature="0" d="M-562.605,368.611v57.444h-26.438v-57.444
		c-1.122-1.763-3.365-5.608-6.729-11.537c-3.205-5.928-7.051-12.898-11.537-20.91c-4.326-8.171-9.053-16.824-14.181-25.957
		c-4.967-9.133-9.694-17.706-14.18-25.717c-4.327-8.172-8.172-15.222-11.537-21.15c-3.205-5.929-5.368-9.774-6.49-11.537h29.803
		c1.442,2.403,4.006,7.05,7.691,13.94c3.686,6.73,7.771,14.421,12.258,23.073c4.486,8.492,9.053,17.145,13.699,25.958
		c4.646,8.653,8.572,16.104,11.777,22.353l2.644,7.932c0.641-1.282,1.202-2.564,1.683-3.846c0.48-1.442,0.961-2.805,1.441-4.086
		c3.365-6.249,7.291-13.7,11.777-22.353c4.486-8.812,8.893-17.465,13.219-25.958c4.487-8.652,8.493-16.343,12.018-23.073
		c3.686-6.89,6.249-11.537,7.691-13.94h29.562L-562.605,368.611L-562.605,368.611z"/>
	<path id="path4421" inkscape:connector-curvature="0" d="M-349.36,413.556c-1.923,1.441-4.646,3.044-8.172,4.807
		c-3.364,1.603-7.37,3.124-12.017,4.566c-4.647,1.442-9.854,2.643-15.623,3.606c-5.608,0.961-11.616,1.441-18.026,1.441
		c-13.619,0-25.877-2.324-36.772-6.97c-10.735-4.807-19.869-11.216-27.399-19.228c-7.531-8.012-13.3-17.305-17.306-27.881
		c-4.006-10.575-6.009-21.791-6.009-33.648c0-13.139,2.324-25.236,6.971-36.292c4.807-11.056,11.296-20.59,19.468-28.602
		c8.172-8.011,17.706-14.26,28.602-18.747c11.056-4.486,22.753-6.729,35.091-6.729c4.646,0,9.373,0.32,14.181,0.961
		c4.807,0.641,9.293,1.522,13.459,2.644c4.326,1.122,8.092,2.484,11.296,4.086c3.365,1.442,5.929,2.964,7.691,4.567
		c-1.281,1.922-2.323,3.525-3.124,4.807c-0.642,1.282-1.362,2.644-2.163,4.086c-0.802,1.282-1.683,2.804-2.645,4.566
		c-0.961,1.763-2.243,4.086-3.846,6.97c-2.083-1.442-4.566-2.644-7.45-3.605c-2.724-0.961-5.608-1.763-8.652-2.404
		c-3.045-0.641-6.169-1.122-9.374-1.442c-3.044-0.32-5.849-0.481-8.412-0.48c-9.293,0-17.945,1.762-25.957,5.287
		c-7.852,3.365-14.661,8.012-20.43,13.94c-5.769,5.768-10.335,12.498-13.7,20.189c-3.204,7.691-4.807,15.703-4.807,24.035
		c0,8.172,1.522,16.023,4.566,23.555c3.205,7.53,7.531,14.26,12.979,20.188c5.608,5.929,12.258,10.655,19.949,14.181
		c7.852,3.525,16.424,5.288,25.717,5.288c4.968,0,9.774-0.481,14.421-1.442c4.647-0.962,8.813-2.083,12.498-3.365
		c3.846-1.281,6.971-2.563,9.374-3.846c2.563-1.281,4.086-2.243,4.566-2.884L-349.36,413.556L-349.36,413.556z"/>
	<path id="path4423" inkscape:connector-curvature="0" d="M-334.916,339.049c0-12.018,2.323-23.394,6.97-34.129
		c4.647-10.896,10.977-20.43,18.988-28.602c8.172-8.172,17.625-14.581,28.36-19.228c10.735-4.807,22.272-7.21,34.61-7.21
		c12.178,0,23.634,2.403,34.369,7.21c10.896,4.646,20.35,11.056,28.361,19.228c8.172,8.172,14.581,17.706,19.228,28.602
		c4.808,10.735,7.211,22.112,7.211,34.129c0,12.338-2.403,23.874-7.211,34.609c-4.646,10.736-11.056,20.189-19.228,28.361
		c-8.012,8.012-17.465,14.341-28.361,18.987c-10.735,4.646-22.191,6.97-34.369,6.97c-12.338,0-23.875-2.324-34.61-6.97
		c-10.735-4.646-20.188-10.976-28.36-18.987c-8.012-8.172-14.341-17.625-18.988-28.361
		C-332.593,362.923-334.916,351.386-334.916,339.049L-334.916,339.049z M-308.718,339.289c0,8.812,1.603,17.145,4.807,24.996
		c3.365,7.691,7.932,14.421,13.7,20.189c5.768,5.768,12.498,10.335,20.188,13.699c7.691,3.365,15.863,5.048,24.516,5.048
		s16.744-1.683,24.275-5.048c7.691-3.364,14.341-7.932,19.948-13.699c5.769-5.769,10.255-12.498,13.46-20.189
		c3.365-7.852,5.047-16.264,5.047-25.236c0-8.813-1.682-17.065-5.047-24.756c-3.205-7.852-7.691-14.661-13.46-20.43
		c-5.768-5.768-12.498-10.335-20.188-13.7c-7.531-3.365-15.623-5.047-24.275-5.047s-16.824,1.683-24.516,5.047
		s-14.421,7.932-20.188,13.7c-5.608,5.769-10.095,12.578-13.46,20.43C-307.116,322.144-308.718,330.476-308.718,339.289z"/>
	<path id="path4425" inkscape:connector-curvature="0" d="M33.624,251.802v182.182c-2.244-2.883-6.57-7.529-12.979-13.939
		c-6.409-6.409-13.779-13.78-22.111-22.112s-17.226-17.064-26.679-26.197c-9.294-9.134-18.106-17.786-26.438-25.958
		c-8.332-8.332-15.622-15.703-21.871-22.112c-6.249-6.57-10.415-11.216-12.498-13.94l-4.567-6.249l0.722,7.691v114.887h-26.438
		V243.631c1.763,2.243,4.646,5.448,8.652,9.614c4.166,4.166,8.973,9.053,14.421,14.661c5.608,5.448,11.697,11.376,18.267,17.786
		c6.729,6.409,13.459,12.899,20.189,19.468c6.89,6.569,13.619,13.059,20.188,19.468c6.729,6.249,12.818,12.098,18.267,17.545
		c5.608,5.448,10.415,10.255,14.421,14.421s6.81,7.291,8.412,9.374l4.566,6.729l-0.721-8.172V251.802H33.624L33.624,251.802z"/>
	<g id="g4254" transform="matrix(1.0562413,0,0,1.0562413,-26.507351,-31.137672)">
		<path id="path4428" sodipodi:nodetypes="cccscccsscccccccc" inkscape:connector-curvature="0" d="M89.19,365.544V348.8h14.153
			v-8.137c0-17.409,4.053-30.3,12.16-38.672c8.24-8.505,19.868-12.957,34.885-13.356v16.346c-10.366,0.532-17.94,3.854-22.725,9.967
			c-4.785,6.113-7.177,14.818-7.177,26.114v7.738H146.8v16.744h-26.313v66.78h-17.143v-66.78H89.19z"/>
		<path id="path4430" inkscape:connector-curvature="0" d="M206.456,368.733c-3.72,0-7.309,0.532-10.764,1.595
			c-3.455,0.93-6.578,2.392-9.37,4.385c-2.657,1.993-4.784,4.518-6.379,7.575c-1.595,2.924-2.392,6.313-2.392,10.167v39.869h-16.945
			v-83.325h14.951c0.265,4.12,0.465,7.908,0.597,11.363c0.266,3.322,0.533,6.645,0.798,9.967c1.728-3.588,3.987-6.844,6.778-9.768
			c2.79-2.923,5.78-5.382,8.97-7.375c3.19-1.993,6.312-3.522,9.369-4.585c3.057-1.196,5.781-1.795,8.173-1.795L206.456,368.733
			L206.456,368.733z"/>
	</g>
	<path id="path4258" inkscape:connector-curvature="0" d="M-775.715,463.158h534.312V603.57h-534.312V463.158z"/>
	<path id="path4433" inkscape:connector-curvature="0" fill="#FFFFFF" d="M-746.939,574.412V492.43h22.39
		c4.297,0,8.217,0.564,11.76,1.695c3.618,1.131,6.709,2.828,9.272,5.09c2.638,2.186,4.674,4.898,6.106,8.141
		c1.433,3.166,2.148,6.822,2.148,10.969c0,2.262-0.226,4.523-0.678,6.785c-0.452,2.186-1.206,4.334-2.262,6.445
		c-0.98,2.035-2.261,3.957-3.845,5.768c-1.583,1.732-3.505,3.203-5.767,4.41c3.015,4.748,6.294,10.025,9.838,15.83
		c3.543,5.729,7.124,11.346,10.742,16.85h-14.813c-1.507-2.338-3.091-4.787-4.749-7.352c-1.583-2.562-3.204-5.088-4.862-7.576
		c-1.583-2.562-3.167-5.051-4.75-7.463c-1.508-2.488-2.94-4.787-4.297-6.898h-2.262H-734.5v29.289H-746.939L-746.939,574.412z
		 M-734.5,533.477h11.194c3.016,0,5.541-0.49,7.576-1.469c2.036-1.057,3.619-2.338,4.75-3.846c1.206-1.508,2.036-3.129,2.488-4.861
		c0.528-1.734,0.792-3.318,0.792-4.75s-0.264-2.979-0.792-4.637c-0.452-1.734-1.282-3.316-2.488-4.748
		c-1.206-1.508-2.827-2.752-4.862-3.732c-1.96-0.98-4.41-1.471-7.35-1.471H-734.5V533.477L-734.5,533.477z"/>
	<path id="path4435" inkscape:connector-curvature="0" fill="#FFFFFF" d="M-669.423,574.412V492.43h53.825v11.195h-41.387v23.973
		h36.863v11.42h-36.863v23.973h42.97v11.422H-669.423L-669.423,574.412z"/>
	<path id="path4437" inkscape:connector-curvature="0" fill="#FFFFFF" d="M-521.314,492.43v85.713
		c-1.056-1.357-3.091-3.543-6.106-6.559s-6.483-6.482-10.403-10.402s-8.104-8.029-12.552-12.326
		c-4.372-4.297-8.519-8.367-12.438-12.213c-3.92-3.92-7.35-7.387-10.29-10.402c-2.94-3.092-4.9-5.277-5.88-6.559l-2.148-2.939
		l0.339,3.617v54.053h-12.438v-85.828c0.829,1.057,2.187,2.564,4.07,4.523c1.961,1.961,4.222,4.26,6.785,6.898
		c2.639,2.562,5.503,5.352,8.594,8.367c3.166,3.016,6.333,6.068,9.499,9.16c3.241,3.09,6.407,6.143,9.498,9.158
		c3.167,2.941,6.031,5.691,8.595,8.256c2.638,2.562,4.899,4.824,6.784,6.785c1.885,1.959,3.204,3.43,3.958,4.41l2.148,3.166
		l-0.34-3.846V492.43H-521.314L-521.314,492.43z"/>
	<path id="path4439" inkscape:connector-curvature="0" fill="#FFFFFF" d="M-422.817,492.43v85.713
		c-1.056-1.357-3.091-3.543-6.106-6.559s-6.483-6.482-10.403-10.402s-8.104-8.029-12.552-12.326
		c-4.372-4.297-8.519-8.367-12.438-12.213c-3.92-3.92-7.35-7.387-10.29-10.402c-2.94-3.092-4.9-5.277-5.88-6.559l-2.148-2.939
		l0.339,3.617v54.053h-12.438v-85.828c0.829,1.057,2.187,2.564,4.07,4.523c1.961,1.961,4.222,4.26,6.785,6.898
		c2.639,2.562,5.503,5.352,8.594,8.367c3.166,3.016,6.333,6.068,9.499,9.16c3.241,3.09,6.407,6.143,9.498,9.158
		c3.167,2.941,6.031,5.691,8.595,8.256c2.638,2.562,4.899,4.824,6.784,6.785c1.885,1.959,3.204,3.43,3.958,4.41l2.148,3.166
		l-0.34-3.846V492.43H-422.817L-422.817,492.43z"/>
	<path id="path4441" inkscape:connector-curvature="0" fill="#FFFFFF" d="M-396.238,574.412V492.43h53.825v11.195H-383.8v23.973
		h36.863v11.42H-383.8v23.973h42.97v11.422H-396.238L-396.238,574.412z"/>
	<path id="path4443" inkscape:connector-curvature="0" fill="#FFFFFF" d="M-273.12,496.953l-4.41,10.062
		c-3.091-1.129-6.182-2.035-9.272-2.713c-3.016-0.678-5.918-1.018-8.707-1.018c-4.749,0-8.556,0.98-11.421,2.939
		c-2.789,1.961-4.184,4.447-4.184,7.463c0,2.564,1.018,4.637,3.053,6.221c2.035,1.508,4.561,2.902,7.576,4.184
		c3.016,1.205,6.295,2.449,9.838,3.73c3.543,1.207,6.822,2.789,9.838,4.75s5.541,4.447,7.576,7.463
		c2.035,2.939,3.054,6.748,3.054,11.422c0,3.617-0.679,6.896-2.036,9.838c-1.281,2.863-3.241,5.352-5.88,7.463
		c-2.563,2.111-5.805,3.73-9.725,4.861c-3.845,1.131-8.368,1.697-13.569,1.697c-3.317,0-6.332-0.227-9.047-0.68
		c-2.638-0.451-5.051-1.018-7.236-1.695c-2.111-0.754-3.996-1.545-5.654-2.375c-1.583-0.828-2.939-1.582-4.07-2.262l5.428-10.742
		c3.016,1.734,6.37,3.129,10.063,4.184c3.694,1.057,7.049,1.584,10.064,1.584c1.508,0,3.354-0.189,5.541-0.566
		c2.261-0.377,4.409-1.018,6.445-1.922c2.035-0.98,3.77-2.262,5.201-3.844c1.508-1.584,2.262-3.582,2.262-5.994
		c0-2.186-0.603-4.033-1.81-5.541c-1.131-1.582-2.676-2.939-4.636-4.07c-1.885-1.207-4.071-2.262-6.559-3.166
		c-2.412-0.98-4.9-1.961-7.463-2.939c-2.563-1.057-5.089-2.15-7.577-3.279c-2.412-1.131-4.598-2.488-6.558-4.072
		c-1.885-1.658-3.431-3.543-4.637-5.654c-1.131-2.186-1.696-4.785-1.696-7.801c0-2.789,0.565-5.541,1.696-8.256
		c1.131-2.713,2.827-5.125,5.089-7.236s5.051-3.807,8.367-5.088c3.393-1.283,7.312-1.924,11.761-1.924
		c2.714,0,5.353,0.227,7.915,0.68c2.639,0.451,5.014,0.979,7.124,1.582c2.111,0.527,3.883,1.057,5.314,1.584
		C-274.553,496.35-273.572,496.727-273.12,496.953L-273.12,496.953z"/>
	<path id="path4446" inkscape:connector-curvature="0" d="M-158.86,583.473h48.754v18.543h-94.592
		c8.612-8.75,16.946-17.225,25.002-25.418c8.195-8.195,15.418-16.113,21.669-23.752c6.251-7.779,11.251-15.211,15.001-22.295
		c3.89-7.223,5.834-14.168,5.834-20.834c0-4.863-0.833-9.029-2.5-12.502c-1.667-3.611-3.75-6.529-6.251-8.75
		c-2.361-2.361-5-4.098-7.917-5.209s-5.625-1.668-8.126-1.668c-5.139,0-9.376,0.904-12.709,2.709
		c-3.195,1.807-5.765,4.027-7.709,6.668c-1.944,2.5-3.334,5.139-4.167,7.916c-0.694,2.779-1.042,5.209-1.042,7.293
		c0,4.723,0.694,8.82,2.083,12.293c1.528,3.473,3.543,6.598,6.043,9.375l-11.251,11.877c-2.501-1.527-4.792-3.611-6.876-6.25
		c-1.944-2.779-3.611-5.695-5-8.752c-1.39-3.193-2.431-6.389-3.126-9.584c-0.694-3.334-1.041-6.32-1.041-8.959
		c0-5.557,0.972-10.904,2.917-16.043c1.944-5.277,4.792-9.932,8.542-13.959c3.89-4.029,8.612-7.223,14.168-9.584
		s11.945-3.543,19.168-3.543c6.668,0,12.71,1.182,18.127,3.543s10.001,5.625,13.751,9.791c3.89,4.029,6.876,8.752,8.959,14.168
		c2.223,5.279,3.334,10.834,3.334,16.668c0,6.807-1.111,13.475-3.334,20.002c-2.222,6.391-5.278,12.779-9.167,19.17
		c-3.751,6.25-8.126,12.432-13.126,18.543C-148.305,571.041-153.443,577.223-158.86,583.473L-158.86,583.473z"/>
	<path id="path4448" inkscape:connector-curvature="0" d="M-92.611,532.635c0-10.973,1.458-20.766,4.375-29.377
		c3.056-8.752,7.084-16.113,12.085-22.086c5.139-5.973,11.182-10.486,18.126-13.543c6.945-3.057,14.446-4.584,22.502-4.584
		c8.474,0,16.183,1.736,23.127,5.209c6.945,3.473,12.849,8.334,17.71,14.584c5.001,6.113,8.82,13.543,11.46,22.295
		c2.777,8.611,4.098,18.195,3.958,28.752c-0.139,10.973-1.666,20.766-4.583,29.377c-2.917,8.613-6.945,15.975-12.085,22.086
		c-5.139,5.973-11.182,10.557-18.126,13.752c-6.807,3.055-14.237,4.582-22.294,4.582c-7.778,0-15.071-1.596-21.877-4.791
		c-6.807-3.195-12.779-7.779-17.918-13.752c-5.14-6.111-9.168-13.543-12.085-22.293S-92.611,544.026-92.611,532.635L-92.611,532.635
		z M-73.234,533.26c-0.14,7.084,0.764,13.752,2.708,20.002s4.584,11.736,7.918,16.459c3.333,4.723,7.223,8.473,11.667,11.252
		c4.584,2.777,9.445,4.166,14.585,4.166s10.001-1.318,14.585-3.959c4.583-2.639,8.542-6.318,11.876-11.041
		c3.472-4.723,6.181-10.211,8.125-16.461c2.084-6.389,3.126-13.125,3.126-20.209c0-5.141-0.625-10.695-1.876-16.668
		c-1.11-6.113-3.125-11.738-6.042-16.877c-2.917-5.279-6.736-9.654-11.459-13.127s-10.557-5.209-17.502-5.209
		c-7.223,0-13.265,1.807-18.126,5.418c-4.723,3.611-8.543,8.125-11.46,13.543c-2.917,5.277-5,10.904-6.25,16.877
		S-73.234,528.676-73.234,533.26z"/>
	<path id="path4450" inkscape:connector-curvature="0" d="M40.457,483.256v-18.543h32.711v137.303H53.791v-118.76H40.457z"/>
	<path id="path4452" inkscape:connector-curvature="0" d="M122.482,557.637c0,3.75,0.694,7.293,2.083,10.627
		c1.39,3.332,3.265,6.25,5.626,8.75s5.14,4.514,8.334,6.043c3.194,1.389,6.667,2.082,10.417,2.082c3.751,0,7.293-0.693,10.627-2.082
		c3.333-1.529,6.25-3.543,8.75-6.043s4.445-5.418,5.834-8.75c1.528-3.334,2.292-6.877,2.292-10.627s-0.764-7.293-2.292-10.625
		c-1.389-3.334-3.334-6.252-5.834-8.752s-5.417-4.445-8.75-5.834c-3.334-1.389-6.876-2.082-10.627-2.082
		c-3.611,0-7.083,0.693-10.417,2.082c-3.194,1.389-5.973,3.334-8.334,5.834s-4.236,5.418-5.626,8.752
		C123.177,550.344,122.482,553.887,122.482,557.637z M102.898,557.637c0-7.361,1.111-14.307,3.333-20.836
		c2.361-6.666,5.417-12.848,9.168-18.543c3.89-5.834,8.195-11.182,12.918-16.043c4.861-5,9.792-9.584,14.793-13.75
		c5.139-4.307,10.14-8.195,15.001-11.668s9.237-6.598,13.126-9.377c1.944,2.361,3.89,4.793,5.834,7.293
		c2.084,2.5,4.098,4.932,6.042,7.293c-4.027,2.777-8.334,5.764-12.918,8.959c-4.583,3.193-9.028,6.389-13.334,9.584
		s-8.126,6.25-11.459,9.168c-3.334,2.916-5.765,5.348-7.293,7.291c1.39-1.527,2.986-2.777,4.792-3.75s3.82-1.459,6.042-1.459
		c6.251,0,12.224,1.182,17.919,3.543c5.694,2.361,10.626,5.625,14.793,9.793c4.306,4.027,7.709,8.82,10.209,14.375
		c2.5,5.557,3.751,11.529,3.751,17.918c0,6.391-1.251,12.432-3.751,18.127c-2.5,5.557-5.903,10.418-10.209,14.586
		c-4.167,4.166-9.099,7.5-14.793,10c-5.556,2.361-11.46,3.543-17.71,3.543c-5.278,0-10.626-0.904-16.043-2.709
		c-5.417-1.807-10.418-4.584-15.002-8.334c-4.444-3.891-8.125-8.682-11.042-14.377C104.286,572.43,102.898,565.555,102.898,557.637
		L102.898,557.637z"/>
	<g id="g4301" transform="translate(-1872.0332,0.492976)">
		
			<path id="path4303" sodipodi:nodetypes="scscscscs" inkscape:connector-curvature="0" inkscape:export-xdpi="17.062151" inkscape:export-ydpi="17.062151" d="
			M1713.378,337.603c0,25.97-8.271,47.108-24.811,63.419c-16.373,16.151-37.09,24.227-62.151,24.227
			c-24.894,0-45.694-8.155-62.401-24.465c-16.707-16.468-25.061-37.607-25.061-63.418c0-25.969,8.604-46.712,25.812-62.23
			c17.209-15.676,37.759-23.515,61.649-23.515c23.892,0,44.358,7.838,61.399,23.515
			C1704.857,290.654,1713.378,311.476,1713.378,337.603L1713.378,337.603z"/>
		
			<g id="g4305" transform="matrix(1.6263847,0,0,1.6263847,-13561.807,-4608.4071)" inkscape:export-xdpi="17.062151" inkscape:export-ydpi="17.062151">
			<path id="path4307" inkscape:connector-curvature="0" fill="#FFFFFF" d="M9337.956,2996.664
				c-3.668,0.017-7.169,0.33-10.251,0.875c-9.077,1.604-10.725,4.96-10.725,11.15v8.175h21.45v2.725h-21.45h-8.05
				c-6.234,0-11.693,3.747-13.4,10.875c-1.97,8.17-2.057,13.269,0,21.8c1.525,6.35,5.166,10.875,11.4,10.875h7.375v-9.799
				c0-7.081,6.126-13.325,13.399-13.325h21.426c5.963,0,10.725-4.91,10.725-10.9v-20.425c0-5.813-4.904-10.18-10.725-11.15
				C9345.445,2996.925,9341.622,2996.647,9337.956,2996.664z M9326.355,3003.239c2.216,0,4.024,1.839,4.024,4.1
				c0,2.253-1.809,4.075-4.024,4.075c-2.224,0-4.024-1.822-4.024-4.075C9322.331,3005.077,9324.132,3003.239,9326.355,3003.239z"/>
			<path id="path4309" inkscape:connector-curvature="0" fill="#FFFFFF" d="M9362.53,3019.589v9.525c0,7.384-6.261,13.6-13.399,13.6
				h-21.426c-5.868,0-10.725,5.023-10.725,10.9v20.425c0,5.813,5.055,9.232,10.725,10.899c6.79,1.997,13.302,2.357,21.426,0
				c5.399-1.563,10.725-4.71,10.725-10.899v-8.175h-21.425v-2.726h21.425h10.725c6.234,0,8.558-4.348,10.726-10.875
				c2.239-6.719,2.145-13.18,0-21.8c-1.541-6.206-4.483-10.875-10.726-10.875H9362.53z M9350.48,3071.314
				c2.224,0,4.024,1.822,4.024,4.075c0,2.261-1.801,4.1-4.024,4.1c-2.216,0-4.025-1.839-4.025-4.1
				C9346.455,3073.136,9348.265,3071.314,9350.48,3071.314z"/>
		</g>
		
			<g id="g4311" transform="matrix(1.6263847,0,0,1.6263847,-13561.807,-4608.4071)" inkscape:export-xdpi="17.062151" inkscape:export-ydpi="17.062151">
			<path id="path4313" inkscape:connector-curvature="0" fill="#FFFFFF" d="M9337.956,2996.664
				c-3.668,0.017-7.169,0.33-10.251,0.875c-9.077,1.604-10.725,4.96-10.725,11.15v8.175h21.45v2.725h-21.45h-8.05
				c-6.234,0-11.693,3.747-13.4,10.875c-1.97,8.17-2.057,13.269,0,21.8c1.525,6.35,5.166,10.875,11.4,10.875h7.375v-9.799
				c0-7.081,6.126-13.325,13.399-13.325h21.426c5.963,0,10.725-4.91,10.725-10.9v-20.425c0-5.813-4.904-10.18-10.725-11.15
				C9345.445,2996.925,9341.622,2996.647,9337.956,2996.664z M9326.355,3003.239c2.216,0,4.024,1.839,4.024,4.1
				c0,2.253-1.809,4.075-4.024,4.075c-2.224,0-4.024-1.822-4.024-4.075C9322.331,3005.077,9324.132,3003.239,9326.355,3003.239z"/>
			<path id="path4315" inkscape:connector-curvature="0" fill="#FFFFFF" d="M9362.53,3019.589v9.525c0,7.384-6.261,13.6-13.399,13.6
				h-21.426c-5.868,0-10.725,5.023-10.725,10.9v20.425c0,5.813,5.055,9.232,10.725,10.899c6.79,1.997,13.302,2.357,21.426,0
				c5.399-1.563,10.725-4.71,10.725-10.899v-8.175h-21.425v-2.726h21.425h10.725c6.234,0,8.558-4.348,10.726-10.875
				c2.239-6.719,2.145-13.18,0-21.8c-1.541-6.206-4.483-10.875-10.726-10.875H9362.53z M9350.48,3071.314
				c2.224,0,4.024,1.822,4.024,4.075c0,2.261-1.801,4.1-4.024,4.1c-2.216,0-4.025-1.839-4.025-4.1
				C9346.455,3073.136,9348.265,3071.314,9350.48,3071.314z"/>
		</g>
	</g>
	<g id="g4360" transform="translate(-1784.9687,-931.64148)">
		<g id="g4327" transform="translate(-8898.1239,-2528.9696)">
			<path id="path4329" inkscape:connector-curvature="0" d="M10388.853,3497.334c23.636,29.319-42.457,40.987-6.823,68.738
				c15.197,9.423,50.697-10.975,19.51-36.045C10397.51,3527.881,10415.566,3513.06,10388.853,3497.334L10388.853,3497.334z"/>
			<path id="path4331" inkscape:connector-curvature="0" d="M10428.279,3566.844c-5.912,0.557-11.611,4.206-16.991,13.516
				c-6.747,15.609,22.925,42.682,42.893,9.399c1.413-4.062,21.233,8.947,32.198-18.308c-18.797,19.747-38.023-3.825-55.478-4.607
				C10430.047,3566.806,10429.125,3566.764,10428.279,3566.844z"/>
			<path id="path4333" inkscape:connector-curvature="0" d="M10355.182,3567.125c-17.455,0.779-36.686,24.443-55.479,4.692
				c10.959,27.257,30.992,14.252,32.403,18.314c19.963,33.287,49.43,6.22,42.687-9.391
				C10368.646,3570.099,10362.012,3566.82,10355.182,3567.125L10355.182,3567.125z"/>
		</g>
		<path id="path4335" inkscape:connector-curvature="0" d="M1008.727,1109.439h972.379v20.773h-972.379V1109.439z"/>
	</g>
	<g id="g4367" transform="matrix(1,0,0,-1,-1784.9687,2034.3214)">
		<g id="g4369" transform="translate(-8898.1239,-2528.9696)">
			<path id="path4371" inkscape:connector-curvature="0" d="M10388.853,3752.701c23.636,29.318-42.457,40.986-6.823,68.738
				c15.197,9.424,50.697-10.975,19.51-36.045C10397.51,3783.248,10415.566,3768.425,10388.853,3752.701L10388.853,3752.701z"/>
			<path id="path4373" inkscape:connector-curvature="0" d="M10428.279,3822.21c-5.912,0.557-11.611,4.205-16.991,13.516
				c-6.747,15.609,22.925,42.682,42.893,9.4c1.413-4.062,21.233,8.947,32.198-18.309c-18.797,19.748-38.023-3.826-55.478-4.607
				C10430.047,3822.171,10429.125,3822.13,10428.279,3822.21z"/>
			<path id="path4375" inkscape:connector-curvature="0" d="M10355.182,3822.492c-17.455,0.777-36.686,24.443-55.479,4.691
				c10.959,27.258,30.992,14.252,32.403,18.314c19.963,33.287,49.43,6.219,42.687-9.391
				C10368.646,3825.464,10362.012,3822.187,10355.182,3822.492L10355.182,3822.492z"/>
		</g>
		<path id="path4377" inkscape:connector-curvature="0" d="M1008.727,1364.805h972.379v20.773h-972.379V1364.805z"/>
	</g>
</g>
</svg>
