<?xml version="1.0" encoding="UTF-8"?>
<svg version="1.1" xmlns="http://www.w3.org/2000/svg" xmlns:xlink="http://www.w3.org/1999/xlink" viewBox="0 73 1337 569" xml:space="preserve">
  <g fill="#007BB8">
    <polygon points="188.6,527.1 99.3,527.1 99.3,173.1 188.6,173.1 188.6,158.2 99.3,158.2 84.3,158.2 84.3,173.1 84.3,527.1 84.3,542.1 99.3,542.1 188.6,542.1"/>
    <polygon points="453.3,158.2 364,158.2 364,173.1 453.3,173.1 453.3,527.1 364,527.1 364,542.1 453.3,542.1 468.2,542.1 468.2,527.1 468.2,173.1 468.2,158.2"/>
    <path d="M275.4,284.6l57.8,137.7l-51.1-25.8l-6.7-3.4l-6.7,3.4l-51.1,25.8L275.4,284.6 M275.4,246L188,453.9 l87.3-44.1l87.3,44.1L275.4,246L275.4,246z"/>
  </g>
  <g fill="#1C1C1C">
    <path d="M581.1,188v324.2h-18.3V188H581.1z M593.5,404.4h0.2l62.7-108.3h21.4l-62.3,108.3l70.6,107.9h-20.8 L593.5,404.4z"/>
    <path d="M770.3,515.9c-29.9,0-63.9-39.7-63.9-111.7c0-72,32.1-111.9,63.9-111.9c31.7,0,63.9,39.9,63.9,111.9 C834.2,476.2,800.9,515.9,770.3,515.9z M770.3,497.6c24.9,0,44.4-35.6,44.4-93.4s-19.5-93.6-44.4-93.6c-25.7,0-44.4,35.8-44.4,93.6 S746.7,497.6,770.3,497.6z"/>
    <path d="M854.6,512.2l93.2-199h-79.6v-17.1h107.5l-93.4,199h90.4v17.1H854.6z"/>
    <path d="M1115.3,409.5l-99.7-0.2l1,10c4.7,49.7,30.7,78.3,56.8,78.3c10.6,0,20.8-3.3,28.7-7.1l6.1,16.1 c-11,5.3-25.6,9.4-39.1,9.4c-39.5,0-73.1-49.2-73.1-118.2c0-70.8,35.4-105.4,69-105.4C1106.8,292.2,1125.1,342.9,1115.3,409.5z M1064.2,310.5c-27.3,0-44,26.9-47.4,70.4l-0.8,11.2h82.2l1-14.4C1100.9,335.2,1088,310.5,1064.2,310.5z"/>
    <path d="M1141.8,443.6c0-37.4,28.5-69.2,86.3-72l8.7-0.4c-0.4-45-16.3-60.6-42.9-60.6c-10,0-22.4,5.1-31.5,9.4 l-6.3-18.5c14-5.5,30.9-9.2,42.3-9.2c33.8,0,56.8,22.4,56.8,64.5v153l-19.5-9.2l-4.5,3.7c-8.5,6.9-19.5,11-31.9,11 C1168,515.3,1141.8,486.6,1141.8,443.6z M1236.8,481.3v-91.4h-9c-37,0-66.5,13.6-66.5,58.4c0,30.5,17.9,48.6,42.1,48.6 C1217.4,497,1228.4,489.7,1236.8,481.3z"/>
  </g>
</svg>