<?xml version="1.0" encoding="UTF-8" standalone="no"?>
<svg
   xmlns:dc="http://purl.org/dc/elements/1.1/"
   xmlns:cc="http://web.resource.org/cc/"
   xmlns:rdf="http://www.w3.org/1999/02/22-rdf-syntax-ns#"
   xmlns:svg="http://www.w3.org/2000/svg"
   xmlns="http://www.w3.org/2000/svg"
   xmlns:sodipodi="http://sodipodi.sourceforge.net/DTD/sodipodi-0.dtd"
   xmlns:inkscape="http://www.inkscape.org/namespaces/inkscape"
   width="159.44882"
   height="74.409447"
   id="svg2"
   sodipodi:version="0.32"
   inkscape:version="0.44"
   sodipodi:docname="logo-lglb.svg"
   sodipodi:docbase="/home/ocy"
   version="1.0">
  <metadata
     id="metadata39">
    <rdf:RDF>
      <cc:Work
         rdf:about="">
        <dc:format>image/svg+xml</dc:format>
        <dc:type
           rdf:resource="http://purl.org/dc/dcmitype/StillImage" />
      </cc:Work>
    </rdf:RDF>
  </metadata>
  <defs
     id="defs37" />
  <sodipodi:namedview
     inkscape:window-height="579"
     inkscape:window-width="943"
     inkscape:pageshadow="2"
     inkscape:pageopacity="0.0"
     guidetolerance="10.0"
     gridtolerance="10.0"
     objecttolerance="10.0"
     borderopacity="1.0"
     bordercolor="#666666"
     pagecolor="#ffffff"
     id="base"
     width="45.000002mm"
     height="21mm"
     units="mm"
     inkscape:zoom="5.0799965"
     inkscape:cx="68.139721"
     inkscape:cy="33.888424"
     inkscape:window-x="1454"
     inkscape:window-y="80"
     inkscape:current-layer="svg2" />
  <g
     transform="matrix(1.249996,0,0,1.25001,42.73212,37.00163)"
     style="fill:black;fill-rule:evenodd;stroke:none;stroke-width:0.173514pt;stroke-linecap:butt;stroke-linejoin:miter;stroke-dasharray:none"
     id="g4">
    <path
       d="M 23.0204,17.9342 C 23.0204,26.0659 18.8711,28.6873 10.493,28.6873 C 7.06165,28.6873 4.22888,28.0041 2.55304,27.4334 C 2.55304,27.4334 2.91202,22.0379 2.91202,22.0379 C 5.10643,23.0638 6.94187,23.6721 9.93422,23.6721 C 14.0835,23.6721 16.3177,21.8102 16.3177,17.9342 C 16.3177,17.9342 16.3177,16.8706 16.3177,16.8706 C 16.3177,16.8706 16.2377,16.8706 16.2377,16.8706 C 14.5224,19.1881 12.1283,20.2527 9.25606,20.2527 C 3.55073,20.2527 0,16.1487 0,10.2975 C 0,4.40761 2.91202,0 9.37548,0 C 12.4478,0 14.9212,1.5962 16.4371,4.02764 C 16.4371,4.02764 16.5171,4.02764 16.5171,4.02764 C 16.5171,4.02764 16.5171,0.456036 16.5171,0.456036 C 16.5171,0.456036 23.0204,0.456036 23.0204,0.456036 C 23.0204,0.456036 23.0204,17.9342 23.0204,17.9342 z M 11.4899,15.0088 C 14.0433,15.0088 16.0782,12.9569 16.0782,9.91718 C 16.0782,7.71371 14.7218,5.24391 11.4899,5.24391 C 8.81675,5.24391 7.42063,7.48501 7.42063,10.1828 C 7.42063,13.2609 9.33568,15.0088 11.4899,15.0088 z "
       id="path6" />
  </g>
  <g
     transform="matrix(1.249996,0,0,1.25001,13.48734,37.00163)"
     style="fill:black;fill-rule:evenodd;stroke:none;stroke-width:0.173514pt;stroke-linecap:butt;stroke-linejoin:miter;stroke-dasharray:none"
     id="g8">
    <path
       d="M 0,10.3731 C 0,3.80002 4.61139,0 10.6658,0 C 16.7207,0 21.3318,3.80002 21.3318,10.3731 C 21.3318,16.9086 16.7207,20.7083 10.6658,20.7083 C 4.61139,20.7083 0,16.9086 0,10.3731 z M 14.7843,10.3731 C 14.7843,7.40937 13.5876,4.78795 10.6658,4.78795 C 7.74415,4.78795 6.54742,7.40937 6.54742,10.3731 C 6.54742,13.2993 7.74415,15.9207 10.6658,15.9207 C 13.5876,15.9207 14.7843,13.2993 14.7843,10.3731 z "
       id="path10" />
  </g>
  <g
     transform="matrix(1.249996,0,0,1.25001,87.12872,18.4521)"
     style="fill:black;fill-opacity:1;stroke:none;stroke-width:0.173514pt;stroke-linecap:butt;stroke-linejoin:miter;stroke-dasharray:none"
     id="g12">
    <path
       d="M 0,0 C 0,0 7.18179,0 7.18179,0 C 7.18179,0 7.18179,35.0922 7.18179,35.0922 C 7.18179,35.0922 0,35.0922 0,35.0922 C 0,35.0922 0,0 0,0"
       id="path14"
       style="fill:black;fill-opacity:1" />
  </g>
  <g
     transform="matrix(1.249996,0,0,1.25001,1.771653,28.56106)"
     style="fill:black;fill-opacity:1;stroke:none;stroke-width:0.173514pt;stroke-linecap:butt;stroke-linejoin:miter;stroke-dasharray:none"
     id="g16">
    <path
       d="M 0,0 C 0,0 7.35965,0 7.35965,0 C 7.35965,0 7.35965,29.4811 7.35965,29.4811 C 7.35965,29.4811 18.7553,29.4811 18.7553,29.4811 C 18.7553,29.4811 18.7553,34.7246 18.7553,34.7246 C 18.7553,34.7246 0,34.7246 0,34.7246 C 0,34.7246 0,0 0,0"
       id="path18"
       style="fill:black;fill-opacity:1" />
  </g>
  <g
     transform="matrix(1.249996,0,0,1.25001,129.1221,18.4521)"
     style="fill:black;fill-rule:evenodd;stroke:none;stroke-width:0.173514pt;stroke-linecap:butt;stroke-linejoin:miter;stroke-dasharray:none"
     id="g20">
    <path
       d="M 0,0 C 0,0 7.06816,0 7.06816,0 C 7.06816,0 7.06816,17.8412 7.06816,17.8412 C 7.06816,17.8412 7.14597,17.8412 7.14597,17.8412 C 8.94232,15.6377 11.3242,14.8394 14.136,14.8394 C 19.7592,14.8394 22.8441,20.0454 22.8441,24.833 C 22.8441,30.6845 19.6028,35.5478 13.5497,35.5478 C 10.3088,35.5478 7.45863,33.7619 6.56009,31.5581 C 6.56009,31.5581 6.48192,31.5581 6.48192,31.5581 C 6.48192,31.5581 6.48192,35.0922 6.48192,35.0922 C 6.48192,35.0922 0,35.0922 0,35.0922 C 0,35.0922 0,0 0,0 z M 11.3242,20.0834 C 8.7469,20.0834 7.02908,22.2872 7.02908,25.2506 C 7.02908,28.1387 8.98176,30.3038 11.3242,30.3038 C 13.9796,30.3038 15.5809,28.1387 15.5809,24.985 C 15.5809,22.3628 14.0578,20.0834 11.3242,20.0834 z "
       id="path22" />
  </g>
  <g
     transform="matrix(1.249996,0,0,1.25001,99.33981,37.00163)"
     style="fill:black;fill-rule:evenodd;stroke:none;stroke-width:0.173514pt;stroke-linecap:butt;stroke-linejoin:miter;stroke-dasharray:none"
     id="g24">
    <path
       d="M 14.6024,20.2527 C 14.5626,19.1881 14.4425,18.1629 14.4425,17.1366 C 14.4425,17.1366 14.3629,17.1366 14.3629,17.1366 C 12.7268,19.6064 10.7322,20.7083 7.77961,20.7083 C 3.67051,20.7083 0,18.7705 0,14.4768 C 0,8.43493 6.90242,7.71371 10.7322,7.71371 C 11.8894,7.71371 13.1658,7.82734 14.0835,7.97933 C 14.0437,5.28154 11.9292,4.5596 9.33568,4.5596 C 7.02148,4.5596 4.70764,4.97757 2.71262,6.04185 C 2.71262,6.04185 2.59357,1.40621 2.59357,1.40621 C 5.1466,0.417569 7.81978,0 10.8917,0 C 16.1979,0 20.7865,2.16543 20.7865,8.20731 C 20.7865,8.20731 20.7865,15.5787 20.7865,15.5787 C 20.7865,17.1366 20.8658,18.6948 21.1853,20.2527 C 21.1853,20.2527 14.6024,20.2527 14.6024,20.2527 z M 9.65485,16.1487 C 12.3678,16.1487 14.0835,13.7932 14.0835,11.4747 C 13.1658,11.4371 12.1286,11.3611 11.0513,11.3611 C 8.61772,11.3611 6.70231,12.0826 6.70231,13.9825 C 6.70231,15.3507 7.97937,16.1487 9.65485,16.1487 z "
       id="path26" />
  </g>
  <g
     transform="matrix(1.249996,0,0,1.25001,64.0778,18.4521)"
     style="fill:#ff8b19;fill-opacity:1;stroke:none;stroke-width:0.173514pt;stroke-linecap:butt;stroke-linejoin:miter;stroke-dasharray:none"
     id="g28">
    <path
       d="M 8.55004,0 C 8.55004,0 8.55004,0.0144027 8.55004,0.0144027 C 8.55004,0.0144027 0,0.0144027 0,0.0144027 C 0,0.0144027 0,6.08205 0,6.08205 C 0,6.08205 8.55004,6.08205 8.55004,6.08205 C 8.55004,6.08205 8.55004,35.0922 8.55004,35.0922 C 8.55004,35.0922 15.7315,35.0922 15.7315,35.0922 C 15.7315,35.0922 15.7315,0 15.7315,0 C 15.7315,0 8.55004,0 8.55004,0"
       id="path30"
       style="fill:#ff8b19;fill-opacity:1" />
  </g>
  <g
     transform="matrix(1.249996,0,0,1.25001,73.98677,1.548424)"
     style="fill:#ff8c19;fill-opacity:1;stroke:none;stroke-width:0.173514pt;stroke-linecap:butt;stroke-linejoin:miter;stroke-dasharray:none"
     id="g32">
    <path
       d="M 0,4.18054 C 0,1.87159 1.87198,0 4.18003,0 C 6.4888,0 8.36006,1.87159 8.36006,4.18054 C 8.36006,6.4892 6.4888,8.36075 4.18003,8.36075 C 1.87198,8.36075 0,6.4892 0,4.18054"
       id="path34"
       style="fill:#ff8c19;fill-opacity:1" />
  </g>
</svg>
