<?xml version="1.0" encoding="UTF-8" standalone="no"?>
<!-- Generator: Adobe Illustrator 21.0.2, SVG Export Plug-In . SVG Version: 6.00 Build 0)  -->

<svg
   xmlns:dc="http://purl.org/dc/elements/1.1/"
   xmlns:cc="http://creativecommons.org/ns#"
   xmlns:rdf="http://www.w3.org/1999/02/22-rdf-syntax-ns#"
   xmlns:svg="http://www.w3.org/2000/svg"
   xmlns="http://www.w3.org/2000/svg"
   xmlns:sodipodi="http://sodipodi.sourceforge.net/DTD/sodipodi-0.dtd"
   xmlns:inkscape="http://www.inkscape.org/namespaces/inkscape"
   version="1.1"
   id="Calque_1"
   x="0px"
   y="0px"
   height="170"
   viewBox="0 0 170 309.4"
   xml:space="preserve"
   sodipodi:docname="logo_tmp.svg"
   width="170"
   inkscape:export-filename="/home/arthur/Projets/afpy/pyconfr_2018/content/images/logo_tmp.png"
   inkscape:export-xdpi="282.35294"
   inkscape:export-ydpi="282.35294"
   inkscape:version="0.92.2 2405546, 2018-03-11"><metadata
   id="metadata73"><rdf:RDF><cc:Work
       rdf:about=""><dc:format>image/svg+xml</dc:format><dc:type
         rdf:resource="http://purl.org/dc/dcmitype/StillImage" /><dc:title></dc:title></cc:Work></rdf:RDF></metadata><defs
   id="defs71">
	
	
	
</defs><sodipodi:namedview
   pagecolor="#ffffff"
   bordercolor="#666666"
   borderopacity="1"
   objecttolerance="10"
   gridtolerance="10"
   guidetolerance="10"
   inkscape:pageopacity="0"
   inkscape:pageshadow="2"
   inkscape:window-width="1366"
   inkscape:window-height="704"
   id="namedview69"
   showgrid="false"
   inkscape:zoom="2.3461719"
   inkscape:cx="80.618406"
   inkscape:cy="94.466192"
   inkscape:window-x="0"
   inkscape:window-y="27"
   inkscape:window-maximized="1"
   inkscape:current-layer="Calque_1" />
<style
   type="text/css"
   id="style2">
	.st0{fill:#74C15D;}
	.st1{fill:#E3118D;}
	.st2{fill:#15A7B2;}
	.st3{fill:#FFFFFF;}
	.st4{fill:none;stroke:#000000;stroke-width:2;stroke-miterlimit:10;}
	.st5{fill:none;}
	.st6{fill:#FCB216;}
	.st7{fill:#79C143;}
	.st8{fill:#BD8C2C;}
	.st9{fill:none;stroke:#F15523;stroke-width:3;stroke-miterlimit:10;}
	.st10{stroke:#000000;stroke-width:0.5;stroke-miterlimit:10;}
	.st11{fill:none;stroke:#2A5629;stroke-width:4;stroke-miterlimit:10;}
	.st12{opacity:0.46;}
	.st13{fill:#A94C25;}
	.st14{fill:none;stroke:#E2148D;stroke-width:2;stroke-miterlimit:10;}
	.st15{fill:#7ECBAF;}
	.st16{fill:#4E4E4E;}
	.st17{fill:#54BE94;}
	.st18{fill:#BCDB8F;}
	.st19{fill:#8BCB90;}
	.st20{fill:#3D9473;}
	.st21{fill:none;stroke:#FFFFFF;stroke-miterlimit:10;}
	.st22{fill:none;stroke:#E2148D;stroke-miterlimit:10;}
	.st23{fill:#E2148D;}
</style>






<g
   id="g3795"
   transform="translate(-103.74909,61.3)"><path
     inkscape:connector-curvature="0"
     id="path4"
     d="m 240.6,106.4 h -118 c -5.5,0 -10,-4.4 -10.1,-9.9 -0.1,-5.6 4.7,-10.2 10.3,-10.2 H 230.6 C 250.7,86.3 267,69.9 266.8,49.7 266.6,29.8 250.1,13.8 230.1,13.8 H 122.6 c -5.5,0 -10,-4.4 -10.1,-9.9 -0.1,-5.6 4.7,-10.2 10.3,-10.2 h 130.9 c 1.1,0 2.2,-0.2 3.3,-0.4 0,0 0.1,0 0.1,0 0.1,0 0.2,-0.1 0.3,-0.1 0.4,-0.1 0.9,-0.3 1.3,-0.4 0.2,-0.1 0.5,-0.2 0.7,-0.3 0.2,-0.1 0.4,-0.2 0.6,-0.3 0.6,-0.3 1.1,-0.6 1.6,-1 0.2,-0.1 0.4,-0.3 0.5,-0.4 0.2,-0.1 0.3,-0.3 0.5,-0.4 0.3,-0.3 0.6,-0.6 0.9,-0.9 v 0 0 c 0.2,-0.2 0.3,-0.3 0.5,-0.5 h -0.1 c 2.2,-2.9 2.7,-6 2.7,-6 0.1,-0.7 0.2,-1.4 0.2,-2.1 0,-7.2 -5.9,-13.1 -13.1,-13.1 H 123 c -19.9,0 -36.5,15.9 -36.7,35.9 -0.2,20.1 16.1,36.6 36.2,36.6 h 108 c 5.5,0 10,4.4 10.1,9.9 0.1,5.6 -4.7,10.2 -10.3,10.2 H 122.6 c -20.1,0 -36.4,16.4 -36.2,36.6 0.2,19.9 16.7,35.9 36.7,35.9 h 143.7 c 0,-14.8 -11.7,-26.5 -26.2,-26.5 z" /><circle
     style="fill:#ffffff"
     id="circle6"
     r="7.0999999"
     cy="-22.399994"
     cx="247.39999"
     class="st3" /><circle
     id="circle8"
     r="2.9000001"
     cy="-22.399994"
     cx="250.3" /><g
     transform="translate(0,-54.6)"
     id="g24">
	<path
   inkscape:connector-curvature="0"
   id="path10"
   d="m 122.2,252.5 c 0,6 -4.2,9.6 -11.2,9.6 h -6.4 v 11.1 H 98.2 V 242.7 H 111 c 7,0 11.2,3.5 11.2,9.8 z m -6.5,-0.1 c 0,-3.1 -1.8,-4.7 -5.7,-4.7 h -5.4 v 9.4 h 5.4 c 3.9,0 5.7,-1.6 5.7,-4.7 z" />
	<path
   inkscape:connector-curvature="0"
   id="path12"
   d="m 137.9,261.8 v 11.4 h -6.4 v -11.4 l -10.8,-19.1 h 6.8 l 4.9,9.1 2.3,4.8 2.4,-4.8 4.9,-9.1 h 6.7 z" />
	<path
   inkscape:connector-curvature="0"
   id="path14"
   d="m 162.3,273.6 c -9.1,0 -14.7,-5.9 -14.7,-15.7 0,-9.8 5.7,-15.7 14.6,-15.7 6.2,0 10.9,2.6 12.6,7.9 l -5.8,2.4 c -1,-3.7 -3,-5.1 -6.6,-5.1 -5.1,0 -8.3,3.7 -8.3,10.5 0,6.7 3,10.5 8.1,10.5 3.6,0 6.1,-1.8 7,-5.4 l 5.9,1.8 c -1.7,5.9 -6.6,8.8 -12.8,8.8 z" />
	<path
   inkscape:connector-curvature="0"
   id="path16"
   d="m 206.2,257.9 c 0,9.8 -5.6,15.7 -14.6,15.7 -9.1,0 -14.7,-5.9 -14.7,-15.7 0,-9.8 5.6,-15.7 14.7,-15.7 9,0 14.6,5.9 14.6,15.7 z m -22.7,0 c 0,6.8 3,10.5 8.1,10.5 5.1,0 8,-3.7 8,-10.5 0,-6.8 -3,-10.5 -8,-10.5 -5.2,0 -8.1,3.7 -8.1,10.5 z" />
	<path
   inkscape:connector-curvature="0"
   id="path18"
   d="m 236.5,273.2 h -7.3 l -10.7,-17.9 -2.6,-5.1 v 0 l 0.2,5.4 v 17.6 h -5.7 v -30.5 h 7.3 l 10.7,17.9 2.6,5.2 h 0.1 l -0.2,-5.4 v -17.6 h 5.7 v 30.4 z" />
	<path
   inkscape:connector-curvature="0"
   id="path20"
   d="m 245.6,245.1 v 11.3 H 260 v 2.4 h -14.4 v 14.3 H 243 v -30.5 h 20.9 v 2.4 h -18.3 z" />
	<path
   inkscape:connector-curvature="0"
   id="path22"
   d="m 279.3,260.1 h -8.7 v 13.1 H 268 v -30.5 h 11.4 c 6.1,0 10.1,3.3 10.1,8.7 0,4.5 -2.7,7.5 -7.1,8.4 l 8.8,13.4 h -3.1 z m -8.7,-2.5 h 8.7 c 4.8,0 7.3,-2.2 7.3,-6.3 0,-4.1 -2.5,-6.2 -7.3,-6.2 h -8.7 z" />
</g><path
     class="st1"
     d="m 134.8,141.4 h 118.1 c 5.5,0 10,-4.4 10.1,-9.9 0.1,-5.6 -4.7,-10.2 -10.3,-10.2 H 144.9 c -20.1,0 -36.4,-16.4 -36.2,-36.6 0.2,-19.9 16.7,-35.9 36.7,-35.9 h 107.5 c 5.5,0 10,-4.4 10.1,-9.9 0.1,-5.6 -4.7,-10.2 -10.3,-10.2 h -131 c -1.1,0 -2.2,-0.2 -3.3,-0.4 0,0 -0.1,0 -0.1,0 -0.1,0 -0.2,-0.1 -0.3,-0.1 -0.4,-0.1 -0.9,-0.3 -1.3,-0.4 -0.2,-0.1 -0.5,-0.2 -0.7,-0.3 -0.2,-0.1 -0.4,-0.2 -0.6,-0.3 -0.6,-0.3 -1.1,-0.6 -1.6,-1 -0.2,-0.1 -0.4,-0.3 -0.5,-0.4 -0.2,-0.1 -0.3,-0.3 -0.5,-0.4 -0.3,-0.3 -0.6,-0.6 -0.9,-0.9 v 0 0 c -0.2,-0.2 -0.3,-0.3 -0.5,-0.5 h 0.1 c -2.2,-2.9 -2.7,-6 -2.7,-6 -0.1,-0.7 -0.2,-1.4 -0.2,-2.1 0,-7.2 5.9,-13.1 13.1,-13.1 h 130.7 c 19.9,0 36.5,15.9 36.7,35.9 0.2,20.1 -16.1,36.6 -36.2,36.6 h -108 c -5.5,0 -10,4.4 -10.1,9.9 -0.1,5.6 4.7,10.2 10.3,10.2 h 107.8 c 20.1,0 36.4,16.4 36.2,36.6 -0.2,19.9 -16.7,35.9 -36.7,35.9 H 108.7 c 0,-14.8 11.7,-26.5 26.1,-26.5 z"
     id="path60"
     inkscape:connector-curvature="0"
     style="fill:#d40000" /><circle
     class="st3"
     cx="128.10001"
     cy="12.600006"
     r="7.0999999"
     id="circle62"
     style="fill:#ffffff" /><circle
     class="st1"
     cx="125.2"
     cy="12.600006"
     r="2.9000001"
     id="circle64"
     style="fill:#ff0000" /></g>
</svg>