<?xml version="1.0" encoding="UTF-8" standalone="no"?>
<!-- Created with Inkscape (http://www.inkscape.org/) -->

<svg
   xmlns:dc="http://purl.org/dc/elements/1.1/"
   xmlns:cc="http://creativecommons.org/ns#"
   xmlns:rdf="http://www.w3.org/1999/02/22-rdf-syntax-ns#"
   xmlns:svg="http://www.w3.org/2000/svg"
   xmlns="http://www.w3.org/2000/svg"
   xmlns:sodipodi="http://sodipodi.sourceforge.net/DTD/sodipodi-0.dtd"
   xmlns:inkscape="http://www.inkscape.org/namespaces/inkscape"
   id="svg3355"
   version="1.1"
   inkscape:version="0.91 r13725"
   xml:space="preserve"
   width="1332.5"
   height="372.5"
   viewBox="0 0 1332.5 372.5"
   sodipodi:docname="LOGO_FINAL.ai"><metadata
     id="metadata3361"><rdf:RDF><cc:Work
         rdf:about=""><dc:format>image/svg+xml</dc:format><dc:type
           rdf:resource="http://purl.org/dc/dcmitype/StillImage" /><dc:title></dc:title></cc:Work></rdf:RDF></metadata><defs
     id="defs3359"><clipPath
       clipPathUnits="userSpaceOnUse"
       id="clipPath3369"><path
         d="M 0,298 1066,298 1066,0 0,0 0,298 Z"
         id="path3371"
         inkscape:connector-curvature="0" /></clipPath></defs><sodipodi:namedview
     pagecolor="#ffffff"
     bordercolor="#666666"
     borderopacity="1"
     objecttolerance="10"
     gridtolerance="10"
     guidetolerance="10"
     inkscape:pageopacity="0"
     inkscape:pageshadow="2"
     inkscape:window-width="1920"
     inkscape:window-height="1043"
     id="namedview3357"
     showgrid="false"
     inkscape:zoom="0.93131137"
     inkscape:cx="678.7885"
     inkscape:cy="186.70232"
     inkscape:window-x="0"
     inkscape:window-y="18"
     inkscape:window-maximized="0"
     inkscape:current-layer="g3363" /><g
     id="g3363"
     inkscape:groupmode="layer"
     inkscape:label="LOGO_FINAL"
     transform="matrix(1.25,0,0,-1.25,0,372.5)"><g
       id="g3365"><g
         id="g3367"
         clip-path="url(#clipPath3369)"><g
           id="g3373"
           transform="translate(161.188,93.5039)"><path
             d="m 0,0 c -34.349,0 -62.292,27.947 -62.292,62.3 0,22.151 11.919,42.819 31.107,53.931 3.062,1.773 6.981,0.73 8.755,-2.331 1.773,-3.062 0.729,-6.978 -2.331,-8.752 -15.248,-8.834 -24.72,-25.253 -24.72,-42.848 0,-27.292 22.198,-49.487 49.481,-49.487 27.283,0 49.48,22.195 49.48,49.487 0,18.38 -10.104,35.155 -26.367,43.761 -3.128,1.655 -4.322,5.529 -2.668,8.658 1.655,3.125 5.531,4.316 8.659,2.665 C 49.575,106.55 62.292,85.443 62.292,62.3 62.292,27.947 34.348,0 0,0"
             style="fill:#e84c13;fill-opacity:1;fill-rule:nonzero;stroke:none"
             id="path3375"
             inkscape:connector-curvature="0" /></g><g
           id="g3377"
           transform="translate(161.2271,195.2109)"><path
             d="M 0,0 C 0,0 37.39,-59.546 0,-64.579 -39.481,-59.085 0,0 0,0"
             style="fill:#10262e;fill-opacity:1;fill-rule:nonzero;stroke:none"
             id="path3379"
             inkscape:connector-curvature="0" /></g><path
           d="m 655.352,106.896 3.416,0 0,62.951 -3.416,0 0,-62.951 z"
           style="fill:#10262e;fill-opacity:1;fill-rule:nonzero;stroke:none"
           id="path3381"
           inkscape:connector-curvature="0" /><path
           d="m 655.352,175.754 3.416,0 0,9.024 -3.416,0 0,-9.024 z"
           style="fill:#10262e;fill-opacity:1;fill-rule:nonzero;stroke:none"
           id="path3383"
           inkscape:connector-curvature="0" /><g
           id="g3385"
           transform="translate(723.3555,163.7236)"><path
             d="m 0,0 c -2.283,2.201 -5.031,3.958 -8.168,5.223 -3.137,1.261 -6.498,1.901 -9.99,1.901 -5.77,0 -10.846,-1.51 -15.09,-4.489 -2.527,-1.775 -4.67,-3.887 -6.367,-6.279 l -0.908,-1.279 0,2.787 c 0,2.048 -0.211,3.828 -0.629,5.291 -0.559,1.95 -0.789,2.449 -0.955,2.698 l -0.297,0.445 -3.467,0 0.598,-1.394 c 0.21,-0.494 0.437,-1.127 0.65,-1.83 0.156,-0.63 0.307,-1.375 0.463,-2.304 0.146,-0.891 0.221,-1.908 0.221,-3.024 l 0,-54.573 3.416,0 0,40.059 c 0,2.824 0.603,5.497 1.789,7.942 1.193,2.467 2.826,4.669 4.853,6.545 2.024,1.873 4.399,3.355 7.063,4.406 2.66,1.05 5.574,1.583 8.66,1.583 3.078,0 6.01,-0.551 8.711,-1.638 2.701,-1.089 5.078,-2.59 7.062,-4.461 1.981,-1.869 3.573,-4.088 4.737,-6.595 1.152,-2.493 1.736,-5.23 1.736,-8.136 l 0,-39.705 3.416,0 0,39.705 c 0,3.357 -0.688,6.536 -2.041,9.448 C 4.119,-4.783 2.281,-2.201 0,0"
             style="fill:#10262e;fill-opacity:1;fill-rule:nonzero;stroke:none"
             id="path3387"
             inkscape:connector-curvature="0" /></g><g
           id="g3389"
           transform="translate(787.9277,134.0137)"><path
             d="m 0,0 c -1.564,1.397 -3.434,2.604 -5.559,3.584 -2.109,0.974 -4.423,1.715 -6.877,2.205 -1.863,0.309 -3.433,0.585 -4.685,0.82 -1.248,0.234 -2.32,0.448 -3.219,0.644 -0.914,0.197 -1.691,0.357 -2.326,0.476 -0.611,0.115 -1.221,0.248 -1.848,0.405 -1.603,0.382 -3.228,0.885 -4.826,1.494 -1.525,0.581 -2.805,1.346 -3.803,2.274 -1.062,0.992 -1.832,2.098 -2.285,3.286 -0.465,1.212 -0.701,2.481 -0.701,3.772 0,1.971 0.461,3.761 1.41,5.475 0.957,1.73 2.266,3.28 3.889,4.607 1.623,1.331 3.582,2.383 5.816,3.128 4.469,1.488 9.881,1.47 14.159,-0.051 2.197,-0.783 4.138,-1.874 5.767,-3.244 1.627,-1.371 2.936,-2.978 3.893,-4.778 0.939,-1.775 1.416,-3.702 1.416,-5.727 l 0,-1 3.535,0 0,1 c 0,2.507 -0.572,4.921 -1.699,7.172 -1.118,2.236 -2.692,4.21 -4.68,5.868 -1.967,1.639 -4.291,2.948 -6.91,3.89 -2.619,0.94 -5.434,1.416 -8.362,1.416 -2.933,0 -5.728,-0.477 -8.308,-1.418 -2.572,-0.94 -4.873,-2.225 -6.836,-3.821 -1.981,-1.609 -3.572,-3.495 -4.731,-5.604 -1.177,-2.144 -1.775,-4.47 -1.775,-6.913 l 0,-0.236 c 0,-1.703 0.365,-3.422 1.082,-5.109 0.729,-1.719 1.856,-3.213 3.354,-4.441 2.513,-1.866 5.627,-3.267 9.238,-4.147 1.389,-0.409 3.289,-0.834 5.672,-1.27 2.357,-0.432 4.752,-0.883 7.199,-1.357 2.039,-0.379 3.967,-0.97 5.73,-1.758 1.752,-0.783 3.317,-1.763 4.653,-2.913 1.316,-1.135 2.373,-2.429 3.137,-3.846 0.751,-1.399 1.117,-2.846 1.117,-4.424 0,-1.785 -0.487,-3.4 -1.489,-4.941 -1.027,-1.577 -2.427,-2.993 -4.162,-4.211 -1.754,-1.231 -3.841,-2.217 -6.205,-2.928 -2.367,-0.717 -4.951,-1.08 -7.676,-1.08 -2.724,0 -5.308,0.363 -7.677,1.08 -2.366,0.713 -4.471,1.717 -6.258,2.984 -1.77,1.252 -3.166,2.701 -4.15,4.311 -0.973,1.582 -1.446,3.263 -1.446,5.14 l 0,1 -3.416,0 0,-1 c 0,-2.377 0.621,-4.632 1.85,-6.705 1.203,-2.035 2.883,-3.843 4.992,-5.373 2.084,-1.513 4.523,-2.713 7.252,-3.568 2.719,-0.852 5.697,-1.285 8.853,-1.285 3.153,0 6.127,0.412 8.84,1.222 2.727,0.813 5.166,1.971 7.254,3.446 2.11,1.488 3.791,3.258 5,5.256 1.231,2.039 1.854,4.277 1.854,6.652 0,2.037 -0.451,3.975 -1.344,5.758 C 2.834,-3.031 1.586,-1.422 0,0"
             style="fill:#10262e;fill-opacity:1;fill-rule:nonzero;stroke:none"
             id="path3391"
             inkscape:connector-curvature="0" /></g><path
           d="m 809.973,106.896 3.416,0 0,62.951 -3.416,0 0,-62.951 z"
           style="fill:#10262e;fill-opacity:1;fill-rule:nonzero;stroke:none"
           id="path3393"
           inkscape:connector-curvature="0" /><path
           d="m 809.973,175.754 3.416,0 0,9.024 -3.416,0 0,-9.024 z"
           style="fill:#10262e;fill-opacity:1;fill-rule:nonzero;stroke:none"
           id="path3395"
           inkscape:connector-curvature="0" /><g
           id="g3397"
           transform="translate(881.5352,138.2236)"><path
             d="m 0,0 c 0,-3.875 -0.635,-7.55 -1.885,-10.921 -1.248,-3.367 -3.01,-6.336 -5.236,-8.826 -2.221,-2.484 -4.912,-4.49 -8.002,-5.959 -3.076,-1.463 -6.584,-2.205 -10.428,-2.205 -3.851,0 -7.383,0.724 -10.498,2.152 -3.123,1.428 -5.83,3.43 -8.045,5.947 -2.224,2.526 -3.967,5.551 -5.176,8.993 -1.214,3.454 -1.83,7.293 -1.83,11.409 0,4.115 0.616,7.953 1.83,11.41 1.209,3.44 2.954,6.487 5.182,9.057 2.215,2.553 4.92,4.572 8.039,6 3.119,1.427 6.651,2.151 10.498,2.151 3.694,0 7.151,-0.705 10.272,-2.096 3.123,-1.394 5.828,-3.355 8.041,-5.831 2.226,-2.492 4.008,-5.484 5.297,-8.89 C -0.654,8.979 0,5.207 0,1.18 L 0,0 Z m 0.043,18.62 -0.094,-1.682 -0.84,1.459 c -0.125,0.218 -0.252,0.435 -0.382,0.65 -1.582,2.594 -3.598,4.939 -5.991,6.969 -2.398,2.03 -5.175,3.656 -8.256,4.831 -3.091,1.179 -6.466,1.777 -10.031,1.777 -4.537,0 -8.633,-0.867 -12.176,-2.578 -3.527,-1.703 -6.591,-4.028 -9.109,-6.909 -2.516,-2.882 -4.447,-6.312 -5.74,-10.195 -1.287,-3.86 -1.94,-8.016 -1.94,-12.352 0,-4.34 0.653,-8.478 1.94,-12.296 1.293,-3.842 3.222,-7.27 5.736,-10.188 2.518,-2.925 5.588,-5.253 9.121,-6.918 3.539,-1.669 7.633,-2.515 12.168,-2.515 3.569,0 6.922,0.578 9.967,1.715 3.039,1.134 5.775,2.699 8.135,4.652 2.359,1.951 4.359,4.281 5.943,6.922 0.195,0.326 0.385,0.654 0.567,0.986 L 0,-15.339 0,-26.874 c -0.076,-3.883 -0.789,-7.578 -2.115,-10.996 -1.328,-3.41 -3.151,-6.424 -5.418,-8.959 -2.262,-2.524 -4.955,-4.549 -8.008,-6.02 -3.035,-1.461 -6.402,-2.201 -10.01,-2.201 -2.394,0 -4.767,0.399 -7.049,1.184 -2.295,0.789 -4.492,1.918 -6.535,3.353 l -0.687,0.485 -2.496,-2.498 0.97,-0.684 c 4.948,-3.488 10.264,-5.256 15.797,-5.256 3.981,0 7.793,0.824 11.334,2.451 3.526,1.623 6.631,3.885 9.229,6.725 2.588,2.83 4.656,6.211 6.152,10.047 1.494,3.836 2.252,7.988 2.252,12.338 l 0,43.779 c 0,1.207 0.074,2.264 0.223,3.142 0.146,0.887 0.297,1.652 0.435,2.21 0.233,0.777 0.459,1.417 0.678,1.924 l 0.596,1.394 -3.467,0 -0.295,-0.443 C 1.416,24.849 1.184,24.347 0.627,22.401 0.314,21.304 0.123,20.067 0.043,18.62"
             style="fill:#10262e;fill-opacity:1;fill-rule:nonzero;stroke:none"
             id="path3399"
             inkscape:connector-curvature="0" /></g><g
           id="g3401"
           transform="translate(947.1211,163.7896)"><path
             d="m 0,0 c -2.281,2.157 -5.006,3.892 -8.098,5.155 -3.097,1.263 -6.48,1.903 -10.052,1.903 -3.159,0 -6.123,-0.454 -8.813,-1.35 -2.678,-0.893 -5.109,-2.109 -7.225,-3.614 -2.123,-1.511 -3.925,-3.251 -5.355,-5.174 l -1.09,-1.507 0,44.507 -3.416,0 0,-96.813 3.416,0 0,39.705 c 0,2.989 0.586,5.788 1.74,8.317 1.157,2.54 2.766,4.775 4.784,6.642 2.019,1.87 4.429,3.33 7.16,4.34 2.748,1.016 5.707,1.531 8.799,1.531 3.158,0 6.129,-0.551 8.83,-1.638 2.701,-1.089 5.076,-2.59 7.062,-4.461 1.973,-1.863 3.524,-4.093 4.606,-6.626 1.082,-2.543 1.631,-5.27 1.631,-8.105 l 0,-39.705 3.416,0 0,39.705 c 0,3.348 -0.665,6.542 -1.975,9.492 C 4.113,-4.757 2.289,-2.168 0,0"
             style="fill:#10262e;fill-opacity:1;fill-rule:nonzero;stroke:none"
             id="path3403"
             inkscape:connector-curvature="0" /></g><g
           id="g3405"
           transform="translate(984.8965,110.3125)"><path
             d="m 0,0 c -3.939,0 -6.889,1.025 -8.768,3.045 -1.896,2.039 -2.859,5.643 -2.859,10.705 l 0,54.106 14.953,0 0,3.416 -14.953,0 0,17.125 -3.416,0 0,-17.125 -6.488,0 0,-3.416 6.488,0 0,-54.106 c 0,-5.895 1.26,-10.27 3.74,-13.002 2.506,-2.762 6.309,-4.164 11.303,-4.164 0.912,0 2.111,0.103 3.559,0.305 1.488,0.205 3.076,0.644 4.718,1.302 l 0.629,0.252 0,3.403 L 7.564,1.357 C 5.912,0.756 4.457,0.375 3.24,0.229 1.996,0.078 0.906,0 0,0"
             style="fill:#10262e;fill-opacity:1;fill-rule:nonzero;stroke:none"
             id="path3407"
             inkscape:connector-curvature="0" /></g><g
           id="g3409"
           transform="translate(993.8027,112.1582)"><path
             d="m 0,0 0,-3.402 -0.629,-0.252 c -1.642,-0.659 -3.23,-1.098 -4.719,-1.303 -1.447,-0.201 -2.646,-0.305 -3.558,-0.305 -4.994,0 -8.797,1.403 -11.303,4.164 -2.48,2.733 -3.74,7.108 -3.74,13.002 l 0,54.106 -6.489,0 0,3.416 6.489,0 0,17.126 3.416,0 0,-17.126 14.953,0 0,-3.416 -14.953,0 0,-54.106 c 0,-5.062 0.963,-8.666 2.859,-10.705 1.879,-2.019 4.828,-3.045 8.768,-3.045 0.906,0 1.996,0.078 3.24,0.229 1.217,0.146 2.672,0.527 4.324,1.129 L 0,0 Z"
             style="fill:#10262e;fill-opacity:1;fill-rule:nonzero;stroke:none"
             id="path3411"
             inkscape:connector-curvature="0" /></g><g
           id="g3413"
           transform="translate(290.52,114.8125)"><path
             d="m 0,0 c -3.071,0 -5.995,0.658 -8.688,1.955 -2.785,1.34 -5.275,3.17 -7.405,5.438 -2.13,2.267 -3.842,4.978 -5.088,8.062 -1.25,3.088 -1.919,6.461 -1.987,9.956 l 0,1.348 c 0.068,3.561 0.737,6.934 1.987,10.024 1.247,3.084 2.959,5.796 5.089,8.062 2.129,2.268 4.619,4.097 7.403,5.437 2.694,1.297 5.618,1.955 8.689,1.955 3.064,0 6.002,-0.675 8.73,-2.005 2.812,-1.373 5.317,-3.253 7.445,-5.585 2.141,-2.35 3.862,-5.146 5.114,-8.31 1.247,-3.152 1.879,-6.59 1.879,-10.218 0,-3.629 -0.632,-7.067 -1.879,-10.219 C 20.037,12.734 18.317,9.939 16.176,7.592 14.047,5.256 11.542,3.377 8.731,2.006 5.965,0.656 3.109,0 0,0 M 22.439,50.393 C 19.618,53.566 16.242,56.092 12.406,57.9 8.527,59.727 4.354,60.653 0,60.653 c -3.553,0 -6.984,-0.611 -10.197,-1.816 -3.165,-1.187 -6.108,-2.859 -8.745,-4.969 -1.521,-1.217 -2.934,-2.575 -4.226,-4.06 l 0,39.589 -8.416,0 0,-86.76 c 0,-1.051 -0.062,-1.942 -0.183,-2.641 -0.139,-0.789 -0.274,-1.455 -0.402,-1.98 -0.188,-0.621 -0.372,-1.143 -0.547,-1.551 l -2.096,-4.881 8.9,0 0.964,1.947 c 0.15,0.301 0.289,0.641 0.97,2.807 0.545,1.736 0.81,3.758 0.81,6.182 l 0,0.142 c 1.298,-1.527 2.714,-2.93 4.233,-4.191 2.607,-2.168 5.547,-3.873 8.738,-5.071 3.213,-1.205 6.644,-1.816 10.197,-1.816 4.358,0 8.533,0.928 12.406,2.754 3.832,1.805 7.208,4.33 10.034,7.508 2.777,3.125 5.017,6.808 6.657,10.95 1.65,4.173 2.487,8.656 2.487,13.323 0,4.668 -0.837,9.15 -2.488,13.324 -1.639,4.14 -3.878,7.824 -6.657,10.95"
             style="fill:#10262e;fill-opacity:1;fill-rule:nonzero;stroke:none"
             id="path3415"
             inkscape:connector-curvature="0" /></g><g
           id="g3417"
           transform="translate(372.4502,128.7773)"><path
             d="m 0,0 c 0,-1.904 -0.4,-3.633 -1.223,-5.277 -0.853,-1.707 -2.009,-3.153 -3.537,-4.424 -1.563,-1.305 -3.43,-2.352 -5.55,-3.113 -2.124,-0.762 -4.465,-1.151 -6.958,-1.151 -2.41,0 -4.685,0.387 -6.766,1.147 -2.086,0.759 -3.938,1.808 -5.508,3.117 -1.526,1.271 -2.682,2.719 -3.535,4.422 C -33.9,-3.631 -34.3,-1.904 -34.3,0 l 0,46.57 -8.416,0 0,-46.57 c 0,-3.127 0.696,-6.129 2.069,-8.918 1.348,-2.746 3.234,-5.152 5.605,-7.15 2.305,-1.946 4.995,-3.498 7.993,-4.616 3.012,-1.125 6.303,-1.697 9.781,-1.697 3.549,0 6.894,0.57 9.939,1.692 3.048,1.119 5.764,2.673 8.07,4.621 2.367,1.994 4.253,4.4 5.606,7.15 C 7.72,-6.123 8.416,-3.123 8.416,0 l 0,46.57 L 0,46.57 0,0 Z"
             style="fill:#10262e;fill-opacity:1;fill-rule:nonzero;stroke:none"
             id="path3419"
             inkscape:connector-curvature="0" /></g><g
           id="g3421"
           transform="translate(422.3052,166.9316)"><path
             d="m 0,0 c 3.086,0 6.045,-0.646 8.793,-1.917 2.792,-1.296 5.263,-3.091 7.339,-5.337 2.098,-2.271 3.797,-4.991 5.047,-8.081 1.25,-3.087 1.918,-6.461 1.988,-9.957 l 0,-1.347 c -0.07,-3.567 -0.738,-6.94 -1.988,-10.026 -1.248,-3.089 -2.947,-5.81 -5.047,-8.081 -2.086,-2.256 -4.564,-4.076 -7.37,-5.41 -2.739,-1.303 -5.686,-1.963 -8.762,-1.963 -3.098,0 -5.945,0.672 -8.703,2.051 -2.815,1.406 -5.322,3.322 -7.457,5.699 -2.149,2.39 -3.873,5.213 -5.129,8.388 -1.248,3.15 -1.879,6.508 -1.879,9.981 0,3.627 0.631,7.065 1.879,10.217 1.256,3.178 2.963,5.981 5.072,8.331 2.078,2.317 4.547,4.164 7.336,5.49 C -6.145,-0.66 -3.156,0 0,0 m 32.166,-54.098 c -0.127,0.518 -0.262,1.178 -0.399,1.979 -0.123,0.689 -0.184,1.576 -0.184,2.637 l 0,86.76 -8.416,0 0,-39.73 C 21.861,-0.928 20.425,0.459 18.876,1.696 16.275,3.766 13.355,5.416 10.195,6.6 6.982,7.805 3.553,8.416 0,8.416 c -4.355,0 -8.529,-0.926 -12.408,-2.753 -3.828,-1.806 -7.199,-4.306 -10.016,-7.431 -2.789,-3.091 -5.033,-6.762 -6.672,-10.907 -1.652,-4.167 -2.488,-8.65 -2.488,-13.325 0,-4.675 0.836,-9.158 2.486,-13.323 1.639,-4.142 3.877,-7.825 6.657,-10.95 2.822,-3.176 6.199,-5.704 10.033,-7.508 3.875,-1.826 8.049,-2.754 12.408,-2.754 3.545,0 6.947,0.588 10.111,1.748 3.123,1.142 6.023,2.75 8.619,4.775 1.561,1.217 3.006,2.602 4.318,4.139 0.012,-2.283 0.278,-4.219 0.809,-5.906 0.713,-2.278 1.094,-3.082 1.769,-3.75 l 1.024,-1.006 8.166,0 -2.102,4.885 c -0.173,0.4 -0.357,0.923 -0.548,1.552"
             style="fill:#10262e;fill-opacity:1;fill-rule:nonzero;stroke:none"
             id="path3423"
             inkscape:connector-curvature="0" /></g><g
           id="g3425"
           transform="translate(505.3379,116.7754)"><path
             d="m 0,0 c -2.738,-1.303 -5.885,-1.963 -9.354,-1.963 -3.488,0 -6.669,0.649 -9.459,1.926 -2.8,1.281 -5.224,3.072 -7.207,5.326 -2.013,2.283 -3.591,5.031 -4.693,8.169 -1.121,3.188 -1.689,6.747 -1.689,10.58 0,3.832 0.568,7.392 1.689,10.581 1.106,3.143 2.69,5.918 4.711,8.248 1.979,2.281 4.398,4.087 7.191,5.364 2.79,1.278 5.973,1.925 9.457,1.925 3.342,0 6.456,-0.632 9.252,-1.879 2.799,-1.248 5.219,-3.003 7.196,-5.213 2.021,-2.261 3.642,-4.99 4.822,-8.108 1.182,-3.128 1.781,-6.603 1.781,-10.328 l 0,-1.18 c 0,-3.579 -0.582,-6.961 -1.73,-10.052 C 10.83,10.326 9.23,7.625 7.213,5.367 5.213,3.131 2.787,1.326 0,0 m 15.705,49.939 c -0.32,-0.476 -0.59,-1.06 -1.082,-2.709 -1.213,1.486 -2.576,2.871 -4.074,4.142 -2.615,2.213 -5.635,3.982 -8.981,5.259 -3.379,1.288 -7.052,1.941 -10.922,1.941 -4.916,0 -9.376,-0.95 -13.261,-2.826 -3.836,-1.851 -7.168,-4.38 -9.906,-7.517 -2.735,-3.132 -4.833,-6.849 -6.231,-11.048 -1.371,-4.115 -2.066,-8.537 -2.066,-13.143 0,-4.611 0.695,-9.017 2.07,-13.093 1.396,-4.15 3.486,-7.857 6.211,-11.021 2.75,-3.195 6.098,-5.735 9.951,-7.549 3.875,-1.826 8.326,-2.754 13.232,-2.754 3.87,0 7.518,0.631 10.842,1.873 3.299,1.233 6.28,2.938 8.854,5.068 1.207,0.999 2.328,2.086 3.355,3.258 l 0,-3.207 c -0.07,-3.58 -0.724,-6.988 -1.945,-10.127 -1.219,-3.131 -2.885,-5.89 -4.951,-8.199 -2.041,-2.279 -4.473,-4.107 -7.229,-5.435 -2.695,-1.297 -5.697,-1.954 -8.926,-1.954 -2.117,0 -4.214,0.352 -6.236,1.049 -2.072,0.713 -4.06,1.733 -5.91,3.033 l -2.408,1.694 -6.08,-6.084 3.396,-2.395 c 5.379,-3.791 11.178,-5.713 17.238,-5.713 4.344,0 8.508,0.901 12.379,2.68 3.83,1.762 7.204,4.221 10.03,7.309 2.795,3.058 5.027,6.701 6.636,10.826 1.608,4.129 2.422,8.586 2.422,13.246 l 0,43.779 c 0,1.068 0.063,1.984 0.19,2.733 0.133,0.802 0.265,1.475 0.394,2.003 0.19,0.628 0.375,1.15 0.549,1.555 l 2.092,4.879 -8.594,0 -1.039,-1.553 z"
             style="fill:#10262e;fill-opacity:1;fill-rule:nonzero;stroke:none"
             id="path3427"
             inkscape:connector-curvature="0" /></g><g
           id="g3429"
           transform="translate(583.0742,160.7427)"><path
             d="m 0,0 c 1.492,-2.022 2.629,-4.534 3.379,-7.462 0.539,-2.108 0.916,-4.399 1.123,-6.843 l -39.586,0 c 0.357,2.054 0.904,4.032 1.635,5.912 1.14,2.939 2.689,5.521 4.605,7.675 1.883,2.12 4.139,3.828 6.703,5.077 2.53,1.231 5.194,1.83 8.143,1.83 3.309,0 6.154,-0.56 8.459,-1.663 C -3.248,3.428 -1.436,1.947 0,0 m 4.863,-37.213 c -2.199,-2.746 -4.818,-4.918 -7.785,-6.454 -2.943,-1.523 -6.027,-2.263 -9.424,-2.263 -3.146,0 -6.123,0.676 -8.851,2.006 -2.801,1.367 -5.28,3.238 -7.366,5.564 -2.109,2.35 -3.816,5.152 -5.072,8.331 -0.916,2.315 -1.5,4.763 -1.746,7.308 l 48.455,0 0.028,3.471 c 0.084,10.248 -2.09,18.458 -6.463,24.404 -4.612,6.271 -11.516,9.451 -20.518,9.451 l -0.309,-0.001 c -4.375,-0.09 -8.458,-1.093 -12.142,-2.98 -3.633,-1.859 -6.801,-4.398 -9.418,-7.545 -2.578,-3.103 -4.609,-6.765 -6.041,-10.883 -1.42,-4.091 -2.141,-8.507 -2.141,-13.125 0,-4.67 0.815,-9.128 2.422,-13.246 1.604,-4.124 3.858,-7.788 6.697,-10.888 2.84,-3.104 6.19,-5.611 9.956,-7.449 3.847,-1.881 8.056,-2.834 12.509,-2.834 l 0.032,0 0.031,0.002 c 4.767,0.086 9.213,1.168 13.213,3.215 3.957,2.021 7.474,4.91 10.449,8.584 l 2.103,2.597 -6.316,5.612 -2.303,-2.877 z"
             style="fill:#10262e;fill-opacity:1;fill-rule:nonzero;stroke:none"
             id="path3431"
             inkscape:connector-curvature="0" /></g><g
           id="g3433"
           transform="translate(637.998,176.0576)"><path
             d="m 0,0 0,8.416 -17.652,0 0,14.736 -8.416,0 0,-14.736 -6.489,0 0,-8.416 6.489,0 0,-49.995 c 0,-6.627 1.437,-11.432 4.388,-14.682 3,-3.306 7.426,-4.984 13.155,-4.984 1.041,0 2.318,0.107 3.9,0.328 1.689,0.234 3.475,0.725 5.307,1.457 l 2.199,0.881 0,8.666 -4.697,-1.711 c -1.473,-0.535 -2.739,-0.869 -3.77,-0.994 -1.144,-0.139 -2.133,-0.211 -2.939,-0.211 -3.217,0 -5.551,0.756 -6.936,2.246 -1,1.076 -2.191,3.51 -2.191,9.004 L -17.652,0 0,0 Z"
             style="fill:#10262e;fill-opacity:1;fill-rule:nonzero;stroke:none"
             id="path3435"
             inkscape:connector-curvature="0" /></g></g></g></g></svg>