<?xml version="1.0" encoding="utf-8"?>
<!-- Generator: Adobe Illustrator 20.0.0, SVG Export Plug-In . SVG Version: 6.00 Build 0)  -->
<svg version="1.1" xmlns="http://www.w3.org/2000/svg" xmlns:xlink="http://www.w3.org/1999/xlink" x="0px" y="0px"
	 viewBox="0 0 448.66666 185" enable-background="new 0 0 448.66666 185" xml:space="preserve">
<g id="traits_construction">
</g>
<g id="espaces">
</g>
<g id="Calque_1">
	<g>
		<g>
			<polygon fill="#1C1C1C" points="43.33183,138.20903 11.46016,138.20903 11.46016,11.94704 43.33183,11.94704 43.33183,6.62254 
				11.46016,6.62254 6.13553,6.62254 6.13553,11.94704 6.13553,138.20903 6.13553,143.53366 11.46016,143.53366 43.33183,143.53366 
							"/>
		</g>
		<g>
			<polygon fill="#1C1C1C" points="137.72203,6.62254 105.86891,6.62254 105.86891,11.94704 137.72203,11.94704 
				137.72203,138.20903 105.86891,138.20903 105.86891,143.53366 137.72203,143.53366 143.04665,143.53366 143.04665,138.20903 
				143.04665,11.94704 143.04665,6.62254 			"/>
		</g>
	</g>
	<g>
		<path fill="#1C1C1C" d="M74.25976,51.70276l20.62592,49.12383l-18.22387-9.2122l-2.40205-1.21426l-2.40219,1.21426
			l-18.2236,9.21217L74.25976,51.70276 M74.25976,37.94894L43.1231,112.10611l31.13666-15.73979l31.13679,15.73979
			L74.25976,37.94894L74.25976,37.94894z"/>
	</g>
	<g>
		<g>
			<path fill="#1C1C1C" d="M181.62529,12.61391v124.50733h-7.03362V12.61391H181.62529z M186.39369,95.69674h0.07794
				l24.07268-41.58038h8.20677l-23.91682,41.58038l27.12138,41.42451h-7.97192L186.39369,95.69674z"/>
		</g>
		<g>
			<path fill="#1C1C1C" d="M254.31822,138.52818c-11.49757,0-24.54236-15.24142-24.54236-42.90938
				c0-27.66899,12.34651-42.98731,24.54236-42.98731c12.19273,0,24.54131,15.31832,24.54131,42.98731
				C278.85953,123.28676,266.04233,138.52818,254.31822,138.52818z M254.31822,131.49352
				c9.55135,0,17.03905-13.67759,17.03905-35.87471s-7.50433-35.95369-17.03905-35.95369
				c-9.86827,0-17.03906,13.75657-17.03906,35.95369S245.22408,131.49352,254.31822,131.49352z"/>
		</g>
		<g>
			<path fill="#1C1C1C" d="M286.68079,137.12125l35.79678-76.4399h-30.56079v-6.56499h41.26868l-35.87576,76.4399h34.70364v6.56499
				H286.68079z"/>
		</g>
		<g>
			<path fill="#1C1C1C" d="M386.80582,97.65128l-38.29788-0.07897l0.39069,3.8301
				c1.79764,19.07049,11.80203,30.09111,21.80643,30.09111c4.06494,0,7.97296-1.25003,11.02063-2.73489l2.34521,6.1743
				c-4.22079,2.03247-9.84851,3.59526-15.00659,3.59526c-15.16348,0-28.05966-18.91462-28.05966-45.41048
				c0-27.19932,13.59964-40.48621,26.49585-40.48621C383.52539,52.63149,390.55798,72.09268,386.80582,97.65128z
				 M367.18771,59.66512c-10.47302,0-16.88217,10.31717-18.21115,27.04345l-0.31174,4.29874h31.57599l0.39069-5.5498
				C381.25705,69.12296,376.33276,59.66512,367.18771,59.66512z"/>
		</g>
		<g>
			<path fill="#1C1C1C" d="M396.97125,110.78127c0-14.38106,10.94269-26.57379,33.13983-27.66795l3.36041-0.15691
				c-0.15585-17.27286-6.25223-23.29129-16.49146-23.29129c-3.83011,0-8.59744,1.95454-12.11478,3.59526l-2.42319-7.11259
				c5.39395-2.1104,11.88101-3.5163,16.25766-3.5163c12.97412,0,21.80643,8.59746,21.80643,24.77615v58.77531l-7.5033-3.5163
				l-1.7197,1.4059c-3.2825,2.658-7.5033,4.22079-12.27066,4.22079C407.05359,138.29335,396.97125,127.27376,396.97125,110.78127z
				 M433.4715,125.24129V90.14798h-3.43835c-14.22519,0-25.55859,5.23495-25.55859,22.43092
				c0,11.7241,6.87778,18.68082,16.17871,18.68082C426.03366,131.25972,430.25864,128.45418,433.4715,125.24129z"/>
		</g>
	</g>
	<g>
		<path fill="#1C1C1C" d="M356.61838,154.13319v1.79395l-3.46973,0.41016c0.31836,0.39941,0.60352,0.9209,0.85449,1.56348
			c0.25,0.64453,0.37598,1.37109,0.37598,2.17969c0,1.83398-0.62695,3.29883-1.87988,4.39258
			c-1.25391,1.09375-2.97363,1.64063-5.16113,1.64063c-0.55859,0-1.08301-0.04688-1.57227-0.13672
			c-1.20801,0.63672-1.81152,1.44141-1.81152,2.4082c0,0.51367,0.21094,0.89258,0.63281,1.13672
			c0.4209,0.24609,1.14453,0.36719,2.16992,0.36719h3.31543c2.02734,0,3.58594,0.42773,4.67383,1.2832
			c1.08789,0.85352,1.63184,2.0957,1.63184,3.72461c0,2.07422-0.83105,3.6543-2.49414,4.74219
			c-1.66406,1.08789-4.09082,1.63281-7.28125,1.63281c-2.44922,0-4.33789-0.45703-5.66504-1.36719
			c-1.32715-0.91211-1.99121-2.19922-1.99121-3.86328c0-1.13867,0.36523-2.125,1.09375-2.95508
			c0.72949-0.83203,1.75488-1.39648,3.07617-1.69336c-0.47852-0.21484-0.87988-0.55273-1.2041-1.00781
			c-0.3252-0.45508-0.4873-0.98438-0.4873-1.58984c0-0.68359,0.18164-1.28125,0.54688-1.79297
			c0.36426-0.51367,0.93945-1.00977,1.72656-1.48828c-0.96875-0.39844-1.75781-1.07617-2.36719-2.0332
			c-0.61035-0.95703-0.91406-2.05078-0.91406-3.28125c0-2.05078,0.61523-3.63086,1.8457-4.74219s2.97266-1.66602,5.22852-1.66602
			c0.98047,0,1.86328,0.11328,2.64941,0.3418H356.61838z M341.68088,176.00819c0,1.01367,0.42773,1.7832,1.28223,2.30664
			s2.0791,0.78711,3.6748,0.78711c2.38086,0,4.14355-0.35742,5.28906-1.06836c1.14453-0.71289,1.7168-1.67773,1.7168-2.89648
			c0-1.01563-0.31348-1.71875-0.93945-2.11133c-0.62695-0.39258-1.80566-0.58984-3.53711-0.58984h-3.40137
			c-1.28809,0-2.29004,0.30859-3.00781,0.92383S341.68088,174.85585,341.68088,176.00819z M343.21994,160.13124
			c0,1.31055,0.36914,2.30078,1.11035,2.97461c0.74023,0.67188,1.77148,1.00781,3.09277,1.00781
			c2.76953,0,4.15332-1.34375,4.15332-4.0332c0-2.81445-1.40137-4.22168-4.2041-4.22168c-1.33301,0-2.3584,0.3584-3.07617,1.07715
			C343.57834,157.65273,343.21994,158.71913,343.21994,160.13124z"/>
		<path fill="#1C1C1C" d="M370.75803,153.7914c0.83105,0,1.57813,0.06836,2.23828,0.20508l-0.39258,2.63086
			c-0.77539-0.16992-1.45898-0.25586-2.05078-0.25586c-1.51563,0-2.81152,0.61523-3.8877,1.8457
			c-1.07715,1.23047-1.61523,2.76367-1.61523,4.59766v10.04883h-2.83691v-18.73047h2.3418l0.32422,3.46875h0.13672
			c0.69434-1.21875,1.53223-2.1582,2.51172-2.82031C368.50803,154.12148,369.5842,153.7914,370.75803,153.7914z"/>
		<path fill="#1C1C1C" d="M394.41721,163.48085c0,3.05273-0.76855,5.4375-2.30762,7.15234
			c-1.53711,1.71484-3.66309,2.57227-6.37402,2.57227c-1.6748,0-3.16113-0.39258-4.45996-1.17969
			c-1.29883-0.78516-2.30176-1.91406-3.00781-3.38281c-0.70703-1.4707-1.06055-3.19141-1.06055-5.16211
			c0-3.05273,0.76367-5.43164,2.29102-7.13477c1.52637-1.70313,3.64551-2.55469,6.35742-2.55469
			c2.62012,0,4.70215,0.87109,6.24609,2.61426C393.64474,158.14882,394.41721,160.50819,394.41721,163.48085z M380.1467,163.48085
			c0,2.39258,0.47852,4.21484,1.43555,5.46875s2.36426,1.88086,4.22168,1.88086c1.85645,0,3.2666-0.625,4.22949-1.87305
			c0.96289-1.24609,1.44434-3.07227,1.44434-5.47656c0-2.38086-0.48145-4.18945-1.44434-5.42578s-2.38379-1.85449-4.26367-1.85449
			c-1.85742,0-3.25879,0.61035-4.2041,1.8291C380.61935,159.24843,380.1467,161.06483,380.1467,163.48085z"/>
		<path fill="#1C1C1C" d="M403.80588,154.13319v12.15039c0,1.52734,0.34766,2.66602,1.04297,3.41797
			c0.69434,0.75195,1.78223,1.12891,3.26367,1.12891c1.95898,0,3.39258-0.53711,4.29785-1.60742
			c0.90625-1.07031,1.3584-2.82031,1.3584-5.24609v-9.84375h2.83789v18.73047h-2.3418l-0.41016-2.51172h-0.1543
			c-0.58008,0.92188-1.38672,1.62891-2.41797,2.11914c-1.03125,0.48828-2.20703,0.73438-3.5293,0.73438
			c-2.27832,0-3.98438-0.54102-5.11816-1.62305c-1.13379-1.08398-1.7002-2.81445-1.7002-5.19531v-12.25391H403.80588z"/>
		<path fill="#1C1C1C" d="M433.0881,173.20546c-1.21973,0-2.33301-0.22656-3.34082-0.67578
			c-1.00879-0.44922-1.85449-1.14258-2.53809-2.07617h-0.20508c0.13672,1.09375,0.20508,2.13086,0.20508,3.11133v7.70703h-2.83691
			v-27.13867h2.30664l0.39355,2.5625h0.13672c0.72852-1.02539,1.57813-1.76563,2.5459-2.2207
			c0.96875-0.45605,2.0791-0.68359,3.33301-0.68359c2.4834,0,4.40039,0.84863,5.75098,2.5459
			c1.34961,1.69824,2.02539,4.0791,2.02539,7.14355c0,3.07617-0.6875,5.4668-2.05957,7.16992
			C437.43185,172.3539,435.5256,173.20546,433.0881,173.20546z M432.67795,156.20058c-1.91406,0-3.29785,0.53027-4.15332,1.58887
			c-0.85352,1.06055-1.29297,2.74609-1.31543,5.05859v0.63281c0,2.63281,0.43848,4.51563,1.31543,5.64844
			c0.87793,1.13281,2.28418,1.70117,4.22168,1.70117c1.61719,0,2.88477-0.65625,3.80273-1.9668
			c0.91699-1.30859,1.37598-3.11523,1.37598-5.41602c0-2.33594-0.45898-4.12891-1.37598-5.375
			C435.63107,156.8246,434.34103,156.20058,432.67795,156.20058z"/>
	</g>
	<g>
		<rect x="251.73798" y="154.64854" fill="#0A7CBA" width="10.85392" height="10.85392"/>
	</g>
	<g>
		<rect x="267.26608" y="154.64854" fill="#F59C30" width="10.85392" height="10.85392"/>
	</g>
	<g>
		<rect x="282.83246" y="154.64854" fill="#E73C4D" width="10.85392" height="10.85392"/>
	</g>
	<g>
		<rect x="298.39487" y="154.64854" fill="#6E6186" width="10.85392" height="10.85392"/>
	</g>
	<g>
		<rect x="313.96307" y="154.58217" fill="#5ABDB7" width="10.85392" height="10.85392"/>
	</g>
</g>
</svg>
