<?xml version="1.0" encoding="utf-8"?>
<!-- Generator: Adobe Illustrator 16.0.0, SVG Export Plug-In . SVG Version: 6.00 Build 0)  -->
<!DOCTYPE svg PUBLIC "-//W3C//DTD SVG 1.1//EN" "http://www.w3.org/Graphics/SVG/1.1/DTD/svg11.dtd">
<svg version="1.1" id="Calque_1" xmlns="http://www.w3.org/2000/svg" xmlns:xlink="http://www.w3.org/1999/xlink" x="0px" y="0px"
	 width="532.277px" height="131.7px" viewBox="0 0 532.277 131.7" enable-background="new 0 0 532.277 131.7" xml:space="preserve">
<g>
	<path fill="#12303F" d="M193.494,65.189l-1.427-0.559l1.148-1.01c2.122-1.873,3.108-4.144,3.108-7.15
		c0-5.456-3.603-10.963-11.65-10.963h-17.502c-1.715,0-2.867,1.176-2.867,2.928v35.382c0,1.726,1.178,2.927,2.867,2.927h19.559
		C194.789,86.744,200,82,200,74.66C200,70.136,197.748,66.86,193.494,65.189z M170.596,51.236h14.078
		c3.271,0,5.295,2.719,5.295,5.234c0,3.705-1.979,5.918-5.295,5.918h-14.078V51.236z M191.499,78.971
		c-1.171,1.337-2.815,2.044-4.769,2.044h-16.135V68.119h16.135c4.172,0,6.354,3.242,6.354,6.449
		C193.085,76.238,192.521,77.801,191.499,78.971z"/>
	<path fill="#12303F" d="M235.508,80.453h-19.934V69.242h16.631c1.018,0,1.855-0.334,2.43-0.97c0.514-0.568,0.797-1.341,0.797-2.179
		c0-1.565-0.999-3.146-3.227-3.146h-16.631V51.736h18.871c1.041,0,1.906-0.337,2.5-0.98c0.524-0.562,0.82-1.351,0.82-2.167
		c0-1.533-1.025-3.081-3.32-3.081h-22.359c-1.697,0-2.928,1.231-2.928,2.928v35.382c0,1.673,1.258,2.927,2.928,2.927h23.422
		c1.129,0,2.053-0.329,2.665-0.952c0.526-0.534,0.817-1.274,0.817-2.079C238.99,82.093,237.793,80.453,235.508,80.453z"/>
	<path fill="#12303F" d="M277.514,79.146l2.996,5.999c0.658,1.428,1.727,1.722,2.504,1.722c1.208,0,2.438-0.693,3.059-1.728
		c0.389-0.639,0.699-1.677,0-3.006l-17.574-34.959c-0.578-1.271-1.668-2.01-2.938-2.01c-1.289,0-2.488,0.774-3.121,2.015
		l-17.877,34.947c-1.023,2.156,0.074,3.811,1.492,4.665c0.408,0.071,0.807,0.108,1.186,0.108c1.568,0,2.641-0.583,3.184-1.733
		l2.939-6.021H277.514z M265.506,54.303l8.459,18.49h-17.666L265.506,54.303z"/>
	<path fill="#12303F" d="M326.244,81.662l-9.043-11.009l1.186-0.475c6.49-2.604,8.385-9.012,7.379-14.207
		c-0.93-4.826-4.865-10.464-12.891-10.464h-16.568c-1.574,0-2.801,1.259-2.801,2.865v35.384c0,2.135,1.565,3.09,3.118,3.09
		c1.587,0,3.298-1.006,3.298-3.216v-12.21h11.197l9.689,13.853c1.029,1.308,2.18,1.589,2.953,1.589c1.189,0,2.309-0.666,2.859-1.704
		C327.184,84.099,327.055,82.858,326.244,81.662z M299.922,66.128V51.176h12.953c2.24,0,4.117,0.8,5.427,2.313
		c1.142,1.318,1.77,3.099,1.77,5.015c0,3.789-2.472,7.624-7.196,7.624H299.922z"/>
	<path fill="#12303F" d="M349.395,88.057c7.805,0,16.238-3.313,16.495-12.611c0.224-8.477-7.224-10.534-14.423-12.526
		c-5.879-1.625-11.43-3.163-10.543-8.529c0.696-3.448,3.723-5.405,8.315-5.405c3.286,0,7.013,1.013,9.489,2.589
		c0.564,0.408,1.104,0.601,1.648,0.601c1.072,0,2.082-0.751,2.469-1.833c0.412-1.175-0.031-2.399-1.219-3.359
		c-2.855-2.192-7.044-3.459-11.479-3.459c-6.99,0-14.428,3.248-15.289,10.506c-1.045,9.597,6.611,11.74,14.016,13.815
		c5.345,1.497,10.396,2.912,10.781,7.357l0.012,0.089l-0.012,0.092c-0.457,4.342-3.748,6.833-9.018,6.833h-0.002
		c-3.896,0-8.676-1.406-11.623-3.419c-1.654-1.351-2.789-1.209-4.287,0.257c-0.863,1.371-0.83,3.512,0.734,4.789
		C338.607,86.443,343.947,88.057,349.395,88.057z"/>
	<path fill="#12303F" d="M404.262,45.322h-29.461c-2.164,0-3.133,1.532-3.133,3.051c0,1.521,0.969,3.053,3.133,3.053h11.832v32.392
		c0,2.195,1.578,3.179,3.145,3.179c1.549,0,3.213-0.995,3.213-3.179V51.426h11.271c1.018,0,1.859-0.326,2.434-0.947
		c0.512-0.55,0.793-1.297,0.793-2.105C407.488,46.854,406.488,45.322,404.262,45.322z"/>
	<path fill="#12303F" d="M441.58,80.453h-19.938V69.242h16.636c1.014,0,1.852-0.334,2.426-0.97c0.516-0.568,0.801-1.341,0.801-2.179
		c0-1.565-1-3.146-3.227-3.146h-16.636V51.736h18.876c1.043,0,1.906-0.337,2.502-0.98c0.52-0.559,0.816-1.351,0.816-2.167
		c0-1.533-1.027-3.081-3.318-3.081h-22.361c-1.697,0-2.928,1.231-2.928,2.928v35.382c0,1.673,1.26,2.927,2.928,2.927h23.424
		c1.129,0,2.053-0.329,2.662-0.952c0.529-0.534,0.818-1.274,0.818-2.079C445.061,82.093,443.865,80.453,441.58,80.453z"/>
	<path fill="#12303F" d="M487.67,77.951c-0.525-0.7-1.561-1.179-2.562-1.179c-0.684,0-1.316,0.214-1.842,0.62
		c-3.053,2.722-6.629,4.185-10.291,4.185c-10.457,0-15.134-7.917-15.134-15.762c0-7.628,4.677-15.325,15.134-15.325
		c4.158,0,6.881,1.078,9.396,3.717c1.111,1.111,3.217,1.218,4.435,0.134c0.562-0.584,0.884-1.423,0.86-2.305
		c-0.029-0.896-0.413-1.755-1.062-2.355c-4.289-3.705-8.375-5.296-13.629-5.296c-14.457,0-20.93,10.765-20.93,21.431
		c0,10.329,5.5,21.365,20.93,21.365c4.537,0,9.756-0.545,14.127-4.608C489.213,80.463,488.072,78.502,487.67,77.951z"/>
	<path fill="#12303F" d="M532.277,48.436c0-1.696-1.229-2.928-2.924-2.928c-1.822,0-3.305,1.312-3.305,2.928v14.513h-22.176V48.436
		c0-1.724-1.178-2.928-2.865-2.928c-2.184,0-3.486,1.094-3.486,2.928v35.382c0,1.808,1.336,2.927,3.486,2.927
		c1.637,0,2.865-1.254,2.865-2.927V69.242h22.176v14.575c0,1.587,1.512,2.927,3.305,2.927c1.669,0,2.924-1.254,2.924-2.927V48.436z"
		/>
</g>
<g>
	<g>
		<g id="XMLID_45_">
			<g>
				<path fill="#C6C6C6" d="M111.48,54.4c0.2,2.8-0.36,11.91-14.23,19.14l-26.98-5.89c-5.86-1.23-9.63-7-8.4-12.86
					c1.23-5.86,7-9.62,12.83-8.4l7.28,1.71c0.28,1.66,1.71,2.93,3.45,2.93c1.94,0,3.51-1.58,3.51-3.52S87.37,44,85.43,44
					c-1.16,0-2.18,0.56-2.82,1.43l-7.31-1.72c-6.89-1.45-13.68,2.61-15.76,9.18c-23.46,3.13-41.05,23.16-41.05,46.93
					c0,1.37,0.07,2.73,0.19,4.09c-4.45-5.53-7.99-11.9-10.33-18.92C6.34,78.98,5.31,72.7,5.26,66.32
					C17.5,47.08,38.2,34.75,60.83,33.15c0.58,1.16,1.76,1.96,3.14,1.96c1.94,0,3.51-1.58,3.51-3.52s-1.57-3.51-3.51-3.51
					c-1.52,0-2.81,0.97-3.29,2.32c-1.48,0.11-2.95,0.26-4.41,0.45c0.62-1.51,1.61-2.96,2.89-4.21c3.85-3.73,9.14-4.55,11.79-1.82
					c1.49,1.53,1.88,4.03,1.04,6.67c-0.23,0.72,0.17,1.5,0.9,1.73c0.04,0.01,0.08,0.01,0.13,0.02c0.07,0.04,0.15,0.07,0.23,0.09
					l10.51,2.76c7.89,2.61,10.43,13.46,10.45,13.57c0.12,0.52,0.52,0.92,1.04,1.04L111.48,54.4z"/>
				<path fill="#C6C6C6" d="M69.69,70.34l23.62,5.15c-1.52,0.62-3.32,1.19-4.94,1.22c-2.27-0.4-25.14-5.65-33.93-7.68
					c-0.4-0.09-0.83,0-1.16,0.26c-0.33,0.27-0.52,0.66-0.52,1.08v18.36c-1.26,0.53-2.14,1.78-2.14,3.23c0,1.95,1.57,3.52,3.51,3.52
					c1.95,0,3.52-1.57,3.52-3.52c0-1.45-0.88-2.7-2.14-3.23V72.1c2.14,0.49,6.05,1.39,10.46,2.4v30.73l-5.06-1.77
					c-0.54-0.19-1.14-0.03-1.51,0.41c-0.37,0.44-0.42,1.06-0.14,1.55l5.33,9.53l-3.99-1c-0.54-0.14-1.11,0.07-1.44,0.51
					c-0.33,0.45-0.36,1.06-0.07,1.53l6.31,10.45c-16.84-0.13-32.39-7.17-43.48-18.84c-0.45-2.56-0.68-5.17-0.68-7.78
					c0-22.07,16.1-40.72,37.72-44.08C58.31,62.54,62.87,68.91,69.69,70.34z"/>
				<path fill="#FFFFFF" d="M68.54,116.38l-5.11-9.13l3.46,1.21c0.03,0.01,0.05,0.02,0.08,0.02c0.05,0.02,0.09,0.03,0.15,0.04
					c0.04,0.01,0.09,0.01,0.14,0.01c0.03,0,0.05,0.01,0.09,0.01c0.01,0,0.02,0,0.04,0c0.05,0,0.1-0.01,0.14-0.02
					c0.05,0,0.09-0.01,0.13-0.02c0.04-0.01,0.08-0.02,0.12-0.04c0.05-0.01,0.09-0.03,0.13-0.04c0.04-0.02,0.08-0.04,0.11-0.06
					c0.04-0.03,0.08-0.05,0.12-0.08c0.04-0.02,0.07-0.05,0.1-0.07c0.03-0.04,0.07-0.06,0.1-0.1c0.03-0.03,0.05-0.06,0.08-0.09
					c0.03-0.04,0.06-0.08,0.08-0.12c0.03-0.03,0.04-0.07,0.06-0.1c0.02-0.05,0.05-0.09,0.07-0.14c0-0.02,0.01-0.03,0.01-0.04
					c0.01-0.03,0.01-0.05,0.02-0.08c0.02-0.05,0.03-0.09,0.04-0.14c0.01-0.05,0.01-0.1,0.01-0.15c0-0.03,0.01-0.06,0.01-0.08V75.13
					c8.74,2,18.28,4.16,19.34,4.32c0.07,0.01,0.15,0.02,0.22,0.02c4.35-0.04,9.45-3.05,9.85-3.29c18.62-9.51,16.06-22.64,15.93-23.2
					c-0.1-0.52-0.51-0.93-1.03-1.05L96.67,48.2c-0.81-2.88-4.02-12.06-12.13-14.75l-9.58-2.51c0.6-3.12-0.11-6.05-2.04-8.04
					c-3.71-3.81-10.74-3.02-15.68,1.77c-1.96,1.91-3.37,4.24-4.04,6.64C34.11,34.63,16.9,45.33,5.45,61.15
					c2.41-31.22,28.56-55.9,60.4-55.9c33.41,0,60.6,27.18,60.6,60.6c0,32.5-25.73,59.1-57.89,60.53c-0.01-0.02-0.02-0.04-0.03-0.06
					c0-0.01,0-0.02-0.01-0.03l-5.35-8.87l3.84,0.97c0.11,0.02,0.21,0.03,0.32,0.03c0,0,0.01,0.01,0.02,0.01
					c0.01,0,0.03-0.01,0.05-0.01c0.08,0,0.16-0.01,0.24-0.03c0.03-0.01,0.06-0.01,0.09-0.02c0.08-0.03,0.16-0.06,0.24-0.1
					c0.02-0.01,0.03-0.01,0.05-0.02l0.01-0.01c0.05-0.03,0.09-0.06,0.13-0.09c0.03-0.02,0.07-0.04,0.1-0.07
					c0.02-0.03,0.05-0.05,0.07-0.08c0.04-0.04,0.08-0.08,0.11-0.12c0.02-0.02,0.03-0.05,0.05-0.08c0.03-0.05,0.06-0.09,0.09-0.14
					c0.01-0.03,0.02-0.07,0.04-0.1c0.02-0.05,0.04-0.1,0.05-0.16c0,0,0.01-0.01,0.01-0.02c0.01-0.03,0.01-0.06,0.01-0.09
					c0.01-0.05,0.02-0.1,0.03-0.15c0-0.05,0-0.09-0.01-0.14c0-0.04,0-0.08,0-0.13c-0.01-0.05-0.02-0.1-0.04-0.15
					c-0.01-0.03-0.01-0.07-0.02-0.11c-0.02-0.05-0.05-0.1-0.07-0.16C68.56,116.43,68.56,116.4,68.54,116.38z"/>
				<path fill="#12303F" d="M54.44,69.03c8.79,2.03,31.66,7.28,33.93,7.68c1.62-0.03,3.42-0.6,4.94-1.22l-23.62-5.15
					c-6.82-1.43-11.38-7.8-10.73-14.6C37.34,59.1,21.24,77.75,21.24,99.82c0,2.61,0.23,5.22,0.68,7.78
					c11.09,11.67,26.64,18.71,43.48,18.84l-6.31-10.45c-0.29-0.47-0.26-1.08,0.07-1.53c0.33-0.44,0.9-0.65,1.44-0.51l3.99,1
					l-5.33-9.53c-0.28-0.49-0.23-1.11,0.14-1.55c0.37-0.44,0.97-0.6,1.51-0.41l5.06,1.77V74.5c-4.41-1.01-8.32-1.91-10.46-2.4v16.63
					c1.26,0.53,2.14,1.78,2.14,3.23c0,1.95-1.57,3.52-3.52,3.52c-1.94,0-3.51-1.57-3.51-3.52c0-1.45,0.88-2.7,2.14-3.23V70.37
					c0-0.42,0.19-0.81,0.52-1.08C53.61,69.03,54.04,68.94,54.44,69.03z M84.54,33.45c8.11,2.69,11.32,11.87,12.13,14.75l16.36,3.73
					c0.52,0.12,0.93,0.53,1.03,1.05c0.13,0.56,2.69,13.69-15.93,23.2c-0.4,0.24-5.5,3.25-9.85,3.29c-0.07,0-0.15-0.01-0.22-0.02
					c-1.06-0.16-10.6-2.32-19.34-4.32v32.04c0,0.02-0.01,0.05-0.01,0.08c0,0.05,0,0.1-0.01,0.15c-0.01,0.05-0.02,0.09-0.04,0.14
					c-0.01,0.03-0.01,0.05-0.02,0.08c0,0.01-0.01,0.02-0.01,0.04c-0.02,0.05-0.05,0.09-0.07,0.14c-0.02,0.03-0.03,0.07-0.06,0.1
					c-0.02,0.04-0.05,0.08-0.08,0.12c-0.03,0.03-0.05,0.06-0.08,0.09c-0.03,0.04-0.07,0.06-0.1,0.1c-0.03,0.02-0.06,0.05-0.1,0.07
					c-0.04,0.03-0.08,0.05-0.12,0.08c-0.03,0.02-0.07,0.04-0.11,0.06c-0.04,0.01-0.08,0.03-0.13,0.04
					c-0.04,0.02-0.08,0.03-0.12,0.04c-0.04,0.01-0.08,0.02-0.13,0.02c-0.04,0.01-0.09,0.02-0.14,0.02c-0.02,0-0.03,0-0.04,0
					c-0.04,0-0.06-0.01-0.09-0.01c-0.05,0-0.1,0-0.14-0.01c-0.06-0.01-0.1-0.02-0.15-0.04c-0.03,0-0.05-0.01-0.08-0.02l-3.46-1.21
					l5.11,9.13c0.02,0.02,0.02,0.05,0.04,0.07c0.02,0.06,0.05,0.11,0.07,0.16c0.01,0.04,0.01,0.08,0.02,0.11
					c0.02,0.05,0.03,0.1,0.04,0.15c0,0.05,0,0.09,0,0.13c0.01,0.05,0.01,0.09,0.01,0.14c-0.01,0.05-0.02,0.1-0.03,0.15
					c0,0.03,0,0.06-0.01,0.09c0,0.01-0.01,0.02-0.01,0.02c-0.01,0.06-0.03,0.11-0.05,0.16c-0.02,0.03-0.03,0.07-0.04,0.1
					c-0.03,0.05-0.06,0.09-0.09,0.14c-0.02,0.03-0.03,0.06-0.05,0.08c-0.03,0.04-0.07,0.08-0.11,0.12
					c-0.02,0.03-0.05,0.05-0.07,0.08c-0.03,0.03-0.07,0.05-0.1,0.07c-0.04,0.03-0.08,0.06-0.13,0.09l-0.01,0.01
					c-0.02,0.01-0.03,0.01-0.05,0.02c-0.08,0.04-0.16,0.07-0.24,0.1c-0.03,0.01-0.06,0.01-0.09,0.02c-0.08,0.02-0.16,0.03-0.24,0.03
					c-0.02,0-0.04,0.01-0.05,0.01c-0.01,0-0.02-0.01-0.02-0.01c-0.11,0-0.21-0.01-0.32-0.03l-3.84-0.97l5.35,8.87
					c0.01,0.01,0.01,0.02,0.01,0.03c0.01,0.02,0.02,0.04,0.03,0.06c32.16-1.43,57.89-28.03,57.89-60.53
					c0-33.42-27.19-60.6-60.6-60.6c-31.84,0-57.99,24.68-60.4,55.9C16.9,45.33,34.11,34.63,53.2,31.31c0.67-2.4,2.08-4.73,4.04-6.64
					c4.94-4.79,11.97-5.58,15.68-1.77c1.93,1.99,2.64,4.92,2.04,8.04L84.54,33.45z M111.48,54.4l-16.23-3.7
					c-0.52-0.12-0.92-0.52-1.04-1.04c-0.02-0.11-2.56-10.96-10.45-13.57l-10.51-2.76c-0.08-0.02-0.16-0.05-0.23-0.09
					c-0.05-0.01-0.09-0.01-0.13-0.02c-0.73-0.23-1.13-1.01-0.9-1.73c0.84-2.64,0.45-5.14-1.04-6.67c-2.65-2.73-7.94-1.91-11.79,1.82
					c-1.28,1.25-2.27,2.7-2.89,4.21c1.46-0.19,2.93-0.34,4.41-0.45c0.48-1.35,1.77-2.32,3.29-2.32c1.94,0,3.51,1.57,3.51,3.51
					s-1.57,3.52-3.51,3.52c-1.38,0-2.56-0.8-3.14-1.96C38.2,34.75,17.5,47.08,5.26,66.32c0.05,6.38,1.08,12.66,3.09,18.67
					c2.34,7.02,5.88,13.39,10.33,18.92c-0.12-1.36-0.19-2.72-0.19-4.09c0-23.77,17.59-43.8,41.05-46.93
					c2.08-6.57,8.87-10.63,15.76-9.18l7.31,1.72c0.64-0.87,1.66-1.43,2.82-1.43c1.94,0,3.51,1.57,3.51,3.51s-1.57,3.52-3.51,3.52
					c-1.74,0-3.17-1.27-3.45-2.93l-7.28-1.71c-5.83-1.22-11.6,2.54-12.83,8.4c-1.23,5.86,2.54,11.63,8.4,12.86l26.98,5.89
					C111.12,66.31,111.68,57.2,111.48,54.4z M65.85,0.25c36.17,0,65.6,29.43,65.6,65.6c0,36.17-29.43,65.6-65.6,65.6
					c-28.29,0-53.29-18.04-62.24-44.88C1.38,79.9,0.25,72.93,0.25,65.85C0.25,29.68,29.67,0.25,65.85,0.25z"/>
			</g>
			<g>
			</g>
		</g>
		<g>
			<path fill="#929292" d="M57.557,91.148c0,0-0.318-1.57-2.051-2.416c0,0.367-0.016-16.652-0.016-16.652l10.479,2.406v2.438
				l-8.412-2.082V91.148z"/>
		</g>
		<g>
			<path fill="#929292" d="M59.557,52.874l-3.742,0.645c1.451-8.014,9.721-11.719,19.391-9.842l0,0
				C68.173,42.409,61.697,46.28,59.557,52.874z"/>
		</g>
		<g>
			<path fill="#929292" d="M67.467,31.598L67.467,31.598c0-1.943-1.842-3.59-3.623-3.512c-1.412,0.062-2.682,0.922-3.172,2.315
				l-4.406,0.453c0.656-1.859,3.789-3.939,6.988-3.939C65.717,26.915,67.467,29.008,67.467,31.598z"/>
		</g>
		<path fill="#929292" d="M41.27,59.331L41.27,59.331c-14.457,8.695-25.669,22.117-25.669,38.992c0,1.33,0,0.322,0.026,1.506
			c0,0,2.418,3.408,3.049,4.086c-0.172-2.006-0.206-3.12-0.191-4.391C18.672,82.93,27.41,67.665,41.27,59.331z"/>
		<g>
			<path fill="#929292" d="M64.586,114.954l-5.531-10.033l0.004,3.285c-0.027,0.443,0.08,0.854,0.229,1.117l2.795,5L64.586,114.954z
				"/>
		</g>
		<g>
			<path fill="#929292" d="M65.395,126.444l-6.518-10.877l0.004,3.285c-0.025,0.443,0.08,0.854,0.229,1.117l3.631,6.414
				L65.395,126.444z"/>
		</g>
	</g>
	<path fill="#929292" d="M93.289,75.511l-23.707-5.188l0.003-0.016c-6.657-1.422-11.296-7.72-10.642-14.573
		c0,0-1.584,0.226-3.443,0.679c-0.098,7.366,6.914,13.431,13.896,14.894l0.002-0.005l22.016,4.837L93.289,75.511z"/>
	<path fill="#EDEDED" d="M48.773,58.656c-16.361,6.667-27.601,22.796-27.601,41.256c0,2.61,0.292,5.13,0.743,7.69
		c0.584,0.671,4.053,4.046,5.068,4.718C26.984,112.32,17.033,73.399,48.773,58.656z"/>
	<path fill="#E6E6E6" d="M94.176,49.649c0.119,0.52,0.52,0.92,1.039,1.04l16.23,3.7c0.047,0.656,0.148,0.931-0.008,2.072
		c0,0-14.422-3.205-16.121-3.615C94.979,51.684,94.176,49.649,94.176,49.649z"/>
	<g>
		<path fill="#E6E6E6" d="M66.505,55.892c0.907-4.333,4.752-7.44,8.94-7.799l-0.161-0.049c-5.056-1.058-10.058,2.202-11.124,7.282
			c-1.053,5.015,2.123,9.947,7.092,11.099C67.653,64.371,65.607,60.16,66.505,55.892z"/>
	</g>
	<g>
		<path fill="#929292" d="M97.254,73.55l-3.941-0.859c12.908-6.251,17.127-12.064,18.127-16.236
			C111.109,59.898,109.172,67.242,97.254,73.55z"/>
	</g>
</g>
</svg>
