<svg id="b1045ac1-2769-4b39-8b09-74ee87997ab4" data-name="Calque 1" xmlns="http://www.w3.org/2000/svg" width="508.62" height="69.17" viewBox="0 0 508.62 69.17">
  <defs>
    <style>
      .\38 3b6d609-60f8-461e-8732-4805b29b30ba {
        fill: #222;
      }

      .\39 606f34e-43a5-42dd-8493-69a1fe84503b {
        fill: #28bc83;
      }
    </style>
  </defs>
  <title>logo</title>
  <path class="83b6d609-60f8-461e-8732-4805b29b30ba" d="M379,317.36c5.27,0,9.32-1.85,12-6.33v2.32a3.66,3.66,0,0,0,3.66,3.66H398a3.66,3.66,0,0,0,3.66-3.66V281.52a3.66,3.66,0,0,0-3.66-3.66h-3.36a3.66,3.66,0,0,0-3.66,3.66v1.61c-2.56-4.48-6.47-6.33-12-6.33-8,0-17.36,7.26-17.36,20.42S371.13,317.36,379,317.36Zm2.49-30.74c5.26,0,9.46,4.41,9.46,10.6,0,6.62-4.2,10.32-9.46,10.32s-9.4-4-9.4-10.32S376.32,286.62,381.52,286.62Zm122,30.74a33.64,33.64,0,0,0,9-1.15,3.24,3.24,0,0,0,2.38-3.12v-3.83a2.6,2.6,0,0,0-3.27-2.51,30.44,30.44,0,0,1-7.83,1.07c-6.55,0-10.25-2.78-11.39-7.12H514.8a3.26,3.26,0,0,0,3.25-3.23c0.15-8.92-3.3-20.68-17.51-20.68-10,0-18.79,6.9-18.79,20.14S491,317.36,503.54,317.36ZM500.69,286c4.62,0,6.83,2.85,7.4,7.4h-16C493,288.75,495.78,286,500.69,286Zm-85.43,31h3.36a3.66,3.66,0,0,0,3.66-3.66V298.79c0-8.83,4.35-10.89,10.28-10.89a3.54,3.54,0,0,0,3.35-3.64V281a3.44,3.44,0,0,0-3.82-3.63c-3.93.3-8.33,2.45-9.81,7.74v-3.6a3.66,3.66,0,0,0-3.66-3.66h-3.36a3.66,3.66,0,0,0-3.66,3.66v31.82A3.66,3.66,0,0,0,415.26,317ZM296,317h3.36a3.66,3.66,0,0,0,3.66-3.66V294.66c0-6.26,4.06-8.47,8.11-8.47,4.34,0,7,2.63,7,9.11v18a3.66,3.66,0,0,0,3.66,3.66h3.36a3.66,3.66,0,0,0,3.66-3.66V294.66c0-6.26,4.05-8.47,8.11-8.47,4.34,0,7,2.63,7,9.11v18A3.65,3.65,0,0,0,347.5,317h3.36a3.66,3.66,0,0,0,3.66-3.66v-18.9c0-12.88-6.73-17.65-14.2-17.65-6.22,0-10.8,2-13.4,7.46A12.33,12.33,0,0,0,315,276.8c-5.41,0-10,2.35-12,6.19v-1.47a3.66,3.66,0,0,0-3.66-3.66H296a3.66,3.66,0,0,0-3.66,3.66v31.82A3.66,3.66,0,0,0,296,317Zm149.68,0H449a3.66,3.66,0,0,0,3.66-3.66V302.7l4.38-3.54,11.72,16.72A2.58,2.58,0,0,0,470.9,317h5.82a2.57,2.57,0,0,0,2.12-4l-14.56-20.6,11.84-10a2.57,2.57,0,0,0-1.71-4.48h-5.5a2.58,2.58,0,0,0-1.65.59L452.68,290.4V266.58a3.66,3.66,0,0,0-3.66-3.66h-3.36a3.66,3.66,0,0,0-3.66,3.66v46.76A3.66,3.66,0,0,0,445.66,317ZM107,317.36c5.27,0,9.32-1.85,12-6.33v2.32a3.66,3.66,0,0,0,3.66,3.66h3.36a3.66,3.66,0,0,0,3.66-3.66V281.52a3.66,3.66,0,0,0-3.66-3.66h-3.36a3.66,3.66,0,0,0-3.66,3.66v1.61c-2.56-4.48-6.47-6.33-12-6.33-8,0-17.36,7.26-17.36,20.42S99.07,317.36,107,317.36Zm2.49-30.74c5.27,0,9.46,4.41,9.46,10.6,0,6.62-4.2,10.32-9.46,10.32s-9.39-4-9.39-10.32S104.27,286.62,109.46,286.62Zm438.83-8.75h-9.78v-5.38a3.66,3.66,0,0,0-3.66-3.66h-3.36a3.66,3.66,0,0,0-3.66,3.66v5.38h-2a3.66,3.66,0,0,0-3.66,3.66v1.94a3.66,3.66,0,0,0,3.66,3.66h2v14c0,10.11,4.48,16.22,13.73,16.22h0c1.33,0,6.57-.13,7.73-0.36a2.16,2.16,0,0,0,1.72-2.13v-5.94a2.11,2.11,0,0,0-2.36-2.16c-7.89,1.55-10.15-1-10.15-4.36v-15.3h9.78a3.66,3.66,0,0,0,3.65-3.66v-1.94A3.65,3.65,0,0,0,548.29,277.87ZM180.44,317h3.36a3.65,3.65,0,0,0,3.66-3.66V302.7l4.38-3.54,11.72,16.72a2.57,2.57,0,0,0,2.12,1.12h5.82a2.57,2.57,0,0,0,2.12-4l-14.56-20.6,11.84-10a2.57,2.57,0,0,0-1.71-4.48h-5.5a2.57,2.57,0,0,0-1.64.59L187.45,290.4V266.58a3.66,3.66,0,0,0-3.66-3.66h-3.36a3.66,3.66,0,0,0-3.66,3.66v46.76A3.66,3.66,0,0,0,180.44,317Zm-22,.36a22.51,22.51,0,0,0,8.38-1.48,2.22,2.22,0,0,0,1.44-2.08v-5.21a2.22,2.22,0,0,0-3-2.08,20.73,20.73,0,0,1-6.62,1c-5.74,0-10.65-4-10.91-10.18-0.28-6.57,4.34-10.74,10.6-10.74a25,25,0,0,1,6.62.9,2.22,2.22,0,0,0,2.85-2.12v-5.12a2.24,2.24,0,0,0-1.47-2.09,23.41,23.41,0,0,0-8.49-1.4c-10.75,0-20.57,6.9-20.57,20.14S147,317.36,158.45,317.36ZM47.68,317H51a3.65,3.65,0,0,0,3.65-3.65v-1.61a14.09,14.09,0,0,0,12,5.62c8,0,17.36-6.9,17.36-20.14S74.69,276.8,66.65,276.8a14.09,14.09,0,0,0-12,5.62V266.58A3.66,3.66,0,0,0,51,262.92H47.68A3.66,3.66,0,0,0,44,266.58v46.77A3.66,3.66,0,0,0,47.68,317Zm16.48-30.38c5.2,0,9.39,4.34,9.39,10.6,0,6.47-4.2,10.32-9.39,10.32s-9.47-3.84-9.47-10.32C54.69,291,58.89,286.62,64.16,286.62Z" transform="translate(-43.33 -262.56)"/>
  <g>
    <path class="9606f34e-43a5-42dd-8493-69a1fe84503b" d="M549.63,327.18l-90,0a2.33,2.33,0,0,0-.49-0.06H315.64c-29,0-49.51-1.13-62.37-6.78-24.81-10.89-23.55-29.6-23.49-30.43,0,0,0-.07,0-0.1s0-.07,0-0.1a22.56,22.56,0,0,1,45.12,0s0,0.07,0,.1,0,0.06,0,.1c0.06,0.71,1.07,15.77-16.49,26.75a57,57,0,0,0,5.71,1.64c16.6-12.26,15.39-28,15.32-28.8h0a27.1,27.1,0,0,0-54.21,0h0c-0.08.93-1.76,22.74,26.19,35,13.33,5.85,33,7.11,62.11,7.16h0.05l236,0.09h0A2.28,2.28,0,0,0,549.63,327.18Z" transform="translate(-43.33 -262.56)"/>
    <path class="9606f34e-43a5-42dd-8493-69a1fe84503b" d="M189.07,327.09H45.61a2.28,2.28,0,0,0,0,4.55H189.07c24.77,0,42.8-.79,56-4.34a59.72,59.72,0,0,1-5.64-3.38C227,326.47,210.3,327.09,189.07,327.09Z" transform="translate(-43.33 -262.56)"/>
  </g>
</svg>
