<svg height="21" viewBox="0 0 128 21" width="128" xmlns="http://www.w3.org/2000/svg"><g fill="none"><g fill="#16253b"><path d="m41 .54491018v20.45508982h4v-21z"/><path d="m56.6595745 4c-.9574468 0-1.9148936.18378378-2.8495441.55135135-.9118541.36756757-1.7325228.91891892-2.4392097 1.63108108-.706687.71216216-1.2765958 1.60810811-1.7097265 2.68783787-.4331307 1.0797297-.6610942 2.3432432-.6610942 3.7675675 0 1.1945946.1595745 2.3202703.5015198 3.3310811.3419452 1.0108108.843465 1.9067568 1.5501519 2.6418919.6838906.7351351 1.5729484 1.3324324 2.6443769 1.745946 1.0714286.4364864 2.325228.6432432 3.7841946.6432432.5699088 0 1.1626139-.022973 1.7325228-.0918919.5699088-.0689189 1.1170212-.1378378 1.618541-.2297297.5015197-.0918919.9574468-.2067568 1.3677811-.3216216.319149-.0918919.5927052-.2067568.8206687-.2986487l-.5471124-3.354054c-.5015198.1837837-1.0942249.3445945-1.8009119.4824324-.843465.1608108-1.6869301.2297297-2.5531915.2297297-1.3677811 0-2.4848024-.2986486-3.3282674-.8959459-.8434651-.5972973-1.3221885-1.4243244-1.4361703-2.4581081l-.0227963-.2527027h10.6003039c.0227964-.2067568.0227964-.4364865.0455927-.6432433.0227964-.3216216.0227964-.6202703.0227964-.8959459 0-2.7108108-.6610942-4.80135138-1.9604863-6.20270273-1.3221885-1.35540541-3.1231003-2.06756757-5.3799392-2.06756757zm3.3054711 7.0527027h-6.656535l.0455927-.2527027c.0683891-.4135135.1595745-.827027.2963526-1.2175676.1367781-.4135135.3419453-.781081.6155015-1.1027027.2735563-.3216216.6155016-.57432429 1.0030396-.75810808.4103343-.18378378.8890577-.29864865 1.4361702-.29864865.5699088 0 1.0714285.11486487 1.4589665.29864865.387538.20675676.7294833.45945948.9802432.78108108s.4559271.6891892.5699088 1.0797297c.1139818.3905406.1823708.8040541.2051672 1.2175676z"/><path d="m74.8490109 10.7489768c-.8822455 0-1.7644909.0927694-2.6003024.255116-.8125945.1855389-1.5555381.4638472-2.1823967.8349249-.6268587.3710778-1.1376324.9045021-1.5091041 1.5306958-.3714718.6493861-.5572077 1.4379263-.5572077 2.3656207 0 .9740792.1625189 1.8090041.4875567 2.4815826.3250378.6493861.7893775 1.2060027 1.3930192 1.6002728.6036416.4174625 1.3465852.7189632 2.2056137.9045021s1.8341419.2783083 2.9021232.2783083c1.69484 0 3.1575102-.0927694 4.3647934-.3015007.116085-.0231923 2.6699535-.3710777 2.6467365-3.1773533v-6.9345157c0-1.0204639-.116085-1.9481583-.3482548-2.75989087-.2321699-.81173261-.6036417-1.50750341-1.1376323-2.06412006-.5339907-.55661664-1.2537173-.99727148-2.1591798-1.29877217-.9054624-.30150068-2.0663117-.4638472-3.4361139-.4638472-.5339907 0-1.0911984.02319236-1.6251891.06957708-.5339906.04638472-1.0447643.1159618-1.532321.18553888s-.9286795.16234652-1.3465852.25511596c-.3018209.06957708-.5804247.13915416-.8358115.20873125l.5339906 3.33969983c.5339907-.16234649 1.1376324-.30150065 1.810925-.41746245.7893775-.11596181 1.601972-.18553889 2.4145665-.18553889 1.2769343 0 2.1591797.25511597 2.7163874.78854024.5339907.5334243.7893775 1.2291951.7893775 2.1105048v.7421555l-.3018208-.0927694c-.2786038-.0927695-.6732926-.1391542-1.1144153-.2087313-.4179058-.0231923-.9751134-.0463847-1.5787551-.0463847zm.4411228 7.0968622c-.9054625 0-1.6251891-.1623465-2.1591798-.4638472-.5804246-.324693-.8590284-.904502-.8590284-1.739427 0-.4174625.0928679-.7885402.3018208-1.0900409.1857359-.2783083.4643397-.5102319.7893775-.6725785.3250378-.1623465.6965096-.2783083 1.1144153-.324693.3946888-.0463847.8358115-.0927695 1.3001513-.0927695.3250378 0 .6965096.0231924 1.0679813.0695771.3946888.0463847.6965096.0927695.8822455.1391542l.1857359.0463847v3.9658936l-.1857359.0231924c-.2553868.0463847-.6036416.069577-1.0447644.0927694-.4643397.0463847-.9054624.0463847-1.3930191.0463847z"/><path d="m93.1889401 5.66832669c-1.1520737 0-2.1658986.16733068-3.0645161.52290837-.8755761.35557769-1.6359447.85756972-2.2350231 1.52689243-.5990783.66932271-1.0829493 1.48505976-1.4055299 2.44721121-.3225807.9621513-.483871 2.0498007-.483871 3.2420318 0 1.1713148.1843318 2.2380478.5760369 3.1792829.3686636.941235.921659 1.7360557 1.6359447 2.3844621s1.5898617 1.1713148 2.6267281 1.5059761c1.0368663.3555777 2.2580645.5229084 3.59447.5229084.5529954 0 1.1520738-.0209164 1.7741936-.0627491.6221198-.0418326 1.2211981-.1045816 1.8202765-.1882469.1382488-.0209164 2.9723502-.3555777 2.9723502-3.2838646v-17.4651394l-4.2626728.5438247v5.87749004l-.3225807-.12549801c-.5069124-.20916335-1.0368663-.35557769-1.5207373-.48107569-.483871-.08366535-1.0599078-.14641435-1.7050691-.14641435zm.6527865 12.33167331c-1.2733813 0-2.2446043-.442623-2.8920863-1.3067915-.6258993-.8430914-.9496403-1.9601874-.9496403-3.3302108 0-2.9086651 1.1223022-4.3629977 3.3453237-4.3629977.4748201 0 .9496403.06323186 1.4028777.18969555.4532374.1264637.8417266.27400469 1.1438849.46370024l.1079137.06323183v8.11475408l-.1726619.0421546c-.2158274.0421546-.4964029.0632319-.8417266.1053865-.3669065 0-.733813.0210772-1.1438849.0210772z"/></g><path d="m111.5 5c3.050218 0 5.5 2.47379913 5.5 5.5 0 3.0262009-2.473799 5.5-5.5 5.5-3.050218 0-5.5-2.4737991-5.5-5.5 0-3.02620087 2.473799-5.5 5.5-5.5z" fill="#2387fe"/><path d="m112.605531 0c-.209607 1.29157176-.395924 2.55922551-.512372 3.77904328 3.400291.16742597 6.125182 3.06150342 6.125182 6.60136672 0 3.5876994-2.771471 6.4817768-6.218341 6.6252848.256186 2.5592255.605531 3.9943052.605531 3.9943052 7.965066-2.3200456 15.394469-10.428246 15.394469-10.428246-7.243086-7.46241459-15.394469-10.571754-15.394469-10.571754z" fill="#2387fe"/><path d="m6.08921933 21c-.84758364 0-1.85130111-.0443975-2.98884758-.1109937-1.00371747-.0665962-2.00743495-.1775898-2.96654275-.3773784h-.11152417v-14.0961945l4.14869889-.68816067v11.74312897l.28996282.0221987c.22304833.0221988.49070632.0443975.80297398.0443975.28996283.0221987.64684015.0221987 1.07063197.0221987 2.4535316 0 4.32713751-.6437632 5.53159851-1.8868922 1.204461-1.2431289 1.8066915-2.9968287 1.8066915-5.1723044 0-2.28646934-.5799257-4.04016913-1.739777-5.23890063-1.1598513-1.19873151-2.98884758-1.79809726-5.46468401-1.79809726-.33457249 0-.66914498 0-1.02602231.02219874-.35687732 0-.69144981.04439746-1.00371747.06659619-.17843866.02219873-1.73977695.13319239-4.28252788.62156448l-.15613383.02219873.04460967-3.64059196.11152416-.02219873c1.00371747-.17758986 1.98513011-.35517971 3.03345725-.4217759 1.18215613-.0665962 2.20817844-.11099366 3.05576208-.11099366 1.78438662 0 3.41263941.19978858 4.86245354.59936575 1.4275093.39957717 2.6765799 1.02114165 3.7026022 1.86469345 1.0260223.84355179 1.8066915 1.93128964 2.3643123 3.21881606.5576208 1.30972516.8252788 2.93023256.8252788 4.79492604 0 1.7758985-.2899628 3.3520084-.8252788 4.6617336-.5576208 1.3097251-1.33829 2.397463-2.3420074 3.2632135-1.0037175.8657505-2.275093 1.5095138-3.7249071 1.9534884-1.51672863.4217759-3.18959109.6437632-5.01858737.6437632z" fill="#16253b"/><path d="m30.0115108 21c-1.1971223 0-2.3021583-.2048193-3.2690648-.6144578-.9669064-.4096386-1.818705-.978581-2.5093525-1.729585-.6906475-.7282464-1.2431654-1.6385543-1.6345323-2.6854083-.391367-1.0468541-.5985612-2.2302544-.5985612-3.5046854 0-1.2744311.2071942-2.4350737.5985612-3.4819278.3913669-1.04685404.9669064-1.93440424 1.6805755-2.66265056s1.5654676-1.29718875 2.5323741-1.70682731c.9669065-.40963855 2.0489209-.61445783 3.2-.61445783 1.1741007 0 2.2561151.20481928 3.2460432.61445783.9669064.40963856 1.818705.97858099 2.5093525 1.70682731s1.2431654 1.61579652 1.6345323 2.66265056c.391367 1.0468541.5985612 2.2074967.5985612 3.4819278 0 1.274431-.1841727 2.4578313-.552518 3.5046854-.3683453 1.046854-.9208633 1.9571619-1.6115108 2.6854083-.6906475.7282463-1.542446 1.3199464-2.5093525 1.729585-.9899281.4096385-2.094964.6144578-3.3151079.6144578zm0-13.56358768c-1.1971223 0-2.1410072.47791164-2.8086331 1.38821958-.6446043.8875502-.9669065 2.1164658-.9669065 3.6412316 0 1.5247657.3223022 2.7536813.9669065 3.6639892.6676259.9558233 1.6115108 1.433735 2.8086331 1.433735s2.1410072-.4779117 2.8086331-1.433735c.6215827-.9103079.9438849-2.1392235.9438849-3.6639892 0-1.5247658-.3223022-2.7536814-.9438849-3.6412316-.6676259-.91030794-1.5884892-1.38821958-2.8086331-1.38821958z" fill="#16253b"/></g></svg>