<?xml version="1.0" encoding="UTF-8" standalone="no"?>
<!-- Created with Inkscape (http://www.inkscape.org/) -->

<svg
   xmlns:dc="http://purl.org/dc/elements/1.1/"
   xmlns:cc="http://creativecommons.org/ns#"
   xmlns:rdf="http://www.w3.org/1999/02/22-rdf-syntax-ns#"
   xmlns:svg="http://www.w3.org/2000/svg"
   xmlns="http://www.w3.org/2000/svg"
   xmlns:sodipodi="http://sodipodi.sourceforge.net/DTD/sodipodi-0.dtd"
   xmlns:inkscape="http://www.inkscape.org/namespaces/inkscape"
   version="1.1"
   id="svg2"
   xml:space="preserve"
   width="4284.8398"
   height="1589.1866"
   viewBox="0 0 4284.8398 1589.1866"
   sodipodi:docname="anybox-sourire-noir-ok.svg"
   inkscape:version="0.92.1 r15371"><metadata
     id="metadata8"><rdf:RDF><cc:Work
         rdf:about=""><dc:format>image/svg+xml</dc:format><dc:type
           rdf:resource="http://purl.org/dc/dcmitype/StillImage" /><dc:title /></cc:Work></rdf:RDF></metadata><defs
     id="defs6"><clipPath
       clipPathUnits="userSpaceOnUse"
       id="clipPath18"><path
         d="M 0,1191.891 H 3213.635 V 0 H 0 Z"
         id="path16"
         inkscape:connector-curvature="0" /></clipPath><clipPath
       clipPathUnits="userSpaceOnUse"
       id="clipPath26"><path
         d="M 70.1536,1082.52 H 3144.96 V 160.335 H 70.1536 Z"
         id="path24"
         inkscape:connector-curvature="0" /></clipPath><clipPath
       clipPathUnits="userSpaceOnUse"
       id="clipPath62"><path
         d="m 60.3992,208.276 v 0 0 z"
         id="path60"
         inkscape:connector-curvature="0" /></clipPath><clipPath
       clipPathUnits="userSpaceOnUse"
       id="clipPath74"><path
         d="m 1085.1,208.276 v 0 0 z"
         id="path72"
         inkscape:connector-curvature="0" /></clipPath><clipPath
       clipPathUnits="userSpaceOnUse"
       id="clipPath86"><path
         d="m 1740.28,244.698 v 0 0 z"
         id="path84"
         inkscape:connector-curvature="0" /></clipPath><clipPath
       clipPathUnits="userSpaceOnUse"
       id="clipPath90"><path
         d="m 1740.28,244.698 v 0 0 z"
         id="path88"
         inkscape:connector-curvature="0" /></clipPath><clipPath
       clipPathUnits="userSpaceOnUse"
       id="clipPath110"><path
         d="m 2540.95,244.698 v 0 0 z"
         id="path108"
         inkscape:connector-curvature="0" /></clipPath><clipPath
       clipPathUnits="userSpaceOnUse"
       id="clipPath114"><path
         d="m 2540.95,244.698 v 0 0 z"
         id="path112"
         inkscape:connector-curvature="0" /></clipPath></defs><sodipodi:namedview
     pagecolor="#ffffff"
     bordercolor="#666666"
     borderopacity="1"
     objecttolerance="10"
     gridtolerance="10"
     guidetolerance="10"
     inkscape:pageopacity="0"
     inkscape:pageshadow="2"
     inkscape:window-width="1920"
     inkscape:window-height="1016"
     id="namedview4"
     showgrid="false"
     inkscape:zoom="0.13598081"
     inkscape:cx="1679.9993"
     inkscape:cy="752.99294"
     inkscape:window-x="0"
     inkscape:window-y="27"
     inkscape:window-maximized="1"
     inkscape:current-layer="g10" /><g
     id="g10"
     inkscape:groupmode="layer"
     inkscape:label="anybox-sourire-noir-ok"
     transform="matrix(1.3333333,0,0,-1.3333333,0,1589.1867)"><g
       id="g12"
       inkscape:export-xdpi="2.3416109"
       inkscape:export-ydpi="2.3416109"><g
         id="g14"
         clip-path="url(#clipPath18)"><g
           id="g20"><g
             id="g22" /><g
             id="g54"><g
               clip-path="url(#clipPath26)"
               id="g52"
               style="opacity:0.89999402"><g
                 transform="translate(408.0595,533.2975)"
                 id="g30"><path
                   d="m 0,0 c 0,-27.266 -7.79,-43.821 -32.135,-66.218 -33.109,-30.187 -73.035,-45.768 -120.75,-45.768 -63.297,0 -100.301,30.187 -100.301,81.798 0,53.559 36.03,80.825 122.698,93.485 C -44.795,74.982 -27.266,78.877 0,91.536 V 0 m 142.174,-112.96 c -8.764,-1.948 -12.66,-1.948 -17.528,-1.948 -28.24,0 -43.821,14.607 -43.821,39.926 v 299.928 c 0,90.563 -66.218,139.252 -191.837,139.252 -74.008,0 -135.357,-21.423 -169.44,-59.401 -23.371,-26.292 -33.109,-55.506 -35.057,-106.143 h 81.799 c 6.816,62.322 43.821,90.562 119.776,90.562 C -40.899,289.216 0,261.95 0,213.26 v -21.423 c 0,-34.083 -20.45,-48.69 -84.72,-56.48 -114.907,-14.607 -132.436,-18.502 -163.597,-31.161 -59.401,-24.345 -89.589,-70.113 -89.589,-136.331 0,-92.51 64.271,-150.938 167.492,-150.938 64.271,0 115.882,22.397 173.335,74.982 5.843,-51.611 31.162,-74.982 83.747,-74.982 16.554,0 29.213,1.948 55.506,8.764 v 61.349"
                   style="fill:#231f20;fill-opacity:1;fill-rule:nonzero;stroke:none"
                   id="path28"
                   inkscape:connector-curvature="0" /></g><g
                 transform="translate(639.4722,882.8889)"
                 id="g34"><path
                   d="m 0,0 v -510.267 h 81.799 v 281.426 c 0,104.195 54.532,172.361 138.278,172.361 64.27,0 105.17,-38.952 105.17,-100.301 v -353.486 h 80.824 v 385.622 c 0,84.719 -63.296,139.252 -161.649,139.252 -75.956,0 -124.646,-29.214 -169.44,-100.301 L 74.982,0 H 0"
                   style="fill:#231f20;fill-opacity:1;fill-rule:nonzero;stroke:none"
                   id="path32"
                   inkscape:connector-curvature="0" /></g><g
                 transform="translate(1491.1906,882.8889)"
                 id="g38"><path
                   d="M 0,0 -141.2,-397.307 -271.688,0 h -86.668 l 172.362,-512.215 -31.162,-80.825 c -12.659,-36.03 -31.161,-49.663 -65.244,-49.663 -11.685,0 -25.318,1.948 -42.847,5.843 v -73.035 c 16.555,-8.764 33.109,-12.659 54.533,-12.659 26.292,0 54.532,8.764 75.956,24.345 25.318,18.502 39.925,39.925 55.506,80.825 L 87.642,0 H 0"
                   style="fill:#231f20;fill-opacity:1;fill-rule:nonzero;stroke:none"
                   id="path36"
                   inkscape:connector-curvature="0" /></g><g
                 transform="translate(1875.8383,821.5399)"
                 id="g42"><path
                   d="M 0,0 C 90.563,0 148.99,-78.877 148.99,-200.601 148.99,-316.482 88.615,-395.36 0,-395.36 c -85.694,0 -142.174,77.904 -142.174,197.68 C -142.174,-77.904 -85.694,0 0,0 m -222.998,260.976 12.443,-605.088 36.295,-36.295 22.974,8.066 c 38.952,-59.402 91.885,-98.974 162.972,-98.974 134.383,0 222.024,110.038 222.024,279.478 0,165.544 -83.746,267.793 -218.129,267.793 -70.113,0 -119.777,-26.293 -157.755,-83.746 v 268.766 h -80.824"
                   style="fill:#4bc2b7;fill-opacity:1;fill-rule:nonzero;stroke:none"
                   id="path40"
                   inkscape:connector-curvature="0" /></g><g
                 transform="translate(2408.1531,822.5137)"
                 id="g46"><path
                   d="m 0,0 c 91.536,0 146.069,-74.982 146.069,-201.575 0,-119.776 -56.48,-195.732 -146.069,-195.732 -90.563,0 -146.069,74.982 -146.069,198.653 C -146.069,-75.956 -90.563,0 0,0 m -0.974,74.982 c -143.147,0 -229.815,-102.248 -229.815,-273.636 0,-171.387 85.694,-273.635 230.789,-273.635 143.147,0 230.789,102.248 230.789,269.74 0,176.256 -84.72,277.531 -231.763,277.531"
                   style="fill:#4bc2b7;fill-opacity:1;fill-rule:nonzero;stroke:none"
                   id="path44"
                   inkscape:connector-curvature="0" /></g><g
                 transform="translate(2968.7075,636.5195)"
                 id="g50"><path
                   d="M 0,0 171.387,246.369 H 79.851 L -42.847,61.349 -165.545,246.369 h -92.51 L -87.641,-3.895 -267.793,-263.898 h 92.51 L -45.768,-68.166 81.798,-263.898 h 94.458 L 0,0"
                   style="fill:#231f20;fill-opacity:1;fill-rule:nonzero;stroke:none"
                   id="path48"
                   inkscape:connector-curvature="0" /></g></g></g></g><g
           id="g56"><g
             id="g58" /><g
             id="g66"><g
               clip-path="url(#clipPath62)"
               id="g64"
               style="opacity:0.89999402" /></g></g><g
           id="g68"><g
             id="g70" /><g
             id="g78"><g
               clip-path="url(#clipPath74)"
               id="g76"
               style="opacity:0.89999402" /></g></g><g
           id="g80"><g
             id="g82" /><g
             id="g102"><g
               clip-path="url(#clipPath86)"
               id="g100"
               style="opacity:0.89999402"><g
                 id="g98"><g
                   id="g92" /><g
                   id="g96"><g
                     clip-path="url(#clipPath90)"
                     id="g94"
                     style="opacity:0.00784302" /></g></g></g></g></g><g
           id="g104"><g
             id="g106" /><g
             id="g126"><g
               clip-path="url(#clipPath110)"
               id="g124"
               style="opacity:0.89999402"><g
                 id="g122"><g
                   id="g116" /><g
                   id="g120"><g
                     clip-path="url(#clipPath114)"
                     id="g118"
                     style="opacity:0.00784302" /></g></g></g></g></g><g
           id="g128"
           transform="translate(1879.2466,253.2597)"><path
             d="m 0,0 c 9.169,-56.156 38.724,-103.561 86.977,-133.546 48.253,-29.985 107.464,-40.331 163.745,-32.843 23.531,3.131 46.611,9.389 68.746,18.158 22.079,8.746 43.197,19.944 63.279,32.796 4.71,3.014 9.868,5.77 14.283,9.123 4.894,3.717 9.719,7.53 14.459,11.453 9.475,7.842 18.614,16.122 27.279,24.905 8.48,8.597 16.504,17.677 23.913,27.27 14.686,19.014 26.965,40.126 35.426,62.844 1.867,5.011 3.545,10.096 5.018,15.245 1.357,4.741 2.977,9.738 2.267,14.744 -0.73,-2.488 -1.89,-4.937 -3.257,-7.234 -13.651,-22.942 -32.153,-41.014 -52.346,-57.774 -20.87,-17.322 -43.178,-32.792 -66.576,-46.252 -13.837,-7.96 -28.053,-15.218 -42.571,-21.762 -50.175,-22.615 -106.949,-38.107 -162.1,-33.453 -48.992,4.134 -96.889,26.692 -133.056,60.739 -8.675,8.166 -16.714,16.972 -24.192,26.308 -3.76,4.693 -7.387,9.498 -10.917,14.376 C 7.765,-11.292 0.714,-4.392 0,0"
             style="fill:#4bc2b7;fill-opacity:1;fill-rule:nonzero;stroke:none"
             id="path130"
             inkscape:connector-curvature="0" /></g></g></g></g></svg>