<?xml version="1.0" encoding="UTF-8" standalone="no"?>
<!-- Created with Inkscape (http://www.inkscape.org/) -->

<svg
   xmlns:dc="http://purl.org/dc/elements/1.1/"
   xmlns:cc="http://creativecommons.org/ns#"
   xmlns:rdf="http://www.w3.org/1999/02/22-rdf-syntax-ns#"
   xmlns:svg="http://www.w3.org/2000/svg"
   xmlns="http://www.w3.org/2000/svg"
   xmlns:sodipodi="http://sodipodi.sourceforge.net/DTD/sodipodi-0.dtd"
   xmlns:inkscape="http://www.inkscape.org/namespaces/inkscape"
   width="423.1188mm"
   height="323.95038mm"
   viewBox="0 0 1499.2399 1147.8557"
   id="svg5380"
   version="1.1"
   inkscape:version="0.91 r13725"
   sodipodi:docname="pycon-fr-2016.svg">
  <defs
     id="defs5382" />
  <sodipodi:namedview
     id="base"
     pagecolor="#ffffff"
     bordercolor="#666666"
     borderopacity="1.0"
     inkscape:pageopacity="0.0"
     inkscape:pageshadow="2"
     inkscape:zoom="0.35"
     inkscape:cx="847.47709"
     inkscape:cy="568.21357"
     inkscape:document-units="px"
     inkscape:current-layer="layer1"
     showgrid="false"
     fit-margin-top="0"
     fit-margin-left="0"
     fit-margin-right="0"
     fit-margin-bottom="0"
     inkscape:window-width="1600"
     inkscape:window-height="836"
     inkscape:window-x="0"
     inkscape:window-y="27"
     inkscape:window-maximized="1" />
  <metadata
     id="metadata5385">
    <rdf:RDF>
      <cc:Work
         rdf:about="">
        <dc:format>image/svg+xml</dc:format>
        <dc:type
           rdf:resource="http://purl.org/dc/dcmitype/StillImage" />
        <dc:title></dc:title>
      </cc:Work>
    </rdf:RDF>
  </metadata>
  <g
     inkscape:label="Layer 1"
     inkscape:groupmode="layer"
     id="layer1"
     transform="translate(895.33423,18.708435)">
    <g
       transform="translate(-10693.107,-3448.9696)"
       id="g5212">
      <path
         style="display:inline;fill:#000000;fill-opacity:1;fill-rule:evenodd;stroke:none"
         d="m 10542.158,3528.2844 c 29.544,36.649 -53.071,51.2333 -8.529,85.923 18.996,11.7788 63.371,-13.7192 24.388,-45.0567 -5.037,-2.683 17.533,-21.2096 -15.859,-40.8663 z"
         id="path5214"
         inkscape:connector-curvature="0" />
      <path
         style="display:inline;fill:#000000;fill-opacity:1;fill-rule:evenodd;stroke:none"
         d="m 10591.441,3615.1717 c -7.391,0.6956 -14.514,5.2569 -21.239,16.8951 -8.434,19.5115 28.656,53.3526 53.616,11.7493 1.766,-5.0774 26.542,11.1835 40.248,-22.8851 -23.497,24.6839 -47.53,-4.7817 -69.348,-5.759 -1.067,-0.048 -2.221,-0.1 -3.277,-3e-4 z"
         id="path5216"
         inkscape:connector-curvature="0" />
      <path
         style="display:inline;fill:#000000;fill-opacity:1;fill-rule:evenodd;stroke:none"
         d="m 10500.069,3615.5224 c -21.819,0.9732 -45.857,30.5538 -69.349,5.8653 13.699,34.0713 38.74,17.8153 40.505,22.893 24.953,41.6081 61.787,7.7742 53.357,-11.739 -7.684,-13.3022 -15.976,-17.4001 -24.513,-17.0193 z"
         id="path5218"
         inkscape:connector-curvature="0" />
    </g>
    <g
       id="g5220"
       transform="matrix(1,0,0,-1,-10693.107,4559.4084)">
      <path
         inkscape:connector-curvature="0"
         id="path5222"
         d="m 10542.158,3528.2844 c 29.544,36.649 -53.071,51.2333 -8.529,85.923 18.996,11.7788 63.371,-13.7192 24.388,-45.0567 -5.037,-2.683 17.533,-21.2096 -15.859,-40.8663 z"
         style="display:inline;fill:#000000;fill-opacity:1;fill-rule:evenodd;stroke:none" />
      <path
         inkscape:connector-curvature="0"
         id="path5224"
         d="m 10591.441,3615.1717 c -7.391,0.6956 -14.514,5.2569 -21.239,16.8951 -8.434,19.5115 28.656,53.3526 53.616,11.7493 1.766,-5.0774 26.542,11.1835 40.248,-22.8851 -23.497,24.6839 -47.53,-4.7817 -69.348,-5.759 -1.067,-0.048 -2.221,-0.1 -3.277,-3e-4 z"
         style="display:inline;fill:#000000;fill-opacity:1;fill-rule:evenodd;stroke:none" />
      <path
         inkscape:connector-curvature="0"
         id="path5226"
         d="m 10500.069,3615.5224 c -21.819,0.9732 -45.857,30.5538 -69.349,5.8653 13.699,34.0713 38.74,17.8153 40.505,22.893 24.953,41.6081 61.787,7.7742 53.357,-11.739 -7.684,-13.3022 -15.976,-17.4001 -24.513,-17.0193 z"
         style="display:inline;fill:#000000;fill-opacity:1;fill-rule:evenodd;stroke:none" />
    </g>
    <path
       d="m -705.48092,551.3756 -81.761,0 q -4.072,0 -4.072,-3.5629 l 0,-15.1419 q 0,-3.5628 4.072,-3.5628 l 23.808,0 0,-168.6402 -23.808,0 q -4.072,0 -4.072,-3.5628 l 0,-15.1421 q 0,-3.5628 4.072,-3.5628 l 96.484,0 q 33.206,0 54.194,18.408 21.302,18.111 21.302,49.2857 0,30.8777 -20.675,48.098 -20.675,16.9234 -58.267,16.9234 l -41.977,0 0,58.1928 30.7,0 q 3.759,0 3.759,3.5628 l 0,15.1419 q 0,3.5629 -3.759,3.5629 z m -30.7,-101.5404 40.724,0 q 52.628,0 52.628,-43.9414 0,-22.8615 -15.037,-34.1438 -14.723,-11.2822 -37.277,-11.2822 l -41.038,0 0,89.3674 z"
       style="font-style:normal;font-variant:normal;font-weight:normal;font-stretch:normal;font-size:medium;line-height:125%;font-family:Sanchez;-inkscape-font-specification:Sanchez;letter-spacing:0px;word-spacing:0px;fill:#000000;fill-opacity:1;stroke:none;stroke-width:1px;stroke-linecap:butt;stroke-linejoin:miter;stroke-opacity:1"
       id="path5228"
       inkscape:connector-curvature="0"
       inkscape:export-xdpi="17.062151"
       inkscape:export-ydpi="17.062151" />
    <path
       d="m -463.72192,551.3756 -75.496,0 q -3.759,0 -3.759,-3.5629 l 0,-15.1419 q 0,-3.5628 3.759,-3.5628 l 24.121,0 0,-63.537 -12.531,-20.4862 q -40.723,-68.5843 -52.314,-84.617 l -21.302,0 q -4.072,0 -4.072,-3.5628 l 0,-15.1421 q 0,-3.5628 4.072,-3.5628 l 70.484,0 q 3.759,0 3.759,3.5628 l 0,15.1421 q 0,3.5628 -3.759,3.5628 l -20.675,0 49.182,82.5387 1.879,0 48.869,-82.5387 -20.675,0 q -3.76,0 -3.76,-3.5628 l 0,-15.1421 q 0,-3.5628 3.76,-3.5628 l 70.796,0 q 3.76,0 3.76,3.5628 l 0,15.1421 q 0,3.5628 -3.76,3.5628 l -21.615,0 q -15.349,21.3769 -40.097,62.9432 -24.434,41.5662 -24.747,41.8631 l 0,63.8339 24.121,0 q 3.759,0 3.759,3.5628 l 0,15.1419 q 0,3.5629 -3.759,3.5629 z"
       style="font-style:normal;font-variant:normal;font-weight:normal;font-stretch:normal;font-size:medium;line-height:125%;font-family:Sanchez;-inkscape-font-specification:Sanchez;letter-spacing:0px;word-spacing:0px;fill:#000000;fill-opacity:1;stroke:none;stroke-width:1px;stroke-linecap:butt;stroke-linejoin:miter;stroke-opacity:1"
       id="path5230"
       inkscape:connector-curvature="0"
       inkscape:export-xdpi="17.062151"
       inkscape:export-ydpi="17.062151" />
    <path
       d="m -183.58392,497.6363 q 1.566,1.1877 1.566,2.9691 0,1.4845 -1.566,4.4535 -1.253,2.6721 -4.699,7.4226 -3.133,4.4535 -11.591,12.4698 -8.458,8.0164 -18.482,13.9544 -10.025,5.6411 -26.627,10.0947 -16.29,4.4535 -35.086,4.4535 -45.736,0 -76.435,-30.284 -30.386,-30.2839 -30.386,-79.2727 0,-49.2857 30.699,-78.3821 31.013,-29.0963 74.556,-29.0963 48.555,0 70.484,31.7684 l -0.314,-26.4243 q -0.626,-3.5628 3.76,-3.5628 l 17.542,0 q 4.073,0 4.073,3.5628 l 0,64.7246 q 0,3.8597 -4.073,3.8597 l -19.735,0 q -3.759,0 -3.759,-3.8597 l 0,-2.672 q 0,-13.6576 -19.736,-28.2057 -19.422,-14.8452 -48.555,-14.8452 -29.133,0 -52.628,21.9708 -23.181,21.6739 -23.181,61.7556 0,39.7848 23.494,62.0524 23.495,21.9707 55.134,21.9707 34.146,0 53.881,-14.5481 15.35,-11.2823 22.555,-22.8614 2.506,-4.4536 5.952,-1.7815 l 13.157,8.3132 z"
       style="font-style:normal;font-variant:normal;font-weight:normal;font-stretch:normal;font-size:medium;line-height:125%;font-family:Sanchez;-inkscape-font-specification:Sanchez;letter-spacing:0px;word-spacing:0px;fill:#000000;fill-opacity:1;stroke:none;stroke-width:1px;stroke-linecap:butt;stroke-linejoin:miter;stroke-opacity:1"
       id="path5232"
       inkscape:connector-curvature="0"
       inkscape:export-xdpi="17.062151"
       inkscape:export-ydpi="17.062151" />
    <path
       d="m 60.57808,443.8972 c 0,32.4613 -10.338,58.8855 -31.013,79.2727 -20.4659996,20.1893 -46.363,30.284 -77.689,30.284 -31.117,0 -57.118,-10.1936 -78.002,-30.5809 -20.884,-20.5851 -31.326,-47.0094 -31.326,-79.2727 0,-32.4613 10.756,-58.3907 32.266,-77.7883 21.511,-19.5955 47.198,-29.3932 77.062,-29.3932 29.864,0 55.4470004,9.7977 76.749,29.3932 21.302,19.3976 31.953,45.426 31.953,78.0852 z"
       style="font-style:normal;font-variant:normal;font-weight:normal;font-stretch:normal;font-size:medium;line-height:125%;font-family:Sanchez;-inkscape-font-specification:Sanchez;letter-spacing:0px;word-spacing:0px;fill:#000000;fill-opacity:1;stroke:none;stroke-width:1px;stroke-linecap:butt;stroke-linejoin:miter;stroke-opacity:1"
       id="path5234"
       inkscape:connector-curvature="0"
       sodipodi:nodetypes="scscscscs"
       inkscape:export-xdpi="17.062151"
       inkscape:export-ydpi="17.062151" />
    <path
       d="m 271.11808,551.3756 -16.916,0 q -5.952,0 -9.398,-2.0783 -3.446,-2.3753 -6.578,-7.1257 l -90.533,-134.1996 -15.663,-24.9397 -0.626,0 0,146.0757 24.121,0 q 4.072,0 4.072,3.5628 l 0,15.1419 q 0,3.5629 -4.072,3.5629 l -75.183,0 q -4.072,0 -4.072,-3.5629 l 0,-15.1419 q 0,-3.5628 4.072,-3.5628 l 23.808,0 0,-168.6402 -23.808,0 q -4.072,0 -4.072,-3.5628 l 0,-15.1421 q 0,-3.5628 4.072,-3.5628 l 43.857,0 q 9.084,0 15.976,10.0947 l 89.279,132.4182 17.856,28.7994 0.627,0 0,-149.0446 -24.121,0 q -3.76,0 -3.76,-3.5628 l 0,-15.1421 q 0,-3.5628 3.76,-3.5628 l 75.495,0 q 3.759,0 3.759,3.5628 l 0,15.1421 q 0,3.5628 -3.759,3.5628 l -24.121,0 0,187.3449 q 0,3.5629 -4.072,3.5629 z"
       style="font-style:normal;font-variant:normal;font-weight:normal;font-stretch:normal;font-size:medium;line-height:125%;font-family:Sanchez;-inkscape-font-specification:Sanchez;letter-spacing:0px;word-spacing:0px;fill:#000000;fill-opacity:1;stroke:none;stroke-width:1px;stroke-linecap:butt;stroke-linejoin:miter;stroke-opacity:1"
       id="path5236"
       inkscape:connector-curvature="0"
       inkscape:export-xdpi="17.062151"
       inkscape:export-ydpi="17.062151" />
    <g
       id="g5238"
       style="font-style:normal;font-weight:normal;font-size:428.99868774px;line-height:125%;font-family:sans-serif;letter-spacing:0px;word-spacing:0px;fill:#000000;fill-opacity:1;stroke:none;stroke-width:1px;stroke-linecap:butt;stroke-linejoin:miter;stroke-opacity:1"
       transform="matrix(0.59748764,0,0,0.56628643,1043.9091,-212.92556)"
       inkscape:export-xdpi="17.062151"
       inkscape:export-ydpi="17.062151">
      <path
         inkscape:connector-curvature="0"
         id="path5240"
         style="font-style:normal;font-variant:normal;font-weight:normal;font-stretch:normal;font-family:Sanchez;-inkscape-font-specification:Sanchez"
         d="m -1111.3152,1353.3425 -96.9537,0 q -5.577,0 -5.577,-5.148 l 0,-18.4469 q 0,-5.148 5.577,-5.148 l 23.5949,0 0,-153.5815 -24.4529,0 q -5.577,0 -5.577,-5.148 l 0,-18.447 q 0,-5.1479 5.577,-5.1479 l 24.4529,0 0,-26.598 q 0,-35.6069 18.0179,-54.0538 18.447,-18.8759 51.0509,-18.8759 24.0239,0 43.3289,17.1599 2.5739,2.145 2.5739,4.29 0,1.716 -1.2869,3.003 l -10.296,13.2989 q -3.861,3.861 -7.293,0.858 -10.296,-8.1509 -25.7399,-8.1509 -15.444,0 -25.3109,11.1539 -9.438,10.725 -9.438,31.7459 l 0,26.169 54.9118,0 q 5.577,0 5.577,5.1479 l 0,18.447 q 0,5.148 -5.577,5.148 l -54.9118,0 0,153.5815 37.7519,0 q 5.148,0 5.148,5.148 l 0,18.4469 q 0,5.148 -5.148,5.148 z" />
      <path
         inkscape:connector-curvature="0"
         id="path5242"
         style="font-style:normal;font-variant:normal;font-weight:normal;font-stretch:normal;font-family:Sanchez;-inkscape-font-specification:Sanchez"
         d="m -968.82734,1353.3425 -81.93876,0 q -5.577,0 -5.577,-5.148 l 0,-18.4469 q 0,-5.148 5.577,-5.148 l 23.5949,0 0,-153.5815 -23.5949,0 q -5.577,0 -5.577,-5.148 l 0,-18.447 q 0,-5.1479 5.577,-5.1479 l 50.1929,0 q 5.57694,0 5.57694,5.1479 l 0,53.6249 1.287,0 q 1.287,-6.864 9.00897,-18.876 7.72198,-12.0119 16.73095,-19.7339 9.43797,-8.151 26.59792,-14.586 17.58895,-6.4349 39.46788,-6.4349 5.57698,0 5.57698,5.5769 l 0,22.737 q 0,5.577 -5.57698,5.577 l -9.00897,0 q -36.89389,0 -58.77282,23.5949 -21.87894,23.5949 -21.87894,53.6248 l 0,72.0718 22.73693,0 q 5.57699,0 5.57699,5.148 l 0,18.4469 q 0,5.148 -5.57699,5.148 z" />
    </g>
    <path
       style="fill:#000000"
       d="m -791.63336,611.15234 667.88989,0 0,175.5158 -667.88989,0 z"
       id="rect5244"
       inkscape:connector-curvature="0" />
    <g
       transform="matrix(0.27899423,0,0,0.26442498,-414.82792,381.7199)"
       style="font-style:normal;font-weight:normal;font-size:428.99868774px;line-height:125%;font-family:sans-serif;letter-spacing:173.35443115px;word-spacing:0px;fill:#000000;fill-opacity:1;stroke:none;stroke-width:1px;stroke-linecap:butt;stroke-linejoin:miter;stroke-opacity:1"
       id="flowRoot5247">
      <path
         d="m -950.01172,1353.3425 -37.32288,0 q -15.444,0 -25.7399,-20.5919 l -40.3259,-81.9388 q -5.148,-10.7249 -11.154,-15.8729 -5.577,-5.148 -15.8729,-5.577 l -54.4829,0 0,91.8057 38.6099,0 q 5.148,0 5.148,5.148 l 0,21.8789 q 0,5.148 -5.148,5.148 l -108.5366,0 q -5.577,0 -5.577,-5.148 l 0,-21.8789 q 0,-5.148 5.577,-5.148 l 32.6039,0 0,-243.6712 -32.6039,0 q -5.577,0 -5.577,-5.148 l 0,-21.879 q 0,-5.148 5.577,-5.148 l 132.1316,0 q 45.9028,0 74.64573,24.453 28.74291,24.0239 28.74291,68.2108 0,67.3528 -63.06284,84.0837 8.151,6.435 20.163,28.7429 l 36.03586,70.3558 26.16892,0 q 5.14799,0 5.14799,5.148 l 0,21.8789 q 0,5.148 -5.14799,5.148 z m -184.89848,-154.4395 54.9119,0 q 72.9298,0 72.9298,-59.6308 0,-61.7758 -72.9298,-61.7758 l -54.9119,0 0,121.4066 z"
         style="font-style:normal;font-variant:normal;font-weight:normal;font-stretch:normal;font-family:Sanchez;-inkscape-font-specification:Sanchez;letter-spacing:63.45329666px;fill:#ffffff"
         id="path5997"
         inkscape:connector-curvature="0" />
      <path
         d="m -613.6214,1353.3425 -227.7983,0 q -5.57699,0 -5.57699,-5.148 l 0,-21.8789 q 0,-5.148 5.57699,-5.148 l 32.6039,0 0,-243.6712 -32.6039,0 q -5.57699,0 -5.57699,-5.148 l 0,-21.879 q 0,-5.148 5.57699,-5.148 l 227.7983,0 q 5.57698,0 5.57698,5.148 l 0,69.0688 q 0,5.577 -5.57698,5.577 l -23.16593,0 q -5.14798,0 -5.14798,-5.577 l 0,-42.0418 -129.55761,0 0,106.3916 108.53667,0 q 5.57698,0 5.57698,5.148 l 0,21.8789 q 0,5.148 -5.57698,5.148 l -108.53667,0 0,105.1047 129.12861,0 0,-42.0419 q 0,-5.148 5.57698,-5.148 l 23.16593,0 q 5.57698,0 5.57698,5.148 l 0,69.0688 q 0,5.148 -5.57698,5.148 z"
         style="font-style:normal;font-variant:normal;font-weight:normal;font-stretch:normal;font-family:Sanchez;-inkscape-font-specification:Sanchez;letter-spacing:63.45329666px;fill:#ffffff"
         id="path5999"
         inkscape:connector-curvature="0" />
      <path
         d="m -236.85158,1353.3425 -23.16593,0 q -8.15097,0 -12.86996,-3.003 -4.71899,-3.432 -9.00897,-10.296 l -123.98062,-193.9074 -21.44994,-36.0358 -0.85799,0 0,211.0673 33.03289,0 q 5.57699,0 5.57699,5.148 l 0,21.8789 q 0,5.148 -5.57699,5.148 l -102.95968,0 q -5.57698,0 -5.57698,-5.148 l 0,-21.8789 q 0,-5.148 5.57698,-5.148 l 32.6039,0 0,-243.6712 -32.6039,0 q -5.57698,0 -5.57698,-5.148 l 0,-21.879 q 0,-5.148 5.57698,-5.148 l 60.05982,0 q 12.44096,0 21.87893,14.586 l 122.26462,191.3334 24.45293,41.6129 0.858,0 0,-215.3573 -33.0329,0 q -5.14799,0 -5.14799,-5.148 l 0,-21.879 q 0,-5.148 5.14799,-5.148 l 103.38868,0 q 5.14799,0 5.14799,5.148 l 0,21.879 q 0,5.148 -5.14799,5.148 l -33.0329,0 0,270.6981 q 0,5.148 -5.57698,5.148 z"
         style="font-style:normal;font-variant:normal;font-weight:normal;font-stretch:normal;font-family:Sanchez;-inkscape-font-specification:Sanchez;letter-spacing:63.45329666px;fill:#ffffff"
         id="path6001"
         inkscape:connector-curvature="0" />
      <path
         d="m 172.64946,1353.3425 -23.16593,0 q -8.15098,0 -12.86996,-3.003 -4.71899,-3.432 -9.00897,-10.296 L 3.6239747,1146.1361 -17.82596,1110.1003 l -0.857997,0 0,211.0673 33.032899,0 q 5.576983,0 5.576983,5.148 l 0,21.8789 q 0,5.148 -5.576983,5.148 l -102.959685,0 q -5.576983,0 -5.576983,-5.148 l 0,-21.8789 q 0,-5.148 5.576983,-5.148 l 32.6039,0 0,-243.6712 -32.6039,0 q -5.576983,0 -5.576983,-5.148 l 0,-21.879 q 0,-5.148 5.576983,-5.148 l 60.059816,0 q 12.440962,0 21.8789332,14.586 l 122.2646238,191.3334 24.45293,41.6129 0.85799,0 0,-215.3573 -33.03289,0 q -5.14799,0 -5.14799,-5.148 l 0,-21.879 q 0,-5.148 5.14799,-5.148 l 103.38868,0 q 5.14798,0 5.14798,5.148 l 0,21.879 q 0,5.148 -5.14798,5.148 l -33.0329,0 0,270.6981 q 0,5.148 -5.57698,5.148 z"
         style="font-style:normal;font-variant:normal;font-weight:normal;font-stretch:normal;font-family:Sanchez;-inkscape-font-specification:Sanchez;letter-spacing:63.45329666px;fill:#ffffff"
         id="path6003"
         inkscape:connector-curvature="0" />
      <path
         d="m 548.68866,1353.3425 -227.7983,0 q -5.57699,0 -5.57699,-5.148 l 0,-21.8789 q 0,-5.148 5.57699,-5.148 l 32.6039,0 0,-243.6712 -32.6039,0 q -5.57699,0 -5.57699,-5.148 l 0,-21.879 q 0,-5.148 5.57699,-5.148 l 227.7983,0 q 5.57698,0 5.57698,5.148 l 0,69.0688 q 0,5.577 -5.57698,5.577 l -23.16593,0 q -5.14798,0 -5.14798,-5.577 l 0,-42.0418 -129.55761,0 0,106.3916 108.53667,0 q 5.57698,0 5.57698,5.148 l 0,21.8789 q 0,5.148 -5.57698,5.148 l -108.53667,0 0,105.1047 129.12861,0 0,-42.0419 q 0,-5.148 5.57698,-5.148 l 23.16593,0 q 5.57698,0 5.57698,5.148 l 0,69.0688 q 0,5.148 -5.57698,5.148 z"
         style="font-style:normal;font-variant:normal;font-weight:normal;font-stretch:normal;font-family:Sanchez;-inkscape-font-specification:Sanchez;letter-spacing:63.45329666px;fill:#ffffff"
         id="path6005"
         inkscape:connector-curvature="0" />
      <path
         d="m 688.22214,1353.3425 -24.02392,0 q -5.57699,0 -5.57699,-5.148 l 0,-100.3857 q 0,-5.577 5.57699,-5.577 l 27.02691,0 q 5.14799,0 5.14799,5.577 l 0,9.009 q 0,8.151 9.86697,21.8789 9.86697,13.299 19.73394,21.879 9.86697,8.5799 26.16892,15.0149 16.73095,6.006 36.03589,6.006 33.0329,0 51.47984,-13.728 18.87594,-13.7279 18.87594,-38.1808 0,-14.157 -10.72496,-24.024 -10.29597,-10.2959 -27.02692,-16.3019 -16.73095,-6.006 -37.32289,-11.154 -20.16294,-5.148 -40.75487,-11.5829 -20.16294,-6.864 -36.89389,-15.873 -16.73095,-9.438 -27.45592,-25.7399 -10.29596,-16.731 -10.29596,-39.0389 0,-36.0359 27.02691,-59.6308 27.45592,-23.5949 73.35878,-23.5949 57.91482,0 84.94174,33.8909 l -0.858,-26.598 q 0,-5.1479 5.57698,-5.1479 l 24.02393,0 q 5.14798,0 5.14798,5.1479 l 0,93.5217 q 0,5.148 -5.14798,5.148 l -27.02692,0 q -5.14798,0 -5.14798,-5.148 l 0,-12.0119 q 0,-17.589 -19.73394,-35.6069 -19.73394,-18.018 -57.91482,-18.018 -28.31392,0 -45.90286,13.728 -17.15995,13.299 -17.15995,34.3199 0,15.015 10.72497,25.7399 10.72496,10.725 27.88491,17.16 17.15995,6.435 37.75189,12.0119 20.59193,5.148 41.18387,11.583 20.59194,6.435 37.75188,15.444 17.15995,9.0089 27.88492,24.8819 10.72497,15.4439 10.72497,36.8939 0,37.7518 -27.02692,62.2048 -27.02692,24.4529 -80.65175,24.4529 -39.46788,0 -65.20781,-15.873 -25.73992,-15.8729 -37.32288,-34.3198 l 0.429,42.0418 q 0,5.148 -5.14799,5.148 z"
         style="font-style:normal;font-variant:normal;font-weight:normal;font-stretch:normal;font-family:Sanchez;-inkscape-font-specification:Sanchez;letter-spacing:63.45329666px;fill:#ffffff"
         id="path6007"
         inkscape:connector-curvature="0" />
    </g>
    <g
       transform="matrix(0.59259251,0,0,0.56164694,642.43908,25.63634)"
       style="font-style:normal;font-weight:normal;font-size:428.99868774px;line-height:125%;font-family:sans-serif;letter-spacing:0px;word-spacing:0px;fill:#000000;fill-opacity:1;stroke:none;stroke-width:1px;stroke-linecap:butt;stroke-linejoin:miter;stroke-opacity:1"
       id="flowRoot5255">
      <path
         d="m -994.62758,1353.3425 -214.49932,0 q -5.577,0 -5.577,-5.148 l 0,-13.2989 q 0,-25.74 9.867,-46.3319 10.2959,-20.5919 26.1689,-33.4619 16.3019,-13.299 35.6069,-24.0239 19.3049,-10.725 38.6099,-19.734 19.3049,-9.4379 35.6068,-19.3049 36.0359,-22.3079 36.0359,-55.3408 0,-24.882 -19.3049,-42.0419 -18.8759,-17.5889 -51.4798,-17.5889 -32.6039,0 -51.0509,17.5889 -18.4469,17.5889 -18.4469,44.6159 0,5.1479 -5.577,5.1479 l -27.8849,0 q -5.148,0 -5.148,-5.1479 0,-39.8969 27.8849,-68.2108 28.3139,-28.3139 80.2228,-28.3139 52.3378,0 80.6517,27.0269 28.74292,26.5979 28.74292,64.3498 0,25.7399 -12.86992,46.3318 -12.87,20.592 -32.1749,33.0329 -19.305,12.012 -42.0419,24.453 -22.7369,12.0119 -42.4709,22.3079 -19.7339,9.867 -33.8909,25.7399 -13.7279,15.873 -15.0149,35.1779 l 145.8595,0 0,-30.8879 q 0,-5.148 5.148,-5.148 l 27.02692,0 q 5.57698,0 5.57698,5.148 l 0,57.9148 q 0,5.148 -5.57698,5.148 z"
         style="font-style:normal;font-variant:normal;font-weight:normal;font-stretch:normal;font-family:Sanchez;-inkscape-font-specification:Sanchez"
         id="path6010"
         inkscape:connector-curvature="0" />
      <path
         d="m -741.70605,1313.0166 q -32.6039,43.3289 -90.94772,43.3289 -58.34382,0 -91.37672,-43.3289 -32.6039,-43.3288 -32.6039,-113.6846 0,-70.3558 33.4619,-113.2557 33.4619,-43.3288 90.51872,-43.3288 57.05683,0 90.51872,43.3288 33.4619,42.8999 33.4619,113.2557 0,69.9268 -33.0329,113.6846 z m -152.72353,-23.5949 q 22.30793,32.1749 61.77581,32.1749 39.46788,0 61.77581,-31.7459 22.30793,-32.1749 22.30793,-90.0897 0,-57.9148 -22.73693,-90.5187 -22.30793,-32.6039 -61.34681,-32.6039 -39.03888,0 -61.77581,32.6039 -22.30793,32.6039 -22.30793,90.5187 0,57.4858 22.30793,89.6607 z"
         style="font-style:normal;font-variant:normal;font-weight:normal;font-stretch:normal;font-family:Sanchez;-inkscape-font-specification:Sanchez"
         id="path6012"
         inkscape:connector-curvature="0" />
      <path
         d="m -494.92455,1353.3425 -169.45448,0 q -5.57698,0 -5.57698,-5.148 l 0,-21.8789 q 0,-5.148 5.57698,-5.148 l 69.49779,0 0,-235.5203 -59.20182,42.4709 q -4.28999,3.003 -7.29298,-1.287 l -12.01196,-17.5889 q -1.287,-1.716 -1.287,-3.432 0,-1.716 2.574,-3.861 l 74.64577,-53.6249 q 4.28998,-3.003 7.72197,-3.003 l 27.02692,0 q 5.14799,0 5.14799,5.148 l 0,270.6982 62.6338,0 q 5.14799,0 5.14799,5.148 l 0,21.8789 q 0,5.148 -5.14799,5.148 z"
         style="font-style:normal;font-variant:normal;font-weight:normal;font-stretch:normal;font-family:Sanchez;-inkscape-font-specification:Sanchez"
         id="path6014"
         inkscape:connector-curvature="0" />
      <path
         d="m -244.04076,1128.9762 -25.73992,0 q -5.57698,0 -5.57698,-5.148 0,-17.1599 -15.01495,-32.1749 -14.58596,-15.0149 -42.89987,-15.0149 -36.89389,0 -57.91483,26.1689 -21.02093,26.1689 -24.88192,74.2167 34.74889,-21.8789 84.51274,-21.8789 49.76385,0 77.21977,27.0269 27.45591,27.0269 27.45591,72.0718 0,44.6159 -30.45891,73.3588 -30.4589,28.7429 -84.08374,28.7429 -53.62483,0 -84.94174,-42.0419 -30.8879,-42.0418 -30.8879,-114.1136 0,-72.0718 31.7459,-114.5427 31.7459,-42.8998 92.23472,-42.8998 42.89987,0 68.63979,22.7369 26.16892,22.3079 26.16892,58.3438 0,5.148 -5.57699,5.148 z m -173.31547,78.9358 q 0.858,54.4828 21.02094,84.0837 20.59194,29.6009 55.76983,29.6009 35.60689,0 55.34083,-18.8759 19.73394,-19.305 19.73394,-50.1929 0,-30.8879 -20.16294,-49.3348 -20.16294,-18.876 -58.34382,-18.876 -38.18088,0 -73.35878,23.595 z"
         style="font-style:normal;font-variant:normal;font-weight:normal;font-stretch:normal;font-family:Sanchez;-inkscape-font-specification:Sanchez"
         id="path6016"
         inkscape:connector-curvature="0" />
    </g>
    <path
       style="fill:#000000"
       d="m -793.93713,251.93756 1299.34179,0 0,27.6925 -1299.34179,0 z"
       id="rect5263"
       inkscape:connector-curvature="0" />
    <path
       style="fill:#000000"
       d="m -799.79358,830.80859 1305.19812,0 0,27.69251 -1305.19812,0 z"
       id="rect5265"
       inkscape:connector-curvature="0" />
    <g
       transform="matrix(1.6263847,0,0,1.6263847,-15401.807,-4608.4071)"
       id="g5267"
       style="fill:#ffffff;fill-opacity:1"
       inkscape:export-xdpi="17.062151"
       inkscape:export-ydpi="17.062151">
      <path
         inkscape:connector-curvature="0"
         d="m 9439.5214,3050.9087 c -4.5836,0.021 -8.9609,0.4123 -12.8125,1.0938 -11.3462,2.0045 -13.4062,6.2001 -13.4062,13.9375 l 0,10.2187 26.8125,0 0,3.4063 -26.8125,0 -10.0625,0 c -7.7925,0 -14.6158,4.6837 -16.75,13.5937 -2.4618,10.213 -2.571,16.5861 0,27.25 1.9059,7.9379 6.4575,13.5938 14.25,13.5938 l 9.2187,0 0,-12.25 c 0,-8.8499 7.6572,-16.6563 16.75,-16.6563 l 26.7813,0 c 7.4549,0 13.4062,-6.1381 13.4062,-13.625 l 0,-25.5312 c 0,-7.2663 -6.1299,-12.7248 -13.4062,-13.9375 -4.606,-0.7667 -9.3851,-1.1151 -13.9688,-1.0938 z m -14.5,8.2188 c 2.7696,0 5.0313,2.2986 5.0313,5.125 0,2.8163 -2.2617,5.0937 -5.0313,5.0937 -2.7794,0 -5.0312,-2.2774 -5.0312,-5.0937 0,-2.8264 2.2518,-5.125 5.0312,-5.125 z"
         style="fill:#ffffff;fill-opacity:1"
         id="path5269" />
      <path
         inkscape:connector-curvature="0"
         d="m 9470.2402,3079.565 0,11.9062 c 0,9.2308 -7.8259,17 -16.75,17 l -26.7813,0 c -7.3358,0 -13.4062,6.2785 -13.4062,13.625 l 0,25.5313 c 0,7.2663 6.3186,11.5403 13.4062,13.625 8.4874,2.4956 16.6263,2.9466 26.7813,0 6.7501,-1.9544 13.4062,-5.8876 13.4062,-13.625 l 0,-10.2188 -26.7812,0 0,-3.4062 26.7812,0 13.4063,0 c 7.7924,0 10.6962,-5.4354 13.4062,-13.5938 2.7994,-8.3988 2.6802,-16.4757 0,-27.25 -1.9258,-7.7574 -5.6038,-13.5937 -13.4062,-13.5937 l -10.0625,0 z m -15.0625,64.6562 c 2.7795,0 5.0312,2.2775 5.0312,5.0938 0,2.8263 -2.2517,5.125 -5.0312,5.125 -2.7696,0 -5.0313,-2.2987 -5.0313,-5.125 0,-2.8163 2.2617,-5.0938 5.0313,-5.0938 z"
         style="fill:#ffffff;fill-opacity:1"
         id="path5271" />
    </g>
  </g>
</svg>
