<svg xmlns="http://www.w3.org/2000/svg" width="159px" height="62px" viewBox="0 0 159 62">
<path fill="#222222" d="M152.677 34.168c-3.443 0-6.234 2.773-6.234 6.198v5.526h-0.001c0 2.567-2.094 4.648-4.676 4.6 s-4.677-2.081-4.677-4.648V29.519c0 0 0-0.001 0-0.001c0-0.001 0-0.002 0-0.003l-0.001-23.245c0-0.002 0.001-0.003 0.001-0.004 c0-3.424-2.791-6.199-6.234-6.199s-6.235 2.775-6.235 6.199v39.627h-0.001c0 2.567-2.093 4.648-4.675 4.6 c-2.583 0-4.677-2.081-4.677-4.652l-0.002-30.328l-0.005 0.005c-0.001-8.559-6.979-15.495-15.586-15.495 c-8.606 0-15.584 6.937-15.586 15.495l0.001 30.327h-0.001c0 2.567-2.094 4.648-4.676 4.648c-2.583 0-4.676-2.081-4.676-4.648l0 0 V15.564h-0.004C74.73 7 67.8 0.1 59.1 0.069c-8.607 0-15.585 6.937-15.585 15.495l0 30.327h0 c0 2.567-2.094 4.648-4.676 4.648c-2.583 0-4.676-2.081-4.676-4.648l0 0L34.206 6.272c0-0.002 0-0.003 0-0.004 c0-3.423-2.791-6.199-6.234-6.199s-6.235 2.775-6.235 6.199l0 0v0.001h-0.001v12.41h0c-0.006 2.564-2.097 4.639-4.675 4.6 c-2.579 0-4.67-2.075-4.676-4.639l0 0v-0.002c0-0.003 0-0.006 0-0.008c0-0.004 0-0.006 0-0.009V6.269H12.38 c-0.005-3.418-2.794-6.19-6.234-6.19c-3.443 0-6.234 2.776-6.234 6.199l0 0v10.839c0.001 9.4 7.7 17 17.1 17 c1.623 0 3.192-0.23 4.68-0.648c0 0 0 11.5 0 11.504c0 9.4 7.7 17 17.1 17.046c9.43 0 17.079-7.569 17.142-16.93 c0-0.022 0.002-6.618 0.003-10.968h0.002c0.002-1.71 1.397-3.097 3.117-3.097c1.72 0 3.1 1.4 3.1 3.097h0.001 c0 4.312-0.001 10.84-0.001 10.852c0 9.4 7.7 17 17.1 17.046c9.43 0 17.079-7.569 17.143-16.93 c0-0.022 0.002-6.618 0.003-10.968h0.004c0.002-1.71 1.396-3.097 3.116-3.097c1.72 0 3.1 1.4 3.1 3.097h0.004 c0 4.312-0.002 10.84-0.002 10.852c0 9.4 7.7 17 17.1 17.046c4.146 0 7.945-1.464 10.91-3.898 c2.965 2.4 6.8 3.9 10.9 3.898c9.431 0 17.079-7.568 17.143-16.93c0.001-0.038 0.005-4.766 0.005-4.766 c0-0.001 0.002-0.003 0.002-0.004C158.912 36.9 156.1 34.2 152.7 34.168z M62.264 21.331L62.264 21.3 C62.264 21.3 62.3 21.3 62.3 21.331c0 1.712-1.396 3.1-3.118 3.1s-3.117-1.387-3.117-3.099c0-0.001 0-0.001 0-0.001v-5.762 c0-1.712 1.395-3.1 3.117-3.1s3.117 1.4 3.1 3.1h0V21.331z M102.795 21.331L102.795 21.3 C102.794 21.3 102.8 21.3 102.8 21.331c-0.001 1.712-1.396 3.1-3.118 3.1s-3.117-1.387-3.117-3.099c0-0.001 0-0.001 0-0.001 v-5.762c0-1.712 1.396-3.1 3.117-3.1s3.117 1.4 3.1 3.1h0.001V21.331z"/></svg>