<?xml version="1.0" encoding="UTF-8" standalone="no"?>
<svg
   xmlns:dc="http://purl.org/dc/elements/1.1/"
   xmlns:cc="http://creativecommons.org/ns#"
   xmlns:rdf="http://www.w3.org/1999/02/22-rdf-syntax-ns#"
   xmlns:svg="http://www.w3.org/2000/svg"
   xmlns="http://www.w3.org/2000/svg"
   viewBox="0 0 474.92001 104.65333"
   height="104.65333"
   width="474.92001"
   xml:space="preserve"
   id="svg2"
   version="1.1"><metadata
     id="metadata8"><rdf:RDF><cc:Work
         rdf:about=""><dc:format>image/svg+xml</dc:format><dc:type
           rdf:resource="http://purl.org/dc/dcmitype/StillImage" /></cc:Work></rdf:RDF></metadata><defs
     id="defs6" /><g
     transform="matrix(1.3333333,0,0,-1.3333333,0,104.65333)"
     id="g10"><g
       transform="scale(0.1)"
       id="g12"><path
         id="path14"
         style="fill:#e80f92;fill-opacity:1;fill-rule:nonzero;stroke:none"
         d="m 0,637.004 h 73.9258 v -63.363 c 19.6094,42.246 65.6252,76.187 138.7932,75.433 131.258,-1.508 165.957,-96.558 165.957,-181.797 V 226.648 h -79.203 v 222.528 c 0,73.926 -28.668,126.73 -108.629,125.972 C 113.906,574.395 78.4531,526.117 78.4531,455.211 V 226.648 H 0 v 410.356" /><path
         id="path16"
         style="fill:#e80f92;fill-opacity:1;fill-rule:nonzero;stroke:none"
         d="m 847.113,226.648 h -73.925 v 63.364 C 753.574,247.77 707.559,213.824 634.391,214.574 502.379,215.332 468.434,311.129 468.434,396.367 v 240.637 h 78.453 V 414.48 c 0,-73.925 28.66,-126.734 109.379,-126.734 76.941,0.758 112.39,49.789 112.39,119.942 v 229.316 h 78.457 V 226.648" /><path
         id="path18"
         style="fill:#e80f92;fill-opacity:1;fill-rule:nonzero;stroke:none"
         d="m 949.691,637.004 h 73.929 v -58.082 c 17.35,34.695 64.87,70.152 124.46,70.152 37.72,0 76.94,-11.312 105.61,-43.75 10.56,-10.562 21.88,-32.437 26.4,-39.98 6.79,12.062 15.09,26.398 29.42,40.73 26.4,26.403 64.12,43 108.62,43 37.72,0 79.97,-10.562 110.14,-41.488 36.2,-36.965 45.26,-76.188 45.26,-154.641 V 226.648 h -78.45 V 449.93 c 0,33.941 -4.53,67.89 -22.63,91.273 -14.33,21.121 -36.21,33.945 -73.18,33.945 -34.69,0 -64.11,-14.332 -79.2,-39.222 -16.59,-25.653 -18.86,-48.278 -18.86,-82.981 V 226.648 h -79.2 v 226.297 c 0.75,33.946 -3.02,58.844 -16.59,81.469 -15.1,24.137 -39.24,39.981 -77.71,40.734 -36.96,0.758 -64.11,-17.347 -77.7,-39.98 -15.08,-21.875 -21.87,-50.539 -21.87,-83.73 v -224.79 h -78.449 v 410.356" /><path
         id="path20"
         style="fill:#e80f92;fill-opacity:1;fill-rule:nonzero;stroke:none"
         d="m 2032.91,432.578 c 0,79.957 -61.11,143.328 -141.82,143.328 -84.49,0 -141.81,-65.633 -141.81,-143.328 0,-78.449 55.82,-144.832 139.54,-144.832 93.55,0 143.33,73.172 144.09,144.082 z m -359.07,352.274 h 78.46 V 571.379 c 37.71,53.559 98.06,76.941 150.86,77.695 106.36,0 208.2,-79.207 208.2,-215.742 0,-132.004 -93.54,-218.758 -211.21,-218.758 -70.16,0 -124.48,33.949 -150.87,82.981 v -70.907 h -75.44 v 558.204" /><path
         id="path22"
         style="fill:#e80f92;fill-opacity:1;fill-rule:nonzero;stroke:none"
         d="m 2513.4,468.031 c -3.77,54.313 -58.08,115.414 -135.77,113.91 -79.96,0 -132.01,-58.086 -135.78,-113.91 z m -273.06,-61.097 c 3.77,-82.977 76.18,-125.219 138.04,-125.219 55.06,0 95.8,26.398 118.43,69.394 h 81.47 c -19.62,-45.257 -48.28,-79.203 -82.98,-101.832 -34.69,-23.386 -75.43,-34.703 -116.92,-34.703 -134.27,0 -217.25,107.871 -217.25,216.496 0,117.68 92.03,218.004 216.5,218.004 58.83,0 112.39,-21.875 151.61,-60.347 48.28,-49.028 68.65,-113.149 61.86,-181.793 h -350.76" /><path
         id="path24"
         style="fill:#e80f92;fill-opacity:1;fill-rule:nonzero;stroke:none"
         d="m 2668.03,637.004 h 73.92 v -60.348 c 23.39,48.282 66.39,71.664 122.21,72.418 v -78.453 h -5.28 c -73.93,0 -112.4,-40.73 -112.4,-122.203 v -221.77 h -78.45 v 410.356" /><path
         id="path26"
         style="fill:#e80f92;fill-opacity:1;fill-rule:nonzero;stroke:none"
         d="m 2926.01,784.852 h 78.45 V 226.648 h -78.45 v 558.204" /><path
         id="path28"
         style="fill:#e80f92;fill-opacity:1;fill-rule:nonzero;stroke:none"
         d="m 3216.42,238.719 -156.9,398.285 H 3144 l 113.15,-300.227 114.67,300.227 h 84.48 L 3232.26,77.2891 h -83.73 l 67.89,161.4299" /><path
         id="path30"
         style="fill:#828488;fill-opacity:1;fill-rule:nonzero;stroke:none"
         d="m 3513.45,586.777 h 5.4 c 6,0 11.14,2.184 11.14,7.899 0,4.012 -2.91,8.023 -11.14,8.023 -2.42,0 -4.06,-0.129 -5.4,-0.344 z m 0,-25.476 h -7.25 v 46.019 c 3.78,0.543 7.45,1.106 12.97,1.106 6.98,0 11.55,-1.492 14.3,-3.496 2.71,-2.024 4.25,-5.153 4.25,-9.547 0,-6.02 -4.06,-9.719 -9.02,-11.172 v -0.395 c 4.02,-0.703 6.78,-4.414 7.69,-11.144 1.11,-7.18 2.19,-9.899 2.97,-11.371 h -7.72 c -1.09,1.472 -2.2,5.691 -3.14,11.719 -1.07,5.882 -4.04,8.05 -9.82,8.05 h -5.23 z m 7.72,58.82 c -18.11,0 -32.99,-15.551 -32.99,-34.793 0,-19.633 14.88,-35.039 33.16,-35.039 18.33,-0.195 33.04,15.406 33.04,34.84 0,19.441 -14.71,34.992 -33.04,34.992 z m 0.17,6.453 c 22.59,0 40.52,-18.328 40.52,-41.246 0,-23.293 -17.93,-41.457 -40.69,-41.457 -22.54,0 -40.87,18.164 -40.87,41.457 0,22.918 18.33,41.246 40.87,41.246 h 0.17" /><path
         id="path32"
         style="fill:#828488;fill-opacity:1;fill-rule:nonzero;stroke:none"
         d="m 1440.29,42.0039 h -17.2 v 91.8981 l 17.2,14.895 V 42.0039" /><path
         id="path34"
         style="fill:#828488;fill-opacity:1;fill-rule:nonzero;stroke:none"
         d="m 1507.92,57.0117 c -21.21,0 -38.4,17.1875 -38.4,38.3946 0,21.2027 17.19,38.3907 38.4,38.3907 21.21,0 38.38,-17.188 38.38,-38.3907 0,-21.2071 -17.17,-38.3946 -38.38,-38.3946 m 0,93.9803 c -30.69,0 -55.59,-24.879 -55.59,-55.5857 0,-30.7032 24.9,-55.5938 55.59,-55.5938 30.69,0 55.59,24.8906 55.59,55.5938 0,30.7067 -24.9,55.5857 -55.59,55.5857" /><path
         id="path36"
         style="fill:#828488;fill-opacity:1;fill-rule:nonzero;stroke:none"
         d="m 1625.03,57.0117 c -21.2,0 -38.39,17.1875 -38.39,38.3946 0,21.2027 17.19,38.3907 38.39,38.3907 21.2,0 38.38,-17.188 38.38,-38.3907 0,-21.2071 -17.18,-38.3946 -38.38,-38.3946 m 0,93.9803 c -30.7,0 -55.59,-24.879 -55.59,-55.5857 0,-30.7032 24.89,-55.5938 55.59,-55.5938 30.69,0 55.6,24.8906 55.6,55.5938 0,30.7067 -24.91,55.5857 -55.6,55.5857" /><path
         id="path38"
         style="fill:#828488;fill-opacity:1;fill-rule:nonzero;stroke:none"
         d="m 1742.12,57.0117 c -21.19,0 -38.39,17.1875 -38.39,38.3946 0,21.2027 17.2,38.3907 38.39,38.3907 21.22,0 38.41,-17.188 38.41,-38.3907 0,-21.2071 -17.19,-38.3946 -38.41,-38.3946 m 0,93.9803 c -30.69,0 -55.56,-24.879 -55.56,-55.5857 0,-30.7032 24.87,-55.5938 55.56,-55.5938 30.71,0 55.62,24.8906 55.62,55.5938 0,30.7067 -24.91,55.5857 -55.62,55.5857" /><path
         id="path40"
         style="fill:#828488;fill-opacity:1;fill-rule:nonzero;stroke:none"
         d="m 1812.16,145.813 h 18.27 v -14.364 c 4.29,8.582 16.03,17.348 30.77,17.348 9.32,0 19.01,-2.801 26.1,-10.817 2.61,-2.613 5.41,-8.019 6.53,-9.882 1.68,2.98 3.73,6.523 7.27,10.066 6.53,6.524 15.85,10.633 26.85,10.633 9.32,0 19.76,-2.613 27.23,-10.258 8.94,-9.133 11.18,-18.832 11.18,-38.226 V 44.375 h -19.39 v 55.1914 c 0,8.3946 -1.12,16.7816 -5.59,22.5626 -3.55,5.223 -8.95,8.394 -18.09,8.394 -8.58,0 -15.85,-3.543 -19.58,-9.703 -4.1,-6.336 -4.66,-11.933 -4.66,-20.507 V 44.375 h -19.58 v 55.938 c 0.18,8.39 -0.75,14.546 -4.1,20.136 -3.73,5.969 -9.7,9.891 -19.21,10.074 -9.13,0.188 -15.85,-4.293 -19.2,-9.886 -3.73,-5.407 -5.41,-12.492 -5.41,-20.6956 V 44.375 h -19.39 v 101.438" /><path
         id="path42"
         style="fill:#828488;fill-opacity:1;fill-rule:nonzero;stroke:none"
         d="m 2071.13,104.043 c -0.93,13.43 -14.36,28.527 -33.57,28.156 -19.76,0 -32.62,-14.355 -33.56,-28.156 z m -67.5,-15.1016 c 0.93,-20.5117 18.84,-30.9531 34.12,-30.9531 13.61,0 23.68,6.5234 29.28,17.1562 h 20.13 c -4.85,-11.1953 -11.93,-19.582 -20.5,-25.1757 -8.58,-5.7774 -18.65,-8.5743 -28.91,-8.5743 -33.19,0 -53.7,26.6641 -53.7,53.5118 0,29.0897 22.75,53.8907 53.51,53.8907 14.55,0 27.79,-5.41 37.48,-14.926 11.94,-12.117 16.98,-27.961 15.3,-44.9296 h -86.71" /><path
         id="path44"
         style="fill:#828488;fill-opacity:1;fill-rule:nonzero;stroke:none"
         d="m 2109.34,145.813 h 18.28 v -14.918 c 5.77,11.933 16.4,17.714 30.2,17.902 v -19.391 h -1.31 c -18.27,0 -27.77,-10.074 -27.77,-30.2107 V 44.375 h -19.4 v 101.438" /><path
         id="path46"
         style="fill:#828488;fill-opacity:1;fill-rule:nonzero;stroke:none"
         d="m 2265.78,79.9922 c -6.16,-22.0039 -26.11,-38.5977 -51.46,-38.5977 -33.2,0 -54.27,25.5469 -54.27,53.6993 0,30.0192 22.94,53.7032 53.33,53.7032 24.24,0 46.06,-14.926 52.4,-39.348 h -19.95 c -5.23,13.614 -17.91,21.262 -31.7,21.262 -10.26,0.184 -17.72,-3.172 -24.8,-9.891 -5.97,-5.961 -9.88,-15.472 -9.88,-25.7262 0,-20.8829 15.28,-35.6133 34.68,-35.6133 16.96,0.1875 27.59,10.4414 31.7,20.5117 h 19.95" /><path
         id="path48"
         style="fill:#828488;fill-opacity:1;fill-rule:nonzero;stroke:none"
         d="m 2284.6,145.813 h 19.39 V 44.375 h -19.39 v 101.438" /><path
         id="path50"
         style="fill:#828488;fill-opacity:1;fill-rule:nonzero;stroke:none"
         d="m 2374.09,119.332 c 0,7.832 -4.85,13.801 -14.72,13.609 -9.52,0 -14.74,-6.332 -14.55,-13.046 0.37,-8.02 7.64,-11.75 18.46,-14.735 15.48,-4.285 32.44,-8.7616 33,-30.578 0.37,-19.7656 -16.04,-33.1875 -36.17,-33.1875 -16.04,0 -35.99,9.1328 -36.92,32.2539 h 19.2 c 0.75,-12.3046 10.63,-16.4062 17.9,-16.4062 9.33,0 16.6,6.5234 16.6,15.1016 -0.19,10.0703 -7.83,13.4257 -25.92,19.3945 -14.17,4.289 -25.36,10.9997 -25.55,26.2887 0,19.207 15.67,30.77 34.13,30.77 13.98,0 32.26,-6.902 33.75,-29.465 h -19.21" /><path
         id="path52"
         style="fill:#828488;fill-opacity:1;fill-rule:nonzero;stroke:none"
         d="m 2484.83,95.0938 c 0,-19.0196 13.61,-35.6133 35.05,-35.6133 10.26,0 18.84,3.914 24.99,10.2578 5.97,6.1484 9.7,14.9101 9.88,24.7969 0,8.0158 -2.61,17.1528 -8.2,24.0548 -5.6,7.086 -14.36,11.933 -26.67,11.933 -19.2,0 -35.05,-14.359 -35.05,-35.2417 z m 88.94,-38.9688 c 0,-17.7148 -4.47,-29.0937 -11.93,-37.668 C 2552.51,7.64453 2536.67,0 2519.14,0 c -28.72,0 -45.5,16.7773 -50.35,33.7461 h 22.38 c 2.24,-4.4727 6.15,-8.5742 11.19,-11.7422 6.15,-4.1055 13.05,-5.4101 17.52,-5.4101 16.97,0 34.5,12.4882 34.5,35.2382 v 10.4414 c -5.97,-11.375 -18.27,-20.8789 -36.55,-20.8789 -30.39,0 -52.39,23.1172 -52.39,53.3282 0,31.6953 22.93,54.0743 52.39,54.0743 16.97,0 30.95,-8.953 36.55,-20.141 v 17.157 h 19.39 V 56.125" /><path
         id="path54"
         style="fill:#828488;fill-opacity:1;fill-rule:nonzero;stroke:none"
         d="m 2598.93,145.813 h 18.27 v -14.918 c 5.78,11.933 16.41,17.714 30.21,17.902 v -19.391 h -1.31 c -18.27,0 -27.78,-10.074 -27.78,-30.2107 V 44.375 h -19.39 v 101.438" /><path
         id="path56"
         style="fill:#828488;fill-opacity:1;fill-rule:nonzero;stroke:none"
         d="m 2669.04,94.9063 c 0,-20.1407 15.29,-35.2383 34.68,-35.2383 19.4,0 34.68,15.0976 34.68,35.4258 0,20.3202 -15.28,35.4292 -34.68,35.4292 -19.39,0 -34.68,-15.109 -34.68,-35.4292 z m -19.4,0.375 c 0,27.0347 19.96,53.5157 54.08,53.5157 34.12,0 54.07,-26.481 54.07,-53.7032 0,-27.2227 -19.95,-53.5157 -54.07,-53.5157 -34.12,0 -54.08,26.293 -54.08,53.5157 v 0.1875" /><path
         id="path58"
         style="fill:#828488;fill-opacity:1;fill-rule:nonzero;stroke:none"
         d="m 2870.96,44.375 h -18.27 v 15.6641 c -4.86,-10.4414 -16.22,-18.8321 -34.31,-18.6446 -32.63,0.1836 -41.03,23.8672 -41.03,44.9336 v 59.4849 h 19.4 V 90.8086 c 0,-18.2734 7.08,-31.3281 27.03,-31.3281 19.02,0.1875 27.78,12.3086 27.78,29.6484 v 56.6841 h 19.4 V 44.375" /><path
         id="path60"
         style="fill:#828488;fill-opacity:1;fill-rule:nonzero;stroke:none"
         d="m 2985.24,95.2813 c 0,16.5937 -11.74,35.4297 -35.43,35.4297 -10.06,0 -18.82,-3.918 -25.16,-10.445 -6.15,-6.34 -9.88,-15.289 -9.88,-25.3597 0,-10.0704 3.73,-18.8321 10.06,-25.168 6.34,-6.3438 15.3,-10.2578 25.17,-10.2578 20.52,0 35.24,15.8476 35.24,35.6133 z m -88.93,50.5317 h 18.46 v -17.715 c 7.63,12.117 20.69,20.699 38.78,20.699 34.87,0 51.27,-29.09 51.27,-54.2618 0,-28.7188 -20.7,-53.1407 -51.09,-53.1407 -21.07,0 -33.56,11.5547 -38.04,19.7618 V 44.375 7.45703 h -19.38 V 145.813" /><path
         id="path62"
         style="fill:#828488;fill-opacity:1;fill-rule:nonzero;stroke:none"
         d="m 2303.99,172.234 c 0,5.356 -4.34,9.696 -9.7,9.696 -5.35,0 -9.69,-4.34 -9.69,-9.696 0,-5.351 4.34,-9.695 9.69,-9.695 5.36,0 9.7,4.344 9.7,9.695" /></g></g></svg>