<?xml version="1.0" encoding="utf-8"?>
<!-- Generator: Adobe Illustrator 22.1.0, SVG Export Plug-In . SVG Version: 6.00 Build 0)  -->
<svg version="1.1" id="Calque_1" xmlns="http://www.w3.org/2000/svg" xmlns:xlink="http://www.w3.org/1999/xlink" x="0px" y="0px"
	 viewBox="0 0 723 265.3" style="enable-background:new 0 0 723 265.3;" xml:space="preserve">
<style type="text/css">
	.st0{fill:#EA4E96;}
	.st1{fill:#FDCD27;}
	.st2{fill:#F1892D;}
	.st3{fill:#EA5131;}
	.st4{fill:#E40424;}
	.st5{fill:#B51742;}
	.st6{fill:#F7A62A;}
	.st7{fill:#ABA69D;}
</style>
<path class="st0" d="M470.8,72.6h-40.1l0,57.6c8.2,3.3,16.4,6.9,24.4,10.5c5.3,2.4,10.5,4.9,15.7,7.4L470.8,72.6z"/>
<path class="st1" d="M8.2,154.7c11.9-16.3,24.9-30.9,39.9-44c18-15.8,38.2-29.2,60.2-39.5c5.5-3,11.3-5.5,17.4-7.4
	c20.5-7.8,42.3-13.1,64.9-15.3c0.7-0.1,1.4-0.1,2.1-0.2c2.1-10.3,5-20.3,8.6-30.1c-14.6-4.9-30.2-7.5-46.4-7.5
	c-24.9,0-48.3,6.2-68.8,17.1c-12.9,6.9-24.6,15.6-34.9,25.8C25.2,79.6,8.9,115.3,8.2,154.7z"/>
<path class="st1" d="M201.2,18.2c-3.6,9.8-6.7,20.1-8.8,30.3c7.9-0.7,16-1.3,24.1-1.3c0.4,0,0.8,0,1.2,0c12.7,0.1,25.1,1.1,37.3,2.9
	C239.7,35.9,221.4,24.9,201.2,18.2z"/>
<path class="st2" d="M100.3,238.8c-17.2-11.6-30.6-28.4-37.7-48.3c-5.8,6.3-11.4,14.5-16.3,22.4c-5.1,8.2-10,16.6-13.5,25.8
	c2.4,3.6,5,7.1,7.6,10.4h80.1C113.4,246.5,106.6,243,100.3,238.8z"/>
<path class="st2" d="M245.4,194.8c-3.3,7.9-12.6,21.9-12.6,21.9l0,0c-11.1,14.6-26.2,26-43.7,32.5h80.1c7.3-9.1,13.5-19.1,18.5-29.7
	c-8.8-3.4-17.3-7.7-25.3-12.6C256.5,203.2,250.8,199.2,245.4,194.8z"/>
<path class="st0" d="M511.6,113.9c12.4,0,22.5-10.1,22.5-22.5C534,79,524,69,511.6,69c-12.4,0-22.5,10.1-22.5,22.5
	C489.1,103.9,499.2,113.9,511.6,113.9z"/>
<path class="st3" d="M385.7,223.8c-4.8-3.9-9.4-8-14-12.2c-1.9-1.3-3.7-2.8-5.3-4.6c-0.6-0.6-1.1-1.3-1.6-2
	c-0.8-0.8-1.7-1.7-2.5-2.5c-17.2-17.2-32.5-36.3-45.4-57.1v32.9c0,21.1,5.5,38.3,16.2,51.1c1.3,1.5,2.6,3,4.1,4.4
	c2,2,4.1,3.7,6.4,5.4c12.9,9.5,29.8,14.4,50.5,14.4c2.7,0,5.4-0.1,8-0.3c7.4-0.5,14.2-1.6,20.5-3.5
	C409.6,242.1,397.4,233.3,385.7,223.8z"/>
<polygon class="st4" points="470.8,132.7 470.8,132.7 470.8,132.7 "/>
<path class="st5" d="M501.5,183.9c-3.3-0.2-6.5-0.5-9.8-0.8l0,65.4h6.9c0.9,0,1.8,0,2.6-0.1l0,0l0,0c16.3-1.3,29.3-14.5,30.1-31
	l0-33.2c-6.7,0.3-13.4,0.4-20.1,0.2C508,184.2,504.8,184.1,501.5,183.9z"/>
<path class="st5" d="M357.1,176.3v-44c-11.7-8.4-22.8-17.8-33.1-28.1c-2.2-2.2-4.3-4.3-6.5-6.6h0c-0.2-0.2-0.3-0.4-0.5-0.6v0.4v48
	c13.6,21.7,29.7,41.7,47.9,59.6C359.7,198.2,357.1,188.5,357.1,176.3z"/>
<path class="st5" d="M439.2,172.7c-2.9-0.9-5.8-1.7-8.6-2.7v6.7c0,14.1-3.2,24.5-9.5,31c-1.9,2-4.2,3.7-6.6,5.1
	c-2.3,1.3-4.9,2.3-7.6,3.1c-3.8,1-8.1,1.6-12.8,1.6c-9,0-16.5-2-22.3-5.9c4.5,4.2,9.2,8.2,13.9,12.2l0,0
	c11.6,9.6,23.9,18.4,36.9,26.2c11.3-3.3,20.7-8.7,28.3-16.3c3.2-3.2,6-6.8,8.5-10.7c5.2-8.2,8.6-17.9,10.3-29c0.7-4.4,1-9,1.1-13.8
	C460.1,178.4,449.6,175.8,439.2,172.7z"/>
<path class="st3" d="M287.7,95.1L287.7,95.1c-0.3-0.7-0.7-1.4-1-2.1c-0.2-0.5-0.5-1-0.7-1.5c-10.1-1.4-20.2-2.6-30.3-3.5
	c-11.2-0.9-22.3-1.4-33.4-1.7c2.7,2.5,5.2,5.2,7.6,8.1h0c3.9,4.7,7.5,9.8,10.5,15.2c7.9,14.1,12.4,30.4,12.4,47.7
	c0,9.5-1.4,18.8-3.9,27.5c-1,3.4-2.2,6.7-3.5,9.9c12.8,10.5,27.1,18.8,42.4,24.7c7.1-15.2,11.7-31.7,13.2-49.2
	c0.4-4.2,0.6-8.5,0.6-12.9C301.5,135.1,296.6,114,287.7,95.1z"/>
<g>
	<path class="st6" d="M8.2,154.4c0,0.9,0,1.8,0,2.7c0,30.1,9.1,58.1,24.6,81.4c8-17,18-33.2,29.8-48.2c-3.7-10.4-5.8-21.5-5.8-33.1
		c0-37.2,20.8-69.6,51.3-86.2C68.1,89.7,33.6,118.7,8.2,154.4z"/>
	<path class="st6" d="M254.9,50.1c-12.2-1.8-24.6-2.8-37.2-2.9c-0.4,0-0.8,0-1.2,0c-8.1,0-16,0.4-23.9,1.1
		c-23.4,2.2-45.9,7.5-67,15.5c9.2-2.9,19.1-4.5,29.3-4.5c12.3,0,24.1,2.3,34.9,6.4c12.2,4.7,23.3,11.7,32.6,20.6
		c21.1,0.6,42.4,2.3,63.7,5.2C278.1,76,267.5,61.9,254.9,50.1z"/>
</g>
<path class="st4" d="M357.1,105.8c-11-2.9-22-5.5-33.1-7.7c-2.4-0.5-4.7-0.9-7.1-1.4V97c0.2,0.2,0.3,0.4,0.5,0.6l0,0
	c12.2,12.9,25.5,24.5,39.6,34.7L357.1,105.8z"/>
<path class="st2" d="M357.1,94.4V72.6h-40.1v24.1c13.4,2.5,26.8,5.6,40.1,9.1L357.1,94.4z"/>
<path class="st4" d="M430.6,130.1l0,39.9c13.1,4.4,26.5,7.8,40.1,10.2l0-32.1c-7.4-3.6-14.9-7.1-22.5-10.5
	C442.5,135,436.6,132.5,430.6,130.1z"/>
<path class="st4" d="M491.7,158.9l0,24.3c3.3,0.3,6.5,0.6,9.8,0.8c9.9,0.6,19.9,0.7,29.9,0.3l0-1.8c-6.7-4.3-13.5-8.5-20.3-12.6
	C504.7,166,498.3,162.4,491.7,158.9z"/>
<path class="st0" d="M511.6,123.1c-7.5,0-14.4-2.6-19.8-6.9l0,42.8c13.6,7.4,26.8,15.2,39.6,23.5l0-66.3
	C525.9,120.5,519.1,123.1,511.6,123.1z"/>
<g>
	<path class="st7" d="M563.9,226.9l-0.7-0.2c-4-1.4-8.5-2.9-8.5-4.9c0-1.4,1.6-2.5,9.2-2.5h6.5c3,0,5-2.2,5-4.8v-4h-14.8
		c-7.6,0-16.5,3.2-16.5,12.2c0,7.9,8.4,10.8,15.2,13.1l0.6,0.2c4.7,1.6,8.7,3,8.7,5.4c0,2.4-5,4-12.1,4c-3.3,0-6.7-0.9-9-1.7
		l-2.2-0.7v9l1.2,0.3c2.3,0.7,7.2,1.7,13.5,1.7c11.9,0,19.2-5.2,19.2-13.6C579.3,232.3,569.3,228.8,563.9,226.9z"/>
	<path class="st7" d="M594.1,253.2c0.3,0,0.6-0.3,0.6-0.6v-22.8c0-3.7,0.8-6.4,2.5-8.1c1.6-1.7,4-2.5,7.1-2.5c3.2,0,5.6,0.9,7.2,2.7
		c1.6,1.8,2.5,4.5,2.5,8v22.7c0,0.3,0.3,0.6,0.6,0.6h9.3c0.3,0,0.6-0.3,0.6-0.6v-23.3c0-6.2-1.8-11.1-5.3-14.5
		c-3.5-3.4-8.5-5.2-14.9-5.2c-6.4,0-11.4,1.8-14.8,5.2c-3.5,3.5-5.2,8.4-5.2,14.6v23.1c0,0.3,0.3,0.6,0.6,0.6H594.1z"/>
	<path class="st7" d="M686.6,252.6V236h16.5c2.9,0,5.3-2.4,5.3-5.3v-2.4h-21.8V225c0-4,1.7-5.5,6.1-5.5h12.8c3.5,0,6.4-2.8,6.4-6.4
		v-2.7h-20.3c-9.9,0-15.1,5.5-15.1,13.9v28.4c0,0.3,0.3,0.6,0.6,0.6h8.9C686.3,253.2,686.6,253,686.6,252.6z"/>
	<path class="st7" d="M653,244.9c-6.8,0-12.3-5.5-12.3-12.3c0-6.8,5.5-12.3,12.3-12.3c3.6,0,6.9,1.6,9.1,4l8.3-5.8
		c-4.1-5.1-10.4-8.4-17.5-8.4c-12.4,0-22.5,10.1-22.5,22.5c0,12.4,10.1,22.5,22.5,22.5c7.1,0,13.5-3.3,17.6-8.5l-8.3-5.8
		C660,243.2,656.7,244.9,653,244.9z"/>
</g>
<circle class="st7" cx="532.1" cy="248.5" r="4.7"/>
</svg>
