<?xml version="1.0" encoding="utf-8"?>
<!-- Generator: Adobe Illustrator 19.0.0, SVG Export Plug-In . SVG Version: 6.00 Build 0)  -->
<svg version="1.1" id="Calque_1" xmlns="http://www.w3.org/2000/svg" xmlns:xlink="http://www.w3.org/1999/xlink" x="0px" y="0px"
	 viewBox="0 0 198.4 198.4" style="enable-background:new 0 0 198.4 198.4;" xml:space="preserve">
<style type="text/css">
	.st0{fill:url(#XMLID_204_);}
	.st1{fill:url(#XMLID_205_);}
	.st2{fill:url(#XMLID_206_);}
	.st3{fill:url(#XMLID_207_);}
	.st4{fill:url(#XMLID_208_);}
	.st5{fill:url(#XMLID_209_);}
	.st6{fill:url(#XMLID_210_);}
	.st7{fill:url(#XMLID_211_);}
</style>
<g id="XMLID_245_">
	<linearGradient id="XMLID_204_" gradientUnits="userSpaceOnUse" x1="98.7294" y1="130.2552" x2="98.7294" y2="23.0184">
		<stop  offset="0" style="stop-color:#61006C"/>
		<stop  offset="1" style="stop-color:#840781"/>
	</linearGradient>
	<path id="XMLID_171_" class="st0" d="M129,107.9c-0.4-1.2-1.2-2-1.9-2.6c-0.8-0.7-1.5-1.7-1.5-2.4l0.3-1.7l0,0
		c0.6-3.3,0.6-6.9,0-10.5c-1.1-6.4-5-10.5-5-16.5c0-6,3.8-10.1,5-16.5c1.3-7.4-0.2-14.7-3.4-19.9c-5.5-9.2-14.9-14.5-25.3-14.6
		c-10.4,0-19.7,5.4-25.3,14.6c-3.2,5.3-4.7,12.5-3.4,19.9c1.1,6.4,5,10.5,5,16.5c0,6-3.8,10.1-5,16.5c-1.3,7.4,0.2,14.7,3.4,19.9
		c5.5,9.2,14.9,14.5,25.3,14.6l2.2,0c0.7,0.1,1.1,1.1,1.7,2c0.5,0.8,1.1,1.7,2.3,2.4c1.1,0.7,3.6,1.6,7.5,0l0,0
		c1.3-0.5,2.3-1.1,3-1.8c1.5-1.3,2.1-2.6,2.4-3.5c0.3-1.3,0.1-2.3,0-3.3c-0.2-1-0.5-1.7,0-2.1s1.2,0,2.1,0.3
		c0.9,0.3,1.9,0.7,3.2,0.6c0.9-0.1,2.3-0.4,3.8-1.7c0.8-0.6,1.5-1.5,2.3-2.7l0,0C129.9,111.8,129.5,109.2,129,107.9z M97.2,106.2
		c-4.5,0-8-2.3-9.9-4.6c-1.9-2.4-3-5-3-8.3c0-6.4,4.8-9.3,4.8-19.3s-4.8-12.9-4.8-19.3c0-3.3,1.1-5.8,3-8.3c1.8-2.3,5.4-4.6,9.9-4.6
		s8,2.3,9.9,4.6c1.9,2.4,3,5,3,8.3c0,6.4-4.8,9.3-4.8,19.3s4.8,12.9,4.8,19.3c0,3.3-1.1,5.8-3,8.3
		C105.2,103.9,101.7,106.2,97.2,106.2z M109.8,126.9c-2.3,0.9-4.5,0.8-5-0.4c-0.1-0.2-0.1-0.4-0.1-0.6c0.1-1.1,1.5-2.3,3.4-3.1
		s3.7-0.8,4.6-0.1c0.2,0.1,0.3,0.3,0.4,0.5C113.6,124.3,112.1,125.9,109.8,126.9z M112.7,114.5c-1.9,1.6-4.1,2.1-4.8,1.1
		c-0.1-0.2-0.2-0.4-0.3-0.6c-0.2-1.1,0.7-2.7,2.3-4c1.6-1.3,3.3-1.9,4.3-1.5c0.2,0.1,0.4,0.2,0.5,0.4
		C115.5,110.9,114.6,112.9,112.7,114.5z M125.4,113.9c-1.3,2.1-3.2,3.2-4.3,2.6c-0.2-0.1-0.3-0.3-0.4-0.5c-0.5-1-0.2-2.8,0.9-4.5
		c1.1-1.7,2.6-2.8,3.7-2.7c0.2,0,0.4,0.1,0.6,0.2C126.9,109.6,126.7,111.8,125.4,113.9z"/>
	<g id="XMLID_2_">
		<linearGradient id="XMLID_205_" gradientUnits="userSpaceOnUse" x1="97.1962" y1="175.4068" x2="97.1962" y2="147.6453">
			<stop  offset="0" style="stop-color:#61006C"/>
			<stop  offset="1" style="stop-color:#840781"/>
		</linearGradient>
		<path id="XMLID_143_" class="st1" d="M97.2,147.6c-4.6,0-8.4,3.8-8.4,8.4V167c0,4.6,3.8,8.4,8.4,8.4c4.6,0,8.4-3.8,8.4-8.4v-10.9
			C105.6,151.4,101.8,147.6,97.2,147.6z M101.6,167c0,2.4-2,4.4-4.4,4.4c-2.4,0-4.4-2-4.4-4.4v-10.9c0-2.4,2-4.4,4.4-4.4
			c2.4,0,4.4,2,4.4,4.4V167z"/>
		<linearGradient id="XMLID_206_" gradientUnits="userSpaceOnUse" x1="38.8286" y1="175.4068" x2="38.8286" y2="147.6453">
			<stop  offset="0" style="stop-color:#61006C"/>
			<stop  offset="1" style="stop-color:#840781"/>
		</linearGradient>
		<path id="XMLID_140_" class="st2" d="M38.8,147.6c-4.6,0-8.4,3.8-8.4,8.4V167c0,4.6,3.8,8.4,8.4,8.4c4.6,0,8.4-3.8,8.4-8.4v-10.9
			C47.2,151.4,43.5,147.6,38.8,147.6z M43.3,167c0,2.4-2,4.4-4.4,4.4s-4.4-2-4.4-4.4v-10.9c0-2.4,2-4.4,4.4-4.4s4.4,2,4.4,4.4V167z"
			/>
		<linearGradient id="XMLID_207_" gradientUnits="userSpaceOnUse" x1="138.9507" y1="175.4068" x2="138.9507" y2="147.6453">
			<stop  offset="0" style="stop-color:#61006C"/>
			<stop  offset="1" style="stop-color:#840781"/>
		</linearGradient>
		<path id="XMLID_139_" class="st3" d="M145.4,147.6c-1.1,0-2,0.9-2,2v17.9c0,2.2-1.8,3.9-3.9,3.9h-1c-2.2,0-3.9-1.8-3.9-3.9v-17.9
			c0-1.1-0.9-2-2-2c-1.1,0-2,0.9-2,2v17.9c0,4.4,3.6,7.9,7.9,7.9h1c4.4,0,7.9-3.6,7.9-7.9v-17.9
			C147.4,148.5,146.5,147.6,145.4,147.6z"/>
		<linearGradient id="XMLID_208_" gradientUnits="userSpaceOnUse" x1="59.4745" y1="175.4068" x2="59.4745" y2="147.6453">
			<stop  offset="0" style="stop-color:#61006C"/>
			<stop  offset="1" style="stop-color:#840781"/>
		</linearGradient>
		<path id="XMLID_138_" class="st4" d="M59,151.6h1c2.2,0,3.9,1.8,3.9,3.9c0,1.1,0.9,2,2,2s2-0.9,2-2c0-4.4-3.6-7.9-7.9-7.9h-1
			c-4.4,0-7.9,3.6-7.9,7.9v11.9c0,4.4,3.6,7.9,7.9,7.9h1c4.4,0,7.9-3.6,7.9-7.9c0-1.1-0.9-2-2-2s-2,0.9-2,2c0,2.2-1.8,3.9-3.9,3.9
			h-1c-2.2,0-3.9-1.8-3.9-3.9v-11.9C55,153.4,56.8,151.6,59,151.6z"/>
		<linearGradient id="XMLID_209_" gradientUnits="userSpaceOnUse" x1="78.335" y1="175.4068" x2="78.335" y2="147.6453">
			<stop  offset="0" style="stop-color:#61006C"/>
			<stop  offset="1" style="stop-color:#840781"/>
		</linearGradient>
		<path id="XMLID_137_" class="st5" d="M84.8,147.6H71.9c-1.1,0-2,0.9-2,2c0,1.1,0.9,2,2,2h4.4v21.8c0,1.1,0.9,2,2,2s2-0.9,2-2
			v-21.8h4.4c1.1,0,2-0.9,2-2C86.7,148.5,85.9,147.6,84.8,147.6z"/>
		<linearGradient id="XMLID_210_" gradientUnits="userSpaceOnUse" x1="159.5966" y1="175.4068" x2="159.5966" y2="147.6453">
			<stop  offset="0" style="stop-color:#61006C"/>
			<stop  offset="1" style="stop-color:#840781"/>
		</linearGradient>
		<path id="XMLID_33_" class="st6" d="M159.6,159.5c-4,0-4.4-3.1-4.4-4c0-2.2,1.8-3.9,3.9-3.9h1c2.2,0,3.9,1.8,3.9,3.9
			c0,1.1,0.9,2,2,2c1.1,0,2-0.9,2-2c0-4.4-3.6-7.9-7.9-7.9h-1c-4.4,0-7.9,3.6-7.9,7.9c0,3.2,2.2,7.9,8.4,7.9c4.1,0,4.4,3.1,4.4,4
			c0,2.2-1.8,3.9-3.9,3.9h-1c-2.2,0-3.9-1.8-3.9-3.9c0-1.1-0.9-2-2-2c-1.1,0-2,0.9-2,2c0,4.4,3.6,7.9,7.9,7.9h1
			c4.4,0,7.9-3.6,7.9-7.9C168,164.3,165.8,159.5,159.6,159.5z"/>
		<linearGradient id="XMLID_211_" gradientUnits="userSpaceOnUse" x1="118.4032" y1="175.4068" x2="118.4032" y2="147.6453">
			<stop  offset="0" style="stop-color:#61006C"/>
			<stop  offset="1" style="stop-color:#840781"/>
		</linearGradient>
		<path id="XMLID_24_" class="st7" d="M125.9,158.5c0.7-1.4,1-3,0.7-4.5c-0.2-1.4-0.9-2.8-1.9-3.8c-0.1-0.1-0.1-0.1-0.1-0.2
			c-1.5-1.5-3.5-2.3-5.6-2.3h-6.9c-1.1,0-2,0.9-2,2v23.8c0,1.1,0.9,2,2,2h6.9c2.1,0,4.1-0.8,5.6-2.3l0.2-0.2c1.9-2,2.5-5,1.5-7.6
			c0-0.1-0.1-0.1-0.1-0.2l-1-2c-0.5-1-0.5-2.2,0-3.2L125.9,158.5z M121.6,164.9l1,1.9c0.4,1.2,0.1,2.5-0.7,3.4l-0.1,0.1
			c-0.7,0.7-1.7,1.2-2.8,1.2h-4.9v-19.8h4.9c1.1,0,2,0.4,2.8,1.2l0.1,0.1c0.4,0.5,0.7,1.1,0.8,1.7c0.1,0.7,0,1.4-0.4,2.1l-0.8,1.5
			C120.5,160.2,120.5,162.8,121.6,164.9z"/>
	</g>
</g>
</svg>
