<?xml version="1.0" encoding="UTF-8" standalone="no"?>
<!-- Created with Inkscape (http://www.inkscape.org/) -->

<svg
   xmlns:dc="http://purl.org/dc/elements/1.1/"
   xmlns:cc="http://creativecommons.org/ns#"
   xmlns:rdf="http://www.w3.org/1999/02/22-rdf-syntax-ns#"
   xmlns:svg="http://www.w3.org/2000/svg"
   xmlns="http://www.w3.org/2000/svg"
   xmlns:sodipodi="http://sodipodi.sourceforge.net/DTD/sodipodi-0.dtd"
   xmlns:inkscape="http://www.inkscape.org/namespaces/inkscape"
   width="180.96521"
   height="76.429283"
   id="svg5332"
   version="1.1"
   inkscape:version="0.47 r22583"
   sodipodi:docname="logoActivDesign-1.svg">
  <defs
     id="defs5334">
    <inkscape:perspective
       sodipodi:type="inkscape:persp3d"
       inkscape:vp_x="0 : 526.18109 : 1"
       inkscape:vp_y="0 : 1000 : 0"
       inkscape:vp_z="744.09448 : 526.18109 : 1"
       inkscape:persp3d-origin="372.04724 : 350.78739 : 1"
       id="perspective5340" />
    <inkscape:perspective
       id="perspective5319"
       inkscape:persp3d-origin="0.5 : 0.33333333 : 1"
       inkscape:vp_z="1 : 0.5 : 1"
       inkscape:vp_y="0 : 1000 : 0"
       inkscape:vp_x="0 : 0.5 : 1"
       sodipodi:type="inkscape:persp3d" />
  </defs>
  <sodipodi:namedview
     id="base"
     pagecolor="#ffffff"
     bordercolor="#666666"
     borderopacity="1.0"
     inkscape:pageopacity="0.0"
     inkscape:pageshadow="2"
     inkscape:zoom="0.98994949"
     inkscape:cx="85.973898"
     inkscape:cy="78.494995"
     inkscape:document-units="px"
     inkscape:current-layer="layer1"
     showgrid="false"
     inkscape:window-width="565"
     inkscape:window-height="476"
     inkscape:window-x="1"
     inkscape:window-y="206"
     inkscape:window-maximized="0" />
  <metadata
     id="metadata5337">
    <rdf:RDF>
      <cc:Work
         rdf:about="">
        <dc:format>image/svg+xml</dc:format>
        <dc:type
           rdf:resource="http://purl.org/dc/dcmitype/StillImage" />
        <dc:title />
      </cc:Work>
    </rdf:RDF>
  </metadata>
  <g
     inkscape:label="Calque 1"
     inkscape:groupmode="layer"
     id="layer1"
     transform="translate(-280.94598,-374.14755)">
    <g
       style="font-size:28.07783889999999971px;font-style:normal;font-weight:bold;line-height:100%;letter-spacing:0px;word-spacing:0px;fill:#000000;fill-opacity:1;stroke:none;font-family:Bitstream Vera Sans;-inkscape-font-specification:Aller Bold"
       id="text5223">
      <path
         d="m 402.86698,425.112 2.83586,0 0,-0.4703 -2.31642,0 0,-1.91632 2.2392,0 0,-0.4703 -2.2392,0 0,-1.86016 2.31642,0 0,-0.4703 -2.83586,0 0,5.18738"
         style="font-size:7.01945972000000040px;font-variant:normal;font-weight:normal;font-stretch:normal;text-align:start;line-height:100%;writing-mode:lr-tb;text-anchor:start;fill:#000000;font-family:URW Gothic L;-inkscape-font-specification:URW Gothic L Book"
         id="path5645" />
      <path
         d="m 409.7682,423.98187 c -0.40011,0.53347 -0.77214,0.74406 -1.31264,0.74406 -0.86339,0 -1.54428,-0.68089 -1.54428,-1.53024 0,-0.8634 0.66685,-1.53726 1.52322,-1.53726 0.56858,0 1.03888,0.27375 1.3337,0.77916 l 0.58262,0 c -0.30886,-0.77214 -1.0459,-1.25649 -1.9093,-1.25649 -1.15119,0 -2.0567,0.88446 -2.0567,2.00055 0,1.14417 0.91253,2.0216 2.0918,2.0216 0.47732,0 0.91955,-0.15443 1.27754,-0.4352 0.24568,-0.19655 0.39309,-0.38607 0.60368,-0.78618 l -0.58964,0"
         style="font-size:7.01945972000000040px;font-variant:normal;font-weight:normal;font-stretch:normal;text-align:start;line-height:100%;writing-mode:lr-tb;text-anchor:start;fill:#000000;font-family:URW Gothic L;-inkscape-font-specification:URW Gothic L Book"
         id="path5647" />
      <path
         d="m 412.93738,421.1811 c -1.13715,0 -2.01459,0.8634 -2.01459,1.98651 0,1.17927 0.8634,2.03564 2.0567,2.03564 1.12312,0 1.95141,-0.84935 1.95141,-2.00054 0,-1.17225 -0.84233,-2.02161 -1.99352,-2.02161 m 0,0.47733 c 0.84233,0 1.46706,0.65983 1.46706,1.5513 0,0.87743 -0.60367,1.5162 -1.43899,1.5162 -0.88445,0 -1.5162,-0.64579 -1.5162,-1.54428 0,-0.87041 0.63877,-1.52322 1.48813,-1.52322"
         style="font-size:7.01945972000000040px;font-variant:normal;font-weight:normal;font-stretch:normal;text-align:start;line-height:100%;writing-mode:lr-tb;text-anchor:start;fill:#000000;font-family:URW Gothic L;-inkscape-font-specification:URW Gothic L Book"
         id="path5649" />
      <path
         d="m 415.66301,425.112 0.51944,0 0,-5.18738 -0.51944,0 0,5.18738"
         style="font-size:7.01945972000000040px;font-variant:normal;font-weight:normal;font-stretch:normal;text-align:start;line-height:100%;writing-mode:lr-tb;text-anchor:start;fill:#000000;font-family:URW Gothic L;-inkscape-font-specification:URW Gothic L Book"
         id="path5651" />
      <path
         d="m 420.90808,423.36415 c 0,-0.52645 -0.0702,-0.84935 -0.25972,-1.18628 -0.34395,-0.6107 -1.0108,-0.99677 -1.74082,-0.99677 -1.1161,0 -1.99353,0.87744 -1.99353,1.99353 0,1.13715 0.89147,2.02862 2.02862,2.02862 0.49137,0 0.95465,-0.1825 1.30562,-0.51242 0.27376,-0.25972 0.45627,-0.52646 0.56156,-0.84233 l -0.5405,0 c -0.2176,0.52646 -0.7581,0.87743 -1.34071,0.87743 -0.78618,0 -1.45303,-0.60368 -1.49515,-1.36178 l 3.47463,0 m -3.46059,-0.4703 c 0.14039,-0.73704 0.723,-1.23542 1.45303,-1.23542 0.74406,0 1.31264,0.4703 1.48812,1.23542 l -2.94115,0"
         style="font-size:7.01945972000000040px;font-variant:normal;font-weight:normal;font-stretch:normal;text-align:start;line-height:100%;writing-mode:lr-tb;text-anchor:start;fill:#000000;font-family:URW Gothic L;-inkscape-font-specification:URW Gothic L Book"
         id="path5653" />
      <path
         d="m 402.77572,432.13146 0.51944,0 0,-2.11286 c 0,-0.42818 0.0562,-0.65281 0.20357,-0.87041 0.20356,-0.29482 0.56155,-0.4703 0.96868,-0.4703 0.37905,0 0.72301,0.15442 0.93359,0.41414 0.18251,0.23866 0.2527,0.51944 0.2527,1.02484 l 0,2.01459 0.51944,0 0,-2.01459 c 0,-0.64579 -0.0913,-0.98974 -0.33693,-1.31965 -0.30184,-0.37905 -0.76513,-0.59666 -1.30562,-0.59666 -0.5054,0 -0.91253,0.19655 -1.23543,0.58964 l 0,-0.49839 -0.51944,0 0,3.83965"
         style="font-size:7.01945972000000040px;font-variant:normal;font-weight:normal;font-stretch:normal;text-align:start;line-height:100%;writing-mode:lr-tb;text-anchor:start;fill:#000000;font-family:URW Gothic L;-inkscape-font-specification:URW Gothic L Book"
         id="path5655" />
      <path
         d="m 410.43659,428.29181 -0.51944,0 0,1.97247 c 0,0.47031 -0.0702,0.76512 -0.23165,1.00379 -0.2176,0.30183 -0.56155,0.47732 -0.96166,0.47732 -0.42819,0 -0.7932,-0.17549 -0.96869,-0.48434 -0.11933,-0.19655 -0.1825,-0.50541 -0.1825,-0.89849 l 0,-2.07075 -0.51944,0 0,2.07075 c 0,0.56857 0.0983,0.96868 0.30183,1.24946 0.2878,0.40011 0.75109,0.61069 1.32668,0.61069 0.59665,0 0.97571,-0.21058 1.23543,-0.6879 l 0,0.59665 0.51944,0 0,-3.83965"
         style="font-size:7.01945972000000040px;font-variant:normal;font-weight:normal;font-stretch:normal;text-align:start;line-height:100%;writing-mode:lr-tb;text-anchor:start;fill:#000000;font-family:URW Gothic L;-inkscape-font-specification:URW Gothic L Book"
         id="path5657" />
      <path
         d="m 411.31698,432.13146 0.51944,0 0,-2.23921 c 0,-0.76512 0.38607,-1.21436 1.03186,-1.21436 0.31587,0 0.61069,0.12635 0.80022,0.35097 0.16846,0.19654 0.23866,0.46328 0.23866,0.86339 l 0,2.23921 0.51944,0 0,-2.22517 c 0,-0.37203 0.0562,-0.61069 0.18251,-0.7932 0.1825,-0.28078 0.5054,-0.44222 0.87041,-0.44222 0.33693,0 0.63175,0.13337 0.80724,0.36501 0.14039,0.19654 0.21058,0.48434 0.21058,0.87041 l 0,2.22517 0.51944,0 0,-2.28133 c 0,-0.5054 -0.0913,-0.83531 -0.30886,-1.10907 -0.26674,-0.35097 -0.70194,-0.54752 -1.20032,-0.54752 -0.59666,0 -1.01081,0.23165 -1.3337,0.74407 -0.30184,-0.51242 -0.68089,-0.73705 -1.25648,-0.73705 -0.48435,0 -0.78618,0.14741 -1.081,0.53348 l 0,-0.44223 -0.51944,0 0,3.83965"
         style="font-size:7.01945972000000040px;font-variant:normal;font-weight:normal;font-stretch:normal;text-align:start;line-height:100%;writing-mode:lr-tb;text-anchor:start;fill:#000000;font-family:URW Gothic L;-inkscape-font-specification:URW Gothic L Book"
         id="path5659" />
      <path
         d="m 421.74439,430.38361 c 0,-0.52646 -0.0702,-0.84935 -0.25972,-1.18628 -0.34396,-0.6107 -1.01081,-0.99677 -1.74083,-0.99677 -1.11609,0 -1.99353,0.87744 -1.99353,1.99353 0,1.13715 0.89148,2.02862 2.02863,2.02862 0.49136,0 0.95464,-0.1825 1.30562,-0.51242 0.27376,-0.25972 0.45626,-0.52646 0.56155,-0.84233 l -0.5405,0 c -0.2176,0.52646 -0.7581,0.87743 -1.34071,0.87743 -0.78618,0 -1.45303,-0.60368 -1.49515,-1.36178 l 3.47464,0 m -3.4606,-0.4703 c 0.14039,-0.73704 0.72301,-1.23542 1.45303,-1.23542 0.74406,0 1.31264,0.4703 1.48813,1.23542 l -2.94116,0 m 0.89849,-2.45681 0.23866,0.39309 1.35476,-0.80022 -0.23866,-0.40713 -1.35476,0.81426"
         style="font-size:7.01945972000000040px;font-variant:normal;font-weight:normal;font-stretch:normal;text-align:start;line-height:100%;writing-mode:lr-tb;text-anchor:start;fill:#000000;font-family:URW Gothic L;-inkscape-font-specification:URW Gothic L Book"
         id="path5661" />
      <path
         d="m 422.46311,432.13146 0.51944,0 0,-2.23921 c 0,-0.71598 0.36502,-1.10907 1.08802,-1.17927 l 0,-0.51242 c -0.55454,0.0281 -0.88445,0.21761 -1.08802,0.63877 l 0,-0.54752 -0.51944,0 0,3.83965"
         style="font-size:7.01945972000000040px;font-variant:normal;font-weight:normal;font-stretch:normal;text-align:start;line-height:100%;writing-mode:lr-tb;text-anchor:start;fill:#000000;font-family:URW Gothic L;-inkscape-font-specification:URW Gothic L Book"
         id="path5663" />
      <path
         d="m 424.57444,432.13146 0.51944,0 0,-3.83965 -0.51944,0 0,3.83965 m 0,-4.30293 0.51944,0 0,-0.88445 -0.51944,0 0,0.88445"
         style="font-size:7.01945972000000040px;font-variant:normal;font-weight:normal;font-stretch:normal;text-align:start;line-height:100%;writing-mode:lr-tb;text-anchor:start;fill:#000000;font-family:URW Gothic L;-inkscape-font-specification:URW Gothic L Book"
         id="path5665" />
      <path
         d="m 429.87566,428.29181 -0.51944,0 0,0.65983 c -0.32289,-0.49136 -0.85637,-0.75108 -1.50918,-0.75108 -1.14417,0 -2.02161,0.87744 -2.02161,2.01459 0,1.13013 0.89148,2.00756 2.03565,2.00756 0.63877,0 1.15821,-0.25972 1.49514,-0.75108 l 0,2.00757 0.51944,0 0,-5.18739 m -2.00756,0.38608 c 0.87041,0 1.52322,0.66684 1.52322,1.55832 0,0.84233 -0.67387,1.50918 -1.52322,1.50918 -0.8634,0 -1.51621,-0.65983 -1.51621,-1.52322 0,-0.88445 0.65281,-1.54428 1.51621,-1.54428"
         style="font-size:7.01945972000000040px;font-variant:normal;font-weight:normal;font-stretch:normal;text-align:start;line-height:100%;writing-mode:lr-tb;text-anchor:start;fill:#000000;font-family:URW Gothic L;-inkscape-font-specification:URW Gothic L Book"
         id="path5667" />
      <path
         d="m 434.14097,428.29181 -0.51944,0 0,1.97247 c 0,0.47031 -0.0702,0.76512 -0.23164,1.00379 -0.2176,0.30183 -0.56156,0.47732 -0.96167,0.47732 -0.42818,0 -0.7932,-0.17549 -0.96868,-0.48434 -0.11933,-0.19655 -0.18251,-0.50541 -0.18251,-0.89849 l 0,-2.07075 -0.51944,0 0,2.07075 c 0,0.56857 0.0983,0.96868 0.30184,1.24946 0.2878,0.40011 0.75108,0.61069 1.32668,0.61069 0.59665,0 0.9757,-0.21058 1.23542,-0.6879 l 0,0.59665 0.51944,0 0,-3.83965"
         style="font-size:7.01945972000000040px;font-variant:normal;font-weight:normal;font-stretch:normal;text-align:start;line-height:100%;writing-mode:lr-tb;text-anchor:start;fill:#000000;font-family:URW Gothic L;-inkscape-font-specification:URW Gothic L Book"
         id="path5669" />
      <path
         d="m 438.86803,430.38361 c 0,-0.52646 -0.0702,-0.84935 -0.25972,-1.18628 -0.34395,-0.6107 -1.0108,-0.99677 -1.74083,-0.99677 -1.11609,0 -1.99352,0.87744 -1.99352,1.99353 0,1.13715 0.89147,2.02862 2.02862,2.02862 0.49136,0 0.95465,-0.1825 1.30562,-0.51242 0.27376,-0.25972 0.45627,-0.52646 0.56156,-0.84233 l -0.5405,0 c -0.2176,0.52646 -0.7581,0.87743 -1.34072,0.87743 -0.78618,0 -1.45303,-0.60368 -1.49514,-1.36178 l 3.47463,0 m -3.46059,-0.4703 c 0.14039,-0.73704 0.723,-1.23542 1.45302,-1.23542 0.74407,0 1.31264,0.4703 1.48813,1.23542 l -2.94115,0"
         style="font-size:7.01945972000000040px;font-variant:normal;font-weight:normal;font-stretch:normal;text-align:start;line-height:100%;writing-mode:lr-tb;text-anchor:start;fill:#000000;font-family:URW Gothic L;-inkscape-font-specification:URW Gothic L Book"
         id="path5671" />
      <path
         d="m 406.6996,433.96354 -0.51944,0 0,1.95843 c -0.37905,-0.45627 -0.90551,-0.70195 -1.50918,-0.70195 -1.15821,0 -2.04267,0.87042 -2.04267,2.01459 0,1.13715 0.90551,2.00756 2.0918,2.00756 0.63877,0 1.07398,-0.23164 1.46005,-0.78618 l 0,0.69493 0.51944,0 0,-5.18738 m -2.04266,1.7338 c 0.84935,0 1.54428,0.68089 1.54428,1.52323 0,0.84233 -0.67387,1.54428 -1.49515,1.54428 -0.87743,0 -1.5513,-0.67387 -1.5513,-1.5513 0,-0.84234 0.66685,-1.51621 1.50217,-1.51621"
         style="font-size:7.01945972000000040px;font-variant:normal;font-weight:normal;font-stretch:normal;text-align:start;line-height:100%;writing-mode:lr-tb;text-anchor:start;fill:#000000;font-family:URW Gothic L;-inkscape-font-specification:URW Gothic L Book"
         id="path5673" />
      <path
         d="m 410.97127,435.31127 -0.51944,0 0,1.97247 c 0,0.47031 -0.0702,0.76512 -0.23164,1.00379 -0.2176,0.30183 -0.56156,0.47732 -0.96167,0.47732 -0.42818,0 -0.7932,-0.17549 -0.96868,-0.48434 -0.11933,-0.19655 -0.18251,-0.50541 -0.18251,-0.89849 l 0,-2.07075 -0.51944,0 0,2.07075 c 0,0.56857 0.0983,0.96868 0.30184,1.24946 0.28779,0.40011 0.75108,0.61069 1.32668,0.61069 0.59665,0 0.9757,-0.21058 1.23542,-0.68791 l 0,0.59666 0.51944,0 0,-3.83965"
         style="font-size:7.01945972000000040px;font-variant:normal;font-weight:normal;font-stretch:normal;text-align:start;line-height:100%;writing-mode:lr-tb;text-anchor:start;fill:#000000;font-family:URW Gothic L;-inkscape-font-specification:URW Gothic L Book"
         id="path5675" />
      <path
         d="m 413.79847,439.15092 0.51944,0 0,-5.18738 -0.51944,0 0,5.18738"
         style="font-size:7.01945972000000040px;font-variant:normal;font-weight:normal;font-stretch:normal;text-align:start;line-height:100%;writing-mode:lr-tb;text-anchor:start;fill:#000000;font-family:URW Gothic L;-inkscape-font-specification:URW Gothic L Book"
         id="path5677" />
      <path
         d="m 415.19688,439.15092 0.51944,0 0,-3.83965 -0.51944,0 0,3.83965 m 0,-4.30293 0.51944,0 0,-0.88445 -0.51944,0 0,0.88445"
         style="font-size:7.01945972000000040px;font-variant:normal;font-weight:normal;font-stretch:normal;text-align:start;line-height:100%;writing-mode:lr-tb;text-anchor:start;fill:#000000;font-family:URW Gothic L;-inkscape-font-specification:URW Gothic L Book"
         id="path5679" />
      <path
         d="m 416.59528,439.15092 0.51944,0 0,-0.65983 c 0.3229,0.47732 0.87042,0.75108 1.50217,0.75108 1.15821,0 2.02862,-0.86339 2.02862,-2.01458 0,-1.13013 -0.88445,-2.00757 -2.0216,-2.00757 -0.64579,0 -1.17927,0.26674 -1.50919,0.75108 l 0,-2.00756 -0.51944,0 0,5.18738 m 2.01459,-3.45358 c 0.86339,0 1.50918,0.65282 1.50918,1.51621 0,0.88445 -0.65281,1.5513 -1.5162,1.5513 -0.42819,0 -0.77916,-0.14741 -1.081,-0.45627 -0.30183,-0.30885 -0.44222,-0.65983 -0.44222,-1.09503 0,-0.84936 0.67386,-1.51621 1.53024,-1.51621"
         style="font-size:7.01945972000000040px;font-variant:normal;font-weight:normal;font-stretch:normal;text-align:start;line-height:100%;writing-mode:lr-tb;text-anchor:start;fill:#000000;font-family:URW Gothic L;-inkscape-font-specification:URW Gothic L Book"
         id="path5681" />
      <path
         d="m 421.38003,439.15092 0.51944,0 0,-2.23921 c 0,-0.71598 0.36502,-1.10907 1.08802,-1.17927 l 0,-0.51242 c -0.55454,0.0281 -0.88445,0.21761 -1.08802,0.63877 l 0,-0.54752 -0.51944,0 0,3.83965"
         style="font-size:7.01945972000000040px;font-variant:normal;font-weight:normal;font-stretch:normal;text-align:start;line-height:100%;writing-mode:lr-tb;text-anchor:start;fill:#000000;font-family:URW Gothic L;-inkscape-font-specification:URW Gothic L Book"
         id="path5683" />
      <path
         d="m 427.33802,437.40307 c 0,-0.52646 -0.0702,-0.84935 -0.25972,-1.18629 -0.34396,-0.61069 -1.01081,-0.99676 -1.74083,-0.99676 -1.11609,0 -1.99353,0.87744 -1.99353,1.99353 0,1.13715 0.89148,2.02862 2.02863,2.02862 0.49136,0 0.95465,-0.1825 1.30562,-0.51242 0.27376,-0.25972 0.45626,-0.52646 0.56156,-0.84233 l -0.5405,0 c -0.21761,0.52646 -0.75811,0.87743 -1.34072,0.87743 -0.78618,0 -1.45303,-0.60368 -1.49515,-1.36178 l 3.47464,0 m -3.4606,-0.4703 c 0.14039,-0.73704 0.72301,-1.23543 1.45303,-1.23543 0.74406,0 1.31264,0.47031 1.48813,1.23543 l -2.94116,0"
         style="font-size:7.01945972000000040px;font-variant:normal;font-weight:normal;font-stretch:normal;text-align:start;line-height:100%;writing-mode:lr-tb;text-anchor:start;fill:#000000;font-family:URW Gothic L;-inkscape-font-specification:URW Gothic L Book"
         id="path5685" />
    </g>
    <g
       transform="scale(1.2844749,0.77852826)"
       style="font-size:225.53771972999999207px;font-style:normal;font-weight:bold;line-height:100%;letter-spacing:0px;word-spacing:0px;fill:#000000;fill-opacity:1;stroke:none;font-family:Bitstream Vera Sans;-inkscape-font-specification:Aller Bold"
       id="text5233">
      <path
         d="m 238.84679,554.75356 -7.49913,0 -1.63515,7.89382 c -0.0376,0.18795 -0.094,0.35711 -0.16915,0.50746 -0.0752,0.15036 -0.20675,0.28193 -0.39469,0.3947 -0.18796,0.0752 -0.46988,0.13156 -0.84577,0.16915 -0.33831,0.0752 -0.82698,0.11277 -1.466,0.11277 -0.41349,0 -0.99612,-0.0188 -1.74791,-0.0564 -0.7518,-0.0376 -1.50359,-0.094 -2.25538,-0.16915 l 9.4162,-38.28503 c 0.15035,-0.78934 0.99611,-1.18403 2.5373,-1.18407 0.52624,4e-5 1.05249,0.0188 1.57876,0.0564 0.52624,0.0376 0.99611,0.094 1.40961,0.16916 l 9.4162,38.34141 c 0.0752,0.3759 -0.0564,0.65782 -0.39469,0.84577 -0.33833,0.18794 -1.1465,0.28192 -2.42453,0.28192 -0.41351,0 -0.92096,0 -1.52238,0 -0.60145,0 -1.31565,-0.0376 -2.14261,-0.11277 l -1.86068,-8.96513 m -6.31506,-5.69482 5.13098,0 -1.0713,-5.24375 c -0.30073,-1.50357 -0.58265,-3.1951 -0.84577,-5.0746 -0.22555,-1.91705 -0.43229,-3.77773 -0.62022,-5.58206 -0.18797,1.80433 -0.4135,3.66501 -0.67662,5.58206 -0.26314,1.8795 -0.54506,3.57103 -0.84576,5.0746 l -1.07131,5.24375"
         style="font-size:56.38442993000000314px;font-variant:normal;font-stretch:normal;text-align:start;line-height:100%;writing-mode:lr-tb;text-anchor:start;font-family:Yanone Kaffeesatz;-inkscape-font-specification:Yanone Kaffeesatz Bold;fill:#000000"
         id="path5621" />
      <path
         d="m 263.28944,537.83824 c -2e-5,0.41351 -0.0376,0.92097 -0.11277,1.52238 -0.0752,0.56386 -0.22555,1.18409 -0.45108,1.86068 -0.45109,-0.18792 -1.01493,-0.35708 -1.69153,-0.50746 -0.63904,-0.15033 -1.25926,-0.22551 -1.86069,-0.22554 -0.52626,3e-5 -1.03372,0.1128 -1.52238,0.33831 -0.45108,0.18797 -0.86457,0.62025 -1.24045,1.29684 -0.37591,0.63905 -0.67662,1.59758 -0.90215,2.87561 -0.22555,1.27806 -0.33832,2.98839 -0.33831,5.13098 -1e-5,1.61637 0.0564,2.96959 0.16915,4.05968 0.11276,1.09011 0.30071,1.97346 0.56385,2.65007 0.30071,0.67662 0.6954,1.16528 1.18407,1.46599 0.48866,0.26314 1.10888,0.3947 1.86069,0.39469 0.60142,10e-6 1.24044,-0.0752 1.91707,-0.22553 0.6766,-0.15036 1.24044,-0.3383 1.69153,-0.56385 0.18793,0.71421 0.3195,1.33444 0.39469,1.86069 0.0752,0.48867 0.11275,0.97733 0.11277,1.46599 -2e-5,0.93975 -0.58265,1.69154 -1.74792,2.25538 -1.1277,0.52626 -2.59369,0.78938 -4.39798,0.78938 -1.46601,0 -2.72526,-0.18795 -3.77776,-0.56384 -1.05251,-0.3759 -1.91707,-1.0713 -2.59368,-2.08622 -0.67662,-1.01492 -1.18408,-2.42453 -1.52238,-4.22884 -0.30072,-1.84188 -0.45108,-4.22882 -0.45108,-7.16082 0,-3.38305 0.30072,-6.0707 0.90215,-8.06297 0.60143,-2.02982 1.37202,-3.57099 2.31176,-4.62353 0.97733,-1.09007 2.06743,-1.78548 3.2703,-2.08622 1.20286,-0.33828 2.38693,-0.50743 3.55222,-0.50746 1.3908,3e-5 2.51849,0.26316 3.38307,0.78938 0.86454,0.48869 1.29682,1.1841 1.29684,2.08623"
         style="font-size:56.38442993000000314px;font-variant:normal;font-stretch:normal;text-align:start;line-height:100%;writing-mode:lr-tb;text-anchor:start;font-family:Yanone Kaffeesatz;-inkscape-font-specification:Yanone Kaffeesatz Bold;fill:#000000"
         id="path5623" />
      <path
         d="m 268.34906,540.88299 -3.38307,0 c 0,-1.20284 0,-2.16137 0,-2.8756 0.0376,-0.71418 0.094,-1.24043 0.16916,-1.57877 0.0752,-0.37586 0.20674,-0.6202 0.39469,-0.73299 0.18795,-0.11274 0.43228,-0.16913 0.733,-0.16916 l 2.08622,0 0,-8.17574 c 0,-0.48863 0.094,-0.86452 0.28192,-1.12769 0.18795,-0.26309 0.50746,-0.45103 0.95854,-0.56384 0.48866,-0.15032 1.12768,-0.2255 1.91707,-0.22554 0.82696,-0.0376 1.87947,-0.0564 3.15753,-0.0564 l 0,10.14919 4.62352,0 c -2e-5,1.2029 -0.0188,2.16143 -0.0564,2.87561 -10e-6,0.71423 -0.0376,1.25928 -0.11276,1.63515 -0.0752,0.37592 -0.20676,0.62025 -0.39469,0.733 -0.15038,0.0752 -0.37592,0.11279 -0.67662,0.11276 l -3.38306,0 0,15.33657 c -1e-5,0.63903 0.0564,1.25926 0.16915,1.86069 0.11276,0.56385 0.50745,0.84577 1.18407,0.84576 0.93973,10e-6 1.91706,-0.24433 2.93199,-0.733 0.0752,0.4135 0.15035,0.86457 0.22554,1.35323 0.11275,0.48867 0.16914,1.05251 0.16915,1.69153 -10e-6,0.67662 -0.16916,1.22167 -0.50746,1.63515 -0.33832,0.3759 -0.7706,0.67662 -1.29684,0.90215 -0.48868,0.22554 -1.03372,0.3571 -1.63515,0.39469 -0.60144,0.0752 -1.16528,0.11277 -1.69153,0.11277 -1.24047,0 -2.25538,-0.18795 -3.04476,-0.56384 -0.7518,-0.33831 -1.33444,-0.84577 -1.74792,-1.52238 -0.41349,-0.67661 -0.69541,-1.50358 -0.84576,-2.48092 -0.15036,-1.01491 -0.22554,-2.1426 -0.22554,-3.38306 l 0,-15.44934"
         style="font-size:56.38442993000000314px;font-variant:normal;font-stretch:normal;text-align:start;line-height:100%;writing-mode:lr-tb;text-anchor:start;font-family:Yanone Kaffeesatz;-inkscape-font-specification:Yanone Kaffeesatz Bold;fill:#000000"
         id="path5625" />
      <path
         d="m 288.71529,562.591 c -10e-6,0.30072 -0.0376,0.52626 -0.11277,0.67661 -0.0752,0.15036 -0.31952,0.26313 -0.73299,0.33831 -0.37591,0.0376 -1.01493,0.0752 -1.91708,0.11277 -0.86456,0 -2.08622,0 -3.66498,0 l 0,-25.42938 c 0,-0.67659 0.094,-1.20284 0.28192,-1.57876 0.18794,-0.37587 0.50746,-0.639 0.95853,-0.78938 0.48867,-0.18793 1.14648,-0.30069 1.97346,-0.33831 0.82697,-0.0376 1.89827,-0.0564 3.21391,-0.0564 l 0,27.06453 m -6.1459,-35.29665 c 0,-1.3156 0.26312,-2.36811 0.78938,-3.15753 0.56384,-0.82693 1.4472,-1.24042 2.65007,-1.24046 1.16527,4e-5 1.95465,0.30076 2.36815,0.90215 0.41347,0.60148 0.62022,1.67278 0.62022,3.21392 0,1.5412 -0.30072,2.74407 -0.90215,3.6086 -0.56385,0.827 -1.39082,1.24049 -2.48091,1.24046 -0.93975,3e-5 -1.69154,-0.31948 -2.25538,-0.95854 -0.52626,-0.63899 -0.78938,-1.84186 -0.78938,-3.6086"
         style="font-size:56.38442993000000314px;font-variant:normal;font-stretch:normal;text-align:start;line-height:100%;writing-mode:lr-tb;text-anchor:start;font-family:Yanone Kaffeesatz;-inkscape-font-specification:Yanone Kaffeesatz Bold;fill:#000000"
         id="path5627" />
      <path
         d="m 291.1222,537.38716 c -0.11277,-0.45105 -0.15036,-0.80815 -0.11277,-1.0713 0.0376,-0.2631 0.26313,-0.45105 0.67662,-0.56385 0.45107,-0.11274 1.16527,-0.16912 2.1426,-0.16915 0.97733,-0.0376 2.36814,-0.0564 4.17245,-0.0564 l 1.01492,8.11936 c 0.15035,1.20289 0.28192,2.5937 0.39469,4.17245 0.15035,1.54119 0.28192,3.00718 0.39469,4.39799 0.15035,1.61636 0.26312,3.25151 0.33831,4.90544 l 0.11277,0 c 0.0752,-1.65393 0.18794,-3.28908 0.33831,-4.90544 0.0752,-1.39081 0.16914,-2.8568 0.28192,-4.39799 0.15035,-1.57875 0.3007,-2.96956 0.45107,-4.17245 l 0.78939,-6.8789 c 0.0376,-0.30069 0.094,-0.52623 0.16915,-0.67661 0.11276,-0.18792 0.37588,-0.31949 0.78938,-0.39469 0.41347,-0.0752 1.0525,-0.11274 1.91707,-0.11277 0.90214,-0.0376 2.16139,-0.0564 3.77776,-0.0564 l -5.63844,28.19222 c -0.63904,0.11277 -1.40963,0.18795 -2.31177,0.22554 -0.90216,0.0376 -1.65395,0.0564 -2.25537,0.0564 -0.82698,0 -1.42842,-0.26313 -1.80431,-0.78938 -0.3759,-0.56384 -0.65782,-1.24046 -0.84576,-2.02984 l -4.79268,-23.79423"
         style="font-size:56.38442993000000314px;font-variant:normal;font-stretch:normal;text-align:start;line-height:100%;writing-mode:lr-tb;text-anchor:start;font-family:Yanone Kaffeesatz;-inkscape-font-specification:Yanone Kaffeesatz Bold;fill:#000000"
         id="path5629" />
    </g>
    <g
       style="font-size:122.02098845999999810px;font-style:normal;font-weight:bold;line-height:100%;letter-spacing:0px;word-spacing:0px;fill:#000000;fill-opacity:1;stroke:none;font-family:Bitstream Vera Sans;-inkscape-font-specification:Aller Bold"
       id="text5237">
      <path
         d="m 385.53169,414.22488 c -0.40674,0 -0.61011,-0.20336 -0.6101,-0.6101 -10e-6,0 -10e-6,-6.50778 0,-19.52336 -10e-6,-0.36604 0.11184,-0.66093 0.33556,-0.88465 0.22369,-0.22369 0.51857,-0.33554 0.88465,-0.33556 l 0.76263,0 c 0.40672,2e-5 0.61009,0.20339 0.6101,0.61011 -10e-6,2e-5 -10e-6,6.5078 0,19.52335 -10e-6,0.36607 -0.11186,0.66095 -0.33555,0.88466 -0.22372,0.2237 -0.51861,0.33555 -0.88466,0.33555 l -0.76263,0 m -6.86368,-10.12774 c 0,10e-6 0,2.46077 0,7.38227 0,0.20337 0.10168,0.30506 0.30505,0.30505 0,10e-6 1.47442,10e-6 4.42327,0 0.40672,10e-6 0.61009,0.20337 0.6101,0.61011 -1e-5,0 -1e-5,0.20337 0,0.6101 -1e-5,0.36607 -0.11186,0.66095 -0.33556,0.88466 -0.22371,0.2237 -0.5186,0.33555 -0.88465,0.33555 l -4.27073,0 c -0.73213,0 -1.3219,-0.2237 -1.76931,-0.67111 -0.44741,-0.44741 -0.67112,-1.03718 -0.67111,-1.76931 l 0,-7.07721 c -10e-6,-0.36606 0.11185,-0.66094 0.33555,-0.88466 0.22371,-0.22369 0.51859,-0.33554 0.88466,-0.33555 l 0.76263,0 c 0.40673,1e-5 0.6101,0.20338 0.6101,0.6101 m 4.72832,-0.85414 c -10e-6,1e-5 -1.2914,1e-5 -3.87417,0 -0.40674,1e-5 -0.61011,-0.20336 -0.61011,-0.61011 0,1e-5 0,-0.20336 0,-0.6101 0,-0.36606 0.11185,-0.66094 0.33556,-0.88466 0.2237,-0.22369 0.51859,-0.33554 0.88465,-0.33555 l 2.65396,0 c 0.36605,1e-5 0.66094,0.11186 0.88465,0.33555 0.2237,0.22372 0.33555,0.5186 0.33556,0.88466 l 0,0.6101 c -1e-5,0.40675 -0.20338,0.61012 -0.6101,0.61011"
         style="font-size:30.50524711999999994px;font-variant:normal;font-stretch:normal;text-align:start;line-height:100%;writing-mode:lr-tb;text-anchor:start;fill:#000000;font-family:mm stenxil;-inkscape-font-specification:mm stenxil Medium"
         id="path5632" />
      <path
         d="m 396.0417,408.73394 c -0.40674,10e-6 -0.61011,-0.20336 -0.6101,-0.61011 -10e-6,10e-6 -10e-6,-0.20336 0,-0.6101 -10e-6,-0.36606 0.11185,-0.66094 0.33556,-0.88465 0.2237,-0.2237 0.51858,-0.33555 0.88465,-0.33556 l 1.86082,0 c 0.40673,10e-6 0.61009,0.20338 0.6101,0.6101 l 0,0.61011 c -10e-6,0.36607 -0.11186,0.66095 -0.33555,0.88465 -0.22372,0.22371 -0.5186,0.33557 -0.88466,0.33556 l -1.86082,0 m -1.52526,-4.6368 0,7.38227 c 0,0.20337 0.10168,0.30506 0.30505,0.30505 0,10e-6 1.98284,10e-6 5.94853,0 0.40672,10e-6 0.61009,0.20337 0.6101,0.61011 -10e-6,0 -10e-6,0.20337 0,0.6101 -10e-6,0.36607 -0.11186,0.66095 -0.33556,0.88466 -0.22371,0.2237 -0.5186,0.33555 -0.88465,0.33555 l -5.796,0 c -0.73212,0 -1.32189,-0.2237 -1.7693,-0.67111 -0.44741,-0.44741 -0.67112,-1.03718 -0.67111,-1.76931 l 0,-7.07721 c -10e-6,-0.36606 0.11185,-0.66094 0.33555,-0.88466 0.22371,-0.22369 0.51859,-0.33554 0.88466,-0.33555 l 0.76263,0 c 0.40673,1e-5 0.6101,0.20338 0.6101,0.6101 m 4.88084,1.34223 c -1e-5,1e-5 -1e-5,-0.63043 0,-1.89132 -1e-5,-0.20336 -0.10169,-0.30504 -0.30505,-0.30505 -10e-6,1e-5 -1.24056,1e-5 -3.72164,0 -0.40674,1e-5 -0.61011,-0.20336 -0.61011,-0.61011 0,1e-5 0,-0.20336 0,-0.6101 0,-0.36606 0.11185,-0.66094 0.33556,-0.88466 0.2237,-0.22369 0.51858,-0.33554 0.88465,-0.33555 l 3.56912,0 c 0.73211,1e-5 1.32188,0.22371 1.7693,0.67111 0.4474,0.44742 0.6711,1.03719 0.67112,1.76931 l 0,1.58627 c -2e-5,0.36607 -0.11187,0.66095 -0.33556,0.88465 -0.22372,0.22371 -0.5186,0.33557 -0.88465,0.33556 l -0.76263,0 c -0.40675,10e-6 -0.61012,-0.20336 -0.61011,-0.61011"
         style="font-size:30.50524711999999994px;font-variant:normal;font-stretch:normal;text-align:start;line-height:100%;writing-mode:lr-tb;text-anchor:start;fill:#000000;font-family:mm stenxil;-inkscape-font-specification:mm stenxil Medium"
         id="path5634" />
      <path
         d="m 412.29194,414.22488 -5.09437,0 c -0.40674,0 -0.61011,-0.20336 -0.61011,-0.6101 l 0,-0.61011 c 0,-0.36606 0.11185,-0.66094 0.33556,-0.88465 0.2237,-0.2237 0.51859,-0.33555 0.88465,-0.33556 l 5.09438,0 c 0.40673,10e-6 0.6101,0.20337 0.6101,0.61011 l 0,0.6101 c 0,0.36607 -0.11186,0.66095 -0.33555,0.88466 -0.22372,0.2237 -0.5186,0.33555 -0.88466,0.33555 m -6.00953,-8.08389 0,-1.43374 c 0,-0.36606 0.11185,-0.66094 0.33556,-0.88466 0.2237,-0.22369 0.51858,-0.33554 0.88465,-0.33555 l 0.76263,0 c 0.40673,1e-5 0.6101,0.20338 0.61011,0.6101 l 0,1.7388 c -10e-6,0.20338 0.10168,0.30506 0.30505,0.30505 l 4.72831,0 c 0.73212,1e-5 1.32189,0.22372 1.76931,0.67112 0.4474,0.44742 0.6711,1.03718 0.67111,1.7693 l 0,1.7388 c -10e-6,0.36607 -0.11186,0.66095 -0.33556,0.88465 -0.22371,0.22371 -0.5186,0.33556 -0.88465,0.33556 l -0.76263,0 c -0.40675,0 -0.61011,-0.20336 -0.6101,-0.6101 l 0,-2.04385 c -10e-6,-0.20337 -0.1017,-0.30505 -0.30506,-0.30506 l -4.72831,0 c -0.73213,10e-6 -1.3219,-0.2237 -1.7693,-0.67111 -0.44742,-0.44741 -0.67112,-1.03717 -0.67112,-1.76931 m 7.62631,-2.89799 -4.17922,0 c -0.40674,1e-5 -0.61011,-0.20336 -0.6101,-0.61011 l 0,-0.6101 c -10e-6,-0.36606 0.11185,-0.66094 0.33556,-0.88466 0.2237,-0.22369 0.51858,-0.33554 0.88465,-0.33555 l 4.17922,0 c 0.40672,1e-5 0.61009,0.20338 0.6101,0.6101 l 0,0.61011 c -1e-5,0.36607 -0.11186,0.66095 -0.33556,0.88465 -0.22371,0.22371 -0.51859,0.33557 -0.88465,0.33556"
         style="font-size:30.50524711999999994px;font-variant:normal;font-stretch:normal;text-align:start;line-height:100%;writing-mode:lr-tb;text-anchor:start;fill:#000000;font-family:mm stenxil;-inkscape-font-specification:mm stenxil Medium"
         id="path5636" />
      <path
         d="m 421.07269,398.36216 c -0.40674,10e-6 -0.61011,-0.20336 -0.6101,-0.61011 -10e-6,2e-5 -10e-6,-0.30504 0,-0.91516 -10e-6,-0.36604 0.11185,-0.66093 0.33555,-0.88465 0.22371,-0.22369 0.51859,-0.33554 0.88466,-0.33556 l 0.76263,0 c 0.40673,2e-5 0.6101,0.20339 0.6101,0.61011 0,2e-5 0,0.30507 0,0.91516 0,0.36608 -0.11185,0.66096 -0.33556,0.88465 -0.2237,0.22372 -0.51859,0.33557 -0.88465,0.33556 l -0.76263,0 m 0,15.86272 c -0.40674,0 -0.61011,-0.20336 -0.6101,-0.6101 -10e-6,0 -10e-6,-3.86399 0,-11.59199 -10e-6,-0.36606 0.11185,-0.66094 0.33555,-0.88466 0.22371,-0.22369 0.51859,-0.33554 0.88466,-0.33555 l 0.76263,0 c 0.40673,1e-5 0.6101,0.20338 0.6101,0.6101 0,10e-6 0,3.86401 0,11.59199 0,0.36607 -0.11185,0.66095 -0.33556,0.88466 -0.2237,0.2237 -0.51859,0.33555 -0.88465,0.33555 l -0.76263,0"
         style="font-size:30.50524711999999994px;font-variant:normal;font-stretch:normal;text-align:start;line-height:100%;writing-mode:lr-tb;text-anchor:start;fill:#000000;font-family:mm stenxil;-inkscape-font-specification:mm stenxil Medium"
         id="path5638" />
      <path
         d="m 438.93256,402.02279 c -2e-5,1e-5 -2e-5,4.79949 0,14.39847 -2e-5,0.36606 -0.11187,0.66095 -0.33556,0.88465 -0.22372,0.22371 -0.5186,0.33556 -0.88465,0.33556 l -0.76263,0 c -0.40675,0 -0.61012,-0.20337 -0.61011,-0.6101 -10e-6,-10e-6 -10e-6,-5.20623 0,-15.61869 -10e-6,-0.40672 0.20336,-0.61009 0.61011,-0.6101 -2e-5,1e-5 0.25419,1e-5 0.76263,0 0.36605,1e-5 0.66093,0.11186 0.88465,0.33555 0.22369,0.22372 0.33554,0.5186 0.33556,0.88466 m -4.0572,18.30314 -6.16206,0 c -0.40674,0 -0.61011,-0.20337 -0.61011,-0.6101 0,-10e-6 0,-0.20338 0,-0.61011 0,-0.36606 0.11185,-0.66095 0.33556,-0.88465 0.2237,-0.22371 0.51859,-0.33556 0.88465,-0.33556 l 6.16206,0 c 0.40673,0 0.6101,0.20337 0.61011,0.61011 -1e-5,-10e-6 -1e-5,0.20336 0,0.6101 -1e-5,0.36606 -0.11186,0.66095 -0.33556,0.88466 -0.22371,0.22369 -0.5186,0.33555 -0.88465,0.33555 m -4.78933,-16.22879 0,7.38227 c 0,0.20337 0.10168,0.30506 0.30506,0.30505 -1e-5,10e-6 1.47441,10e-6 4.42326,0 0.40673,10e-6 0.61009,0.20337 0.6101,0.61011 -10e-6,0 -10e-6,0.20337 0,0.6101 -10e-6,0.36607 -0.11186,0.66095 -0.33555,0.88466 -0.22372,0.2237 -0.5186,0.33555 -0.88466,0.33555 l -4.27073,0 c -0.73213,0 -1.3219,-0.2237 -1.76931,-0.67111 -0.44741,-0.44741 -0.67111,-1.03718 -0.67111,-1.76931 l 0,-7.07721 c 0,-0.36606 0.11185,-0.66094 0.33556,-0.88466 0.2237,-0.22369 0.51858,-0.33554 0.88465,-0.33555 l 0.76263,0 c 0.40673,1e-5 0.6101,0.20338 0.6101,0.6101 m 4.72832,-0.85414 c -10e-6,1e-5 -1.2914,1e-5 -3.87417,0 -0.40674,1e-5 -0.61011,-0.20336 -0.6101,-0.61011 -1e-5,1e-5 -1e-5,-0.20336 0,-0.6101 -1e-5,-0.36606 0.11184,-0.66094 0.33555,-0.88466 0.2237,-0.22369 0.51859,-0.33554 0.88466,-0.33555 l 2.65395,0 c 0.36606,1e-5 0.66094,0.11186 0.88466,0.33555 0.22369,0.22372 0.33554,0.5186 0.33555,0.88466 l 0,0.6101 c -10e-6,0.40675 -0.20337,0.61012 -0.6101,0.61011"
         style="font-size:30.50524711999999994px;font-variant:normal;font-stretch:normal;text-align:start;line-height:100%;writing-mode:lr-tb;text-anchor:start;fill:#000000;font-family:mm stenxil;-inkscape-font-specification:mm stenxil Medium"
         id="path5640" />
      <path
         d="m 452.03551,413.61478 c -10e-6,0 -10e-6,-3.35557 0,-10.06673 -10e-6,-0.20336 -0.10169,-0.30504 -0.30505,-0.30505 -10e-6,1e-5 -1.42359,1e-5 -4.27074,0 -0.40674,1e-5 -0.61011,-0.20336 -0.6101,-0.61011 -1e-5,1e-5 -1e-5,-0.20336 0,-0.6101 -1e-5,-0.36606 0.11185,-0.66094 0.33556,-0.88466 0.2237,-0.22369 0.51858,-0.33554 0.88465,-0.33555 l 4.11821,0 c 0.73211,1e-5 1.32188,0.22371 1.7693,0.67111 0.4474,0.44742 0.6711,1.03719 0.67112,1.76931 l 0,9.76167 c -2e-5,0.36607 -0.11187,0.66095 -0.33556,0.88466 -0.22372,0.2237 -0.5186,0.33555 -0.88465,0.33555 l -0.76263,0 c -0.40675,0 -0.61012,-0.20336 -0.61011,-0.6101 m -8.08389,0.6101 c -0.40674,0 -0.61011,-0.20336 -0.6101,-0.6101 -10e-6,0 -10e-6,-3.86399 0,-11.59199 -10e-6,-0.36606 0.11185,-0.66094 0.33555,-0.88466 0.22371,-0.22369 0.51859,-0.33554 0.88466,-0.33555 l 0.76263,0 c 0.40673,1e-5 0.6101,0.20338 0.6101,0.6101 0,10e-6 0,3.86401 0,11.59199 0,0.36607 -0.11186,0.66095 -0.33556,0.88466 -0.22371,0.2237 -0.51859,0.33555 -0.88465,0.33555 l -0.76263,0"
         style="font-size:30.50524711999999994px;font-variant:normal;font-stretch:normal;text-align:start;line-height:100%;writing-mode:lr-tb;text-anchor:start;fill:#000000;font-family:mm stenxil;-inkscape-font-specification:mm stenxil Medium"
         id="path5642" />
    </g>
  </g>
</svg>
