<svg id="Layer_1" data-name="Layer 1" xmlns="http://www.w3.org/2000/svg" viewBox="0 0 301.081 53.911"><defs><style>.cls-1{fill:#34445e;}.cls-1,.cls-2,.cls-3,.cls-4{fill-rule:evenodd;}.cls-2{fill:#229689;}.cls-3{fill:#3eab9d;}.cls-4{fill:#6ec0b4;}</style></defs><title>logo-legalstart</title><path class="cls-1" d="M391.621,183.133a.807.807,0,0,0-.83-.83h-4.819a.826.826,0,0,0-.83.83c0,1.752,0,2.989,0,4.741a.827.827,0,0,0,.83.831h4.819a.808.808,0,0,0,.83-.831v-4.741Zm-178.635,1.358h-.013c-2.986.271-5.986.459-8.992.459-4.72,0-7.22-3.013-7.22-7.589v-1.07l17.449-.014h.048a.7.7,0,0,0,.7-.7v-.016h0V171.7c0-7.965-3.309-12.445-11.6-12.445-7.968,0-11.708,4.744-11.708,12.445v5.141c0,3.732,1.022,7.366,4.046,9.769a12.6,12.6,0,0,0,7.767,2.518,53.717,53.717,0,0,0,9.827-.842h.006a.7.7,0,0,0,.556-.682.792.792,0,0,0,0-.085l-.1-2.374h0a.7.7,0,0,0-.694-.65h-.059Zm68.643.678H279.3c-3.442,0-3.607-1.678-3.607-4.605V153.358a.7.7,0,0,0-.844-.679l-3.762.82a.7.7,0,0,0-.576.7c.008,9.325,0,17.04,0,26.361,0,5.886,1.09,7.868,7.144,8.015a18.951,18.951,0,0,0,4.281-.332.482.482,0,0,0,.395-.473v-1.909a.7.7,0,0,0-.7-.7Zm-92.668.113h-2.333c-3.441,0-3.606-1.678-3.606-4.606v-27.2a.7.7,0,0,0-.844-.68l-3.761.82a.7.7,0,0,0-.576.7c.008,9.326,0,17.04,0,26.361,0,5.886,1.089,7.868,7.144,8.015a18.96,18.96,0,0,0,4.281-.332.482.482,0,0,0,.4-.473v-1.909a.7.7,0,0,0-.7-.695Zm50.331-21.992h11.5l3.654-.015c3.6-.013,5.541.795,5.541,4.763v4.819h-4.225c-5.851,0-11.919,1.022-11.919,8.186,0,5.5,2.713,8.08,8.187,8.08,2.9,0,5.164-1.1,7.571-2.565l1.611,1.739a1.048,1.048,0,0,0,.828.4h2.369a.7.7,0,0,0,.7-.676V168.038c0-6.825-4.529-8.778-10.658-8.778l-5.989.01H229.63c-5.82,0-11.6,1.99-11.6,8.764v1.96a7.286,7.286,0,0,0,1.9,5.519l.741.764-.871.616a4.235,4.235,0,0,0-1.718,3.514,5.193,5.193,0,0,0,2,4.16l.885.664-.821.741a6.987,6.987,0,0,0-2.382,5.109v.472c0,6.542,6.946,7.819,12.13,7.819,5.077,0,11.972-.773,11.972-7.344a5.78,5.78,0,0,0-.976-3.755c-1.844-2.449-7.231-3.459-10.1-4.141l-6.188-1.468c-1.461-.318-2.507-.991-2.507-2.626,0-1.192.812-1.8,1.7-2.39a14.758,14.758,0,0,0,5.837,1.006c5.941,0,11.552-1.642,11.552-8.66v-1.96c0-2.207-.725-3.076-1.89-4.744Zm-3.124,6.862c0,4.128-3,5.066-6.538,5.066-3.423,0-6.59-1.057-6.59-5.066v-2.014c0-4.076,2.96-5.38,6.59-5.38,3.695,0,6.538,1.246,6.538,5.38v2.014Zm.579,21.876c0,3.828-4.026,3.908-6.854,3.908-3.06,0-7.169-.378-7.169-4.383v-.472c0-2.2.634-3.013,1.84-4.708l5.274,1.245a26.767,26.767,0,0,1,4.953,1.492,3,3,0,0,1,1.879,1.874,2.7,2.7,0,0,1,.077.676v.368Zm16.967-6.6c-3.209,0-4.7-1.049-4.7-4.38,0-4.507,2.812-5.382,6.749-5.382h4.225v7.918a12.68,12.68,0,0,1-6.277,1.844Zm-43.93-12.251H196.812V170.8c0-4.306,1.924-7.381,6.539-7.381,4.737,0,6.433,3.013,6.433,7.381v2.371Zm99.862-14.542,0-4.146a.809.809,0,0,1,.656-.791l5.813-1.267c.055-.012-.075-.018.167-.018a.926.926,0,0,1,.773.773c0,1.819-.009,3.64-.009,5.46h4.98a.828.828,0,0,1,.8.908l0,3.061a.809.809,0,0,1-.777.874l-5,.741v16.337c0,1.738-.108,2.741,1.849,2.741h3.131a.811.811,0,0,1,.8.809l0,3.7a.812.812,0,0,1-.625.788,18.629,18.629,0,0,1-4,.531c-6.533,0-8.563-1.85-8.563-8.564V164.135l-14.221,0c-1.666,0-3.284.357-3.284,2.312,0,.877,1.345,1.571,1.987,1.963l6.822,4.167c3.29,2.01,5.1,4.169,5.1,8.088,0,5.9-5.2,8.033-10.407,8.033l-9.725,0a.854.854,0,0,1-.793-.9V184a.813.813,0,0,1,.809-.789c3.079.013,6.168.011,9.248.011,1.938,0,3.483-.365,3.483-2.555,0-1.2-1.3-1.934-2.195-2.484l-7.134-4.374a8.787,8.787,0,0,1-4.471-7.36c0-6.2,4.619-7.819,10.1-7.819l14.687,0Zm90.3,6.106h4.034a.81.81,0,0,1,.81.783l0,1.983a.79.79,0,0,1-.54.766c-.089,0-3.851.868-4.306.969V187.9a.81.81,0,0,1-.809.81H394.86a.809.809,0,0,1-.83-.806c-.009-.009,0-22.871,0-25.007,0-5.166,2.491-6.555,7.361-6.555q1.313,0,2.624.007a.937.937,0,0,1,.907.8v2.631a.81.81,0,0,1-.81.809h-1.9c-1.913,0-2.261.4-2.261,2.3v1.844Zm-23.126-6.095h4.53a1.261,1.261,0,0,1,1.254,1.254v2.33c0,.7-.189,1.149-1.024,1.274l-4.76.726v16.337c0,.55-.062,2.058.387,2.465a2.525,2.525,0,0,0,1.461.276h2.786c.646,0,1.309.248,1.309.993v3.312c0,.722-.511,1.04-1.169,1.147a22.582,22.582,0,0,1-3.611.371c-6.533,0-8.562-1.85-8.562-8.564v-25.69a1.32,1.32,0,0,1,1.209-1.25l4.227-1.021c.562-.136,1.224-.352,1.7.126a.98.98,0,0,1,.265.7v5.213Zm34.755,12.214v17.053a.875.875,0,0,1-.953.8h-4.1a.81.81,0,0,1-.809-.81V171.434c0-2.172-.11-3.661,2.086-4.719a24.082,24.082,0,0,1,9.114-1.946c.124-.007.251-.018.374-.019a.809.809,0,0,1,.809.809l0,2.916a.81.81,0,0,1-.693.8,19.971,19.971,0,0,0-5.838,1.579Zm-52.728-4.677v21.7a.809.809,0,0,1-.83.831h-5.686a1.042,1.042,0,0,1-.176-.012.727.727,0,0,1-.654-.819l0-23.471c0-2.546,1.3-3.488,3.311-4.178a35.983,35.983,0,0,1,11.535-1.724.808.808,0,0,1,.809.809v4.15a.809.809,0,0,1-.716.825,25.327,25.327,0,0,0-7.594,1.893ZM341,186.867a14.4,14.4,0,0,1-7.379,2.259c-5.772,0-9.3-2.859-9.3-8.986,0-8.06,6.306-9.51,13.034-9.51h3.109v-2.111c0-3.306-1.463-3.647-4.425-3.647-3.032,0-6.065.017-9.1.012a.809.809,0,0,1-.883-.8l0-4.616a.808.808,0,0,1,.831-.808c2.941-.006,6.206,0,9.146,0,6.816,0,11.778,2.43,11.778,9.867v19.4a.813.813,0,0,1-.788.788h-3.353a1.317,1.317,0,0,1-.944-.382L341,186.867Zm-.537-5.058v-6.145h-3.109c-1.575,0-4.007.113-5.01,1.562a4.779,4.779,0,0,0-.623,2.706c0,2.7,1.011,3.265,3.582,3.265A11.238,11.238,0,0,0,340.467,181.809Z" transform="translate(-117.027 -145.974)"/><path class="cls-2" d="M118.391,166.506h0l.034.008L131.71,169.4v7.052l-13.29,2.9,0,0a1.156,1.156,0,0,1-.251.027,1.138,1.138,0,0,1-1.137-1.086h0V167.66h0v-.036a1.14,1.14,0,0,1,1.139-1.139A1.192,1.192,0,0,1,118.391,166.506Z" transform="translate(-117.027 -145.974)"/><path class="cls-3" d="M146.392,159.149V166.2l-14.682,3.2v-12a1.14,1.14,0,0,1,1.362-1.152Z" transform="translate(-117.027 -145.974)"/><path class="cls-3" d="M146.392,186.709v-7.054l-14.682-3.2v12a1.14,1.14,0,0,0,1.362,1.153Z" transform="translate(-117.027 -145.974)"/><path class="cls-4" d="M161.074,149.85v5.177a1.14,1.14,0,0,1-.888,1.109v0l-13.793,3.011v-12A1.14,1.14,0,0,1,147.754,146l12.426,2.7,0,0a1.14,1.14,0,0,1,.892,1.112v.036Z" transform="translate(-117.027 -145.974)"/><path class="cls-4" d="M161.074,196.009v-5.176h0a1.139,1.139,0,0,0-.888-1.109v0l-13.793-3.011v12a1.14,1.14,0,0,0,1.362,1.153l12.426-2.7,0,0a1.14,1.14,0,0,0,.892-1.112v-.036Z" transform="translate(-117.027 -145.974)"/><path class="cls-4" d="M161.073,170.357v5.178a1.14,1.14,0,0,1-.888,1.109v0l-13.793,3.011V166.2l13.787,3,0,0a1.139,1.139,0,0,1,.892,1.112v.036Z" transform="translate(-117.027 -145.974)"/></svg>