<?xml version="1.0" encoding="utf-8"?>
<!-- Generator: Adobe Illustrator 16.0.0, SVG Export Plug-In . SVG Version: 6.00 Build 0)  -->
<!DOCTYPE svg PUBLIC "-//W3C//DTD SVG 1.1//EN" "http://www.w3.org/Graphics/SVG/1.1/DTD/svg11.dtd">
<svg version="1.1" id="Calque_1" xmlns="http://www.w3.org/2000/svg" xmlns:xlink="http://www.w3.org/1999/xlink" x="0px" y="0px"
	 width="70px" height="73px" viewBox="0 0 70 73" enable-background="new 0 0 70 73" xml:space="preserve">
<g>
	<g>
		<g>
			<path fill="#012B75" d="M22.427,68.997v-5.469c0-1.002-0.16-1.703-0.479-2.104s-0.852-0.602-1.6-0.602
				c-0.402,0-0.824,0.115-1.262,0.342c-0.441,0.229-0.777,0.51-1.014,0.844v6.988h-1.762v-9.402h1.205l0.557,1.211
				c0.582-0.926,1.531-1.387,2.85-1.387c2.176,0,3.266,1.252,3.266,3.758v5.82H22.427z"/>
			<path fill="#012B75" d="M35.062,64.458h-7.162c0,1.102,0.318,1.947,0.955,2.539c0.564,0.514,1.287,0.771,2.172,0.771
				c1.006,0,1.85-0.279,2.523-0.834l0.742,1.203c-0.273,0.258-0.689,0.479-1.254,0.666c-0.705,0.246-1.49,0.369-2.355,0.369
				c-1.25,0-2.311-0.4-3.182-1.203c-0.973-0.885-1.457-2.07-1.457-3.564c0-1.551,0.498-2.793,1.494-3.73
				c0.891-0.838,1.945-1.256,3.162-1.256c1.418,0,2.527,0.377,3.332,1.133c0.779,0.725,1.17,1.688,1.17,2.889
				C35.202,63.81,35.155,64.147,35.062,64.458z M30.784,60.823c-0.785,0-1.443,0.24-1.977,0.719
				c-0.506,0.459-0.795,1.025-0.863,1.705h5.504c0-0.674-0.225-1.236-0.668-1.686C32.292,61.071,31.626,60.823,30.784,60.823z"/>
			<path fill="#012B75" d="M37.687,60.911h-1.15v-1.316h1.15v-1.969l1.764-0.639v2.607h2.727v1.316H39.45v4.672
				c0,0.789,0.141,1.352,0.422,1.686c0.281,0.332,0.734,0.5,1.359,0.5c0.451,0,0.918-0.109,1.4-0.326l0.262,1.467
				c-0.73,0.176-1.533,0.264-2.404,0.264c-0.787,0-1.449-0.275-1.99-0.83c-0.541-0.553-0.813-1.25-0.813-2.094V60.911z"/>
			<path fill="#012B75" d="M44.813,64.556v-1.537h3.969v1.537H44.813z"/>
			<path fill="#012B75" d="M57.681,68.997v-5.469c0-1.002-0.16-1.703-0.479-2.104s-0.852-0.602-1.6-0.602
				c-0.402,0-0.824,0.115-1.262,0.342c-0.439,0.229-0.777,0.51-1.012,0.844v6.988h-1.762v-9.402h1.205l0.557,1.211
				c0.582-0.926,1.531-1.387,2.848-1.387c2.178,0,3.266,1.252,3.266,3.758v5.82H57.681z"/>
			<path fill="#012B75" d="M61.587,71.571l0.955-1.336c1.025,0.65,1.973,0.975,2.838,0.975c0.799,0,1.428-0.129,1.889-0.389
				c0.461-0.262,0.691-0.586,0.691-0.973c0-0.76-0.58-1.141-1.744-1.141c-0.197,0-0.557,0.047-1.076,0.141s-0.924,0.141-1.217,0.141
				c-1.408,0-2.113-0.504-2.113-1.512c0-0.311,0.164-0.59,0.496-0.842c0.33-0.252,0.74-0.434,1.229-0.545
				c-1.396-0.619-2.096-1.697-2.096-3.229c0-0.986,0.361-1.805,1.086-2.461c0.723-0.654,1.617-0.982,2.68-0.982
				c0.979,0,1.742,0.189,2.291,0.57l0.883-1l1.15,1.027l-1.057,0.754c0.449,0.557,0.676,1.281,0.676,2.178
				c0,0.949-0.313,1.744-0.936,2.387c-0.627,0.645-1.445,1.014-2.461,1.107l-1.455,0.141c-0.174,0.018-0.406,0.08-0.697,0.189
				c-0.289,0.107-0.436,0.25-0.436,0.426c0,0.24,0.303,0.359,0.91,0.359c0.266,0,0.68-0.045,1.242-0.137
				c0.563-0.09,0.982-0.135,1.252-0.135c0.979,0,1.742,0.221,2.287,0.662c0.547,0.441,0.822,1.055,0.822,1.84
				c0,0.867-0.41,1.564-1.23,2.098c-0.818,0.533-1.855,0.799-3.111,0.799c-0.645,0-1.32-0.107-2.033-0.322
				C62.593,72.144,62.019,71.88,61.587,71.571z M65.325,60.761c-0.611,0-1.111,0.207-1.5,0.615c-0.385,0.41-0.578,0.908-0.578,1.492
				c0,0.656,0.188,1.199,0.563,1.629c0.373,0.432,0.879,0.646,1.516,0.646c0.625,0,1.113-0.209,1.467-0.629
				c0.352-0.418,0.529-0.967,0.529-1.646c0-0.584-0.191-1.082-0.572-1.492C66.368,60.968,65.896,60.761,65.325,60.761z"/>
		</g>
	</g>
	<g>
		<path fill="none" d="M46.579,18.982c-2.699-2.648-6.385-3.973-11.055-3.973c-4.865,0-8.545,1.389-11.037,4.164l-1.686-3.469H16.2
			v37.164h9.166V26.009c0.855-1.061,2.049-1.953,3.576-2.67c1.527-0.719,2.965-1.076,4.309-1.076c2.908,0,5.006,0.729,6.289,2.186
			s1.926,3.771,1.926,6.941v21.478h9.166V30.072C50.632,25.328,49.28,21.632,46.579,18.982z"/>
		<path fill="#012B75" d="M39.54,24.449c-1.283-1.457-3.381-2.186-6.289-2.186c-1.344,0-2.781,0.357-4.309,1.076
			c-1.527,0.717-2.721,1.609-3.576,2.67v26.859h16.1V31.39C41.466,28.22,40.823,25.906,39.54,24.449z"/>
		<path fill="#012B75" d="M33.505,0.316c-18.322,0-33.182,14.055-33.182,31.4c0,8.152,3.273,15.564,8.643,21.152H16.2V15.705h6.602
			l1.686,3.469c2.492-2.775,6.172-4.164,11.037-4.164c4.67,0,8.355,1.324,11.055,3.973c2.701,2.65,4.053,6.346,4.053,11.09v22.796
			h7.422c5.373-5.588,8.641-13,8.641-21.152C66.694,14.371,51.835,0.316,33.505,0.316z"/>
	</g>
</g>
</svg>
