<svg xmlns="http://www.w3.org/2000/svg" width="99.5mm" height="66mm" viewBox="0 0 99.5 66"><g transform="translate(-196.302 -477.823) scale(1.12193)"><rect width="58.496" height="10.936" x="186.846" y="466.426" ry="5.468" fill="#444" paint-order="fill markers stroke"/><rect ry="5.468" y="447.834" x="193.319" height="10.936" width="58.496" fill="#444" paint-order="fill markers stroke"/><path d="M192.315 429.243h47.56a5.456 5.456 0 0 1 5.468 5.468 5.456 5.456 0 0 1-5.468 5.468h-47.56a5.456 5.456 0 0 1-5.469-5.468 5.456 5.456 0 0 1 5.469-5.468z" fill="#444" paint-order="fill markers stroke"/><path d="M186.931 445.49l-.123-10.168 11.915-.301zm0 36.915l-.123-10.168 11.915-.302zm64.63-19.14l.131-10.168-12.641-.302z" fill="#444" paint-order="fill markers stroke"/><path d="M199.735 433.474a1.01 1.01 0 0 0-1.011 1.012c0 .56.45 1.012 1.011 1.012h30.732a1.01 1.01 0 0 0 1.012-1.012 1.01 1.01 0 0 0-1.012-1.012zm34.851 0a1.01 1.01 0 0 0-1.011 1.012c0 .56.45 1.012 1.011 1.012h4.05a1.01 1.01 0 0 0 1.011-1.012 1.01 1.01 0 0 0-1.012-1.012z" fill="#fff" paint-order="fill markers stroke"/><g transform="translate(60.34 170.068) scale(.73812)" fill="#fff"><rect width="44.377" height="2.742" x="187.482" y="407.445" ry="1.371" paint-order="fill markers stroke"/><rect ry="1.371" y="407.445" x="234.698" height="2.742" width="8.227" paint-order="fill markers stroke"/></g><g transform="matrix(-.74677 0 0 .7386 379.653 151.183)" fill="#fff"><rect ry="1.371" y="407.445" x="187.482" height="2.742" width="44.377" paint-order="fill markers stroke"/><rect width="8.227" height="2.742" x="234.698" y="407.445" ry="1.371" paint-order="fill markers stroke"/></g></g></svg>