<?xml version="1.0" encoding="utf-8"?>
<!-- Generator: Adobe Illustrator 22.1.0, SVG Export Plug-In . SVG Version: 6.00 Build 0)  -->
<svg version="1.1" id="Calque_1" xmlns="http://www.w3.org/2000/svg" xmlns:xlink="http://www.w3.org/1999/xlink" x="0px" y="0px"
	 viewBox="0 0 282 187.1" style="enable-background:new 0 0 282 187.1;" xml:space="preserve">
<style type="text/css">
	.st0{fill:#19181B;}
</style>
<g>
	<g>
		<path class="st0" d="M164.4,123.4c12.9-5.4,23-12.8,30.5-22.1c7.4-9.3,11.2-19.5,11.2-30.5c0-11-3.7-21.2-11.2-30.5
			c-7.4-9.3-17.6-16.7-30.5-22.1c-12.9-5.4-26.9-8.1-42-8.1c-15.1,0-29.1,2.7-42,8.1c-12.9,5.4-23,12.8-30.5,22.1
			c-7.4,9.3-11.2,19.5-11.2,30.5c0,9.4,2.8,18.3,8.4,26.6c5.6,8.3,13.3,15.3,23.2,21c-0.8,1.9-1.6,3.6-2.4,5.2
			c-0.8,1.6-1.8,3.1-3,4.6c-1.1,1.5-2,2.6-2.7,3.4c-0.6,0.8-1.7,2-3.1,3.5c-1.4,1.5-2.3,2.5-2.7,3c0-0.1-0.2,0.1-0.5,0.5
			c-0.3,0.4-0.5,0.6-0.5,0.6c0,0-0.2,0.2-0.5,0.6c-0.3,0.4-0.4,0.7-0.4,0.7l-0.3,0.6c-0.1,0.2-0.2,0.5-0.2,0.7
			c0,0.2-0.1,0.5-0.1,0.8s0,0.5,0.1,0.8c0.2,1,0.6,1.9,1.4,2.5c0.8,0.6,1.6,0.9,2.4,0.9h0.4c4-0.6,7.4-1.2,10.2-1.9
			c12.2-3.2,23.2-8.2,33-15.2c7.1,1.3,14.1,1.9,20.9,1.9C137.5,131.5,151.5,128.8,164.4,123.4z"/>
		<path class="st0" d="M243.2,127.8c5.6-8.3,8.4-17.2,8.4-26.7c0-9.7-3-18.8-8.9-27.3c-5.9-8.5-14-15.5-24.2-21.1
			c1.8,5.9,2.7,12,2.7,18c0,10.6-2.6,20.7-8,30.2c-5.3,9.5-12.9,17.9-22.8,25.2c-9.2,6.6-19.6,11.8-31.3,15.3
			c-11.7,3.6-23.9,5.3-36.7,5.3c-2.4,0-5.9-0.2-10.4-0.5c15.9,10.4,34.6,15.7,56,15.7c6.8,0,13.8-0.6,20.9-1.9
			c9.8,7,20.8,12,33,15.2c2.8,0.7,6.3,1.3,10.2,1.9c0.9,0.1,1.8-0.2,2.6-0.8c0.8-0.6,1.3-1.5,1.5-2.6c0-0.5,0-0.7,0.1-0.8
			c0.1,0,0.1-0.3-0.1-0.8c-0.2-0.5-0.2-0.7-0.2-0.7l-0.3-0.6c-0.1-0.2-0.2-0.4-0.4-0.7c-0.2-0.3-0.4-0.5-0.5-0.6
			c-0.1-0.1-0.3-0.3-0.5-0.6c-0.2-0.3-0.4-0.5-0.5-0.5c-0.4-0.5-1.3-1.5-2.7-3c-1.4-1.5-2.5-2.7-3.1-3.5c-0.6-0.8-1.5-2-2.7-3.4
			c-1.1-1.5-2.1-3-3-4.6c-0.8-1.6-1.6-3.3-2.4-5.2C229.8,143.1,237.5,136.1,243.2,127.8z"/>
	</g>
</g>
</svg>
