<svg xmlns="http://www.w3.org/2000/svg" width="99.5mm" height="66mm" viewBox="0 0 99.5 66"><path style="line-height:normal;font-variant-ligatures:normal;font-variant-position:normal;font-variant-caps:normal;font-variant-numeric:normal;font-variant-alternates:normal;font-feature-settings:normal;text-indent:0;text-align:start;text-decoration-line:none;text-decoration-style:solid;text-decoration-color:#000;text-transform:none;text-orientation:mixed;shape-padding:0;isolation:auto;mix-blend-mode:normal" d="M16.676 26.377l-5.34 4.377 5.26 4.383.99-1.185-3.824-3.186 3.895-3.193zm8.67-.004l-.963 1.207 3.989 3.184-3.916 3.18.972 1.199 5.407-4.389zm-3.379-.128l-3.447 8.443 1.43.584 3.447-8.443z" overflow="visible" color="#000" font-weight="400" font-family="sans-serif" white-space="normal" fill="#444"/><path d="M93.55 43.497L49.055 55.523 5.884 44.082l-1.196 4.57 44.378 11.762 45.656-12.34zM42.602 4.785h14.66V6.52h-14.66zm0 2.666h14.66v1.735h-14.66zm0 2.665h14.66v1.735h-14.66zm0 2.664h14.66v1.736h-14.66zm0 2.654v3.468h14.66v-3.468zm12.5.577a1.157 1.157 0 0 1 .986.636l.016.033a1.157 1.157 0 0 1-.553 1.533 1.157 1.157 0 0 1-1.538-.54 1.157 1.157 0 0 1 .528-1.542 1.157 1.157 0 0 1 .56-.12z" fill="#444" paint-order="fill markers stroke"/><path d="M97.15 46.06a.88.88 0 0 0-.174.03L54.522 57.64a.87.87 0 0 0-.191.08H44.4L2.474 46.798a.867.867 0 0 0-1.06.622l-.991 3.806a.867.867 0 0 0 .621 1.059l41.813 10.893a.861.861 0 0 0 .565.213h.288a.865.865 0 0 0 .279 0h11.68a.868.868 0 0 0 .722-.383L98.465 51.56a.867.867 0 0 0 .61-1.066L98.042 46.7a.867.867 0 0 0-.892-.64z" paint-order="fill markers stroke" fill="#444"/><g style="line-height:1.25;-inkscape-font-specification:'Josefin Sans'"><path d="M79.806 27.95h-2.007l-.73 3.048h2.084v.84h-2.287l-.778 3.22h-.902l.794-3.22h-2.94l-.778 3.22h-.902l.793-3.22h-1.757v-.84h1.96l.73-3.048h-2.022v-.794h2.225l.762-3.142h.902l-.778 3.142h2.94l.762-3.142h.902l-.777 3.142h1.804zm-3.624 3.048l.73-3.048h-2.939l-.731 3.048zm5.641.514v-7.606h1.058v7.606zm0 3.546v-1.742h1.058v1.742z" style="-inkscape-font-specification:Raleway" font-weight="400" font-size="15.554" font-family="Raleway" letter-spacing="0" word-spacing="0" fill="#444" stroke="#444" stroke-width=".801"/></g></svg>