<?xml version="1.0" encoding="utf-8"?>
<!-- Generator: Adobe Illustrator 22.1.0, SVG Export Plug-In . SVG Version: 6.00 Build 0)  -->
<svg version="1.1" id="Calque_1" xmlns="http://www.w3.org/2000/svg" xmlns:xlink="http://www.w3.org/1999/xlink" x="0px" y="0px"
	 viewBox="0 0 282 187.1" style="enable-background:new 0 0 282 187.1;" xml:space="preserve">
<style type="text/css">
	.st0{fill:#19181B;}
</style>
<g>
	<path id="XMLID_49_" class="st0" d="M161.6,160.3v5.2c0,4.2-3,7.6-7,8.2l-1.3,4.7c-0.7,2.6-3,4.4-5.7,4.4h-12.8
		c-2.7,0-5-1.8-5.7-4.4l-1.2-4.7c-4-0.6-7.1-4-7.1-8.2v-5.2c0-2.8,2.2-5,5-5h30.7C159.4,155.3,161.6,157.5,161.6,160.3z M185.2,90
		c0,11.9-4.7,22.6-12.3,30.5c-5.8,6-9.6,13.7-10.8,21.9c-0.6,3.5-3.6,6.1-7.2,6.1h-27.3c-3.6,0-6.7-2.6-7.2-6.1
		c-1.3-8.2-5.1-16-10.9-22c-7.5-7.8-12.2-18.4-12.3-30C97,66,116.5,46.2,140.9,46C165.4,45.8,185.2,65.6,185.2,90z M146.2,63.3
		c0-2.7-2.2-5-5-5c-17.5,0-31.7,14.2-31.7,31.7c0,2.7,2.2,5,5,5c2.7,0,5-2.2,5-5c0-12.1,9.8-21.8,21.8-21.8
		C144,68.3,146.2,66.1,146.2,63.3z M141.2,31.6c2.7,0,5-2.2,5-5V9.2c0-2.7-2.2-5-5-5c-2.8,0-5,2.2-5,5v17.4
		C136.3,29.3,138.5,31.6,141.2,31.6z M82.8,89.9c0-2.7-2.2-5-5-5H60.5c-2.7,0-5,2.2-5,5c0,2.7,2.2,5,5,5h17.4
		C80.6,94.9,82.8,92.7,82.8,89.9z M222,85h-17.4c-2.7,0-5,2.2-5,5c0,2.7,2.2,5,5,5H222c2.7,0,5-2.2,5-5C226.9,87.2,224.7,85,222,85z
		 M93,131.2l-12.3,12.3c-1.9,1.9-1.9,5.1,0,7c1,1,2.2,1.4,3.5,1.4c1.2,0,2.5-0.5,3.5-1.4l12.3-12.3c1.9-1.9,1.9-5.1,0-7
		C98,129.3,94.9,129.3,93,131.2z M186,50.1c1.2,0,2.5-0.5,3.5-1.4l12.3-12.3c1.9-1.9,1.9-5.1,0-7s-5.1-1.9-7,0l-12.3,12.3
		c-1.9,1.9-1.9,5.1,0,7C183.5,49.6,184.7,50.1,186,50.1z M93,48.6c1,1,2.2,1.4,3.5,1.4c1.2,0,2.5-0.5,3.5-1.4c1.9-1.9,1.9-5.1,0-7
		L87.6,29.3c-1.9-1.9-5.1-1.9-7,0s-1.9,5.1,0,7L93,48.6z M189.5,131.2c-1.9-1.9-5.1-1.9-7,0c-1.9,1.9-1.9,5.1,0,7l12.3,12.3
		c1,1,2.2,1.4,3.5,1.4c1.2,0,2.5-0.5,3.5-1.4c1.9-1.9,1.9-5.1,0-7L189.5,131.2z"/>
</g>
</svg>
